<?xml version="1.0" encoding="UTF-8"?>
<svg id="Capa_1" xmlns="http://www.w3.org/2000/svg" xmlns:xlink="http://www.w3.org/1999/xlink" viewBox="0 0 683.33 443.34">
  <defs>
    <style>
      .cls-1, .cls-2, .cls-3, .cls-4 {
        fill: none;
      }

      .cls-5 {
        fill: #fdcf76;
      }

      .cls-6 {
        fill: #4d4d4d;
      }

      .cls-2 {
        opacity: .34;
        stroke: #cacaca;
      }

      .cls-2, .cls-3, .cls-4 {
        stroke-miterlimit: 10;
      }

      .cls-2, .cls-7 {
        isolation: isolate;
      }

      .cls-8 {
        clip-path: url(#clippath-1);
      }

      .cls-9 {
        clip-path: url(#clippath-3);
      }

      .cls-10 {
        clip-path: url(#clippath-4);
      }

      .cls-11 {
        clip-path: url(#clippath-2);
      }

      .cls-12 {
        clip-path: url(#clippath-7);
      }

      .cls-13 {
        clip-path: url(#clippath-6);
      }

      .cls-14 {
        clip-path: url(#clippath-8);
      }

      .cls-15 {
        clip-path: url(#clippath-5);
      }

      .cls-16, .cls-7 {
        fill: #fff;
      }

      .cls-17 {
        fill: #f0f0f0;
      }

      .cls-18 {
        opacity: .2;
      }

      .cls-19 {
        opacity: .1;
      }

      .cls-3 {
        stroke: #c9caca;
      }

      .cls-20 {
        fill: #333;
      }

      .cls-21 {
        fill: #ec2d44;
      }

      .cls-4 {
        stroke: #f3f3f3;
      }

      .cls-22 {
        fill: #1a1a1a;
      }

      .cls-23 {
        clip-path: url(#clippath);
      }

      .cls-24 {
        fill: #cacaca;
      }

      .cls-7 {
        opacity: .63;
      }
    </style>
    <clipPath id="clippath">
      <rect class="cls-1" x="60.01" y="397.9" width="550.35" height="6.29"/>
    </clipPath>
    <clipPath id="clippath-1">
      <rect class="cls-1" x="237.46" y="224.11" width="203.9" height="57.29"/>
    </clipPath>
    <clipPath id="clippath-2">
      <rect class="cls-1" x="223.63" y="301.17" width="203.9" height="57.3"/>
    </clipPath>
    <clipPath id="clippath-3">
      <rect class="cls-1" x="504.37" y="321.71" width="69.38" height="78.24"/>
    </clipPath>
    <clipPath id="clippath-4">
      <rect class="cls-1" x="209.41" y="355.74" width="37.16" height="46.07"/>
    </clipPath>
    <clipPath id="clippath-5">
      <rect class="cls-1" x="523.62" y="422.44" width="108.19" height="4.3"/>
    </clipPath>
    <clipPath id="clippath-6">
      <rect class="cls-1" x="74.27" y="421.21" width="108.19" height="4.3"/>
    </clipPath>
    <clipPath id="clippath-7">
      <rect class="cls-1" x="140.65" y="439.07" width="244.39" height="4.27"/>
    </clipPath>
    <clipPath id="clippath-8">
      <rect class="cls-1" x="93.74" y="323.58" width="69.38" height="78.24"/>
    </clipPath>
  </defs>
  <g id="Grupo_87">
    <path id="Trazado_127-2" class="cls-7" d="M670.29,416.05H13.04c-7.2,0-13.04-5.84-13.04-13.04s5.84-13.04,13.04-13.04h657.25c7.2,0,13.04,5.84,13.04,13.04s-5.84,13.04-13.04,13.04"/>
    <g id="Grupo_60" class="cls-18">
      <g id="Grupo_59">
        <g class="cls-23">
          <g id="Grupo_58">
            <path id="Trazado_128" d="M607.21,404.2H63.15c-1.74,0-3.15-1.41-3.15-3.15s1.41-3.14,3.15-3.14h544.06c1.74,0,3.15,1.41,3.15,3.14s-1.41,3.15-3.15,3.15"/>
          </g>
        </g>
      </g>
    </g>
    <path id="Unión_2" class="cls-2" d="M207.16,341.78h-48.39l8.73,58.19-11.81.3L97,9.17c-.08-.57.31-1.1.88-1.18.05,0,.1-.01.15-.01h9.75c.51,0,.95.38,1.03.89l3.28,21.86h48.39l-3.23-21.56c-.08-.57.31-1.09.88-1.18.05,0,.1-.01.15-.01h9.75c.51,0,.95.38,1.03.89l58.69,391.1-11.81.3-8.78-58.49ZM205.5,330.72l-6.09-40.57h-48.39l6.09,40.57h48.39ZM197.75,279.08l-6.09-40.57h-48.39l6.09,40.57h48.39ZM190,227.45l-6.09-40.57h-48.39l6.09,40.57h48.39ZM182.25,175.81l-5.35-35.66h-48.39l5.35,35.66h48.39ZM175.24,129.09l-6.09-40.57h-48.39l6.09,40.57h48.39ZM167.49,77.45l-5.35-35.65h-48.39l5.35,35.65h48.39Z"/>
    <path id="Unión_1" class="cls-3" d="M98.22,399.97l8.73-58.19h-48.39l-8.78,58.49-11.81-.3L96.67,8.88c.08-.51.51-.89,1.03-.89h9.75c.58,0,1.04.47,1.04,1.04,0,.05,0,.1-.01.15l-3.23,21.55h48.39l3.28-21.86c.07-.51.51-.89,1.03-.89h9.76c.57,0,1.04.47,1.04,1.04,0,.05,0,.1-.01.15l-58.69,391.09-11.81-.3ZM108.61,330.72l6.09-40.57h-48.39l-6.09,40.57h48.39ZM116.36,279.08l6.09-40.57h-48.39l-6.09,40.57h48.39ZM124.11,227.45l6.09-40.57h-48.39l-6.09,40.57h48.39ZM131.86,175.81l5.35-35.66h-48.39l-5.35,35.66h48.39ZM138.87,129.09l6.09-40.57h-48.39l-6.09,40.57h48.39ZM146.62,77.46l5.35-35.66h-48.39l-5.35,35.66h48.39Z"/>
    <path id="Trazado_147" class="cls-16" d="M168.16,9.85h-71.24c-1.64,0-2.97-1.33-2.97-2.97,0-.21.02-.42.07-.62l.76-3.91C95.07.98,96.27,0,97.67,0h71.24c1.64,0,2.97,1.33,2.97,2.97,0,.21-.02.42-.07.62l-.76,3.91c-.29,1.37-1.5,2.34-2.9,2.34"/>
    <path id="Trazado_148" class="cls-6" d="M472.9,354.31l-2.59-12.51-.99-4.81-1.02-4.94-5.82-28.13c-.33-1.6-1.74-2.75-3.38-2.75h-15.7l-2.91-19.76h15.2c1.91,0,3.45-1.55,3.45-3.45,0-.23-.02-.47-.07-.7l-2.59-12.51-.99-4.81-1.01-4.94-5.82-28.13c-.33-1.6-1.74-2.75-3.38-2.75h-13.22l-1.62-10.97c-.08-.51-.51-.89-1.03-.89h-9.76c-.57,0-1.04.47-1.04,1.04,0,.05,0,.1.01.15l1.57,10.66h-132.37l-1.62-10.97c-.08-.51-.51-.89-1.03-.89h-9.75c-.57,0-1.04.47-1.04,1.04,0,.05,0,.1.01.15l1.57,10.66h-17.26c-1.91,0-3.45,1.55-3.45,3.45,0,.24.02.47.07.7l5.35,25.88,2.01,9.73,3.06,14.78c.33,1.6,1.74,2.75,3.38,2.75h15.28l2.91,19.76h-14.79c-1.91,0-3.45,1.55-3.45,3.45,0,.23.02.47.07.7l5.35,25.88,2.01,9.73,3.06,14.78c.33,1.6,1.74,2.75,3.38,2.75h12.81l5.98,40.6c.08.51.51.89,1.03.89h9.75c.57,0,1.04-.47,1.04-1.04,0-.05,0-.1-.01-.15l-5.94-40.3h132.37l5.98,40.6c.07.51.51.89,1.03.89h9.75c.57,0,1.04-.47,1.04-1.04,0-.05,0-.1-.01-.15l-5.94-40.3h17.68c1.91,0,3.45-1.55,3.45-3.45,0-.24-.02-.47-.07-.7M431.54,301.17h-132.37l-2.91-19.76h132.37l2.91,19.76Z"/>
    <path id="Trazado_149" class="cls-24" d="M384.08,399.95h9.75c.52,0,.95-.38,1.03-.89l27.35-185.62c.08-.57-.31-1.1-.88-1.18-.05,0-.1-.01-.15-.01h-9.75c-.52,0-.95.38-1.03.89l-27.35,185.61c-.08.57.31,1.1.88,1.18.05,0,.1.01.15.01"/>
    <path id="Trazado_150" class="cls-24" d="M239.85,399.95h9.75c.52,0,.95-.38,1.03-.89l27.35-185.62c.08-.57-.31-1.1-.88-1.18-.05,0-.1-.01-.15-.01h-9.75c-.52,0-.95.38-1.03.89l-27.35,185.61c-.08.57.31,1.1.88,1.18.05,0,.1.01.15.01"/>
    <path id="Trazado_151" class="cls-17" d="M240.92,281.41h186.57c1.64,0,3.05-1.15,3.38-2.75l10.42-50.39c.39-1.87-.81-3.69-2.68-4.08-.23-.05-.47-.07-.7-.07h-186.57c-1.64,0-3.05,1.15-3.38,2.75l-10.42,50.39c-.39,1.87.82,3.7,2.68,4.08.23.05.46.07.7.07"/>
    <path id="Trazado_152" class="cls-21" d="M266.31,224.11l35.17,57.29h19.68l-35.17-57.29h-19.68Z"/>
    <path id="Trazado_153" class="cls-21" d="M241.12,259.94l13.18,21.47h13.91l-23.58-38.42-3.51,16.95Z"/>
    <path id="Trazado_154" class="cls-21" d="M321.55,224.11l35.17,57.29h13.91l-35.17-57.29h-13.91Z"/>
    <path id="Trazado_155" class="cls-21" d="M362.28,224.11l35.17,57.29h13.91l-35.17-57.29h-13.91Z"/>
    <path id="Trazado_156" class="cls-21" d="M417.5,224.11h-13.91l28.84,46.98,3.51-16.95-18.44-30.03Z"/>
    <path id="Trazado_157" class="cls-17" d="M227.09,358.46h186.57c1.64,0,3.05-1.15,3.38-2.75l10.43-50.39c.39-1.87-.81-3.7-2.68-4.08-.23-.05-.46-.07-.7-.07h-186.57c-1.64,0-3.05,1.15-3.38,2.75l-10.42,50.39c-.39,1.87.82,3.7,2.68,4.08.23.05.46.07.7.07"/>
    <path id="Trazado_158" class="cls-21" d="M252.48,301.17l35.17,57.3h19.68l-35.17-57.3h-19.68Z"/>
    <path id="Trazado_159" class="cls-21" d="M227.29,336.99l13.18,21.47h13.91l-23.58-38.42-3.51,16.95Z"/>
    <path id="Trazado_160" class="cls-21" d="M307.72,301.17l35.17,57.3h13.91l-35.17-57.3h-13.91Z"/>
    <path id="Trazado_161" class="cls-21" d="M348.45,301.17l35.17,57.3h13.91l-35.17-57.3h-13.91Z"/>
    <path id="Trazado_162" class="cls-21" d="M403.67,301.17h-13.91l28.84,46.98,3.51-16.95-18.44-30.03Z"/>
    <g id="Grupo_63" class="cls-19">
      <g id="Grupo_62">
        <g class="cls-8">
          <g id="Grupo_61">
            <path id="Trazado_163" class="cls-20" d="M437.91,224.11h-7.43l-8.14,39.31c-.32,1.52-1.65,2.6-3.2,2.6h-176.44c-1.01,0-1.97-.47-2.58-1.28l-2.59,12.51c-.39,1.87.81,3.69,2.68,4.08.23.05.47.07.7.07h186.57c1.64,0,3.05-1.15,3.38-2.75l10.43-50.39c.39-1.87-.82-3.7-2.68-4.08-.23-.05-.46-.07-.7-.07"/>
          </g>
        </g>
      </g>
    </g>
    <g id="Grupo_66" class="cls-19">
      <g id="Grupo_65">
        <g class="cls-11">
          <g id="Grupo_64">
            <path id="Trazado_164" class="cls-20" d="M424.08,301.17h-7.44l-8.13,39.31c-.31,1.52-1.65,2.61-3.2,2.61h-176.43c-1.01,0-1.97-.47-2.58-1.28l-2.59,12.51c-.39,1.87.81,3.7,2.68,4.08.23.05.46.07.7.07h186.57c1.64,0,3.05-1.15,3.38-2.75l10.42-50.39c.39-1.87-.82-3.7-2.68-4.08-.23-.05-.46-.07-.7-.07"/>
          </g>
        </g>
      </g>
    </g>
    <path id="Trazado_165" class="cls-16" d="M248.53,313.02h9.88c2.18-.07,3.89-1.89,3.82-4.08-.07-2.08-1.74-3.76-3.82-3.82h-9.88c-2.18.07-3.89,1.89-3.82,4.08.07,2.08,1.74,3.76,3.82,3.82"/>
    <path id="Trazado_166" class="cls-16" d="M391.44,335.41h6.59c1.46,0,2.63-1.18,2.63-2.63s-1.18-2.63-2.63-2.63h-6.59c-1.46,0-2.63,1.18-2.63,2.63s1.18,2.63,2.63,2.63"/>
    <path id="Trazado_167" class="cls-16" d="M290.02,235.97h9.88c2.18-.05,3.91-1.86,3.86-4.04-.05-2.11-1.75-3.81-3.86-3.86h-9.88c-2.18.05-3.91,1.86-3.86,4.04.05,2.11,1.75,3.81,3.86,3.86"/>
    <path id="Trazado_168" class="cls-16" d="M266.31,261.65h11.85c2.18.07,4.01-1.64,4.08-3.82s-1.64-4.01-3.82-4.08c-.08,0-.17,0-.25,0h-11.85c-2.18.07-3.89,1.89-3.82,4.08.07,2.08,1.74,3.76,3.82,3.82"/>
    <path id="Trazado_169" class="cls-16" d="M402.64,239.92h11.85c2.18.05,3.99-1.68,4.04-3.86.05-2.18-1.68-3.99-3.86-4.04-.06,0-.12,0-.18,0h-11.85c-2.18-.05-3.99,1.68-4.04,3.86-.05,2.18,1.68,3.99,3.86,4.04.06,0,.12,0,.18,0"/>
    <path id="Unión_3" class="cls-4" d="M486.45,399.95c-.56.04-1.04-.37-1.09-.93v-226.76c-.26-.21-.52-.43-.75-.67l-74.74-74.74c-1.59-1.58-2.48-3.73-2.47-5.97,0-2.24.89-4.39,2.47-5.97L484.61,10.18c1.58-1.59,3.73-2.48,5.97-2.47,2.24,0,4.39.88,5.97,2.47l74.74,74.74c1.59,1.58,2.48,3.73,2.47,5.97,0,2.24-.88,4.39-2.47,5.97l-74.74,74.74c-.24.24-.49.46-.75.67v226.76c-.05.56-.53.97-1.09.93h-8.25ZM485.59,22.19l-62.39,62.39c-2.75,2.75-2.75,7.21,0,9.97l62.39,62.39c1.32,1.33,3.11,2.07,4.99,2.06,1.87,0,3.67-.74,4.98-2.06l62.39-62.39c2.75-2.75,2.75-7.21,0-9.97l-62.39-62.39c-1.32-1.33-3.11-2.07-4.98-2.06-1.87,0-3.67.74-4.99,2.07h0Z"/>
    <path id="Trazado_173" class="cls-21" d="M540.4,322.58c-.23-.67-.97-1.03-1.64-.8-.37.13-.66.42-.79.79l-9.06,25.42h20.32l-8.82-25.41Z"/>
    <path id="Trazado_174" class="cls-21" d="M565.66,395.35l-7.42-21.38h-38.6l-7.62,21.37c-.24.67.11,1.41.78,1.65.14.05.29.07.43.07h51.21c.71,0,1.29-.58,1.29-1.29,0-.14-.02-.29-.07-.42"/>
    <path id="Trazado_175" class="cls-17" d="M549.22,347.98h-20.32l-9.26,25.98h38.6l-9.02-25.98Z"/>
    <path id="Trazado_176" class="cls-21" d="M505.96,399.95h65.99c.93,0,1.69-.76,1.69-1.69v-3.86c0-.93-.76-1.69-1.69-1.69h-65.99c-.93,0-1.69.76-1.69,1.69h0v3.86c0,.93.76,1.69,1.69,1.69h0"/>
    <g id="Grupo_69" class="cls-19">
      <g id="Grupo_68">
        <g class="cls-9">
          <g id="Grupo_67">
            <path id="Trazado_177" class="cls-20" d="M572.19,392.73h-7.31l-6.49-18.77-8.99-25.98-8.79-25.41c-.23-.67-.96-1.03-1.63-.8-.37.13-.66.42-.79.79l-1.18,3.31,20.38,62.53h-42.6l-1.54,4.33h-7.33c-.86,0-1.56.7-1.55,1.56v4.1c0,.86.69,1.56,1.55,1.56h66.27c.86,0,1.56-.7,1.55-1.56v-4.1c0-.86-.69-1.56-1.55-1.56h0"/>
          </g>
        </g>
      </g>
    </g>
    <path id="Trazado_178" class="cls-16" d="M539.19,350.87h2.89c1.2,0,2.17-.97,2.17-2.17s-.97-2.17-2.17-2.17h-2.89c-1.2,0-2.17.97-2.17,2.17s.97,2.17,2.17,2.17h0"/>
    <path id="Trazado_179" class="cls-16" d="M532.7,373.97h-5.77c-.8,0-1.44-.65-1.44-1.44s.65-1.44,1.44-1.44h5.77c.8,0,1.44.65,1.44,1.44s-.65,1.44-1.44,1.44"/>
    <path id="Trazado_180" class="cls-5" d="M546.41,386.96h4.33c1.2,0,2.17-.97,2.17-2.17s-.97-2.17-2.17-2.17h-4.33c-1.2,0-2.17.97-2.17,2.17s.97,2.17,2.17,2.17h0"/>
    <path id="Trazado_181" class="cls-5" d="M537.03,340.77h-1.44c-.8-.02-1.43-.68-1.41-1.48.02-.77.64-1.39,1.41-1.41h1.44c.8-.02,1.46.61,1.48,1.41.02.8-.61,1.46-1.41,1.48-.03,0-.05,0-.08,0"/>
    <path id="Trazado_182" class="cls-22" d="M217.59,399.33l2.18,1.93c.6.53,1.43.69,2.18.41l2.6-.97c9.32-3.47,15.99-11.08,17.76-20.26l4.23-21.89c.14-.85-.31-1.68-1.1-2.03l-3.64-1.74c-3.6-1.72-7.4-2.97-11.32-3.72h-.03c-3.75-.73-7.57-.99-11.39-.78l-4.7.26c-.87.02-1.61.63-1.8,1.47l-4.18,21.66c-1.79,9.3,1.68,18.96,9.22,25.65"/>
    <path id="Trazado_183" class="cls-24" d="M227.21,367.2h-.04c-1.19-.24-1.97-1.39-1.74-2.58l27.68-143.5c.23-1.19,1.38-1.97,2.57-1.74h0s.04,0,.04,0c1.19.23,1.97,1.38,1.74,2.57,0,0,0,0,0,0l-27.68,143.5c-.23,1.19-1.38,1.97-2.57,1.74h0"/>
    <path id="Trazado_184" class="cls-20" d="M227.05,369.08h0c-1.69-.33-2.79-1.96-2.46-3.64l8.04-41.71c.07-.36.42-.59.78-.52l4.81.93c.36.07.6.42.53.78,0,0,0,0,0,0l-8.05,41.7c-.33,1.69-1.96,2.79-3.64,2.47,0,0,0,0,0,0"/>
    <g id="Grupo_72" class="cls-19">
      <g id="Grupo_71">
        <g class="cls-10">
          <g id="Grupo_70">
            <path id="Trazado_185" d="M245.43,356.53l-1.65-.79-3.81,19.75c-1.77,9.18-8.44,16.79-17.76,20.26l-2.6.97c-.75.28-1.58.12-2.18-.41l-2.18-1.93c-2.31-2.06-4.28-4.47-5.84-7.14,1.65,4.67,4.47,8.83,8.18,12.1l2.18,1.93c.6.53,1.43.69,2.18.41l2.6-.97c9.32-3.47,15.99-11.08,17.76-20.26l4.23-21.89c.14-.85-.32-1.68-1.11-2.03"/>
          </g>
        </g>
      </g>
    </g>
    <rect id="Rectángulo_78" class="cls-22" x="250.81" y="218.79" width="9.16" height="5.04" transform="translate(-10.28 430.16) rotate(-79.08)"/>
    <path id="Trazado_186" class="cls-22" d="M250.2,200.43l-2.35,12.19c-.48,2.5,1.16,4.92,3.66,5.41,0,0,0,0,0,0l8.43,1.63c2.5.48,4.92-1.16,5.4-3.66l2.35-12.19c.23-1.19-.55-2.35-1.74-2.58l-13.18-2.54c-1.19-.23-2.35.55-2.58,1.74h0M257.11,215.12l-1.3-.25c-2.5-.48-4.14-2.9-3.66-5.41,0,0,0,0,0,0l1.28-6.65,10.37,2-1.28,6.65c-.48,2.5-2.9,4.14-5.41,3.66,0,0,0,0,0,0"/>
    <rect id="Rectángulo_79" class="cls-20" x="256.58" y="198.28" width="4.78" height="7.39" transform="translate(11.69 418.11) rotate(-79.11)"/>
    <g id="Grupo_75" class="cls-18">
      <g id="Grupo_74">
        <g class="cls-15">
          <g id="Grupo_73">
            <path id="Trazado_187" d="M525.78,426.74h103.89c1.19-.04,2.12-1.03,2.08-2.22-.03-1.14-.95-2.05-2.08-2.08h-103.89c-1.19-.04-2.18.9-2.22,2.08-.04,1.19.9,2.18,2.08,2.22.04,0,.09,0,.13,0"/>
          </g>
        </g>
      </g>
    </g>
    <g id="Grupo_78" class="cls-18">
      <g id="Grupo_77">
        <g class="cls-13">
          <g id="Grupo_76">
            <path id="Trazado_188" d="M76.42,425.51h103.89c1.19-.04,2.12-1.03,2.08-2.22-.03-1.14-.95-2.05-2.08-2.08h-103.89c-1.19.04-2.12,1.03-2.08,2.22.03,1.14.95,2.05,2.08,2.08"/>
          </g>
        </g>
      </g>
    </g>
    <g id="Grupo_81" class="cls-18">
      <g id="Grupo_80">
        <g class="cls-12">
          <g id="Grupo_79">
            <path id="Trazado_189" d="M142.79,443.34h240.12c1.18,0,2.14-.96,2.14-2.14s-.96-2.14-2.14-2.14h-240.12c-1.18,0-2.14.96-2.14,2.14s.96,2.14,2.14,2.14"/>
          </g>
        </g>
      </g>
    </g>
    <path id="Trazado_190" class="cls-21" d="M129.77,324.45c-.23-.67-.97-1.03-1.64-.8-.37.13-.66.42-.79.79l-9.06,25.42h20.32l-8.82-25.41Z"/>
    <path id="Trazado_191" class="cls-21" d="M155.03,397.22l-7.42-21.38h-38.6l-7.62,21.37c-.24.67.11,1.41.78,1.65.14.05.29.08.43.08h51.21c.71,0,1.29-.58,1.29-1.29,0-.14-.02-.29-.07-.42"/>
    <path id="Trazado_192" class="cls-17" d="M138.59,349.86h-20.32l-9.27,25.99h38.6l-9.02-25.99Z"/>
    <path id="Trazado_193" class="cls-21" d="M95.33,401.82h65.99c.93,0,1.69-.76,1.69-1.69h0v-3.86c0-.93-.76-1.69-1.69-1.69h-65.99c-.93,0-1.69.76-1.69,1.69h0v3.86c0,.93.76,1.69,1.69,1.69h0"/>
    <g id="Grupo_84" class="cls-19">
      <g id="Grupo_83">
        <g class="cls-14">
          <g id="Grupo_82">
            <path id="Trazado_194" class="cls-20" d="M161.56,394.61h-7.31l-6.49-18.77-8.99-25.98-8.79-25.41c-.23-.67-.96-1.03-1.63-.8-.37.13-.66.42-.79.79l-1.18,3.31,20.38,62.53h-42.6l-1.54,4.33h-7.33c-.86,0-1.56.7-1.55,1.56v4.1c0,.86.69,1.56,1.55,1.56h66.27c.86,0,1.56-.7,1.55-1.56v-4.1c0-.86-.69-1.56-1.55-1.56h0"/>
          </g>
        </g>
      </g>
    </g>
    <path id="Trazado_195" class="cls-16" d="M128.56,352.74h2.89c1.19,0,2.16-.97,2.17-2.17h0c0-1.19-.97-2.16-2.17-2.17h-2.89c-1.19,0-2.16.97-2.17,2.17h0c0,1.19.97,2.16,2.17,2.17"/>
    <path id="Trazado_196" class="cls-16" d="M122.06,375.84h-5.77c-.8,0-1.44-.65-1.44-1.44s.65-1.44,1.44-1.44h5.77c.8,0,1.44.65,1.44,1.44s-.65,1.44-1.44,1.44"/>
    <path id="Trazado_197" class="cls-5" d="M135.78,388.83h4.33c1.2,0,2.17-.97,2.17-2.17s-.97-2.17-2.17-2.17h-4.33c-1.2,0-2.17.97-2.17,2.17s.97,2.17,2.17,2.17"/>
    <path id="Trazado_198" class="cls-5" d="M126.39,342.64h-1.44c-.8,0-1.44-.65-1.44-1.44s.65-1.44,1.44-1.44h1.44c.8,0,1.44.65,1.44,1.44s-.65,1.44-1.44,1.44"/>
    <path id="Trazado_199" class="cls-17" d="M493.58,107.01h-6.01c-.68,0-1.24-.55-1.26-1.23l-1.08-46.96c-.02-.7.54-1.27,1.23-1.29,0,0,.02,0,.03,0h8.16c.7,0,1.26.56,1.26,1.26,0,0,0,.02,0,.03l-1.08,46.96c-.02.68-.57,1.23-1.26,1.23M494.59,123.38h-8.02c-.69,0-1.26-.56-1.26-1.26h0v-8.02c0-.69.56-1.26,1.26-1.26h8.01c.69,0,1.26.56,1.26,1.26v8.02c0,.69-.56,1.26-1.26,1.26"/>
  </g>
</svg>