<?xml version="1.0" encoding="UTF-8"?>
<svg id="Capa_1" xmlns="http://www.w3.org/2000/svg" viewBox="0 0 183 73">
  <defs>
    <style>
      .cls-1 {
        fill: none;
      }

      .cls-2 {
        fill: #d12716;
      }

      .cls-3 {
        fill: #fff;
      }
    </style>
  </defs>
  <rect class="cls-1" width="183" height="73"/>
  <g id="Grupo_227">
    <path id="Trazado_1771" class="cls-2" d="M114.81,56.85c-16.2,7.94-35.17,7.92-51.36-.04-8.17-4.05-15.45-9.67-21.43-16.55l-2.17,5.62c5.09,7.51,11.82,13.77,19.68,18.3,9,5.16,19.2,7.88,29.58,7.87,19.78-.01,38.26-9.86,49.3-26.27l-2.13-5.45c-6,6.87-13.29,12.48-21.46,16.52"/>
    <path id="Trazado_1772" class="cls-3" d="M141.4,25.34c-.5-.64-.36-1.89.32-3.63,0,0,3.52-8.61,4.13-10.14h5.34l1.35-3.56h-5.31l1.6-4.31-8.08,1.39-1.1,2.92h-3.56l-1.28,3.56h3.52l-4.24,10.54c-1.1,2.67-1.14,4.63-.18,5.98.96,1.32,2.85,1.96,5.8,1.96,1.9-.06,3.78-.32,5.62-.78l1.71-4.13c-1.23.49-2.53.77-3.84.85-.67.1-1.35-.14-1.82-.64"/>
    <path id="Trazado_1773" class="cls-3" d="M179.73,3.74h-.07c-1.74.05-3.11,1.5-3.06,3.24s1.5,3.11,3.24,3.06c1.71-.05,3.07-1.45,3.06-3.17.02-1.71-1.36-3.11-3.07-3.13-.03,0-.07,0-.1,0M179.66,9.25c-1.26,0-2.28-1.03-2.28-2.3,0-.02,0-.04,0-.05-.06-1.26.91-2.33,2.17-2.39,1.26-.06,2.33.91,2.39,2.17,0,.06,0,.13,0,.19.07,1.24-.88,2.31-2.12,2.38-.05,0-.11,0-.16,0"/>
    <path id="Trazado_1774" class="cls-3" d="M45.36,8.19c-7.69,0-16.16,4.59-17.73,12.39-1.67,8.29,5.73,10.07,10.46,10.14,10.68.11,17.16-6.26,18.65-12.78,1.42-6.23-4.09-9.75-11.39-9.75M48.96,16.98c-1.92,9.5-7.72,10-8.83,10-1.45.13-2.89-.36-3.95-1.35-.85-1-1.07-2.53-.64-4.56.75-3.67,3.95-9.18,9.68-9.18,1.15-.1,2.28.33,3.06,1.17.83,1.12,1.08,2.58.67,3.92"/>
    <path id="Trazado_1776" class="cls-3" d="M175.11,10.82c-1.53-1.96-4.2-2.99-7.9-2.99-8.26,0-15.31,4.59-17.12,11.21-.93,3.35-.43,6.26,1.39,8.44,1.99,2.42,5.52,3.74,9.9,3.74,2.82-.04,5.63-.47,8.33-1.28l2.28-4.7c-2.63,1.06-5.43,1.6-8.26,1.6-1.87.11-3.69-.63-4.95-2.03-.96-1.29-1.23-2.96-.71-4.49h17.48l.07-.21c1.35-3.81,1.21-7.08-.5-9.29M169.13,16.62h-9.9c.94-3.01,3.78-5.03,6.94-4.91,1.07-.12,2.13.26,2.88,1.03.61.82.64,2.17.07,3.88"/>
    <path id="Trazado_1777" class="cls-3" d="M9.02,17.05c1.25-7.01,8.01-12.32,16.02-12.32,2.28-.02,4.54.42,6.66,1.28l2.35-4.55C31.71.49,29.2,0,26.67,0,13.9,0,1.94,7.3.26,16.98c-1.49,8.58,5.91,13.35,14.99,13.35,2.49-.03,4.98-.34,7.4-.93l2.42-5.48c-2.34,1.02-4.85,1.58-7.4,1.67-7.19.07-9.4-4.27-8.65-8.54"/>
    <path id="Trazado_1778" class="cls-3" d="M99.86,9.32c-3.92,0-4.09-1.07-10.43-1.07-9.15,0-16.66,6.73-17.73,14.13-.35,2.11.27,4.26,1.67,5.87,1.39,1.53,3.52,2.13,6.01,2.24,3.65.26,7.27-.69,10.32-2.71-1.89,5.62-8.4,6.8-12.74,6.8-2.15.13-4.3-.21-6.3-1l-1.92,4.8c2.31.55,4.67.84,7.05.85,10.68,0,17.55-3.81,20.4-11.32l7.3-19.22c-1.19.33-2.4.53-3.63.61M83.13,26.45c-4.49,0-4.06-4.34-2.49-7.69,1.99-4.31,6.05-6.3,8.61-6.37,1.73-.22,3.47.29,4.8,1.42-3.03,11.71-9.11,12.64-10.93,12.64"/>
    <path id="Trazado_1779" class="cls-3" d="M120.18,7.97c-3.53-.03-7.06.28-10.54.93l-1.92,5.02c3.75-1.1,7.66-1.62,11.57-1.53,5.41.03,4.91,2.28,4.59,3.35-3.03-.22-6.08-.22-9.11,0-2.49.13-4.96.64-7.3,1.5-3.63,1.46-5.27,3.99-5.48,6.91-.29,3.35,2.03,6.48,8.4,6.48,5.87,0,7.44-.93,11.04-1.03,2-.14,4.01.06,5.94.61-.25-1.14-.53-2.39.71-5.66.89-2.31,1.96-5.09,2.95-7.72,2.35-6.12-2.67-8.83-10.86-8.83M120.5,24.6c-1.96.89-4.08,1.39-6.23,1.46-3.77.18-4.81-1.28-4.52-2.85.36-1.92,1.85-2.99,5.87-3.38,2.24-.22,4.49-.26,6.73-.11l-1.85,4.88Z"/>
    <path id="Trazado_1780" class="cls-3" d="M63.8,30.18L75.26.64h-7.62l-11.46,29.54h7.62Z"/>
    <rect id="Rectángulo_126" class="cls-1" x=".07" width="182.83" height="72.04"/>
  </g>
</svg>