<?xml version="1.0" encoding="UTF-8"?>
<svg id="Capa_1" xmlns="http://www.w3.org/2000/svg" viewBox="0 0 166 62">
  <defs>
    <style>
      .cls-1 {
        fill: none;
      }

      .cls-2 {
        fill: #fff;
      }

      .cls-2, .cls-3 {
        fill-rule: evenodd;
      }

      .cls-3, .cls-4 {
        fill: #00679f;
      }
    </style>
  </defs>
  <rect class="cls-1" width="166" height="62"/>
  <g id="Grupo_232">
    <path id="Trazado_1758" class="cls-2" d="M21.21,1.98c5.47-.07,10.75,1.98,14.73,5.72l-5.08,5.33c-2.57-2.58-6.06-4.03-9.7-4.03-7.35,0-13.32,5.96-13.32,13.31,0,.07,0,.13,0,.2-.03,7.43,5.97,13.48,13.4,13.51.08,0,.17,0,.25,0,3.6.05,7.07-1.3,9.7-3.76l5,5.28c-4.1,3.62-9.4,5.57-14.87,5.47C8.91,43.02-.18,33.95-.18,22.51S8.78,1.98,21.21,1.98"/>
    <path id="Trazado_1759" class="cls-2" d="M88.17,2.95h32.94v6.6h-12.49v32.47h-7.93V9.55h-12.52V2.95Z"/>
    <path id="Trazado_1760" class="cls-2" d="M125.5,2.95h9.59l10.59,16.22,10.45-16.22h9.48l-16.11,23.77v15.34h-7.9v-15.25L125.5,2.95Z"/>
    <path id="Trazado_1761" class="cls-2" d="M63.02,1.98c-12.3,0-21.17,9.15-21.14,20.53,0,11.33,8.84,20.5,21.14,20.5s21.17-9.17,21.17-20.5S75.32,1.98,63.02,1.98M63.02,36c-7.33-.08-13.21-6.09-13.13-13.42,0-.03,0-.06,0-.09-.2-7.26,5.52-13.3,12.78-13.5,7.26-.2,13.3,5.52,13.5,12.78,0,.24,0,.48,0,.72.13,7.33-5.72,13.38-13.05,13.51-.03,0-.07,0-.1,0"/>
    <path id="Trazado_1762" class="cls-3" d="M45.45,52.74c.99-.02,1.95.31,2.74.91l-.97,1.27c-.45-.39-1.03-.62-1.63-.64-.69,0-1.46.3-1.46,1.05,0,1.52,4.37,1.1,4.37,4.31-.08,1.65-1.49,2.93-3.14,2.85-.02,0-.04,0-.06,0-1.28-.02-2.5-.52-3.43-1.41l1.19-1.19c.57.65,1.38,1.02,2.24,1.02.68.08,1.29-.4,1.37-1.08,0-.04,0-.07,0-.11,0-1.91-4.37-1.33-4.37-4.34.12-1.59,1.51-2.78,3.1-2.66.02,0,.04,0,.05,0"/>
    <path id="Trazado_1763" class="cls-3" d="M72.06,52.74c1.28-.06,2.53.41,3.45,1.3l-1.16,1.22c-.61-.61-1.43-.96-2.29-.97-1.77.04-3.17,1.51-3.12,3.27,0,.01,0,.03,0,.04-.06,1.79,1.35,3.28,3.13,3.34.02,0,.05,0,.07,0,.86.01,1.7-.32,2.32-.91l1.16,1.16c-.97.85-2.22,1.32-3.51,1.3-2.69.1-4.96-2-5.06-4.7-.1-2.69,2-4.96,4.7-5.06.1,0,.2,0,.31,0h0Z"/>
    <rect id="Rectángulo_124" class="cls-4" x="51.42" y="52.97" width="1.82" height="9.28"/>
    <path id="Trazado_1764" class="cls-3" d="M56.86,52.96h1.24l4.73,5.97v-5.97h1.71v9.29h-1.24l-4.73-5.97v5.97h-1.71v-9.29Z"/>
    <path id="Trazado_1765" class="cls-3" d="M77.94,52.96h5.61v1.52h-3.81v2.18h3.23v1.49h-3.23v2.54h3.92v1.52h-5.72v-9.26Z"/>
    <path id="Trazado_1766" class="cls-3" d="M92.34,52.96h1.27v9.29h-1.8v-7.24l-1.74.97v-1.69l2.27-1.32Z"/>
    <path id="Trazado_1767" class="cls-3" d="M108.65,52.83c-2.38,0-3.29,2.15-3.29,4.81s.91,4.81,3.29,4.81,3.29-2.15,3.29-4.81-.91-4.81-3.29-4.81M110.08,57.61c0,1.74-.36,3.21-1.44,3.21s-1.46-1.44-1.46-3.21.39-3.21,1.46-3.21,1.46,1.46,1.44,3.21"/>
    <path id="Trazado_1768" class="cls-3" d="M99.78,52.85c-1.8-.02-3.27,1.42-3.29,3.22,0,.01,0,.03,0,.04-.01,1.76,1.4,3.19,3.16,3.21.03,0,.07,0,.1,0h.11l-1.74,2.96h1.96l2.18-3.7c.54-.75.85-1.63.91-2.54-.03-1.79-1.51-3.22-3.31-3.18-.03,0-.06,0-.09,0M100.88,57.5c-.31.15-.65.22-.99.22-.9.02-1.64-.7-1.66-1.6,0-.02,0-.04,0-.06-.02-.88.67-1.61,1.54-1.63.01,0,.02,0,.03,0,.89,0,1.62.71,1.63,1.6-.02.53-.22,1.05-.55,1.46"/>
    <path id="Trazado_1769" class="cls-3" d="M119.59,58.69v-5.72h-1.24l-4.86,6.13v1.05h4.31v2.13h1.8v-2.13h1.55v-1.46h-1.56ZM117.79,58.69h-1.96l1.96-2.49v2.49Z"/>
  </g>
</svg>