<svg id="Grupo_2254" data-name="Grupo 2254" xmlns="http://www.w3.org/2000/svg" xmlns:xlink="http://www.w3.org/1999/xlink" width="300.92" height="109.839" viewBox="0 0 300.92 109.839">
  <defs>
    <clipPath id="clip-path">
      <rect id="Rect치ngulo_1312" data-name="Rect치ngulo 1312" width="300.92" height="109.839" fill="#002554"/>
    </clipPath>
  </defs>
  <g id="Grupo_2252" data-name="Grupo 2252" clip-path="url(#clip-path)">
    <path id="Trazado_2900" data-name="Trazado 2900" d="M190.146.069a38.5,38.5,0,0,1,25.039,8.91,35.378,35.378,0,0,1,12.483,21.866,36.465,36.465,0,0,1-5.491,26.918,35.909,35.909,0,0,1-22.782,15.649,39.932,39.932,0,0,1-27.227-2.856c-11.042-5.433-17.847-14.3-20.049-26.4-2.027-11.142.37-21.373,7.518-30.277A36.5,36.5,0,0,1,181.511.885a44.605,44.605,0,0,1,8.635-.816m.138,61.756c.5-.042,1.492-.093,2.475-.212a22.312,22.312,0,0,0,13.425-6.434c6.546-6.547,8.762-14.468,6.9-23.48a23.71,23.71,0,0,0-23.009-18.937,22.444,22.444,0,0,0-18.184,8.322c-5.665,6.765-7.186,14.568-4.957,23.047a23.941,23.941,0,0,0,23.352,17.693" transform="translate(-75.084 -0.034)" fill="#002554"/>
    <path id="Trazado_2901" data-name="Trazado 2901" d="M56.968,55.047l9.017,9.507c-.173.164-.322.316-.481.455a37.492,37.492,0,0,1-17.819,8.612,41.779,41.779,0,0,1-25.279-2.489C11.21,66.22,3.843,57.853,1.037,45.9-3.5,26.585,7.134,7.151,27.318,1.593A41.117,41.117,0,0,1,53.256,2.671,35.738,35.738,0,0,1,65.066,9.95c.147.136.321.242.534.4l-9.228,9.678c-.771-.659-1.5-1.33-2.273-1.933a24.469,24.469,0,0,0-16.448-5.321A23.977,23.977,0,0,0,15.45,30.5,24.45,24.45,0,0,0,25.142,57.5a24.726,24.726,0,0,0,16.3,4.238,24.9,24.9,0,0,0,15.319-6.561,1.634,1.634,0,0,1,.21-.128" transform="translate(0 0)" fill="#002554"/>
    <path id="Trazado_2902" data-name="Trazado 2902" d="M452.716,3.573h.773c5.286,0,10.571.008,15.857-.012a1.149,1.149,0,0,1,1.118.593q9.181,14.118,18.4,28.213c.121.185.249.366.42.616.156-.227.292-.412.416-.605q9.072-14.08,18.128-28.169a1.234,1.234,0,0,1,1.208-.65c5.2.024,10.409.014,15.614.014h.75c-.189.292-.313.492-.445.687q-14.17,20.9-28.35,41.787a2.353,2.353,0,0,0-.422,1.407q.018,13.054.009,26.108v.886h-14.3v-.856q0-12.933.011-25.865A2.732,2.732,0,0,0,481.4,46.1Q467.264,25.18,453.149,4.245c-.123-.182-.238-.369-.433-.672" transform="translate(-224.477 -1.765)" fill="#002554"/>
    <path id="Trazado_2903" data-name="Trazado 2903" d="M318.24,15.569V3.684h59.681V15.562h-22.6V74.456H340.973c-.012-.266-.036-.54-.036-.815q0-28.5,0-57c0-.2-.013-.405,0-.606.025-.335-.106-.492-.453-.464-.181.015-.364,0-.546,0h-21.7Z" transform="translate(-157.798 -1.827)" fill="#002554"/>
    <path id="Trazado_2904" data-name="Trazado 2904" d="M205.519,183.58c.683,0,1.309-.037,1.927.02a1.067,1.067,0,0,1,.6.429q3.9,4.89,7.773,9.8c.122.154.252.3.481.573V183.626h3.041v16.787c-.674,0-1.32.037-1.958-.021-.208-.019-.431-.258-.582-.448q-3.781-4.749-7.543-9.513c-.188-.237-.378-.471-.677-.842V200.38h-3.058Z" transform="translate(-101.906 -91.022)" fill="#002554"/>
    <path id="Trazado_2905" data-name="Trazado 2905" d="M391.98,191.855a12.13,12.13,0,0,1-1.244,5.93,5.378,5.378,0,0,1-9.384.007,13.045,13.045,0,0,1-1.234-6.959,11.884,11.884,0,0,1,.926-4.365,5.4,5.4,0,0,1,9.988-.008,12.936,12.936,0,0,1,.948,5.4m-8.627.017a11.831,11.831,0,0,0,.76,4.313,1.989,1.989,0,0,0,1.925,1.419,2.052,2.052,0,0,0,1.919-1.429,5.954,5.954,0,0,0,.37-1.086,13.815,13.815,0,0,0,.264-4.937,12.258,12.258,0,0,0-.776-3.019,1.831,1.831,0,0,0-2.238-1.125,2.292,2.292,0,0,0-1.517,1.459,11.666,11.666,0,0,0-.706,4.406" transform="translate(-188.467 -90.8)" fill="#002554"/>
    <path id="Trazado_2906" data-name="Trazado 2906" d="M291.748,197.669v2.68H281.476V183.657H291.5v2.691h-6.86c0,1.286-.013,2.513.025,3.738,0,.1.354.262.545.265,1.518.022,3.036.012,4.555.012h.71v2.68h-5.8v4.626Z" transform="translate(-139.569 -91.065)" fill="#002554"/>
    <path id="Trazado_2907" data-name="Trazado 2907" d="M257.491,185.084l-2.128,2.231a5.931,5.931,0,0,0-4.843-1.692,5.356,5.356,0,0,0-3.582,1.964,6.392,6.392,0,0,0,.239,8.337,6,6,0,0,0,8.3.226l2.061,2.055a8.716,8.716,0,0,1-4.557,2.119,9.222,9.222,0,0,1-7.748-1.964,8.4,8.4,0,0,1-2.7-9.328,8.268,8.268,0,0,1,7.194-6.109,9.293,9.293,0,0,1,5.844.87,19.86,19.86,0,0,1,1.925,1.289" transform="translate(-120.041 -90.636)" fill="#002554"/>
    <path id="Trazado_2908" data-name="Trazado 2908" d="M420.416,183.577v10.4h2.743v2.6h-2.754v3.816h-3.228v-3.751c-.279-.016-.509-.041-.739-.041-2.126,0-4.253-.025-6.378.011-.6.011-.717-.188-.741-.754a2.91,2.91,0,0,1,.734-2.081c2.607-3.228,5.174-6.487,7.739-9.747a1.015,1.015,0,0,1,.962-.461c.519.038,1.043.009,1.663.009m-3.32,10.378v-4.486l-3.539,4.486Z" transform="translate(-202.957 -91.019)" fill="#002554"/>
    <path id="Trazado_2909" data-name="Trazado 2909" d="M351.142,200.3l3.113-5.3c-.526-.068-.979-.1-1.423-.188a5.717,5.717,0,0,1-4.641-6.3,5.879,5.879,0,0,1,5.488-5.233,6.071,6.071,0,0,1,6.2,3.662,5.823,5.823,0,0,1-.115,4.435,14.064,14.064,0,0,1-.863,1.735c-1.3,2.236-2.635,4.455-3.93,6.7a.88.88,0,0,1-.91.507c-.925-.034-1.853-.011-2.916-.011m3.23-8.242c1.705-.083,2.076-.363,2.618-2.122a2.95,2.95,0,0,0-2.7-3.864,2.877,2.877,0,0,0-3,2.9,2.936,2.936,0,0,0,3.073,3.088" transform="translate(-172.641 -90.871)" fill="#002554"/>
    <path id="Trazado_2910" data-name="Trazado 2910" d="M151.652,197.965l2.073-2.083a5.152,5.152,0,0,0,3.1,1.66,4.865,4.865,0,0,0,1.969-.1,2.006,2.006,0,0,0,.688-3.522,9.479,9.479,0,0,0-1.883-1.079c-.887-.439-1.82-.786-2.7-1.245a4.245,4.245,0,0,1-2.564-4.245,4.4,4.4,0,0,1,2.94-3.96,7.683,7.683,0,0,1,7.7,1.042l-1.633,2.146c-.854-.333-1.618-.7-2.423-.925a3.163,3.163,0,0,0-2.354.321,1.548,1.548,0,0,0-.178,2.789,18.63,18.63,0,0,0,2.219,1.1c.711.34,1.444.637,2.136,1.01a4.715,4.715,0,0,1,2.724,5.091,4.945,4.945,0,0,1-3.742,4.181,8.317,8.317,0,0,1-8.072-2.187" transform="translate(-75.196 -90.633)" fill="#002554"/>
    <path id="Trazado_2911" data-name="Trazado 2911" d="M331.411,183.424v16.889h-3.176V187.184l-3.166,1.746c0-1.009-.014-1.924.015-2.838,0-.13.193-.29.333-.374a30.245,30.245,0,0,1,3.473-1.984,9.106,9.106,0,0,1,2.52-.31" transform="translate(-161.183 -90.95)" fill="#002554"/>
    <rect id="Rect치ngulo_1311" data-name="Rect치ngulo 1311" width="3.189" height="16.774" transform="translate(93.715 92.597)" fill="#002554"/>
  </g>
</svg>
