<svg id="Capa_1" data-name="Capa 1" xmlns="http://www.w3.org/2000/svg" width="345.83" height="49.136" viewBox="0 0 345.83 49.136">
  <g id="Grupo_2191" data-name="Grupo 2191" transform="translate(0 0)">
    <path id="Trazado_2352" data-name="Trazado 2352" d="M150.994,28.814h2.18q36.993,0,73.987-.069a2.99,2.99,0,0,0,2.111-1.03c5.655-7.56,11.241-15.172,16.836-22.783,1.116-1.519,2.2-3.055,3.527-4.908H247.3c-9.087,0-18.166.034-27.254-.034a3.365,3.365,0,0,0-3.115,1.553q-4.814,6.706-9.765,13.309c-.515.7-1.33,1.613-2.042,1.639-4.351.154-8.71.077-13.5.077,4.1-5.578,7.989-10.872,12.005-16.33a7.789,7.789,0,0,0-1.1-.2c-9.774,0-19.548-.026-29.322.034A2.6,2.6,0,0,0,171.435,1.1C166.947,7.1,162.519,13.162,158.074,19.2c-2.283,3.1-4.574,6.2-7.088,9.611ZM57.416,14.93h1.708q28.511,0,57.013.034a18.933,18.933,0,0,1,3.707.747,22.833,22.833,0,0,1-1.6,3.578c-1.579,2.394-3.372,4.651-4.994,7.028-.953,1.4-.558,2.154,1.133,2.428a8.368,8.368,0,0,0,1.313.086c7.886,0,15.772.026,23.658-.043a2.834,2.834,0,0,0,1.948-1.03c2.094-2.72,3.973-5.612,6.1-8.3,3.39-4.282,2.283-9.6-.275-13.026-3.6-4.8-8.8-6.316-14.373-6.35C111.718-.044,90.677.024,69.645.059a2.469,2.469,0,0,0-1.751.721C64.4,5.4,60.995,10.064,57.408,14.93ZM52.98,48.817c.678.051,1.1.112,1.527.112,17.669,0,35.329.077,53-.026a35.236,35.236,0,0,0,22.028-7.783,33.74,33.74,0,0,0,8.049-8.5H125.894c-8.521,0-17.042.026-25.555-.034a8.655,8.655,0,0,1-2.557-.832,10.517,10.517,0,0,1,.9-2.5c1.733-2.523,3.638-4.926,5.372-7.448a8.15,8.15,0,0,0,.721-2.36,9.644,9.644,0,0,0-2.274-.584q-13.116-.064-26.224.017a2.821,2.821,0,0,0-1.991,1C67.216,29.415,60.205,39,53,48.826Zm255.1-16.141c-.661-.034-1.013-.077-1.373-.077h-65.38a9.68,9.68,0,0,0-8.461,4.522c-2.995,4.419-2.008,8.324,3.046,10.1A30.7,30.7,0,0,0,245.6,48.86c14.966.163,29.94-.086,44.905.18,4.119.077,7.148-.686,8.89-4.6a2.812,2.812,0,0,1,.36-.429c2.72-3.707,5.449-7.414,8.324-11.327Zm-69.1-3.887c11.156,0,21.856.017,32.557-.051a2.894,2.894,0,0,0,1.854-1.193c4.419-5.9,8.779-11.851,13.146-17.8,2.283-3.106,4.557-6.213,6.977-9.517a13.774,13.774,0,0,0-1.485-.18C281.814.05,271.6.024,261.391.093a3.006,3.006,0,0,0-2.068,1.15c-4.462,5.947-8.847,11.962-13.258,17.952-2.283,3.106-4.574,6.2-7.079,9.6ZM225.728,32.6c-10.495,0-20.509-.017-30.523.051a2.922,2.922,0,0,0-1.914,1.107c-1.416,1.742-2.686,3.6-4.016,5.415-2.3,3.149-4.6,6.29-7.045,9.628.6.069.9.129,1.2.129,9.705,0,19.411.026,29.107-.043A2.959,2.959,0,0,0,214.5,47.83c1.459-1.793,2.772-3.7,4.136-5.561,2.274-3.106,4.557-6.213,7.088-9.68ZM136.2,48.937c10.46,0,20.509.026,30.558-.06a3.244,3.244,0,0,0,2.034-1.27c1.347-1.639,2.54-3.39,3.793-5.106q3.514-4.8,7.028-9.611c-.257-.146-.36-.249-.455-.249q-15.008-.026-30.017-.009a1.954,1.954,0,0,0-1.4.644c-3.8,5.1-7.543,10.229-11.533,15.661Z" transform="translate(-7.508 0.01)" fill="#d80a13"/>
    <path id="Trazado_2353" data-name="Trazado 2353" d="M394.561,56.611c-.807-.06-1.613-.163-2.411-.163q-23.182-.013-46.356,0H343.52c1.167-2.566,2.712-3.527,5.466-3.493,14.451.172,28.9.086,43.352.077.738,0,1.485-.112,2.223-.163v3.759Z" transform="translate(-48.731 -7.493)" fill="#d80a13"/>
    <path id="Trazado_2354" data-name="Trazado 2354" d="M0,37.95q19.707.026,39.4.043H51.048c-1.116,2.926-1.751,3.381-4.557,3.381q-23.246-.026-46.5-.034V37.959Z" transform="translate(0.01 -5.376)" fill="#d80a13"/>
    <path id="Trazado_2355" data-name="Trazado 2355" d="M0,45.4q13.889.051,27.786.094c6.153.017,12.3,0,18.467,0-1.081,2.961-1.69,3.415-4.651,3.407q-20.8-.064-41.6-.12V45.4Z" transform="translate(0.009 -6.433)" fill="#d80a13"/>
    <path id="Trazado_2356" data-name="Trazado 2356" d="M395.371,49.159c-2.411-.112-4.814-.3-7.225-.309-9.62-.034-19.23-.017-28.85-.026H349.23c1.227-2.918,1.871-3.338,4.754-3.338q20.7-.026,41.387-.086v3.759Z" transform="translate(-49.541 -6.433)" fill="#d80a13"/>
    <path id="Trazado_2357" data-name="Trazado 2357" d="M0,52.849c.738.06,1.485.163,2.223.163q18.587.013,37.165,0h2.188c-1,2.858-2.84,3.518-5.569,3.484-11.259-.163-22.526-.069-33.784-.06-.747,0-1.485.1-2.231.163V52.84Z" transform="translate(0.01 -7.488)" fill="#d80a13"/>
    <path id="Trazado_2358" data-name="Trazado 2358" d="M396.167,41.34H354.84c1.013-2.789,1.751-3.329,4.488-3.338l36.83-.051v3.381Z" transform="translate(-50.337 -5.376)" fill="#d80a13"/>
    <path id="Trazado_2359" data-name="Trazado 2359" d="M167.2,28.816c2.514-3.407,4.805-6.5,7.088-9.611,4.445-6.041,8.873-12.1,13.361-18.106A2.665,2.665,0,0,1,189.425.077C199.2.017,208.973.034,218.747.043a6.7,6.7,0,0,1,1.1.2c-4.016,5.466-7.9,10.752-12.005,16.33,4.788,0,9.148.077,13.5-.077.7-.026,1.519-.944,2.042-1.639q4.943-6.6,9.765-13.309A3.367,3.367,0,0,1,236.261,0c9.079.069,18.166.034,27.254.034h2.334c-1.33,1.854-2.411,3.39-3.527,4.908-5.595,7.6-11.181,15.223-16.836,22.783a3.024,3.024,0,0,1-2.111,1.03q-36.994.09-73.987.069h-2.18Z" transform="translate(-23.714 0.009)" fill="#d80a13"/>
    <path id="Trazado_2360" data-name="Trazado 2360" d="M58.15,14.933C61.737,10.068,65.144,5.4,68.636.783A2.454,2.454,0,0,1,70.387.062c21.032-.034,42.074-.1,63.106.026,5.578.034,10.769,1.545,14.373,6.35,2.566,3.424,3.664,8.744.275,13.026-2.128,2.694-4.007,5.578-6.1,8.3a2.834,2.834,0,0,1-1.948,1.03c-7.886.069-15.772.043-23.658.043a8.368,8.368,0,0,1-1.313-.086c-1.69-.275-2.085-1.03-1.133-2.428,1.622-2.368,3.415-4.625,4.994-7.028a23.567,23.567,0,0,0,1.6-3.578,18.933,18.933,0,0,0-3.707-.747q-28.511-.077-57.013-.034H58.159Z" transform="translate(-8.242 0.007)" fill="#d80a13"/>
    <path id="Trazado_2361" data-name="Trazado 2361" d="M52.977,51.94c7.208-9.834,14.219-19.419,21.29-28.953a2.871,2.871,0,0,1,1.991-1q13.116-.1,26.224-.017a9.148,9.148,0,0,1,2.274.584,8.15,8.15,0,0,1-.721,2.36c-1.733,2.523-3.63,4.926-5.372,7.448a10.518,10.518,0,0,0-.9,2.5,8.912,8.912,0,0,0,2.557.832c8.521.06,17.034.034,25.555.034h11.688a33.747,33.747,0,0,1-8.049,8.5,35.2,35.2,0,0,1-22.028,7.783c-17.669.1-35.329.034-53,.026-.42,0-.85-.06-1.527-.112Z" transform="translate(-7.505 -3.104)" fill="#d80a13"/>
    <path id="Trazado_2362" data-name="Trazado 2362" d="M337.545,38.066c-2.875,3.913-5.595,7.62-8.324,11.327-.112.154-.283.266-.36.429-1.742,3.922-4.771,4.677-8.89,4.6-14.966-.266-29.94-.009-44.905-.18a30.7,30.7,0,0,1-9.688-1.639c-5.063-1.776-6.041-5.681-3.046-10.1a9.68,9.68,0,0,1,8.461-4.522h65.38c.352,0,.7.034,1.373.077Z" transform="translate(-36.972 -5.38)" fill="#d80a13"/>
    <path id="Trazado_2363" data-name="Trazado 2363" d="M269.729,28.8c2.506-3.4,4.8-6.5,7.079-9.6,4.411-5.99,8.8-12.005,13.258-17.952a3.072,3.072,0,0,1,2.068-1.15C302.346.014,312.557.04,322.769.048a13.291,13.291,0,0,1,1.485.18c-2.42,3.3-4.694,6.41-6.977,9.517-4.368,5.938-8.727,11.894-13.146,17.8a2.84,2.84,0,0,1-1.854,1.193c-10.7.077-21.4.051-32.557.051Z" transform="translate(-38.26 0.003)" fill="#d80a13"/>
    <path id="Trazado_2364" data-name="Trazado 2364" d="M247.1,37.99c-2.531,3.458-4.814,6.573-7.088,9.68-1.364,1.862-2.677,3.776-4.136,5.561a2.957,2.957,0,0,1-1.957,1.055c-9.705.069-19.411.043-29.107.043-.3,0-.6-.06-1.2-.129,2.446-3.338,4.745-6.487,7.045-9.628,1.33-1.811,2.6-3.673,4.016-5.415a2.973,2.973,0,0,1,1.914-1.107C226.6,37.981,236.613,38,247.108,38Z" transform="translate(-28.88 -5.381)" fill="#d80a13"/>
    <path id="Trazado_2365" data-name="Trazado 2365" d="M149.959,54.332c3.99-5.432,7.732-10.563,11.533-15.661a1.97,1.97,0,0,1,1.4-.644c10.006-.026,20.011,0,30.017.009.094,0,.2.1.455.249q-3.527,4.827-7.028,9.611c-1.253,1.716-2.446,3.467-3.793,5.106a3.244,3.244,0,0,1-2.034,1.27c-10.049.086-20.1.06-30.558.06Z" transform="translate(-21.267 -5.385)" fill="#d80a13"/>
  </g>
</svg>
