<?xml version="1.0" encoding="UTF-8"?>
<svg id="Capa_1" xmlns="http://www.w3.org/2000/svg" viewBox="0 0 425 60">
  <defs>
    <style>
      .cls-1 {
        fill: none;
      }

      .cls-2 {
        fill: #d12716;
      }

      .cls-3 {
        fill: #fff;
      }
    </style>
  </defs>
  <rect class="cls-1" width="425" height="60"/>
  <g id="Grupo_219">
    <path id="Trazado_1308" class="cls-2" d="M-.33,55.3h51.48l-2.96,4.14H-.33v-4.14Z"/>
    <path id="Trazado_1309" class="cls-2" d="M424.25,59.44h-63.02l3.26-4.14h60.06v4.14h-.29Z"/>
    <path id="Trazado_1310" class="cls-2" d="M-.33,47.6h57.4l-3.25,4.14H-.33v-4.14Z"/>
    <path id="Trazado_1311" class="cls-2" d="M-.33,39.91h63.32l-3.25,4.14H-.33v-4.14Z"/>
    <path id="Trazado_1312" class="cls-2" d="M424.25,51.75h-57.1l3.25-4.14h54.15v4.14h-.3Z"/>
    <path id="Trazado_1313" class="cls-2" d="M376.02,39.91h48.23v4.14h-51.48l3.25-4.14Z"/>
    <path id="Trazado_1314" class="cls-3" d="M55.29,59.44l27.22-36.39h33.73c3.85,0,3.85,1.48,1.78,3.85-1.78,2.37-5.03,6.81-6.81,9.17-.89,1.48-2.66,3.55,2.96,3.55h45.27c-3.55,5.33-15.98,20.12-37.87,20.12-17.75-.3-66.28-.3-66.28-.3"/>
    <path id="Trazado_1315" class="cls-3" d="M211.22,39.91l-14.79,19.82h-38.76l14.79-19.82h38.76Z"/>
    <path id="Trazado_1316" class="cls-3" d="M267.73,39.91l-14.79,19.82h-39.06l14.79-19.82h39.06Z"/>
    <path id="Trazado_1317" class="cls-3" d="M280.45,39.91s-2.96,3.85-4.14,5.62c-5.03,6.51-.59,14.2,15.39,14.2h62.72l14.79-19.82h-88.76Z"/>
    <path id="Trazado_1318" class="cls-3" d="M74.53.56l-13.61,18.05h73.97c3.85,0,3.85,1.48,1.78,3.85-1.78,2.37-5.03,6.81-6.8,9.17-.89,1.18-2.66,3.55,2.96,3.55h30.17s5.03-6.51,8.88-12.13c5.62-7.4.59-22.78-19.23-22.78-17.75.3-78.11.3-78.11.3"/>
    <path id="Trazado_1319" class="cls-3" d="M270.99,35.18h-95.27L201.75.56h39.06l-14.79,19.82h17.46l14.79-19.82h39.06l-26.33,34.62Z"/>
    <path id="Trazado_1320" class="cls-3" d="M351.17.56l-26.04,34.62h-41.42L309.74.56h41.43Z"/>
  </g>
</svg>