<svg id="Grupo_2264" data-name="Grupo 2264" xmlns="http://www.w3.org/2000/svg" xmlns:xlink="http://www.w3.org/1999/xlink" width="275.606" height="204.826" viewBox="0 0 275.606 204.826">
  <defs>
    <clipPath id="clip-path">
      <rect id="Rectángulo_1316" data-name="Rectángulo 1316" width="275.607" height="204.826" fill="none"/>
    </clipPath>
  </defs>
  <g id="Grupo_2263" data-name="Grupo 2263" clip-path="url(#clip-path)">
    <path id="Trazado_2982" data-name="Trazado 2982" d="M197.761,140.106a55.142,55.142,0,0,1,4.195-4.335c6.214-5.2,12.891-9.915,18.667-15.557,5.936-5.8,11.046-12.45,16.471-18.767,4.565-5.317,7.365-11.666,9.95-18.053A42.74,42.74,0,0,0,249.06,56.2C245.748,43.613,237.4,34.624,226.15,28.338c-15.908-8.887-32.844-9.977-50.407-6.628-11.894,2.268-22.378,7.686-32.449,14.058-5.693,3.6-5.645,3.736-11.066-.089A87.413,87.413,0,0,0,70.713,19.77c-13.7,1.477-26.136,6.546-35.59,17.224a38.643,38.643,0,0,0-9.9,30.207c1.137,12.754,7.625,22.716,16.327,31.593,8.054,8.215,17.764,14.038,27.93,19.01a188.521,188.521,0,0,0,38.608,13.916,259.479,259.479,0,0,0,26.267,4.548c5.973.8,11.319-2.182,16.55-4.462a73.048,73.048,0,0,0,31.425-25.423c6.858-9.85,9.84-20.893,7.821-32.654-1.886-10.986-9.968-18.4-22.95-17.66-8.892.507-14.774,6.055-20.556,11.789-2.156,2.138-3.9,4.683-5.881,7.006-2.7,3.176-4.411,2.869-6.64-.606-5.96-9.292-13.56-16.4-25-18.313C97.443,53.993,87.78,59.952,85.6,71.157c-1.461,7.51,1.005,14.38,5.672,20.242,7.345,9.228,16.823,15.736,27.562,20.472,4.691,2.069,9.4,4.1,14.054,6.248a15.657,15.657,0,0,1,2.682,2.005l-.276.789c-.972.071-1.944.209-2.915.2-8.688-.057-17.03-2.058-25.165-4.869-12.258-4.235-24.1-9.466-34.335-17.567-8.218-6.5-14.563-14.542-16.443-25.237C54.473,62.279,58.453,53.17,67.063,46.178c11.546-9.377,24.811-10.372,38.713-6.989,10.652,2.592,19.534,8.331,27.29,15.949,4.277,4.2,4.315,4.222,8.945.32a78.577,78.577,0,0,1,21.422-13.226c11.386-4.541,23.081-5.576,34.689-.727,10.66,4.453,16.6,12.953,18.612,24.022,1.326,7.292,1.382,14.848-1.109,21.936a84.884,84.884,0,0,1-17.488,29.363,108.019,108.019,0,0,1-30.671,23.384c-8.973,4.61-18.191,8.848-28.363,10.229a27.224,27.224,0,0,1-6.238.143A215.7,215.7,0,0,1,79.115,138.2c-14.486-5.322-28.24-12.017-40.517-21.337A144.949,144.949,0,0,1,18.68,99.123C8.585,87.981,1.532,74.872.229,59.657-1.455,40,6.193,24.233,22.436,12.913,34.489,4.511,48.056.658,62.681.427c5.7-.091,11.411.132,17.108-.053C86.843.145,93.4,2.328,100.031,4.169a120.26,120.26,0,0,1,14.184,4.508c6.652,2.772,13.185,5.842,18.991,10.3,3.883,2.978,4.681,2.845,8.758-.014A109.751,109.751,0,0,1,167.345,5.916a97.334,97.334,0,0,1,44.8-5.271c17.952,2.014,34.926,7.723,48.017,21.06C271.79,33.55,276.872,47.976,275.34,64.713c-1.221,13.346-7,24.65-14.568,35.338-8.907,12.579-20.738,21.708-33.758,29.6-7.394,4.479-15.3,7.716-23.35,10.692a28.043,28.043,0,0,1-5.254.894l-.65-1.127" transform="translate(0 0)" fill="#e20a13"/>
    <path id="Trazado_2983" data-name="Trazado 2983" d="M309.776,289.7c0-5.138-.047-10.277.055-15.412.014-.7.768-1.99,1.192-2,4.568-.058,9.2-.342,13.7.269,8.01,1.088,13.1,7.017,13.813,15.243,1.01,11.589-6.215,19.51-17.838,19.544-2.889.009-5.78-.058-8.668.007-1.631.036-2.257-.52-2.222-2.244.1-5.135.037-10.275.037-15.412h-.066m9.056-.055h.025c0,2.406.086,4.816-.027,7.216-.094,2.005.826,2.52,2.63,2.325,5.142-.555,7.884-4.321,7.8-10.17-.078-5.584-4.347-8.059-8.389-8.467-1.415-.143-2.091.387-2.056,1.881.056,2.4.015,4.811.015,7.217" transform="translate(-117.386 -103.142)" fill="#e20a13"/>
    <path id="Trazado_2984" data-name="Trazado 2984" d="M113.617,290.553c.617,9.76-6.476,18.266-18.63,17.5-8.158-.515-14.838-8.479-15.336-17.912-.495-9.384,8.615-17.827,17.207-17.61,8.7.219,17.356,6.751,16.759,18.024m-24.679.154c0,.215-.026.778,0,1.338.223,4.163,2.633,7.218,6.171,7.84,4.479.787,7.523-.72,9.017-5.162a14.042,14.042,0,0,0,.481-7.025c-1.326-6.345-6.889-8.936-11.9-5.874-3.218,1.969-3.876,5.093-3.776,8.883" transform="translate(-30.177 -103.273)" fill="#e20a13"/>
    <path id="Trazado_2985" data-name="Trazado 2985" d="M46.213,272.6a54.8,54.8,0,0,1,6.627.109c.53.066,1.263,1.468,1.274,2.264.083,6.5,0,13,0,19.5,0,3.692,0,7.384.1,11.074.04,1.564-.5,2.263-2.1,2.041a15.361,15.361,0,0,0-1.92-.122c-3.962-.043-3.967-.039-3.977-4.119-.007-2.649-.05-5.3.031-7.945.045-1.463-.51-2.027-1.963-1.969-1.923.077-3.854.1-5.775.012-1.6-.071-2.128.622-2.1,2.142.068,3.29-.04,6.584.083,9.87.061,1.618-.525,2.055-2.067,2.072-5.513.06-5.552.107-5.567-5.342-.026-9.229.039-18.459-.027-27.688-.01-1.413.52-1.776,1.768-1.9,5.758-.589,5.86-.514,5.845,5.312a49.189,49.189,0,0,0,.1,5.77,2.4,2.4,0,0,0,1.618,1.627c1.984.2,4.006.011,6.009.083,1.585.057,2.15-.637,2.079-2.159-.078-1.682-.032-3.37-.036-5.055s0-3.36,0-5.576" transform="translate(-10.926 -103.213)" fill="#e20a13"/>
    <path id="Trazado_2986" data-name="Trazado 2986" d="M255.079,288.619c-.179,1.456-.381,2.367-.388,3.28-.03,4.413-.045,8.828.018,13.241.02,1.4-.353,1.973-1.886,2-5.252.089-5.289.149-5.314-5.04-.046-9.63-.043-19.26-.054-28.89,0-.306.071-.611.186-1.537l21.382,19.064.562-.443c0-1.158.016-2.316,0-3.475-.072-4.645-.191-9.29-.171-13.935,0-.41.861-1.118,1.373-1.168,1.579-.154,3.183-.057,5.091-.057v35.413l-20.8-18.452" transform="translate(-93.773 -102.934)" fill="#e20a13"/>
    <path id="Trazado_2987" data-name="Trazado 2987" d="M200.708,271.084q8.24,16.033,16.518,32.14l-6.613,3.329c-.272-.33-.422-.435-.463-.573-1.54-5.222-1.538-5.247-6.995-5.342-2.649-.046-5.306.143-7.946,0-2.2-.124-3.182.852-3.7,2.868-.943,3.666-1.32,3.776-4.7,1.953a8.358,8.358,0,0,0-1.266-.691c-2.123-.7-2.076-1.931-1.155-3.683,4.286-8.153,8.5-16.341,12.725-24.526.924-1.789,1.776-3.615,2.661-5.424l.931-.047m3.751,22.029c-1.28-3.056-2.3-5.5-3.328-7.944l-.787-.108-4.216,8.052Z" transform="translate(-69.647 -102.727)" fill="#e20a13"/>
    <path id="Trazado_2988" data-name="Trazado 2988" d="M367.023,307.273c-2.064-.94-3.923-1.677-5.648-2.649a2,2,0,0,1-.556-1.874c2.81-5.754,5.73-11.454,8.623-17.168,2.025-4,4.036-8.01,6.082-12,1.08-2.107,1.7-2.225,2.8-.17,3.875,7.186,7.615,14.446,11.383,21.69,1.183,2.275,2.29,4.589,3.441,6.881.662,1.318.6,2.174-1.1,2.639a9.72,9.72,0,0,0-2.868,1.7c-1.279.922-2.3.642-2.416-.845-.338-4.5-3.3-4.724-6.745-4.555-2.883.141-5.776.125-8.664.073a2.378,2.378,0,0,0-2.755,2.014,40.7,40.7,0,0,1-1.579,4.267m13.766-13.737-2.765-8.167c-3.719,1.57-3.271,5.308-4.9,8.167Z" transform="translate(-136.707 -103.049)" fill="#e20a13"/>
    <path id="Trazado_2989" data-name="Trazado 2989" d="M145.177,272.229c2.731,0,5.2.018,7.666-.006,1.686-.016,1.4,1.2,1.4,2.2.012,7.225.109,14.451-.055,21.672-.054,2.443.629,3.366,3.09,3.105,1.666-.176,3.37.054,5.051-.038,1.441-.079,1.972.406,2,1.9.1,6.3.14,6.3-6.171,6.3-3.691,0-7.384-.039-11.075.006-1.255.016-1.93-.274-1.925-1.72.036-10.989.019-21.978.019-33.422" transform="translate(-55.008 -103.159)" fill="#e20a13"/>
    <path id="Trazado_2990" data-name="Trazado 2990" d="M405.257,220.7c4.613-.087,9.494,4.852,9.547,9.663.054,4.933-4.421,9.444-9.541,9.619a9.851,9.851,0,0,1-10.1-9.763c-.052-5.134,4.484-9.413,10.09-9.519m-1.414,10.4.715-.193,3.317,5.526.669-.349c.044-.381.234-.822.107-1.135a10.1,10.1,0,0,1-.455-7.223c.263-.819-.921-2.872-1.786-3.11-1.535-.421-3.338.07-5.011.307-.206.029-.42.835-.428,1.285-.05,2.473-.142,4.953,0,7.418a13.732,13.732,0,0,0,1,3.216l.949-.145q.462-2.8.924-5.6" transform="translate(-149.749 -83.633)" fill="#e20a13"/>
    <path id="Trazado_2991" data-name="Trazado 2991" d="M409.417,232.916c-.495-1.082-1.083-1.782-1.025-2.423.048-.531.857-.993,1.329-1.486a13.035,13.035,0,0,1,1.669,2.251c.073.149-1,.858-1.974,1.658" transform="translate(-154.759 -86.782)" fill="#e20a13"/>
  </g>
</svg>
