<?xml version="1.0" encoding="UTF-8"?>
<svg id="Capa_1" xmlns="http://www.w3.org/2000/svg" viewBox="0 0 309 38">
  <defs>
    <style>
      .cls-1 {
        fill: none;
      }

      .cls-2 {
        fill: #fff;
      }

      .cls-3 {
        fill: #10049c;
      }
    </style>
  </defs>
  <rect class="cls-1" width="309" height="38"/>
  <g id="Grupo_228">
    <path id="Trazado_1393" class="cls-2" d="M280.93,14h.07c1.76-2.28,3.81-2.67,6.09-2.67l-.42,5.83c-.49-.03-.98-.03-1.43-.03-4.53,0-4.69,2.6-4.85,5.63l-.42,6.81h-7.07l.95-13.55c.13-1.57.17-3.15.1-4.72h6.74l.26,2.7Z"/>
    <path id="Trazado_1394" class="cls-2" d="M245.08,29.57l1.82-26.19h6.68l-1.82,26.19h-6.68Z"/>
    <path id="Trazado_1395" class="cls-2" d="M234.26,2.7c5.41,0,10.91,2.34,10.68,8.92h-7.43c.14-1.89-1.28-3.53-3.17-3.67-.12,0-.24-.01-.35,0-2.51,0-5.47,1.89-5.99,7.3s.16,9.54,4.56,9.54c2.32.1,4.33-1.6,4.62-3.91h7.36c0,2.93-2.41,8.96-12.41,8.96-10.55,0-12.41-7.69-11.56-14.82.75-5.99,5.02-12.31,13.68-12.31"/>
    <path id="Trazado_1396" class="cls-2" d="M211.27,14.98h8.83l-2.83,5.7h-8.83l2.83-5.7Z"/>
    <path id="Trazado_1397" class="cls-2" d="M197.56,38.36h-6.35l4.1-8.5-6.71-18.56h7.78l3,11.33,4.79-11.33h6.42l-13.03,27.06Z"/>
    <path id="Trazado_1398" class="cls-2" d="M98.81,11.3v2.47h.07c1.57-1.99,4.02-3.08,6.55-2.9,2.48,0,5.05,1.37,5.54,3.22,1.53-2.16,4.03-3.41,6.68-3.32,3.97,0,6.74,2.54,6.48,6.58l-.88,12.21h-6.97l.75-10.72c.1-1.73-.03-3.71-2.34-3.71-3.35,0-3.22,3.74-3.26,3.97l-.68,10.46h-7.03l.78-10.72c.03-1.79-.2-3.71-2.41-3.71-3.55,0-3.45,3.74-3.45,3.97l-.72,10.49h-7.23l1.27-18.27,6.87-.03Z"/>
    <path id="Trazado_1399" class="cls-2" d="M84.05,11.3h6.52l-1.27,18.27h-6.51l1.27-18.27Z"/>
    <path id="Trazado_1400" class="cls-2" d="M73.73,3.38l-9.15,11.63,8.14,14.56h9.18l-9.15-14.95,9.64-11.24h-8.66Z"/>
    <path id="Trazado_1401" class="cls-2" d="M57.58,3.38h7.65l-1.82,26.19h-7.69l1.86-26.19Z"/>
    <path id="Trazado_1402" class="cls-2" d="M153.3,21.62c-.2,2.51.36,4.56,2.96,4.56,1.92,0,3.13-1.27,3.13-2.47h6.38c-.25,2.14-1.57,4.01-3.52,4.95-1.73.91-3.68,1.33-5.63,1.2-7.43,0-10.32-3.09-9.87-10,.39-5.76,5.02-9.18,10.52-9.09,7.33.13,9.67,4.43,8.99,10.88h-12.96v-.03ZM159.91,18.17c.07-.96-.16-1.91-.65-2.74-.47-.79-1.36-1.25-2.28-1.17-2.41.1-3.03,1.82-3.35,3.88h6.28v.03Z"/>
    <path id="Trazado_1403" class="cls-2" d="M126.46,3.38h6.84l-.72,10.42h.13c1.37-1.82,3.49-2.92,5.77-3,5.6,0,7.75,4.92,7.43,9.35-.29,4.49-2.67,9.64-8.89,9.64-1.99-.02-3.86-.94-5.08-2.51h-.13l-.42,2.22h-6.71l1.79-26.12ZM131.93,20.68c-.1,2.22.46,5.37,2.96,5.37,3.16,0,3.94-3.16,4.07-5.7.1-2.25-.33-5.57-3.03-5.54-3.45,0-3.91,3.45-4.01,5.86"/>
    <path id="Trazado_1404" class="cls-2" d="M180.2,29.57l1.82-26.19h6.68l-1.82,26.19h-6.68Z"/>
    <path id="Trazado_1405" class="cls-2" d="M174.56,14h.07c1.76-2.28,3.81-2.67,6.06-2.67l-.42,5.83c-.46-.03-.94-.03-1.4-.03-4.53,0-4.69,2.6-4.85,5.63l-.42,6.81h-7.07l.95-13.55c.13-1.57.17-3.15.1-4.72h6.74l.26,2.7Z"/>
    <path id="Trazado_1406" class="cls-2" d="M294.42,19.41l6.51-8.11h7.82l-7.03,7.72,6.64,10.55h-8.47l-5.47-10.16Z"/>
    <path id="Trazado_1407" class="cls-2" d="M286.83,29.57l1.82-26.19h6.9l-1.82,26.19h-6.9Z"/>
    <path id="Trazado_1408" class="cls-2" d="M264.88,27.32h-.07c-1.42,1.56-3.43,2.42-5.54,2.38-4.33,0-6.12-2.44-6.12-5.67,0-3.61,3.71-5.96,10.33-5.96h2.18c.1-1.6.65-4.23-2.05-4.23-1.95,0-2.41,1.86-2.44,2.73h-6.29c-.06-2.08,1.17-3.98,3.09-4.79,2.02-.79,4.18-1.15,6.35-1.08,3.71,0,8.24,1.86,7.95,6.35l-.52,8.76c-.07,1.25-.06,2.5.03,3.74h-6.51l-.39-2.25ZM261.88,26.08c3.22,0,3.42-3,3.58-5.44-1.28-.12-2.58,0-3.81.39-1.08.46-1.82,1.47-1.92,2.64-.14,1.19.71,2.26,1.9,2.4.08,0,.17.01.25.01"/>
    <path id="Trazado_1409" class="cls-2" d="M84.71,3.38h6.51l-.33,4.72h-6.52l.33-4.72Z"/>
    <path id="Trazado_1410" class="cls-3" d="M16.64,3.55v11.14c-1.08-2.11-2.76-3.85-4.82-5.02H3.44c2.7,2.02,7,5.18,7,7.72,0,1.27-1.53,1.5-2.41,1.5H2.76v6.06h8.27c2.43.15,4.68-1.26,5.6-3.52v8.11h7.69v-8.11c.91,2.26,3.17,3.68,5.6,3.52h8.27v-6.06h-5.28c-.88,0-2.41-.26-2.41-1.5,0-2.54,4.3-5.7,7-7.72h-8.36c-2.06,1.16-3.74,2.91-4.82,5.02V3.55h-7.69ZM20.48-.36c11.43,0,20.71,7.98,20.71,17.82s-9.28,17.81-20.71,17.81S-.23,27.29-.23,17.45,9.02-.4,20.48-.36"/>
  </g>
</svg>