<svg xmlns="http://www.w3.org/2000/svg" xmlns:xlink="http://www.w3.org/1999/xlink" width="125" height="24" viewBox="0 0 125 24">
  <defs>
    <clipPath id="clip-Mesa_de_trabajo_2">
      <rect width="125" height="24"/>
    </clipPath>
  </defs>
  <g id="Mesa_de_trabajo_2" data-name="Mesa de trabajo – 2" clip-path="url(#clip-Mesa_de_trabajo_2)">
    <rect width="125" height="24" fill="#fff"/>
    <g id="Grupo_121" data-name="Grupo 121">
      <g id="Grupo_7" data-name="Grupo 7" transform="translate(100.44 0.064)">
        <path id="Trazado_1" data-name="Trazado 1" d="M827.323,99.648c3.346-5.173-.066,0,3.339-5.132a3.443,3.443,0,0,0,.752-1.81,2.622,2.622,0,0,0-.6-1.449,11.578,11.578,0,0,1-.888-1.668.245.245,0,0,0-.229.095c-5.26,8.707-7.244,11.673-7.562,12.152a.03.03,0,0,0,.034.047,41.39,41.39,0,0,0,5.15-2.234" transform="translate(-817.28 -78.173)" fill="#ec2944" fill-rule="evenodd"/>
        <path id="Trazado_2" data-name="Trazado 2" d="M902.182,60.407c-2.541-5.7-5.485-12.078-8.216-18.083a.129.129,0,0,0-.224-.02c-.852,1.258-1.92,3.062-2.477,3.965-.21.341.373,1.567.6,2.014,1.022,2.007,1.974,3.834,3.058,5.807a9.667,9.667,0,0,0,.842,1.213c2.212,2.679,2.348,3.1,4.268,5.229a.262.262,0,0,0,.133.076c.306,0,1.437.021,1.9,0a.146.146,0,0,0,.113-.2" transform="translate(-877.513 -36.899)" fill="#ec2944" fill-rule="evenodd"/>
        <path id="Trazado_3" data-name="Trazado 3" d="M798.625.781a2.666,2.666,0,0,1-.986.338,1.687,1.687,0,0,1-.682-.086,1.9,1.9,0,0,0-1.485.156,4.733,4.733,0,0,0-1.361,1.137c-1.19,1.372-8.818,19.693-9.855,21.827a.041.041,0,0,0,.037.06c.387,0,2.276.021,2.3-.007,3.349-4.666,11.17-18.183,13.019-20.732.8-1.1,1.127-1.188,1.966-.646a.044.044,0,0,0,.068-.03A1.991,1.991,0,0,0,798.625.781" transform="translate(-784.251 -0.503)" fill="#ec2944" fill-rule="evenodd"/>
      </g>
      <path id="Trazado_4" data-name="Trazado 4" d="M177.34,26.213q1.3-1.632,2.632-3.229c-3.269-1.125-4.58-4.269-4.658-7.25-.1-3.811,2.1-8.106,7.428-8.106a6.876,6.876,0,0,1,6.989,5.123c1.09-.965,2.212-1.894,3.366-2.773a10.9,10.9,0,0,0-10.355-6.225c-7.814,0-11.625,5.974-11.625,11.916,0,4.372,2,8.606,6.224,10.543" transform="translate(-149.239 -3.273)" fill="#fff"/>
      <path id="Trazado_5" data-name="Trazado 5" d="M286.812,9.7q-1.295,1.632-2.628,3.232c3.271,1.121,4.585,4.264,4.666,7.245.1,3.81-2.089,8.108-7.418,8.114a6.873,6.873,0,0,1-6.994-5.115q-1.633,1.451-3.362,2.778a10.9,10.9,0,0,0,10.362,6.213c7.814-.01,11.618-5.989,11.61-11.93,0-4.372-2.015-8.6-6.237-10.537" transform="translate(-236.391 -8.456)" fill="#fff"/>
      <path id="Trazado_6" data-name="Trazado 6" d="M20.955,21.407a11.912,11.912,0,0,1-8.59,3.359c-8.4,0-11.949-5.78-11.982-11.657C.352,7.2,4.195,1.191,12.365,1.191a11.663,11.663,0,0,1,8.3,3.456L17.822,7.392A7.763,7.763,0,0,0,12.365,5.26c-5.458,0-7.815,4.069-7.783,7.848.033,3.746,2.2,7.653,7.783,7.653a8.325,8.325,0,0,0,5.684-2.292Z" transform="translate(-0.383 -1.039)" fill="#fff"/>
      <path id="Trazado_7" data-name="Trazado 7" d="M486.042,32.374h-5.07l-6.587-7.556h-4.1v7.556H466.02V9.736c3.585,0,7.169.033,10.754.033,5.329.032,8.138,3.585,8.138,7.492,0,3.1-1.421,6.233-5.716,7.1l6.847,7.718ZM470.283,13.74v7.234h6.491a3.525,3.525,0,0,0,3.875-3.616,3.542,3.542,0,0,0-3.875-3.617Z" transform="translate(-406.356 -8.489)" fill="#fff"/>
      <path id="Trazado_8" data-name="Trazado 8" d="M639.48,6.233a6.479,6.479,0,0,0-5.361-2.519c-3.165,0-4.682,1.325-4.682,3,0,1.97,2.324,2.518,5.037,2.841,4.715.582,9.107,1.809,9.107,7.2,0,5.038-4.457,7.2-9.495,7.2-4.618,0-8.171-1.421-9.85-5.555l3.553-1.84c1,2.486,3.617,3.585,6.362,3.585,2.68,0,5.2-.936,5.2-3.391,0-2.132-2.228-3-5.231-3.326-4.619-.549-8.881-1.776-8.881-6.847,0-4.65,4.586-6.555,8.752-6.587,3.52,0,7.169,1,8.881,4.488Z" transform="translate(-544.3 -0.001)" fill="#fff"/>
    </g>
  </g>
</svg>
