<svg xmlns="http://www.w3.org/2000/svg" width="193.202" height="192.703" viewBox="0 0 193.202 192.703">
  <g id="Grupo_2251" data-name="Grupo 2251" transform="translate(-24.753 -25.399)">
    <g id="Grupo_2250" data-name="Grupo 2250" transform="translate(24.753 25.4)">
      <path id="Trazado_2870" data-name="Trazado 2870" d="M81.164,76.851c-1.49-1.621-2.822-3.122-4.211-4.569q-3.882-4.044-7.828-8.03a.73.73,0,0,1-.2-.978c.4-.79.768-1.6,1.208-2.528a13.4,13.4,0,0,0,.834,1.4c1.566,2,3.038,4.094,4.768,5.945,2.071,2.217,4.374,4.218,6.567,6.322.4.381.661.356,1.06-.056a112.687,112.687,0,0,1,19.118-15.922,12.093,12.093,0,0,0,4.287-4.772,48.856,48.856,0,0,1,4.669-7.958,10.957,10.957,0,0,1,7.231-4.64,8.639,8.639,0,0,1,8.255,2.8,2.678,2.678,0,0,0,1.123.706c2.275.762,4.565,1.48,7,2.263l-4.957,2.8,4.923,2.016c-.717.286-1.329.526-1.939.774a37.226,37.226,0,0,0-9.642,5.393,15.772,15.772,0,0,0-4.866,6.3c-.1.252-.188.512-.292.8a7.478,7.478,0,0,1,1.04.4,26.94,26.94,0,0,1,2.786,1.692,6.884,6.884,0,0,0,1.846,1.036c1.688.59,3.362,1.214,5.042,1.828.162.059.317.139.555.246L124.628,72.9l4.473,2.481a30.768,30.768,0,0,0-13.353,7.529c.345.019.544.042.742.04,4.95-.051,9.9-.188,14.851-.136,5.505.058,11.015.185,16.512.479,3.445.184,6.871.73,10.305,1.113.174.019.349.033.583.055a2.2,2.2,0,0,0-.11-.36,38.347,38.347,0,0,1-4.044-12.835,32.55,32.55,0,0,0-.913-3.877c-.583-2.123-2.111-3.092-4.2-3.415a26.569,26.569,0,0,0-7.189.067c-1.415.165-2.823.4-4.312.619l3.063-5.081-6.189.45c.367-.44.637-.77.913-1.095,1.287-1.515,2.619-3,3.846-4.558a9.175,9.175,0,0,0,1.276-2.324c.554-1.421.862-2.948,1.5-4.326,1.947-4.212,5.413-6.232,9.95-6.589a14.205,14.205,0,0,1,12.161,4.991,8.231,8.231,0,0,1,.6.664c2.961,4.08,7.054,6.964,10.77,10.25,3.142,2.778,6.217,5.633,9.3,8.479a.688.688,0,0,0,1,.1c5.12-3.046,8.438-7.569,10.693-12.973a21.132,21.132,0,0,0,1.78-7.374,1.465,1.465,0,0,1,.081-.254l10.664.9c-.148.23-.262.408-.377.583a33.752,33.752,0,0,0-4.59,9.383,7.58,7.58,0,0,0-.2,2.406,1.092,1.092,0,0,0,1.443,1.088,4.4,4.4,0,0,0,1.424-.565,15.647,15.647,0,0,0,4.51-4.373c1.542-2.121,3.018-4.291,4.522-6.439.135-.192.272-.382.45-.635l7.983,6.447c-.235.141-.413.243-.586.353-1.463.917-2.942,1.811-4.378,2.769a4.821,4.821,0,0,0-1.16,1.184c-.521.716-.314,1.413.554,1.6a6.35,6.35,0,0,0,2.349.059,24.142,24.142,0,0,0,7.784-2.885c.134-.075.272-.145.461-.245V67.193a65.934,65.934,0,0,0-16.726,2.722,11.585,11.585,0,0,0,.92.852,13.086,13.086,0,0,0,4.949,1.963c.734.172,1.482.29,2.212.476a.547.547,0,0,1,.325.415c-.368,2.7-.764,5.388-1.157,8.08a.457.457,0,0,1-.063.121c-1.438-.563-2.871-1.141-4.317-1.687a46.068,46.068,0,0,0-15.686-2.89,1.282,1.282,0,0,0-.856.373,15.359,15.359,0,0,0-1.358,1.735.672.672,0,0,0,.028.6,179.951,179.951,0,0,1,9.329,15.669c5,9.272,9.571,18.758,13.949,28.336q3.815,8.347,7.5,16.753c.575,1.3.98,2.681,1.523,4.193-4.665-2.579-9.025-5.372-13.485-8.367.1.354.139.534.2.708,1.652,4.851,3.317,9.7,4.947,14.554a10.73,10.73,0,0,1,.523,2.432,1.394,1.394,0,0,1-1.4,1.715c-1.34.089-2.692-.008-4.038-.032-.317-.006-.635-.038-.952-.062a3.423,3.423,0,0,0-2.969,1.2q-1.977,2.191-4.057,4.287a3.513,3.513,0,0,1-1.352.819,1.917,1.917,0,0,1-2.456-1.14,11.66,11.66,0,0,1-.7-2.629q-2.553-15.16-5.067-30.326c-.308-1.842-.611-3.685-.945-5.521a1.443,1.443,0,0,0-.4-.757c-3.714-3.454-7.367-6.968-10.747-10.757a1.283,1.283,0,0,0-.418-.323c-1.4-.618-2.8-1.224-4.208-1.83a1.162,1.162,0,0,0-.26-.038,1.425,1.425,0,0,0-.072.292,35.739,35.739,0,0,0,.472,8.315,1.646,1.646,0,0,1-.557,1.8c-.718.656-1.335,1.419-2.033,2.1a1.637,1.637,0,0,0-.536,1.366c.077,1.708.054,3.42.153,5.126a2.271,2.271,0,0,1-.761,1.968,51.02,51.02,0,0,1-4.227,3.575q-4.832,3.384-9.826,6.534c-3.423,2.163-7.274,3.354-11.1,4.585-1.1.353-2.18.767-3.3,1.021a12.847,12.847,0,0,1-2.719.275c-4.314.034-8.628.055-12.941.026-2.7-.018-5.408-.24-8.107-.163a38.2,38.2,0,0,0-5.969.715c-3,.567-5.971,1.313-8.961,1.949a12.808,12.808,0,0,1-4.738-.179,26.123,26.123,0,0,1-7.255-2.46.837.837,0,0,0-.934.02c-2.449,1.661-4.973,3.22-7.331,5q-5.544,4.185-10.9,8.623a19.962,19.962,0,0,1-9.306,4.139,30.842,30.842,0,0,1-4.554.36,2.32,2.32,0,0,1-1.848-.926,10.323,10.323,0,0,0-9.2-3.646,2.855,2.855,0,0,0-.768.081,2.135,2.135,0,0,1-2.09-.46,12.48,12.48,0,0,1-4.372-5.4,24.371,24.371,0,0,1-2.341-10.261,26.721,26.721,0,0,1,.816-7.373,4.347,4.347,0,0,1,3.869-3.342c5.409-.87,10.412-2.969,15.46-4.945a1.505,1.505,0,0,0,.219-.136,1,1,0,0,0-.128-.206,70.546,70.546,0,0,1-6.922-7.957,6.726,6.726,0,0,1-1.315-3.9,9.606,9.606,0,0,0-1.077-3.981c-.945-1.814-1.781-3.684-2.676-5.524a.854.854,0,0,1,.13-1.036c.435-.515.861-1.043,1.243-1.6a1.583,1.583,0,0,0,.035-1.9c-.544-.831-1.069-1.674-1.607-2.51-.44-.686-.407-1.087.308-1.477a3.588,3.588,0,0,0,1.865-4.182,4.22,4.22,0,0,1,2.059-4.575,18.3,18.3,0,0,1,5.241-2.236A65.978,65.978,0,0,1,74.3,84.43a1.33,1.33,0,0,0,1-.538c.837-1.086,1.713-2.143,2.572-3.212.094-.117.177-.245.266-.367l-.051-.192L63.764,81.573c.5-.96.943-1.815,1.41-2.654.052-.092.272-.135.411-.128a73.048,73.048,0,0,0,14.36-1.1c.4-.062.745-.5,1.219-.837M89,147.975a2.35,2.35,0,0,0,2.343-.036,6.087,6.087,0,0,0,1.217-.743c1.222-1.046,2.434-2.107,3.607-3.209a9.548,9.548,0,0,1,2.984-1.817,1.465,1.465,0,0,1,1.256.04,33.463,33.463,0,0,0,6.97,2.407,8.475,8.475,0,0,0,5.757-.43,8.88,8.88,0,0,1,2.759-.678,135.965,135.965,0,0,1,19.087-1.2c4.235.059,8.468.194,12.7.292a3.288,3.288,0,0,0,.948-.033c2.006-.566,4.012-1.134,6-1.752a44.743,44.743,0,0,0,19.455-12.039,7.905,7.905,0,0,0,1.869-3.191c.332-1.066.136-1.471-.939-1.833a3.353,3.353,0,0,0-.518-.134,13.139,13.139,0,0,0-8.471,1.5,2.212,2.212,0,0,1-1.989.033,9.314,9.314,0,0,1,2.574-1.959A31.686,31.686,0,0,1,176,120a1.049,1.049,0,0,0,.642-.419,25.4,25.4,0,0,0,3.478-10.432c.152-1.47.119-1.458-1.245-2.044a.559.559,0,0,0-.8.182c-.635.815-1.268,1.638-1.97,2.395-1.147,1.238-2.286,2.493-3.539,3.618a3.486,3.486,0,0,1-5.379-.629c-1.055-1.515-2.08-3.057-3.021-4.644-1.9-3.213-3.735-6.468-5.61-9.7a6.547,6.547,0,0,0-.726-.852,8.707,8.707,0,0,0-1.353,4.225c-.565-.2-1.058-.406-1.568-.551a.5.5,0,0,1-.393-.709c.337-1.2.683-2.4,1.017-3.6a1.3,1.3,0,0,0,.108-.625,2.192,2.192,0,0,0-1.409-1.582,1.473,1.473,0,0,0-1.695.588,17.758,17.758,0,0,0-1.2,2.163c-.091.17-.123.433-.259.506-.653.349-1.333.647-2.1,1.01a11.442,11.442,0,0,1,1.341-5.217,4.09,4.09,0,0,1,4.736-2.009,7.291,7.291,0,0,1,4.209,3.222q3.516,4.852,7.039,9.7c.114.157.246.3.422.515.12-.24.211-.409.289-.584.68-1.524,1.343-3.056,2.044-4.569a.752.752,0,0,0-.136-.941,94.333,94.333,0,0,1-7.56-10.27,1.655,1.655,0,0,0-1.111-.781,64.314,64.314,0,0,0-10.97-1.519c-4.464-.276-8.935-.522-13.4-.563-7.376-.068-14.753.036-22.13.091a.93.93,0,0,0-.68.421,41.408,41.408,0,0,0-1.894,3.912c-.817,2.089-1.5,4.228-2.244,6.346-.088.251-.1.583-.519.49-.615-.135-1.232-.262-1.876-.4.031-.149.046-.244.071-.336a47.265,47.265,0,0,1,3.2-8.711c3.011-6.091,7.567-10.442,14.114-12.559.144-.046.278-.12.534-.232l-3.071-1.852,3.731-2.341c-.507-.17-.873-.305-1.246-.416a8.236,8.236,0,0,1-3.5-1.687,5.061,5.061,0,0,0-1.224-.73,6.574,6.574,0,0,0-8.464,1.785,18.731,18.731,0,0,0-2.039,3.279,11.922,11.922,0,0,1-2.6,3.531,31.667,31.667,0,0,1-3.354,2.766c-6.844,4.642-13.72,9.235-20.587,13.842-.114.077-.252.2-.365.185-.884-.11-1.766-.249-2.8-.4.838-.588,1.517-1.07,2.2-1.544q10.76-7.452,21.526-14.894a10.888,10.888,0,0,0,3.592-4.056,28.017,28.017,0,0,1,2.4-3.9,8.475,8.475,0,0,1,6.365-3.644c.2-.015.457-.282.555-.493a23.82,23.82,0,0,1,13.634-12.62c.138-.052.271-.121.547-.246l-3.671-1.548,3.729-2.5c-.776-.239-1.353-.446-1.945-.594a6.223,6.223,0,0,1-2.766-1.5,6.888,6.888,0,0,0-8.646-.641,10.24,10.24,0,0,0-3.227,3.225c-1.392,2.264-2.739,4.565-3.95,6.929a13.849,13.849,0,0,1-4.545,5.336c-1.677,1.139-3.355,2.28-4.98,3.49A125.356,125.356,0,0,0,73.688,90.374c-.963,1.309-1.9,2.64-2.873,4l-1.809-1.059L72.561,87.7c-.512.052-.921.086-1.328.135A34.65,34.65,0,0,0,64,89.271a9.394,9.394,0,0,0-2.37,1.208,1.771,1.771,0,0,0-.465,2.628,6.626,6.626,0,0,0,1.215,1.456,15.623,15.623,0,0,0,6.628,3.506,4.8,4.8,0,0,0,2.276-.057A25.21,25.21,0,0,0,74.516,96.8a9.566,9.566,0,0,1,5.785-.487,46.529,46.529,0,0,1,15.122,6.4,3.26,3.26,0,0,1,.377.34c-.793.321-1.524.58-2.221.909a1.513,1.513,0,0,1-1.4-.05c-2.716-1.219-5.411-2.5-8.192-3.555a12.26,12.26,0,0,0-10.868.677,26.546,26.546,0,0,1-3.57,1.486,1,1,0,0,1-.717-.039c-1.181-.57-2.344-1.177-3.513-1.771a20.678,20.678,0,0,1-5.162-3.284.873.873,0,0,0-.249-.115c-.212.76-.425,1.481-.6,2.211a.956.956,0,0,0,.09.508,9.622,9.622,0,0,0,3.318,4.354,19.9,19.9,0,0,0,13.8,4.268.854.854,0,0,1,.593.138c.506.494.968,1.033,1.477,1.587a6.325,6.325,0,0,1-4.42,1.791,27.659,27.659,0,0,1-3.994-.6,20.128,20.128,0,0,1-9.8-5.019c-.552-.525-1.12-1.033-1.685-1.554a3.127,3.127,0,0,0,.142,3.256,22.725,22.725,0,0,0,2.367,3.13,34.477,34.477,0,0,0,10.022,6.989,4.4,4.4,0,0,0,1.305.4c1.869.255,3.737.556,5.616.68a18.2,18.2,0,0,0,7.687-1.011,5.294,5.294,0,0,0,2.623-1.69,3.9,3.9,0,0,1,4.09-1.585,56.343,56.343,0,0,1,13.506,3.987c.07.029.145.046.323.1-.543.279-.909.437-1.243.646a3.216,3.216,0,0,1-3.076.2c-1.014-.4-2.053-.75-3.1-1.064A17.877,17.877,0,0,0,93.113,118a4.54,4.54,0,0,0-4.206,2.895,1.651,1.651,0,0,0,.775,2.247,8.859,8.859,0,0,0,2.076.868,26.247,26.247,0,0,0,7.626.774,123.151,123.151,0,0,0,13.7-1.3c.2-.028.505-.056.613.057.579.607,1.111,1.258,1.742,1.99-1.5.26-2.84.576-4.2.712-3.518.353-7.04.73-10.568.9a59.714,59.714,0,0,1-11.542-.521,3.545,3.545,0,0,1-2.917-1.882,3.447,3.447,0,0,0-1.82-1.554,10.967,10.967,0,0,0-4.49-.765c-1.69.012-3.38.048-5.069.016a11.007,11.007,0,0,1-5.491-1.359c-.719-.421-1.5-.726-2.225-1.143a17.128,17.128,0,0,1-5.188-3.842,6.992,6.992,0,0,1-.383-.59l-.17.152a.453.453,0,0,0-.018.156,9.577,9.577,0,0,0,2.8,5.141,43.375,43.375,0,0,1,3.078,3.147,4.476,4.476,0,0,0,2.509,1.381,7.078,7.078,0,0,0,3.467-.289,8.764,8.764,0,0,1,5.394.112,28.088,28.088,0,0,1,8.6,4.551,8.948,8.948,0,0,0,7.1,1.811c5.793-.838,10.026,3.037,11.227,8.641a.558.558,0,0,1-.108.463c-.606.467-1.239.9-1.9,1.373-.088-.256-.154-.44-.214-.626a14.036,14.036,0,0,0-2.05-4.084,6.816,6.816,0,0,0-7.417-2.835,5.005,5.005,0,0,0-3.012,2.244c-.184-.174-.327-.306-.466-.441a38.129,38.129,0,0,0-7.927-6.178,13.526,13.526,0,0,0-9.675-1.818,35.567,35.567,0,0,0-3.829.854c-1.541.514-3,1.267-4.52,1.848a75.322,75.322,0,0,1-12.9,4.011.823.823,0,0,0-.514.468c-.377,1.088-.722,2.187-1.046,3.292a15.118,15.118,0,0,0,.075,10.112,15.643,15.643,0,0,0,3.988,6.207,1.8,1.8,0,0,0,1.518.422,10.877,10.877,0,0,1,9.844,3.835,2.256,2.256,0,0,0,1.639.97,20.58,20.58,0,0,0,3.609-.151c2.714-.443,4.9-1.532,6.166-4.307,1.619-3.554,2.841-7.1,2.429-11.073a5.543,5.543,0,0,0-3.617-4.7c-1.8-.568-3.621-1.054-5.444-1.538a2.551,2.551,0,0,0-1.175-.022c-1.006.228-2,.518-2.989.8-1.96.566-3.916,1.145-5.873,1.719-.013-.023-.024-.045-.036-.068l6.028-4.079c-.015-.049-.031-.1-.047-.146L61.1,135.98c1.344-.421,2.526-.819,3.724-1.152a2.3,2.3,0,0,1,1.147-.013c2.134.553,4.244,1.2,6.386,1.714a26.209,26.209,0,0,1,6.363,2.322,11.605,11.605,0,0,1,3.747,2.992,2.242,2.242,0,0,1,.452,2c-.644,3.03-1.272,6.064-1.907,9.1-.167.8-.336,1.6-.486,2.308,1.386-1.1,2.758-2.233,4.167-3.313,1.542-1.182,3.207-2.222,4.314-3.954M183.147,106.3l.068-.1c-.127-.17-.251-.344-.383-.511a184.3,184.3,0,0,1-13.469-19.3A86.666,86.666,0,0,1,163.629,75.4a4.444,4.444,0,0,1-.453-2.6c.2-1.018,1.046-1.338,1.79-.614a5.388,5.388,0,0,1,1.014,1.515c.554,1.143,1,2.338,1.555,3.481a143.709,143.709,0,0,0,10.8,18.251,117.387,117.387,0,0,0,10.825,13.924,196.721,196.721,0,0,0,21.665,19.934,102.544,102.544,0,0,0,13.667,9.456c.216.121.438.229.78.407a3.544,3.544,0,0,0-.123-.4q-2.876-5.991-5.766-11.975a1.353,1.353,0,0,0-.518-.538,85.452,85.452,0,0,1-15.118-11.289A89.1,89.1,0,0,1,188.41,96.764c-.648-1.038-1.238-2.113-1.94-3.318.8.083,1.417.162,2.04.207a.913.913,0,0,1,.788.517c.61,1.024,1.227,2.047,1.9,3.028a93.781,93.781,0,0,0,15.17,16.926,53.034,53.034,0,0,0,9.6,7.034c.3.165.619.3.929.452a1.8,1.8,0,0,0-.218-.777c-1.665-3.476-3.308-6.963-5-10.426-3.909-8-7.922-15.946-12.54-23.568a69.184,69.184,0,0,0-7.29-10.307,194.891,194.891,0,0,0-20.2-19.409,69.406,69.406,0,0,1-8.974-8.622,17.252,17.252,0,0,0-2.482-2.4,10.152,10.152,0,0,0-13.839.809,11.534,11.534,0,0,0-2.651,4.747,8.59,8.59,0,0,1-2.085,3.825c-.62.626-1.154,1.338-1.848,2.155l5.9-.586-3.383,4.627c.373-.05.565-.072.756-.1a23.891,23.891,0,0,1,6.477-.182,7.387,7.387,0,0,1,6.8,5.612,33.2,33.2,0,0,1,.855,3.651,41.7,41.7,0,0,0,2.971,10.4c3,6.51,7.285,12.149,11.925,17.544a.693.693,0,0,1,.13.916c-1.066,2.133-2.011,4.333-3.2,6.4a2.86,2.86,0,0,0,.169,3.3c.16.252.32.5.493.746.614.855,1.127.925,1.936.274a28.256,28.256,0,0,0,5.785-5.978.491.491,0,0,1,.733-.191c1.462.672,2.931,1.328,4.4,1.986.206.093.418.17.628.255m33.691-55.179c-.654.881-1.256,1.692-1.859,2.5a39.747,39.747,0,0,1-5,5.988,10.058,10.058,0,0,1-3.947,2.491c-1.914.538-4.063-.523-4.39-2.235a7.353,7.353,0,0,1-.063-2.419,30.5,30.5,0,0,1,2.953-8.712c.1-.208.2-.418.335-.709-1.243-.158-2.4-.314-3.555-.433-.1-.01-.295.213-.331.357-.127.5-.173,1.02-.3,1.518a30.676,30.676,0,0,1-12.224,17.924c-.221.155-.442.312-.611.432l8.047,9.128c1.232-1.118,2.422-2.354,3.767-3.39a36.8,36.8,0,0,1,11-5.469,70.47,70.47,0,0,1,16-3.36c.437-.04.575-.208.567-.631-.022-1.053,0-2.107-.01-3.161a5.774,5.774,0,0,0-.07-.593c-1.082.32-2.1.654-3.127.916a15.685,15.685,0,0,1-5.394.79,3.14,3.14,0,0,1-2.494-1.186,2.944,2.944,0,0,1,.227-3.454,11.463,11.463,0,0,1,3.252-3.028c.172-.117.344-.236.581-.4l-3.349-2.868m-15.751,73.52a4.909,4.909,0,0,0,.029.517q.479,2.789.966,5.576,1.956,11.239,3.913,22.477c.232,1.33.446,2.664.719,3.985a1.258,1.258,0,0,0,2.1.881,7.348,7.348,0,0,0,1.2-1.134,4.94,4.94,0,0,0,1.183-4.967c-1.753-7.582-3.323-15.206-4.972-22.812a1.227,1.227,0,0,0-.328-.666c-1.567-1.28-3.157-2.534-4.817-3.856m7.763,6.334c.071.348.1.54.151.729q1.9,7.688,3.811,15.374c.379,1.522.761,3.042,1.168,4.556A2.42,2.42,0,0,0,216,153.582a10.648,10.648,0,0,0,2.2.117c1.2-.067,1.645-.712,1.4-1.894a4.942,4.942,0,0,0-.15-.515q-2.6-8.046-5.215-16.088a1.719,1.719,0,0,0-.579-.78c-1.4-1.05-2.82-2.068-4.235-3.095-.14-.1-.293-.184-.563-.352m9.281-52.417c.143-.95.254-1.813.41-2.667.092-.508-.041-.712-.582-.827a15.59,15.59,0,0,1-7.92-3.858.6.6,0,0,0-.515-.113,29.682,29.682,0,0,0-6.863,3.4,1.738,1.738,0,0,0-.265.326,42.229,42.229,0,0,1,15.735,3.741" transform="translate(-36.933 -34.205)" fill="#005695"/>
      <path id="Trazado_2871" data-name="Trazado 2871" d="M76.729,391.251c0-.211,0-.421,0-.632q-.071-13.689-.142-27.379a2.9,2.9,0,0,1,2.281-3.07,5.052,5.052,0,0,1,1.009-.07q35.7,0,71.4,0a2.047,2.047,0,0,1,2.332,2.345c0,.835.009,1.67,0,2.505a1.976,1.976,0,0,1-2.066,2.065c-.258.006-.517,0-.775,0H85.706v.862q0,17.687-.005,35.373a6.077,6.077,0,0,1-.123,1.36,2.589,2.589,0,0,1-2.431,2.047c-2.242.063-4.493.062-6.732-.067a4.242,4.242,0,0,1-3.508-2.368q-5.223-9.3-10.436-18.615c-1.92-3.435-3.814-6.883-5.722-10.324a.906.906,0,0,0-.4-.395c0,.216,0,.431,0,.647q.073,13.9.144,27.8a5.3,5.3,0,0,1-.052.95,2.768,2.768,0,0,1-2.815,2.414c-1.292.023-2.585.026-3.877,0a2.823,2.823,0,0,1-2.845-2.789c-.011-.2-.005-.4-.005-.6q0-20.311,0-40.623c0-2.231,1.15-3.391,3.374-3.384,2.008.006,4.02-.053,6.02.069a5.05,5.05,0,0,1,4.264,2.849q4.8,8.755,9.624,17.5,3.061,5.563,6.119,11.126c.083.151.177.3.266.444l.162-.036" transform="translate(-37.307 -214.676)" fill="#005695"/>
      <path id="Trazado_2872" data-name="Trazado 2872" d="M387.392,407.791a8.072,8.072,0,0,0,1.529,4.368c2.02,2.813,4.824,3.736,8.164,3.28a7.523,7.523,0,0,0,5.435-3.3,2.464,2.464,0,0,1,2.185-1.111c1.65.01,3.3.047,4.951-.013a1.72,1.72,0,0,1,1.708,2.215,10.5,10.5,0,0,1-2.494,4.621,16.39,16.39,0,0,1-9.354,4.859,17.7,17.7,0,0,1-3.364.441c-5.569-.026-10.394-1.812-13.909-6.328a19.053,19.053,0,0,1-3.778-14.664,17.266,17.266,0,0,1,5.136-10.508,15.906,15.906,0,0,1,10.1-4.447,18.827,18.827,0,0,1,9.713,1.573,15.438,15.438,0,0,1,8.324,9.853,17.8,17.8,0,0,1,.875,6.758,2.333,2.333,0,0,1-2.418,2.377,8.537,8.537,0,0,1-.894.023H387.392Zm16.013-6.645a7.226,7.226,0,0,0-4.307-6.085,7.978,7.978,0,0,0-8.7.868,7.071,7.071,0,0,0-2.862,5.217Z" transform="translate(-225.155 -230.454)" fill="#005695"/>
      <path id="Trazado_2873" data-name="Trazado 2873" d="M152.946,407.821c.071.45.11.839.2,1.218a8.213,8.213,0,0,0,9.638,6.4,7.649,7.649,0,0,0,5.317-3.281,2.47,2.47,0,0,1,2.174-1.127c1.69.007,3.38-.011,5.069.006a1.647,1.647,0,0,1,1.629,2.1,11.156,11.156,0,0,1-4.569,6.554,19.017,19.017,0,0,1-8.55,3.238,17.491,17.491,0,0,1-10.113-1.421,16.218,16.218,0,0,1-8.874-10.3,19.114,19.114,0,0,1,1.745-16.3,15.623,15.623,0,0,1,12.686-7.7,18.657,18.657,0,0,1,9.547,1.5c4.615,2.111,7.343,5.808,8.684,10.611a19.781,19.781,0,0,1,.726,5.714,2.512,2.512,0,0,1-2.576,2.748c-.257.02-.517.012-.775.012q-10.556,0-21.112,0c-.252,0-.5.021-.843.036m16.1-6.7c.339-3.074-3.71-6.744-7.512-6.922-5.252-.246-8.381,3.881-8.352,6.922Z" transform="translate(-92.243 -230.448)" fill="#005695"/>
      <path id="Trazado_2874" data-name="Trazado 2874" d="M230.686,411.049c.894,0,1.79-.029,2.683.009a1.7,1.7,0,0,1,1.644,1.09,5.292,5.292,0,0,0,3.534,3.129,11.223,11.223,0,0,0,6.98.059,3.161,3.161,0,0,0,2.467-2.69,2.063,2.063,0,0,0-.869-2.139,5.433,5.433,0,0,0-1.59-.787q-4.4-1.189-8.821-2.286a16.008,16.008,0,0,1-6.3-2.993c-4.393-3.531-3.8-9.768-.747-13.036a13.347,13.347,0,0,1,7.617-3.889,21.23,21.23,0,0,1,12.4,1.139,11.729,11.729,0,0,1,5.15,3.929,6.722,6.722,0,0,1,1.343,3.76,1.551,1.551,0,0,1-1.624,1.721c-1.511.019-3.022,0-4.534,0a1.909,1.909,0,0,1-1.968-1.224,4.581,4.581,0,0,0-2.786-2.378,10.4,10.4,0,0,0-6.39-.246,3.076,3.076,0,0,0-2.471,2.529,1.9,1.9,0,0,0,.966,2.233,19.694,19.694,0,0,0,3.371,1.3c3.058.857,6.154,1.582,9.209,2.453a10.441,10.441,0,0,1,4.256,2.448,9.593,9.593,0,0,1-.333,14.136,15.423,15.423,0,0,1-7.661,3.35,21.45,21.45,0,0,1-4.554.449c-4.248-.206-8.319-1.111-11.753-3.848a8.2,8.2,0,0,1-3.378-5.293,7.849,7.849,0,0,1-.055-1.249,1.708,1.708,0,0,1,1.646-1.709c.854-.033,1.71-.007,2.565-.007v.034" transform="translate(-139.103 -230.43)" fill="#005695"/>
      <path id="Trazado_2875" data-name="Trazado 2875" d="M44.482,51.15c-.544-.3-.913-.486-1.268-.7a3.224,3.224,0,0,1-1.562-2.022c-.094-.381-.264-.466-.628-.4a7.508,7.508,0,0,1-8.646-6.313,8.8,8.8,0,0,1,.018-2.192.777.777,0,0,0-.415-.909,6.987,6.987,0,0,1-3.61-4.8,6.746,6.746,0,0,1,3.547-7.2c2.844-1.54,5.53-1.036,8.027.831a1.074,1.074,0,0,0,1.3.139,8.934,8.934,0,0,1,11.1,2.528,8.815,8.815,0,0,1,1.736,5.645c-.011.435.1.583.558.593a6.22,6.22,0,0,1,6.379,6.55,5.014,5.014,0,0,0,.068.973,4.243,4.243,0,0,1,3.387-2.692l-.268-.73a7.869,7.869,0,0,1,3.213-9.775,7.225,7.225,0,0,1,5.124-.829.55.55,0,0,0,.715-.3,7.693,7.693,0,0,1,5.786-4.054A7.661,7.661,0,0,1,87.313,35.91a5.754,5.754,0,0,1-1.873,2.5.727.727,0,0,0-.289.9c.812,3.14.3,5.936-2.31,8.084a7.8,7.8,0,0,1-5.52,1.677c-.574-.029-.8.089-.855.706a7.793,7.793,0,0,1-.5,1.955A6.671,6.671,0,0,1,68.1,56.075c-4.323-.869-6.8-3.707-8.1-7.727-.456-1.414-.715-2.89-1.093-4.331a9.24,9.24,0,0,0-.533-1.451,6.528,6.528,0,0,0-5.849-3.96c-.155-.013-.311-.032-.461-.047-.11-.706-.177-1.4-.33-2.067a8.447,8.447,0,0,0-8.35-6.813,13.255,13.255,0,0,0-2.63.461.95.95,0,0,1-.924-.15,5.469,5.469,0,0,0-2.7-1.178,4.578,4.578,0,0,0-4.9,3.06A4.315,4.315,0,0,0,34.222,37.3a.866.866,0,0,1,.523.825,7.323,7.323,0,0,0,6.545,7.307c.956.135,1.931.142,2.9.208.743,3.135,2.908,4.8,5.971,5.606l-.152,1.227a16.024,16.024,0,0,0-1.753.01,5.7,5.7,0,0,0-3.807,2.243,1.842,1.842,0,0,1-1.618.717,12.725,12.725,0,0,0-6.96,1.751,6.471,6.471,0,0,0-3.306,5.226.812.812,0,0,1-.716.868A4.9,4.9,0,0,0,28.1,68.193a5.176,5.176,0,0,0,4.106,4.862,4.827,4.827,0,0,0,5.06-2.386.913.913,0,0,1,1.095-.493,7.7,7.7,0,0,0,8.284-5.284c.1-.379.167-.769.264-1.226,4.035.075,6.421-1.907,7.081-5.839a.868.868,0,0,1,.2-.056c1.359.134,1.434.141,1.322,1.506a11.742,11.742,0,0,1-.628,3.19,5.331,5.331,0,0,1-5.514,3.453c-.585-.009-.752.123-.814.73A6.86,6.86,0,0,1,40.8,72.777a9.818,9.818,0,0,1-1.692-.334c-.374-.113-.52,0-.7.3a6.843,6.843,0,0,1-5.262,3.59,6.027,6.027,0,0,1-2.351-.181,7.953,7.953,0,0,1-5.852-5.945,6.99,6.99,0,0,1,4.152-8.05,1.337,1.337,0,0,0,.958-1.378,7.8,7.8,0,0,1,6.067-7.294,10.055,10.055,0,0,1,4.493.078.637.637,0,0,0,.852-.356,3.9,3.9,0,0,1,3.016-2.058m30.225-4.124a1,1,0,0,1,.167-.037c4.786,0,7.682-4.4,7.822-7.624a6.819,6.819,0,0,1,.838-2.612,7.112,7.112,0,0,0,.356-.687,5.06,5.06,0,0,0-1.043-5.925c-2.147-1.738-5.513-2.63-7.911,1a1.879,1.879,0,0,0-.222.353c-.165.444-.478.528-.931.53a7.348,7.348,0,0,0-7.438,8.914c.187,1.057.178,1.043-.75,1.617a5.712,5.712,0,0,0-3.087,5.1,6.038,6.038,0,0,0,5.5,5.761,6.116,6.116,0,0,0,6.585-4.827,14.044,14.044,0,0,0,.113-1.563" transform="translate(-24.753 -25.4)" fill="#005695"/>
      <path id="Trazado_2876" data-name="Trazado 2876" d="M301.014,388.357c0-2.743-.013-5.486.011-8.229,0-.517-.131-.728-.666-.678a11.6,11.6,0,0,1-1.311.006,1.89,1.89,0,0,1-1.926-1.868c-.029-.913-.028-1.829,0-2.742a1.783,1.783,0,0,1,1.871-1.821c.4-.011.795,0,1.192,0,.828,0,.829,0,.829-.86q0-4.532,0-9.064c0-2.091.969-3.052,3.071-3.052,1.014,0,2.031.052,3.04-.012a2.646,2.646,0,0,1,2.863,2.849c-.012,3.121,0,6.241,0,9.362,0,.774,0,.777.786.777,1.69,0,3.379,0,5.069,0,1.468.005,2.075.605,2.084,2.054.005.815.012,1.63,0,2.445a1.8,1.8,0,0,1-1.942,1.935c-1.789.011-3.578.019-5.367-.007-.5-.007-.639.146-.638.641.017,4.93,0,9.859.015,14.788.011,3.287,1.856,5.171,5.138,5.3.179.007.358.007.537.012a1.912,1.912,0,0,1,2.108,2.165c0,.914.01,1.829,0,2.743a1.91,1.91,0,0,1-1.764,1.984,27.56,27.56,0,0,1-6.594-.258,10.536,10.536,0,0,1-8.391-10.539c-.029-2.643,0-5.287,0-7.931Z" transform="translate(-179.141 -215.092)" fill="#005695"/>
      <path id="Trazado_2877" data-name="Trazado 2877" d="M349.8,383.571q0-10.256,0-20.511a2.719,2.719,0,0,1,2.988-2.991c1.192,0,2.385-.007,3.578,0a2.713,2.713,0,0,1,2.846,2.847q0,20.69,0,41.381a2.729,2.729,0,0,1-2.8,2.838c-1.232.015-2.464.009-3.7,0a2.584,2.584,0,0,1-2.762-2.758q-.007-10.4,0-20.809h-.15" transform="translate(-209.016 -215.114)" fill="#005695"/>
      <path id="Trazado_2878" data-name="Trazado 2878" d="M398.557,366.518q-6.737,0-13.475,0c-1.294,0-1.794-.5-1.8-1.808,0-.517-.016-1.034.006-1.55a1.6,1.6,0,0,1,1.6-1.714q9.572-.976,19.145-1.947c2.647-.269,5.293-.554,7.942-.8a2.23,2.23,0,0,1,2.594,2.38c.01,1.013.013,2.027,0,3.04a2.335,2.335,0,0,1-2.421,2.4q-6.8.008-13.594,0" transform="translate(-227.991 -214.33)" fill="#005695"/>
      <path id="Trazado_2879" data-name="Trazado 2879" d="M70.891,56.181,69.668,57.7c-1.016-.766-2.011-1.481-2.967-2.246a73.952,73.952,0,0,1-8.015-7.3q-.264-.283-.513-.581c-.622-.742-.6-.726.076-1.44a.564.564,0,0,1,.864-.1c1.31.932,2.669,1.8,3.931,2.793a61.537,61.537,0,0,1,7.392,6.831c.146.159.282.328.455.53" transform="translate(-43.443 -37.004)" fill="#005695"/>
      <path id="Trazado_2880" data-name="Trazado 2880" d="M59.4,100.788a6.96,6.96,0,0,1,.487.942.577.577,0,0,1-.137.494,52.4,52.4,0,0,1-10.09,7.519l-.929-1.21A38.4,38.4,0,0,1,59.4,100.788" transform="translate(-38.343 -68.136)" fill="#005695"/>
      <path id="Trazado_2890" data-name="Trazado 2890" d="M244.137,217.623c-.527.768-.988,1.483-1.5,2.156-.109.142-.419.161-.641.179-1.979.157-3.964.264-5.939.46a6.659,6.659,0,0,0-5.029,2.923c-1.2,1.709-2.458,3.373-3.695,5.053-.47.639-.954,1.268-1.465,1.946a3.687,3.687,0,0,0,.326.275c3.579,2.405,7.3,2.332,11.016.448a25.008,25.008,0,0,0,3.713-2.566c.426-.325.735-.452,1.187-.14a8.746,8.746,0,0,0,.856.456c-.5.6-.933,1.155-1.407,1.681a16.864,16.864,0,0,1-7.647,4.654,2.5,2.5,0,0,1-1.166-.016c-2.829-.535-5.651-1.107-8.482-1.627a2.351,2.351,0,0,0-1.2.148q-7.18,2.738-14.345,5.521a9.884,9.884,0,0,1-3.671.677c-3.677-.027-7.354-.081-11.031-.111a1.671,1.671,0,0,1-1.3-.586c-.55-.6-1.151-1.149-1.84-1.828.734.114,1.32.241,1.913.291a39.927,39.927,0,0,0,11.553-.816c.99-.207,1.279-.781.911-1.706a12.476,12.476,0,0,0-4.608-5.643,2.036,2.036,0,0,0-1.938-.255c-1.556.583-3.113,1.187-4.608,1.91-1.715.829-3.372,1.781-5.039,2.707a5.125,5.125,0,0,1-3.673.647,36.179,36.179,0,0,1-9.182-3.426,3.378,3.378,0,0,1-.33-.246c1.037-.363,1.824-1.052,3.046-.521a25.853,25.853,0,0,0,4.112,1.178,7.36,7.36,0,0,0,4.965-.7q5.713-2.618,11.492-5.087a11.841,11.841,0,0,1,2.662-.562,1.056,1.056,0,0,1,1.079.574c2.079,2.983,4.187,5.947,6.273,8.925a.707.707,0,0,0,.94.318,45.028,45.028,0,0,0,8.414-3.62,24.982,24.982,0,0,0,6.053-5.428c1.437-1.622,2.888-3.233,4.272-4.9a8.21,8.21,0,0,1,5.619-3.007,61.04,61.04,0,0,1,9.044-.388,2.627,2.627,0,0,1,.291.056" transform="translate(-110.42 -134.317)" fill="#005695"/>
      <path id="Trazado_2891" data-name="Trazado 2891" d="M112.135,194.81c.953-.583,1.771-1.1,2.608-1.577a.643.643,0,0,1,.481.07,2.679,2.679,0,0,0,2.078.078A14.537,14.537,0,0,0,122.779,190a1.2,1.2,0,0,0,.21-1.8c-1.335-1.375-2.755-2.7-4.774-2.935a8.9,8.9,0,0,0-4.569.553,1.349,1.349,0,0,1-1.609-.225c-.129-.114-.277-.208-.486-.363,1.974-1.379,3.868-2.772,6.385-2.711a8.431,8.431,0,0,1,3.649,1.175,46.017,46.017,0,0,0,4.633,2.163,6.23,6.23,0,0,0,2.684.314,11.918,11.918,0,0,1,4.129.369c.326.086.656.159.983.244a1.6,1.6,0,0,0,1.913-.7c1.941-2.959,4.915-4,8.223-4.39a22.756,22.756,0,0,1,6.472.236c.152.026.3.071.522.124-.527.669-1,1.308-1.52,1.9-.124.14-.429.153-.654.165-1.8.1-3.615.1-5.407.3a7.366,7.366,0,0,0-2.642.842,2.412,2.412,0,0,0-.069,4.37,12.12,12.12,0,0,0,4.677,1.489c2.627.4,5.141-.24,7.66-.785,3-.649,5.994-1.368,9.071-2.075l1.12,1.959-1.191.405a81.072,81.072,0,0,1-12.8,3.263,15.146,15.146,0,0,1-8.523-1.013c-1.758-.735-3.51-1.493-5.22-2.334a8.594,8.594,0,0,0-8.583.5c-1.548.9-3.067,1.842-4.633,2.7a14.378,14.378,0,0,1-6.281,1.885,14.911,14.911,0,0,1-2.887-.28,4.852,4.852,0,0,1-1.126-.523" transform="translate(-73.958 -113.919)" fill="#005695"/>
      <path id="Trazado_2892" data-name="Trazado 2892" d="M193.245,210.513c1.543-.642,3.047-1.307,4.58-1.9a53.481,53.481,0,0,1,9.313-2.9c2.321-.438,4.664-.757,7-1.139.407-.067.8-.187,1.124-.262.59.876,1.1,1.731,1.707,2.505a4.219,4.219,0,0,0,2.832,1.721,3.673,3.673,0,0,0,1.63-.131q2.4-.88,4.743-1.92c4.027-1.794,8.038-3.623,12.049-5.451a1.068,1.068,0,0,1,1.105.043c1.163.682,1.216.676.811,1.977-.512,1.648-1.1,3.272-1.657,4.907a10.954,10.954,0,0,1-4.023,4.977,68.915,68.915,0,0,1-8.754,5.428c-1.137.645-2.3,1.238-3.537,1.9a13.8,13.8,0,0,1-.647-1.477c-.037-.117.2-.379.364-.492,2.625-1.791,5.278-3.541,7.886-5.356a16.922,16.922,0,0,0,5.809-6.888c.1-.213.188-.43.359-.823-.355.142-.563.209-.758.305-4.022,1.994-8.03,4.015-12.07,5.97a17.517,17.517,0,0,1-3.5,1.288,3.443,3.443,0,0,1-3.936-1.786c-.142-.239-.272-.485-.41-.726a4.115,4.115,0,0,0-3.57-2.023,24.042,24.042,0,0,0-14.461,3.294,1.638,1.638,0,0,1-1.927.07c-.611-.366-1.282-.631-1.925-.943-.032-.016-.05-.059-.135-.164" transform="translate(-120.268 -124.888)" fill="#005695"/>
      <path id="Trazado_2893" data-name="Trazado 2893" d="M201.4,183.746a15.516,15.516,0,0,1,3.818-3.58,17.036,17.036,0,0,1,7.959-2.566,34.258,34.258,0,0,1,11.767.793,10.661,10.661,0,0,0,5.291-.485c1.694-.469,3.351-1.07,5.088-1.634.15.6.338,1.279.481,1.97a.508.508,0,0,1-.236.4c-4.3,2.414-8.809,3.925-13.842,3.3-2.68-.334-5.373-.564-8.055-.888A13.244,13.244,0,0,0,206.5,182.4a20.844,20.844,0,0,0-2.622,1.526,1.018,1.018,0,0,1-.929.186c-.474-.14-.963-.232-1.553-.37" transform="translate(-124.891 -110.928)" fill="#005695"/>
      <path id="Trazado_2894" data-name="Trazado 2894" d="M270.206,190.486c-1.245-.322-2.414-.72-3.616-.905a10.307,10.307,0,0,0-3.025-.023,5.419,5.419,0,0,0-2.027.9c-1.1.708-2.08,1.6-3.2,2.266a13.6,13.6,0,0,1-7.872,1.693c-2.037-.111-4.062-.421-6.092-.645a.61.61,0,0,1-.6-.535c-.154-.693-.376-1.37-.6-2.144a9.049,9.049,0,0,1,1.267-.119c1.628.077,3.254.273,4.879.261a29.344,29.344,0,0,0,4.374-.391,6.611,6.611,0,0,0,3.658-1.889,8.27,8.27,0,0,1,7.576-2.243c1.657.256,3.271.791,4.906,1.2a.576.576,0,0,1,.486.735c-.076.627-.081,1.263-.113,1.84" transform="translate(-148.572 -116.764)" fill="#005695"/>
      <path id="Trazado_2895" data-name="Trazado 2895" d="M164.585,154.742l-.915-.982a6.8,6.8,0,0,0,.975-.857c1.255-1.607,2.543-3.2,3.682-4.884a12.348,12.348,0,0,0,1.178-2.774,1.485,1.485,0,0,1,1.386-1.174c.874-.022,1.507.562,1.328,1.415a8.123,8.123,0,0,1-.877,2.313,21.263,21.263,0,0,1-5.171,5.7c-.5.415-1.024.8-1.587,1.241" transform="translate(-103.502 -92.672)" fill="#005695"/>
      <path id="Trazado_2896" data-name="Trazado 2896" d="M215.662,57.18a1.843,1.843,0,0,1-1.82-1.818,1.778,1.778,0,0,1,1.862-1.816,1.75,1.75,0,0,1,1.776,1.829,1.819,1.819,0,0,1-1.819,1.805" transform="translate(-131.944 -41.355)" fill="#005695"/>
      <path id="Trazado_2897" data-name="Trazado 2897" d="M204.146,110.177a1.748,1.748,0,0,1,1.783-1.819,1.877,1.877,0,0,1,1.855,1.8,1.964,1.964,0,0,1-1.833,1.84,1.815,1.815,0,0,1-1.806-1.817" transform="translate(-126.447 -72.427)" fill="#005695"/>
      <path id="Trazado_2898" data-name="Trazado 2898" d="M284.857,61.149a2.217,2.217,0,0,1,2.281,2.121,2.25,2.25,0,0,1-2.335,2.14,2.11,2.11,0,0,1-2.108-2.135,2.075,2.075,0,0,1,2.163-2.125" transform="translate(-170.974 -45.665)" fill="#005695"/>
      <path id="Trazado_2899" data-name="Trazado 2899" d="M127.426,56.045,126.19,54.95c1.073-1.517,2.069-3.053,3.2-4.485q2.6-3.3,5.351-6.479c.824-.946.572-1,1.815-.022a39.725,39.725,0,0,1-9.125,12.081" transform="translate(-82.256 -35.52)" fill="#005695"/>
    </g>
  </g>
</svg>
