<?xml version="1.0" encoding="UTF-8"?>
<svg id="Capa_1" xmlns="http://www.w3.org/2000/svg" viewBox="0 0 280 79">
  <defs>
    <style>
      .cls-1 {
        fill: none;
      }

      .cls-2 {
        fill: #015795;
      }

      .cls-3 {
        fill: #fff;
      }
    </style>
  </defs>
  <rect class="cls-1" width="280" height="79"/>
  <g id="Grupo_220">
    <path id="Trazado_1361" class="cls-3" d="M148.86,20.52c-.44.54-.66,1.23-.61,1.92v25.31h-.14s-13.85-24.7-14.52-25.84c-.4-.73-.99-1.35-1.7-1.79-.86-.47-1.84-.7-2.82-.64h-4.57c-.84-.06-1.65.29-2.2.92-.44.54-.66,1.23-.61,1.92v35.87c-.05.7.17,1.38.61,1.92.55.63,1.36.97,2.2.92h2.59c.84.05,1.65-.29,2.2-.92.44-.54.66-1.23.61-1.92v-25.92h.14s14.38,25.48,14.97,26.42c.84,1.47,2.43,2.37,4.12,2.34h4.43c.84.05,1.65-.29,2.2-.92.44-.54.66-1.23.61-1.92V25.84h58.23c.49.02.98-.14,1.37-.44.38-.38.58-.91.53-1.45v-2.45c.05-.54-.15-1.07-.53-1.45-.39-.31-.87-.47-1.37-.45h-63.55c-.84-.05-1.65.29-2.2.92M174.28,30.1c-9.67,0-15.11,7.56-15.11,15.53,0,8.5,5.83,15.97,15.16,15.97,4.66,0,9.23-1.76,11.85-4.85,1.11-1.21,1.82-2.73,2.06-4.35.02-.35-.09-.7-.31-.98-.29-.33-.71-.49-1.14-.45h-4.49c-.78-.05-1.53.34-1.95,1-1.33,1.98-3.62,3.1-6,2.93-3.78.07-6.92-2.89-7.08-6.66h19.4c.69.06,1.37-.16,1.9-.61.55-.62.81-1.46.7-2.29.04-3.75-1.21-7.4-3.54-10.34-2.45-2.93-6.19-4.91-11.46-4.91M204.19,30.1c-7.64,0-12.65,3.62-12.65,9.42-.03,1.88.68,3.69,1.98,5.04,1.76,1.72,3.99,2.88,6.41,3.35l6.38,1.62c1.76.45,3.32.98,3.32,2.51,0,2.37-2.51,3.18-5.18,3.18-1.31.02-2.61-.26-3.79-.81-.78-.38-1.45-.97-1.92-1.7-.42-.64-.56-1.12-1.2-1.48-.47-.21-.99-.3-1.5-.25h-3.47c-.51-.06-1.03.14-1.37.53-.24.35-.36.77-.34,1.2.04,1.36.49,2.68,1.31,3.76,2.12,2.84,6.55,5.13,12.21,5.13s13.3-2.32,13.3-9.79c.04-1.77-.52-3.49-1.59-4.9-1.31-1.7-3.18-2.87-6.35-3.68l-6.33-1.62c-2.62-.67-3.85-1.14-3.85-2.76s1.4-2.82,4.63-2.82c1.73-.14,3.44.44,4.74,1.59.92.98.75,1.48,1.48,1.87.55.21,1.14.28,1.73.22h3.15c.42.05.84-.09,1.14-.39.28-.37.41-.82.36-1.28-.18-1.87-1.13-3.59-2.62-4.74-2.85-2.21-6.38-3.35-9.98-3.21M221.55,31.17h-1.56c-.49-.02-.98.14-1.36.44-.38.38-.58.91-.53,1.45v1.92c-.05.54.15,1.07.53,1.45.39.31.87.47,1.36.45h1.56v13.91c0,3.57.98,5.8,2.79,7.58,1.67,1.64,3.85,2.67,7.64,2.67h2.37c.49.02.98-.14,1.37-.44.4-.37.61-.9.58-1.45v-2.43c.03-.55-.19-1.08-.58-1.45-.39-.31-.87-.47-1.37-.45h-.33c-1.18.09-2.34-.29-3.23-1.06-.9-.95-1.35-2.24-1.26-3.54v-13.35h5.08c.49.02.98-.14,1.36-.45.38-.38.58-.91.53-1.45v-1.92c.05-.54-.15-1.07-.53-1.45-.39-.31-.87-.46-1.36-.44h-5.05v-9.09c.02-.61-.18-1.2-.56-1.67-.46-.55-1.15-.85-1.87-.81h-3.15c-.72-.04-1.41.26-1.87.81-.38.47-.57,1.07-.56,1.67v9.09ZM238.61,58.57c-.02.61.18,1.2.56,1.67.46.55,1.15.85,1.87.81h3.32c.72.04,1.41-.26,1.87-.81.38-.47.58-1.07.56-1.67V22.08c.02-.61-.18-1.2-.56-1.67-.46-.55-1.15-.85-1.87-.81h-3.32c-.71-.04-1.41.26-1.87.81-.38.47-.58,1.07-.56,1.67v36.49ZM167.34,42.32c.58-3.85,4.18-6.5,8.02-5.91,3.05.46,5.45,2.86,5.91,5.91h-13.94ZM276.96,25.84c.49.02.98-.14,1.36-.44.38-.38.58-.91.54-1.45v-2.6c.08-.67-.11-1.34-.53-1.87-.36-.36-.86-.55-1.36-.53-.55.02-1.1.06-1.64.14l-22.24,2.2c-.44,0-.87.18-1.17.5-.26.32-.4.73-.36,1.14v1.45c-.04.37.07.74.31,1.03.29.3.7.45,1.11.42h24ZM264.67,30.1c-9.67,0-15.11,7.56-15.11,15.53,0,8.5,5.83,15.97,15.17,15.97,4.65,0,9.23-1.76,11.84-4.85,1.11-1.21,1.83-2.73,2.07-4.35.02-.35-.09-.7-.31-.98-.28-.33-.71-.49-1.14-.45h-4.49c-.78-.05-1.53.34-1.95,1-1.33,1.98-3.62,3.09-5.99,2.93-3.78.07-6.92-2.89-7.08-6.66h19.46c.69.06,1.37-.16,1.89-.61.55-.62.81-1.46.7-2.29.04-3.75-1.21-7.4-3.54-10.34-2.45-2.93-6.24-4.91-11.51-4.91M257.73,42.31c.58-3.85,4.18-6.5,8.02-5.91,3.05.46,5.45,2.86,5.91,5.91h-13.94Z"/>
    <path id="Trazado_1362" class="cls-2" d="M90.24,26.17c-7.21-10.76-13.56-14.39-15.34-16.1-1.96-1.88-3.45-4.02-4.4-5.04-2.11-2.31-4.85-5.16-9.35-5.16-3.54-.07-6.76,2.02-8.14,5.28-.27.7-.48,1.55-.68,1.86-.43.7-2.35,3.98-3.14,5.28h3.59l-1.75,3.3c1.77-.47,3.6-.73,5.43-.78,1.73,0,2.97.41,3.51,1.49,1.01,2.02,1.01,8.13,2.72,12.73,1.59,4.32,5.47,8.55,9.83,11.79.16.11.38.06.49-.1.03-.05.05-.1.06-.15,0-.11-.05-.22-.14-.29-3.59-3.39-6.38-7.52-8.2-12.1-1.57-4.31-1.32-10.36-2.7-13.05-.91-1.78-2.85-2.25-4.64-2.25-1.14.02-2.28.16-3.39.42l1.57-2.66h-2.66c.56-.99,1.14-1.9,1.44-2.44.25-.47.35-1.05.66-1.84.95-2.56,3.42-4.22,6.15-4.15,3.65,0,5.78,2.35,7.89,4.69,1.36,1.77,2.83,3.45,4.4,5.04,1.26,1.16,3.67,2.46,7.37,6.29,2.66,2.76,5.08,5.75,7.23,8.92,9.37,13.71,15.51,25.79,18.95,35.22l-.06.04c-9.83-6.67-18.35-12.98-25.21-20.75-5.26-6.01-9.56-12.78-12.78-20.09-.25-.54-.46-1.05-.7-1.57-.1-.21-.19-.27-.35-.27-.17,0-.32.13-.33.3,0,0,0,.02,0,.03.06.54.17,1.08.31,1.61,1.96,8.46,7.39,16.04,13.19,22.34,5.39,5.74,11.31,10.96,17.69,15.58l4.19,11.98c.12.28.19.59.21.89.01.19-.06.37-.19.5-.17.14-.4.21-.62.18h-1.26c-.34.04-.68-.04-.95-.23-.2-.18-.35-.4-.43-.66-.37-1.13-2.58-7.43-3-8.71-.08-.23-.21-.31-.37-.31-.18,0-.33.14-.33.33,0,0,0,0,0,0,.04.29.09.59.16.87.56,2.87,1.22,6.09,1.49,7.31.13.48.21.98.25,1.47.02.32-.12.63-.37.83l-1.29,1.32c-.31.31-.49.39-.74.39-.31,0-.56-.21-.68-.76-1.47-6.89-3.7-15.42-4.29-17.79-.14-.52-.23-.81-.54-.81-.27,0-.37.19-.37.43,0,.18.03.36.06.54.35,2.44,1.77,11.35,3.3,19.47.27,1.4.8,2.17,2,2.17.59-.01,1.14-.25,1.55-.68.8-.8,1.03-1.01,1.98-1.94.58-.66,1.43-1.01,2.31-.93h2.87c.51.04,1.01-.13,1.38-.48.34-.33.53-.8.5-1.28-.02-.58-.14-1.15-.37-1.69-.74-1.98-3.1-8.67-3.8-10.55l.06-.04c2.42,1.84,5.95,4.19,7.51,4.19.48,0,.78-.21.78-.97,0-3.57-5.94-18.25-19.49-38.46"/>
    <path id="Trazado_1363" class="cls-2" d="M23.67,3.64c.61-1.31,2.17-1.87,3.48-1.26,1.31.61,1.87,2.17,1.26,3.48-.18.39-.46.73-.8.99.14.45.22.91.23,1.38,0,1.63-.97,2.77-2.75,3.38-.19.96-.67,1.85-1.36,2.54-1.16,1.12-2.35,1.12-2.35,1.59,0,.25.18.41.66.41,2.15,0,4.27-1.2,4.52-3.2,1.89-.67,3.19-2.42,3.3-4.42.02-.39-.05-.79-.21-1.14.78-.74,1.23-1.77,1.22-2.85-.06-2.62-2.23-4.7-4.85-4.64-1.53.04-2.95.81-3.82,2.08-2.11,0-4.85,2.35-4.85,5.7h-.29c-.28-1.12-1.25-1.93-2.41-2-.81-2.44-2.66-4.54-5.68-4.54-.38,0-.77.02-1.14.08C6.96.33,5.78-.14,4.57-.13,1.93-.14-.22,1.99-.23,4.63c0,0,0,.02,0,.03,0,1.57.83,3.03,2.19,3.82,0,0-.02.21-.02.31.3,3.01,2.76,5.34,5.78,5.47.14.72.71,1.28,1.44,1.41v.27h-.29c-4.75,0-6.77,2.29-6.77,3.82-1.41.65-2.32,2.06-2.33,3.61-.09,2.64,1.97,4.85,4.61,4.94.1,0,.2,0,.3,0,.92-.02,1.81-.32,2.54-.87.56.19,1.15.28,1.75.27,1.55.05,3.02-.71,3.88-2,.15.02.3.02.45.02,1.7-.07,3.22-1.07,3.96-2.6.16-.27.25-.57.27-.87,0-.21-.1-.39-.31-.39-.27,0-.31.25-.79.7-1.27.98-2.86,1.46-4.46,1.36-.63,1.1-1.78,1.81-3.04,1.86-.8,0-1.59-.24-2.25-.7-.49.56-1.2.88-1.94.87-1.38.07-2.55-1-2.62-2.38,0-.08,0-.16,0-.24,0-1.07.67-2.03,1.67-2.42.17-1.92,2.23-3.22,4.79-3.22.34,0,.67.02,1.01.06.63-.84,1.59-1.37,2.64-1.46.22-.01.43-.06.64-.14.15-.08.24-.24.23-.41,0-.16-.08-.31-.21-.39-.21-.08-.42-.14-.64-.17-1.56-.27-2.86-1.35-3.41-2.83-2.78.03-5.05-2.2-5.08-4.97,0,0,0,0,0,0v-.17c-1.34-.55-1.98-2.08-1.43-3.42.4-.98,1.35-1.62,2.4-1.63.83,0,1.62.4,2.12,1.07.43-.11.87-.16,1.32-.16,2.43-.06,4.53,1.66,4.94,4.05,1.92.18,3.44,1.69,3.63,3.61.1.5.17.93.5.93.35,0,.43-.39.54-.91.15-.93.62-1.78,1.32-2.4-.07-2.55,1.94-4.66,4.49-4.73.04,0,.08,0,.11,0"/>
    <path id="Trazado_1364" class="cls-2" d="M29.31,18.84c-.91,1.3-1.57,1.94-3.65,4.38-2.73,3.24-4.17,5.86-6.56,11.68.39-.04.95-.08,1.57-.08.31,0,.56,0,.97.02l.29-.62c1.46-3.47,3.37-6.75,5.66-9.74l.87-1.03c2.6-3.04,4.21-4.85,5.22-9,.17-1.38.73-2.68,1.63-3.74.85-.81,1.99-1.24,3.16-1.22.95.02,1.88.25,2.74.68.71.36,1.51.53,2.31.48.35,0,.6-.02.83-.04l-1.36,1.82,1.84,1.3c-1.82.68-3.26,2.11-3.94,3.94-.07.15-.1.32-.11.48-.02.16.1.29.25.31.02,0,.04,0,.06,0,.25,0,.44-.19.78-.58,1.12-1.36,2.02-2.29,6.17-3.59l-2.93-2.21,2.21-3.24h-2.07c-1.14.09-2.28-.1-3.34-.54-1.14-.65-2.42-1-3.72-1.03-1.66-.01-3.27.62-4.48,1.76-1.46,1.34-1.9,3.12-2.42,5.08-.37,1.68-1.04,3.27-1.98,4.71"/>
    <path id="Trazado_1365" class="cls-2" d="M33.77,32.05c-1.38,1.76-2.64,3.61-3.78,5.53.37.18,1.59.83,2.02,1.07,1.34-2.02,3.2-4.5,4.42-6.38,1.08-1.34,1.65-3.01,1.63-4.73.02-.39.02-.76.06-1.12.04-1.32.59-2.57,1.53-3.49.87-.83,2.04-1.28,3.24-1.26,1.16,0,1.84.33,2.85.33.59,0,1.16-.12,1.71-.35l.37-.14-.89,2.14,2.09.85c-2.61,2.13-4.17,5.3-4.27,8.67,0,1.42.2,2.83.56,4.21.02.16.17.28.33.27.18,0,.34-.13.35-.31,0,0,0-.01,0-.02l.02-.45c.03-1.75.26-3.5.68-5.2.91-3.05,2.89-5.68,5.57-7.41l-3.34-1.45,1.44-3.51-1.57.33c-.81.21-1.64.33-2.48.37-.64,0-1.28-.09-1.9-.25-.66-.17-1.34-.25-2.02-.25-1.59,0-3.13.59-4.31,1.67-2.06,1.96-2.17,4.07-2.31,5.95-.17,2.5-.64,3.12-2,4.94"/>
    <path id="Trazado_1366" class="cls-2" d="M83.53,33.23c-.08-.15-.24-.24-.41-.25-.18-.02-.33.11-.35.29,0,.01,0,.03,0,.04,0,.27.19.6.68,1.42,1.56,2.67,3.42,5.14,5.55,7.39,2.53,2.65,5.32,5.04,8.32,7.13l.95.66c.1.09.22.14.35.16.18-.01.33-.17.33-.35,0-.12-.06-.23-.16-.29-2.83-2.58-5.88-5.72-8.73-8.74-2.23-2.39-4.52-4.91-6.54-7.45"/>
    <path id="Trazado_1367" class="cls-2" d="M21.12,24.45c.46-.71.96-1.39,1.51-2.04-1.35-2.56-3.03-4.93-5-7.06l-.89.87c1.72,2.59,3.19,5.35,4.38,8.22"/>
    <path id="Trazado_1368" class="cls-2" d="M6.91,6.94c-.18-.16-.21-.25-.21-.37,0-.16.13-.29.29-.29,0,0,.01,0,.02,0,.09,0,.17.02.25.06,1.34.52,2.6,1.23,3.74,2.09.98.76,1.88,1.63,2.67,2.58l-.81.93c-1.01-.83-4.27-3.57-5.95-5"/>
    <path id="Trazado_1369" class="cls-2" d="M20.66,13.43l-1.05-.64c.6-1.52,1.45-2.94,2.5-4.19.65-.74,1.35-1.43,2.1-2.07.17-.14.27-.25.44-.25.18,0,.32.13.33.31-.01.11-.05.21-.12.29-1.18,1.84-3.49,5.49-4.21,6.56"/>
    <path id="Trazado_1370" class="cls-2" d="M7.51,22.43c-.16.08-.33.13-.5.16-.17,0-.31-.13-.31-.3,0,0,0,0,0,0,0-.13.06-.21.2-.33,2.13-1.68,4.68-2.75,7.37-3.08l.35,1.17-7.1,2.4Z"/>
    <path id="Trazado_1371" class="cls-2" d="M57.25,7.38c-.09-.95.6-1.8,1.55-1.9.02,0,.04,0,.06,0,.4,0,.8.08,1.16.25.47.21.78.52.78.85,0,.35-.35.7-.87,1.12-.5.46-1.13.76-1.8.85-.68,0-.87-.64-.87-1.18"/>
    <path id="Trazado_1372" class="cls-2" d="M37.57,13.04c-.08-.88.56-1.66,1.44-1.74.01,0,.02,0,.03,0,.48,0,.95.19,1.3.52.19.15.3.38.31.62,0,.47-.45.91-.97,1.22-.36.23-.77.36-1.2.39-.6,0-.91-.37-.91-1.01"/>
    <path id="Trazado_1373" class="cls-2" d="M42.13,25.01c0-.22.03-.45.1-.66.13-.61.68-1.03,1.3-.99.39,0,.78.11,1.1.33.25.14.41.41.41.7,0,.83-1.4,1.8-2.1,1.8-.5,0-.81-.49-.81-1.18"/>
    <path id="Trazado_1374" class="cls-2" d="M34.49,49.48c-2.62,0-3.78-1.24-3.78-2.81,0-2.76,4.83-5.45,9.17-7.12l1.12,1.46c-2.68,1.07-8.07,3.36-8.07,5.33,0,.7.41,1.2,2.03,1.2,2.83,0,5.88-1.38,8.69-2.76.22-.11.46-.18.7-.19.36-.01.7.18.87.5l.47.64c-3.28,1.8-7.37,3.74-11.21,3.74"/>
    <path id="Trazado_1375" class="cls-2" d="M41.7,50.22c-2.29,1.41-4.88,2.23-7.56,2.39-2.62,0-4.95-1.13-6.89-4.06-.81-1.24-1.45-2.79-2.23-4.17-.93-1.63-1.94-2.5-3.7-2.5-1.69.13-3.34.6-4.85,1.38l.08.37c.14.6.37,1.03.93,1.03.22-.02.44-.07.64-.15.82-.32,1.68-.51,2.56-.55,1.45,0,2.15.86,3.14,2.95l.37.78c-1.68.39-3.41.56-5.14.52h-.83l.14.83c.02.32.2.62.48.78.56.18,1.14.25,1.73.19,1.6.02,3.19-.15,4.75-.51,1.89,3.06,5.23,4.91,8.83,4.91,2.84-.13,5.61-.96,8.05-2.42l-.49-1.77Z"/>
    <path id="Trazado_1376" class="cls-2" d="M44.34,51.09l-.46-1.79c4.1-2.45,8.7-3.97,13.46-4.44.12,2.23-.04,5.04,1.61,5.04,1.51,0,4.81-3.9,8.61-8.79.35.33.91.68,1.42,1.07l-.97,1.26c-3.71,4.77-6.87,8.85-9.47,8.85-2.42,0-3.34-2.85-3.37-4.98-3.85.43-7.55,1.72-10.82,3.78"/>
    <path id="Trazado_1377" class="cls-2" d="M95.65,12.17c-1.51,0-1.94-.84-1.94-2.02,0-2.44,1.53-5.95,2.5-7.95h-2.35c-2.57,4.56-5.45,8.93-8.63,13.09l1.49,1.61c1.68-2.16,3.22-4.42,4.6-6.79h.31c0,.14-.02.29-.02.43,0,2.19,1.12,3.82,3.9,3.82,1.71,0,4.38-.85,6.9-1.71,2.09-.72,4.01-1.45,4.96-1.72v-2.33c-1.09.33-3.3,1.18-5.59,1.98-1.97.8-4.04,1.33-6.15,1.59"/>
    <path id="Trazado_1378" class="cls-2" d="M100.83,19.21c2.33-.99,6.5-2.66,8.9-3.53v-2.37c-6.53,2.42-12.9,5.23-19.08,8.44.16.19,1.17,1.61,1.28,1.78,2.08-.97,4.32-1.54,6.61-1.67,2.97.1,5.95-.2,8.85-.89v-1.78c-1.94.43-3.9.71-5.88.85-.87,0-1.12-.12-1.12-.41,0-.17.12-.29.45-.43"/>
    <path id="Trazado_1379" class="cls-2" d="M51.15,30.11l-.93,1.79h9.91l-.74-1.79h-8.24Z"/>
    <path id="Trazado_1380" class="cls-2" d="M15.44,40.76c.94-.04,1.87-.27,2.72-.68.81-.38,1.7-.6,2.6-.62,2.48,0,5.55,1.2,8.24,2.35.16.06.33.1.5.1.41.01.8-.22.97-.6l.35-.64c-2.97-1.73-7.7-3.57-10.16-3.57-.94.01-1.86.22-2.71.6-.76.39-1.58.63-2.43.72-1.96,0-6.98-1.94-6.98-3.82,0-2.21,7.99-3.06,8.86-3.06l.79-1.8c-5.8,0-12.7,2.04-12.7,4.73,0,.78.45,1.16.45,1.88,0,.97-.45,1.63-.45,2.72.1.87.42,1.7.93,2.42.54.83,1.18,1.38,1.18,2.07-.17.78-.29,1.57-.35,2.37,0,2.62,1.49,4.21,4.4,7.33l.58.62c-2.4.93-6.89,2.87-7.93,3.32-3.63,1.51-4.54,3.36-4.54,6.27,0,1.12,0,2.4.08,3.55h.7c1.46,0,1.63-.87,1.63-1.7,0-.56-.02-1.2-.02-1.9.02-1.61.08-3.04,2.68-4.21,1.05-.47,6.19-2.56,10.01-4.19,1.04-.53,2.17-.83,3.33-.89,1.67.14,3.28.71,4.66,1.67,1.68.98,3.2,2.21,4.52,3.64l1.65-1.26c-1.54-1.72-3.34-3.18-5.33-4.32-1.54-1.05-3.32-1.68-5.18-1.84-.54,0-1.09.08-1.61.23-.53.17-1.08.27-1.63.29-.88,0-1.71-.44-2.19-1.18-.33-.37-2.42-2.75-2.87-3.45-.36-.52-.57-1.13-.6-1.77,0-.37.08-.74.25-1.07,1.97,1.46,4.3,2.36,6.75,2.58l-.37-1.84c-3.9-1.03-8.05-4.46-8.05-6.67,0-.42.11-.83.29-1.2,2,1.6,4.43,2.59,6.98,2.85"/>
    <path id="Trazado_1381" class="cls-2" d="M43.35,41.11c2.06-1.38,4.52-2.05,7-1.92,1.4.04,2.79.16,4.17.37,1.21.17,2.43.26,3.65.27,2.24-.08,4.45-.58,6.5-1.47.41.48.86.93,1.34,1.34-2.37,1.37-5.04,2.16-7.78,2.29-1.49-.02-2.98-.15-4.46-.37-1.21-.18-2.43-.27-3.65-.29-1.96.04-3.89.44-5.7,1.18l-1.07-1.4Z"/>
    <path id="Trazado_1382" class="cls-2" d="M79.36,48.03c-2.53,5.49-6.67,10.09-11.87,13.17-2.5,1.48-5.38,2.19-8.28,2.02h-9.06c-2.32-.03-4.62.25-6.86.83-1.46.51-2.98.81-4.52.89-2.26-.02-4.43-.9-6.07-2.46l2.13-1.69-1.07-1.42c-.62.45-8.2,6.05-9.79,7.31l-.1-.06c.03-.36.04-.72.04-1.09,0-4.27-1.98-5.3-4.98-6.5l-2.04,1.2c4.13,1.38,5.16,2.48,5.16,5.57,0,2.45-.87,3.41-2.13,4.15-1.32.73-2.81,1.11-4.32,1.1-.39-.05-.79.07-1.09.33-.26.29-.38.68-.35,1.07v.68h.49c2.77.14,5.48-.75,7.64-2.48l8.59-6.7c2.11,2.12,4.96,3.32,7.95,3.34,1.8-.08,3.57-.41,5.28-.99,1.97-.52,4.01-.76,6.05-.7h9.1c3.29.16,6.56-.66,9.39-2.36,5.57-3.23,9.98-8.14,12.59-14.02-.68-.42-1.32-.81-1.86-1.18"/>
    <path id="Trazado_1383" class="cls-2" d="M64.76,55.32c2.35-3.76,4.44-7.1,9.58-9.81-.54-.33-1.32-.83-1.73-1.11-2.14,1.09-4.07,2.58-5.66,4.38-3.88,4.03-3.53,6.36-7.62,7.93-1.27.48-2.57.88-3.9,1.18-.95-2.93-3.33-5.84-5.86-5.84-1.75,0-3.76.91-6.09,1.94-2.08.9-4.09,1.94-6.03,3.1l1.07,1.44c.81-.45,3.16-1.61,5.51-2.62,1.6-.82,3.34-1.36,5.12-1.59,2,0,3.3,2.27,4.02,4.09-2.71.51-5.46.77-8.22.78-.37-.05-.74.05-1.03.27-.24.25-.39.57-.45.91l-.15.66h1.4c7.26,0,14.1-1.14,18.5-3.82.6.19,1.23.29,1.86.29,2.47-.16,4.83-1.08,6.75-2.64.45-.28.72-.77.72-1.3,0-.2-.02-.4-.04-.6l-.08-.75c-2.33,1.84-4.27,3.22-6.67,3.22-.33.01-.67-.03-.99-.12"/>
  </g>
</svg>