<?xml version="1.0" encoding="UTF-8"?>
<svg id="Capa_1" xmlns="http://www.w3.org/2000/svg" viewBox="0 0 174 80">
  <defs>
    <style>
      .cls-1 {
        fill: none;
      }

      .cls-2 {
        fill: #278bbf;
      }

      .cls-3 {
        fill: #fff;
      }
    </style>
  </defs>
  <rect class="cls-1" width="174" height="80"/>
  <g id="Grupo_234">
    <path id="Trazado_1578" class="cls-2" d="M78.37,69.63h-3.52c-.2,0-.38.13-.42.34l-2.3,9.88c-.03.09-.01.18.04.25.05.09.15.14.25.13h3.68c1.89.1,3.61-1.11,4.15-2.93.25-1.03-.33-2.08-1.34-2.43,1-.44,1.77-1.3,2.09-2.34.18-.65.04-1.35-.38-1.89-.53-.7-1.39-1.08-2.26-1M75.87,71.14h2.09c.4-.04.79.12,1.05.42.21.31.27.69.17,1.05-.2.91-1,1.55-1.93,1.55h-2.05l.67-3.02ZM78.47,77.13c-.23.93-1.06,1.58-2.01,1.59h-2.34l.71-3.1h2.09c.5-.01.99.18,1.34.54.21.27.29.63.21.96"/>
    <path id="Trazado_1579" class="cls-2" d="M90.06,69.63h-4.27c-.2,0-.38.13-.42.34l-2.3,9.88c-.03.09-.01.18.04.25.05.09.15.14.25.13h1.01c.19-.02.36-.15.42-.34l.88-3.77h2.3l1.17,3.94c.04.1.14.17.25.17h1.21c.14,0,.28-.06.38-.17.08-.09.09-.22.04-.34l-1.26-3.73c1.46-.44,2.59-1.59,3.02-3.06.22-.78.05-1.62-.46-2.26-.54-.7-1.38-1.09-2.26-1.05M91.06,72.9c-.3,1.03-1.23,1.75-2.3,1.8h-2.72l.8-3.52h2.76c.46,0,.91.19,1.21.54.29.32.38.77.25,1.17"/>
    <path id="Trazado_1580" class="cls-2" d="M101.32,69.68c-.04-.12-.16-.21-.29-.21h-.17c-.13.02-.24.08-.34.17l-7.16,10.05c-.07.1-.09.22-.04.34.04.08.12.13.29.13h1.01c.19,0,.36-.1.46-.25.25-.34.5-.71.75-1.05.21-.33.46-.63.67-.96h5.07l.5,2.01c.04.17.2.28.38.25h1.01c.13,0,.26-.06.34-.17.07-.08.1-.19.08-.29l-2.55-10.01ZM101.24,76.54h-3.77l2.8-3.98.96,3.98Z"/>
    <path id="Trazado_1581" class="cls-2" d="M117.32,69.63h-1.01c-.2,0-.37.14-.42.34l-1.59,6.95-5.03-7.41v-.04h-.42c-.19,0-.35.12-.42.29l-2.3,10.05c0,.09,0,.17.04.25.05.09.15.14.25.12h1.01c.2,0,.38-.13.42-.33l1.67-7.16,5.03,7.66h.42c.19,0,.36-.11.42-.29l2.3-10.05c0-.09,0-.17-.04-.25-.1-.07-.22-.11-.34-.13"/>
    <path id="Trazado_1582" class="cls-2" d="M125.65,69.63h-3.6c-.19.02-.36.15-.42.34l-2.3,9.88c-.03.09-.01.18.04.25.04.08.13.08.21.08h3.59c3.17-.09,5.91-2.23,6.78-5.28.34-1.28.06-2.64-.75-3.68-.87-1.06-2.19-1.65-3.56-1.59M128.16,74.91c-.55,2.21-2.54,3.76-4.82,3.77h-2.01l1.72-7.5h2.05c.99-.07,1.95.34,2.6,1.09.56.76.73,1.74.46,2.64"/>
    <path id="Trazado_1583" class="cls-2" d="M140.56,70.6c0-.09-.05-.17-.13-.21-.79-.58-1.74-.89-2.72-.88-1.86-.13-3.57,1.03-4.15,2.8-.42,1.8.8,2.64,2.18,3.22,1.51.67,2.05,1.21,1.88,2.01-.29.87-1.14,1.42-2.05,1.34-.85-.07-1.64-.42-2.26-1.01-.17-.17-.42-.08-.63.13l-.29.29s-.17.21-.25.29c-.25.29-.13.42,0,.54.83.84,1.97,1.28,3.14,1.21,1.89.1,3.61-1.06,4.23-2.85.46-1.93-1.13-2.76-2.64-3.39-1.26-.54-1.72-1.05-1.55-1.84.29-.87,1.15-1.41,2.05-1.3.68.05,1.34.29,1.89.71l.04.04c.23.13.53.06.67-.17.08-.07.15-.16.21-.25.08-.12.21-.21.29-.33.06-.12.09-.25.08-.38"/>
    <path id="Trazado_1584" class="cls-2" d="M130.8,21.39l-24.62-16.08-24.58,16.12c-.82.53-1.92.31-2.47-.5l-.63-.96c-.53-.82-.31-1.92.5-2.47L104.88.54c.79-.5,1.81-.5,2.6,0l25.92,16.92c.82.53,1.05,1.62.52,2.44,0,0-.01.02-.02.03l-.63.96c-.53.82-1.62,1.05-2.44.52,0,0-.02-.01-.03-.02"/>
    <path id="Trazado_1585" class="cls-3" d="M155.76,7.53h-1.05c-1.18,0-2.13.96-2.14,2.14v48.16c0,1.18.96,2.13,2.14,2.14h1.05c1.18,0,2.13-.96,2.14-2.14V9.71c.01-1.19-.94-2.16-2.13-2.18,0,0,0,0,0,0"/>
    <path id="Trazado_1586" class="cls-3" d="M171.97.33h-1.05c-1.18,0-2.13.96-2.14,2.14v55.36c0,1.18.96,2.13,2.14,2.14h1.05c1.18,0,2.13-.96,2.14-2.14V2.51c.01-1.19-.94-2.16-2.13-2.18,0,0,0,0,0,0"/>
    <path id="Trazado_1587" class="cls-3" d="M49.48,27.76c-4.18-.09-8.19,1.66-10.97,4.77-2.67,3.14-4.1,7.15-4.02,11.27v.54c-.04,4.08,1.42,8.03,4.1,11.1,2.78,3.05,6.76,4.75,10.89,4.65,3.73-.07,7.38-1.09,10.59-2.97.51-.28.88-.77,1.01-1.34.12-.58,0-1.19-.34-1.67l-.46-.63c-.59-.83-1.7-1.1-2.6-.63-.21.12-.42.21-.63.33-2.11,1.29-4.52,1.98-6.99,2.01-6.49,0-10.09-5.23-10.09-8.88l-.04-.29c0-.24.08-.46.25-.63.14-.15.34-.22.54-.21h21.02c.75-.01,1.37-.59,1.42-1.34.1-.68.15-1.37.17-2.05.07-3.72-1.33-7.32-3.89-10.01-2.65-2.63-6.24-4.08-9.97-4.02M57.72,40.57c-.13.13-.31.21-.5.21h-16.54c-.2,0-.38-.09-.5-.25-.12-.15-.17-.35-.13-.54.93-4.44,4.89-7.59,9.42-7.5,2.09,0,4.1.82,5.61,2.26,1.51,1.39,2.5,3.25,2.81,5.28,0,.2-.05.39-.17.54"/>
    <path id="Trazado_1588" class="cls-3" d="M130.43,27.76c-4.18-.09-8.19,1.66-10.97,4.77-2.67,3.14-4.1,7.15-4.02,11.26v.54c-.04,4.08,1.42,8.03,4.1,11.1,2.78,3.05,6.76,4.75,10.89,4.65,3.73-.07,7.38-1.09,10.59-2.97.51-.28.88-.77,1.01-1.34.12-.58,0-1.19-.33-1.68l-.46-.63c-.59-.83-1.7-1.1-2.6-.63-.21.13-.42.21-.63.34-2.11,1.29-4.52,1.98-6.99,2.01-6.49,0-10.09-5.23-10.09-8.88l-.04-.29c0-.24.09-.47.26-.63.14-.16.34-.25.54-.25h21.02c.75-.01,1.36-.59,1.42-1.34.1-.68.15-1.37.17-2.05.29-7.43-5.5-13.69-12.93-13.98-.31-.01-.62-.01-.93,0M121.01,40.02c.94-4.43,4.89-7.58,9.42-7.5,2.09,0,4.1.82,5.61,2.26,1.51,1.39,2.5,3.25,2.81,5.28.03.18-.03.37-.17.5-.13.13-.31.21-.5.21h-16.54c-.2,0-.39-.09-.5-.25-.12-.14-.17-.32-.13-.5"/>
    <path id="Trazado_1589" class="cls-3" d="M109.11,27.8h-1.21c-.87,0-1.64.58-1.88,1.42l-5.65,20.43-8.42-20.43c-.3-.73-1.01-1.21-1.8-1.22h-1.22c-.79-.01-1.51.47-1.8,1.22l-8.42,20.43-5.65-20.39c-.24-.84-1.01-1.42-1.89-1.42h-1.21c-.6,0-1.17.28-1.55.75-.38.47-.5,1.1-.34,1.67l7.83,28.31c.24.84,1.01,1.42,1.89,1.42h.71c.79,0,1.51-.47,1.8-1.21l9.21-22.4,9.21,22.36c.3.73,1.01,1.21,1.8,1.21h.71c.87,0,1.64-.58,1.88-1.42l7.83-28.31c.17-.58.04-1.21-.34-1.67-.36-.47-.91-.75-1.51-.75"/>
    <path id="Trazado_1590" class="cls-3" d="M12.88,27.8c-3.62.05-7.19.76-10.55,2.09-1.29.4-2.18,1.58-2.22,2.93v25.09c0,1.16.94,2.09,2.09,2.09h1.09c1.16,0,2.09-.94,2.09-2.09v-22.87c0-.46.28-.87.71-1.05,2.13-.86,4.4-1.3,6.7-1.3,2.47-.06,4.88.74,6.83,2.26,1.73,1.42,2.73,3.54,2.72,5.78v17.13c0,1.16.94,2.09,2.09,2.09h1.09c1.16,0,2.09-.94,2.09-2.09v-17.12c.08-7.58-5.99-12.94-14.74-12.94"/>
  </g>
</svg>