<svg id="Grupo_2256" data-name="Grupo 2256" xmlns="http://www.w3.org/2000/svg" xmlns:xlink="http://www.w3.org/1999/xlink" width="302.431" height="139.416" viewBox="0 0 302.431 139.416">
  <defs>
    <clipPath id="clip-path">
      <rect id="Rectángulo_1313" data-name="Rectángulo 1313" width="302.43" height="139.416" fill="none"/>
    </clipPath>
  </defs>
  <g id="Grupo_2255" data-name="Grupo 2255" clip-path="url(#clip-path)">
    <path id="Trazado_2912" data-name="Trazado 2912" d="M278.117,126.852c.785-2.813,1.493-5.335,2.193-7.859q3.629-13.083,7.259-26.168c.893-3.2,5.984-4.577,8.3-2.171a4.7,4.7,0,0,1,.943,2.67,7.3,7.3,0,0,1-.452,2.529q-5.224,18.965-10.48,37.922-1.234,4.452-2.535,8.885c-.7,2.389-1.635,3.177-3.825,3.375a4.015,4.015,0,0,1-4.594-2.66c-1-2.115-1.837-4.305-2.723-6.472q-6.052-14.792-12.1-29.587a17.24,17.24,0,0,0-.935-1.627c-.489,1.406-.788,2.431-1.2,3.413Q251,125.914,243.993,142.711c-1.263,3.02-3.514,4.107-6.5,2.87a4.4,4.4,0,0,1-1.989-2.62c-1.66-5.48-3.167-11.005-4.7-16.522Q226.57,111.223,222.369,96a7.661,7.661,0,0,1-.477-2.341,4.625,4.625,0,0,1,.729-2.55c1.446-1.775,3.563-1.495,5.513-1.231a3.538,3.538,0,0,1,2.967,2.915q4.5,16.2,9.094,32.373c.112.4.269.783.534,1.542,1.127-2.612,2.141-4.879,3.089-7.173q5.436-13.152,10.833-26.319c1.034-2.522,1.7-3,4.447-3.018,3.184-.023,3.866.367,4.906,2.891q6.688,16.228,13.37,32.458a14.1,14.1,0,0,0,.742,1.307" transform="translate(-103.936 -41.892)" fill="#696057"/>
    <path id="Trazado_2913" data-name="Trazado 2913" d="M141.62,120.269q-8.535,0-17.069,0c-2.451,0-2.968.524-2.443,3.052a16.73,16.73,0,0,0,9.334,11.969c5.359,2.689,10.851,2.508,16.3.169,1.642-.705,3.216-1.57,4.829-2.344,2.063-.989,4.071-.149,5.605,2.323,1.264,2.035,1,4.051-1.016,5.311a30.8,30.8,0,0,1-5.951,2.947c-7.656,2.715-15.544,3.683-23.183.467-9.732-4.1-14.506-12.139-15.558-22.344-.517-5.015-.409-10.113,1.425-14.98,8.044-21.354,32.185-20.608,41.813-10.431,5.478,5.791,7.436,12.8,6.719,20.6-.251,2.723-.973,3.228-3.736,3.245-5.689.034-11.379.01-17.069.015m-4.165-7.828c4.324,0,8.648.02,12.972-.009,2.144-.014,2.675-.747,2.118-2.754A15.045,15.045,0,0,0,136.6,98.363c-6.232.426-12.387,5.371-14.024,11.269-.6,2.167-.139,2.8,2.093,2.808,4.262.011,8.525,0,12.787,0" transform="translate(-52.556 -41.931)" fill="#696057"/>
    <path id="Trazado_2914" data-name="Trazado 2914" d="M406.212,120.38c-5.566,0-11.133-.025-16.7.01-3.488.021-3.624.225-2.993,3.6,1.563,8.358,10.141,14.29,18.963,13.246a31.908,31.908,0,0,0,10.624-3.618c3.013-1.517,4.98-.824,6.5,2.116,1.2,2.32.941,4.208-1.418,5.319a59.929,59.929,0,0,1-11.174,4.261c-11.891,2.9-22-.667-28.357-9.833-4.326-6.237-5.692-13.3-4.984-20.781A29.664,29.664,0,0,1,380.9,101.81c5.637-9.184,15.406-13.318,26.223-11.694,12.956,1.944,20.592,13.5,19.786,26.464-.2,3.171-1.032,3.81-4.185,3.814q-8.257.011-16.513,0Zm-4.623-7.821c4.449,0,8.9.018,13.348-.009,1.735-.011,2.277-.7,1.933-2.286A14.777,14.777,0,0,0,402.642,98.42c-7.351-.055-14.233,5.027-15.788,11.661-.458,1.951-.067,2.469,1.943,2.476,4.264.014,8.528,0,12.792,0" transform="translate(-176.357 -42.05)" fill="#696057"/>
    <path id="Trazado_2915" data-name="Trazado 2915" d="M.065,120.451c0-7.1.045-14.2-.023-21.294-.026-2.677,1.013-4.5,3.533-5.451,8.715-3.3,17.637-4.791,26.893-2.848,8.479,1.78,17.71,9.077,17.838,22.279.092,9.442.106,18.885.133,28.328,0,1.723-.3,3.481-2,4.287a6.752,6.752,0,0,1-6.088-.107c-1.471-.756-1.748-2.255-1.744-3.826.026-8.95,0-17.9.036-26.849C38.675,105.1,32.79,99.1,22.862,98.88a31.716,31.716,0,0,0-11.087,1.845A2.929,2.929,0,0,0,9.5,103.968c.041,10.553-.1,21.106-.13,31.658-.006,2.093.273,4.187.274,6.28,0,1.641-.289,3.394-2.1,3.967-2.145.678-4.519.965-6.346-.627A4.886,4.886,0,0,1,.062,141.93c-.1-7.158-.05-14.319-.05-21.479Z" transform="translate(0 -42.154)" fill="#696057"/>
    <path id="Trazado_2916" data-name="Trazado 2916" d="M259.151,37.877c-1.874-.263-3.234-1.513-4.07-3.861a3.246,3.246,0,0,1,1.383-4.176q8.345-5.512,16.707-11c8.881-5.822,17.8-11.582,26.639-17.473,2.569-1.713,4.758-1.884,7.444-.113,14.177,9.341,28.454,18.533,42.675,27.809,3.12,2.036,3.457,3.771,1.492,6.565-1.722,2.45-3.246,2.833-5.8,1.217-3.965-2.508-7.854-5.135-11.79-7.687q-14.685-9.521-29.406-18.983a2.006,2.006,0,0,0-1.772.033q-20.222,13.065-40.4,26.2a25.064,25.064,0,0,1-3.1,1.468" transform="translate(-119.357 0)" fill="#288dc1"/>
    <path id="Trazado_2917" data-name="Trazado 2917" d="M551.092,52.174c0-15.852.058-31.7-.057-47.557-.02-2.656,1.691-4.267,4.606-4.209,3.572.071,4.814,1.139,4.812,4.3q-.018,43.3-.03,86.6c0,2.837.1,5.673.12,8.509.012,1.694-.395,3.284-2.117,3.984a5.823,5.823,0,0,1-5.989-.5,4.542,4.542,0,0,1-1.293-3.2c-.081-15.975-.055-31.951-.051-47.927" transform="translate(-258.112 -0.191)" fill="#696057"/>
    <path id="Trazado_2918" data-name="Trazado 2918" d="M498.065,69.526q0-20.545,0-41.091c0-3.179,1.291-4.433,4.523-4.415,3.441.019,4.959,1.441,4.958,4.549q-.015,38.869,0,77.738c0,1.6.172,3.208.125,4.809-.083,2.83-1.815,4.271-4.94,4.24-3.254-.033-4.659-1.333-4.661-4.369q-.01-20.73,0-41.461" transform="translate(-233.3 -11.251)" fill="#696057"/>
    <path id="Trazado_2919" data-name="Trazado 2919" d="M235.04,245.123c.645-3,1.2-5.693,1.8-8.368.638-2.816,1.379-5.61,1.974-8.436.274-1.3.815-1.9,2.237-1.806,1.905.12,3.824.063,5.736.017a3.741,3.741,0,0,1,3.885,2.271,4.25,4.25,0,0,1-.84,4.807,24.147,24.147,0,0,1-2.228,1.857c2.945,3.185,2.41,6.643-1.234,8.439a15.229,15.229,0,0,1-5.146,1.173c-1.934.194-3.9.045-6.187.045m3.931-2.929c2.241-.176,4.465.713,6.167-1.171a2.04,2.04,0,0,0-1.058-3.7,7.2,7.2,0,0,0-2.908-.154,1.871,1.871,0,0,0-1.316.992,36.627,36.627,0,0,0-.886,4.031m1.732-7.671c1.828-.214,3.423-.052,4.64-.654a4.4,4.4,0,0,0,2.034-2.9c.226-1.467-1.352-1.45-2.41-1.608a5.614,5.614,0,0,0-2.017.019,1.815,1.815,0,0,0-1.217.852c-.416,1.252-.635,2.569-1.03,4.294" transform="translate(-110.096 -106.097)" fill="#288dc1"/>
    <path id="Trazado_2920" data-name="Trazado 2920" d="M352.307,231.473c-.633,2.679-1.139,4.862-1.668,7.039-.348,1.434-.742,2.857-1.089,4.29a1.607,1.607,0,0,1-2.283,1.2,2.078,2.078,0,0,1-.75-1.833c1.149-5.161,2.4-10.3,3.675-15.433a15.8,15.8,0,0,1,1.126-2.392l9.188,13.272c.581-2.276,1.111-4.226,1.569-6.192.321-1.377.576-2.772.8-4.169.242-1.5,1.209-1.829,2.541-1.756,1.065.058,1.4.515,1.149,1.551-1.275,5.262-2.5,10.535-3.81,15.789-.132.531-.686,1.343-1.045,1.343a2.29,2.29,0,0,1-1.569-.976c-2.536-3.705-5-7.46-7.839-11.733" transform="translate(-162.304 -105.086)" fill="#288dc1"/>
    <path id="Trazado_2921" data-name="Trazado 2921" d="M393.747,245.089c-4.989-.046-4.916,1.143-3.691-4.517.885-4.084,1.986-8.122,2.946-12.191.312-1.324.915-1.974,2.406-1.861,1.841.141,3.7,0,5.553.048,5.349.131,8.618,4.683,7.081,9.827-1.45,4.854-6.2,8.387-11.7,8.688-.862.047-1.728.006-2.592.006m-.516-3.2c4.392.839,8.2-.56,10.276-3.587,1.566-2.286,1.766-5.157.484-6.927-1.133-1.563-5.051-2.69-7.144-2a1.467,1.467,0,0,0-.89.8c-.936,3.857-1.81,7.729-2.725,11.711" transform="translate(-182.381 -106.099)" fill="#288dc1"/>
    <path id="Trazado_2922" data-name="Trazado 2922" d="M282.737,245.178a5.667,5.667,0,0,1-1.32-1.566,18.853,18.853,0,0,1-1.1-3.9c-.352-1.889-1.735-1.751-3.111-1.806-1.487-.06-1.4,1.032-1.608,1.983-.277,1.26-.627,2.505-.961,3.752a1.789,1.789,0,0,1-2.567,1.329c-.4-.159-.651-1.442-.5-2.11,1.069-4.868,2.3-9.7,3.379-14.565a1.91,1.91,0,0,1,2.283-1.772c2.159.092,4.325.049,6.487.031a4.4,4.4,0,0,1,4.3,2.342,4.68,4.68,0,0,1-.4,5.23,13.144,13.144,0,0,1-3.2,2.98c-.833.566-1.087.975-.711,1.9.531,1.31.956,2.664,1.4,4.008.577,1.76.261,2.16-2.361,2.157m-5.908-10.246c3.574.8,6.278.383,7.511-1.452a3.838,3.838,0,0,0,.3-2.989c-.374-1.1-5.691-1.474-6.588-.634a.97.97,0,0,0-.306.452c-.319,1.541-.616,3.087-.917,4.622" transform="translate(-127.185 -106.105)" fill="#288dc1"/>
    <path id="Trazado_2923" data-name="Trazado 2923" d="M318.442,224.766c.333,1.066.6,1.789.785,2.532,1.272,5.08,2.523,10.164,3.792,15.245.185.742.483,1.554-.66,1.693-1,.121-2.533.526-2.618-.879-.209-3.48-2.506-3.176-4.831-3.076a14.041,14.041,0,0,1-2.04-.015,3.589,3.589,0,0,0-3.943,2.056,5,5,0,0,1-2.174,1.857c-.479.237-1.258-.129-1.9-.224a4.892,4.892,0,0,1,.381-1.788c2.512-3.59,5.087-7.135,7.663-10.68q1.9-2.62,3.891-5.181a15.705,15.705,0,0,1,1.655-1.54m-1.489,7.225-.523-.1-3.99,5.511h5.708c-.4-1.812-.8-3.612-1.2-5.41" transform="translate(-142.796 -105.284)" fill="#288dc1"/>
    <path id="Trazado_2924" data-name="Trazado 2924" d="M436.465,245.223c-1.541-.534-3.1-1.023-4.616-1.617-1.06-.415-1.137-1.2-.5-2.077.531-.728.931-1.679,2.161-.835a6.176,6.176,0,0,0,2.644,1.239,5.945,5.945,0,0,0,3.288-.578c1.466-.816,1.432-2.3.087-3.308a16.038,16.038,0,0,0-2.55-1.486c-1.946-.96-3.843-2.025-3.688-4.555a6.191,6.191,0,0,1,4.127-5.445,9.16,9.16,0,0,1,7.036.061c1.019.374,1.681.92,1.21,2.039a1.864,1.864,0,0,1-2.55,1.154,13.546,13.546,0,0,0-3.144-.9,2.8,2.8,0,0,0-3.149,2.052c-.382,1.5,1.013,1.9,2.021,2.437.924.493,1.889.914,2.8,1.431,2.846,1.615,3.452,4.35,1.539,7.015-1.612,2.245-3.886,3.125-6.718,3.379" transform="translate(-201.86 -105.807)" fill="#288dc1"/>
  </g>
</svg>
