<?xml version="1.0" encoding="UTF-8"?>
<svg id="Capa_1" xmlns="http://www.w3.org/2000/svg" viewBox="0 0 354 58">
  <defs>
    <style>
      .cls-1, .cls-2 {
        fill: none;
      }

      .cls-3 {
        fill: #d12716;
      }

      .cls-4 {
        fill: #fff;
      }

      .cls-2 {
        stroke: #d12716;
        stroke-miterlimit: 10;
      }
    </style>
  </defs>
  <rect class="cls-1" width="354" height="58"/>
  <g id="Grupo_221">
    <rect id="Rectángulo_116" class="cls-2" x=".19" y="0" width="57.88" height="57.92"/>
    <path id="Trazado_1384" class="cls-4" d="M88.18,12.87c1.05-.26,2.13-.41,3.22-.44,1.42-.02,2.83.33,4.07,1.03,1.21.72,2.16,1.8,2.73,3.09.66,1.44,1,3.01.99,4.6.09,2.12-.64,4.19-2.04,5.78-1.19,1.4-2.95,2.2-4.78,2.19-.66,0-1.31-.05-1.97-.13-.65-.09-1.41-.21-2.22-.36v-15.76ZM99.41,10.07c-2.79-.86-5.7-1.24-8.61-1.15h-15.15v2.22h2.07c1.1-.09,2.19.31,2.97,1.1.24.29.64,1.21.64,4.3v25.88c0,2.82-.3,3.73-.49,4.02-.72.98-1.91,1.5-3.12,1.38h-2.07v2.23h18.2v-2.23h-2.08c-1.09.1-2.16-.3-2.92-1.09-.26-.28-.68-1.22-.68-4.3v-10.93c1,.21,1.98.38,2.92.51,1.05.14,2.11.21,3.18.21,4.03,0,7.21-1.08,9.45-3.24,2.26-2.2,3.48-5.25,3.37-8.4.05-2.39-.74-4.73-2.23-6.6-1.41-1.79-3.3-3.15-5.44-3.92"/>
    <path id="Trazado_1385" class="cls-4" d="M146.5,8.68h-.57v2.22h2.05c1.1-.1,2.18.31,2.95,1.1.25.29.68,1.24.68,4.3v16.17c0,4.14-.37,7.1-1.09,8.8-.83,1.78-2.24,3.22-4,4.1-2.08,1.11-4.4,1.68-6.76,1.64-1.7.05-3.39-.3-4.93-1.03-1.21-.59-2.25-1.47-3.02-2.57-.81-1.36-1.31-2.87-1.46-4.45-.27-1.74-.41-3.49-.43-5.25v-17.4c0-2.63.34-3.68.62-4.1.7-.93,1.83-1.43,2.99-1.31h2.07v-2.23h-18.2v2.22h2.05c1.02-.1,2.04.25,2.78.95.39.44.85,1.58.85,4.46v15.61c0,4.93.32,8.21.98,10.03.94,2.61,2.71,4.85,5.03,6.38,2.35,1.58,5.79,2.37,10.26,2.37,4.1,0,7.41-.83,9.83-2.46,2.23-1.41,3.95-3.5,4.9-5.96.93-3.08,1.35-6.28,1.23-9.5v-16.17c0-2.77.32-3.67.52-3.97.63-1.11,1.83-1.78,3.11-1.73h2.05v-2.23h-.57"/>
    <path id="Trazado_1386" class="cls-4" d="M186.13,12.81c1.32-.28,2.65-.45,4-.49,2.13-.09,4.2.69,5.74,2.17,1.47,1.51,2.24,3.56,2.15,5.67.06,2.26-.93,4.42-2.68,5.86-1.8,1.55-4.55,2.34-8.16,2.34-.15,0-.35,0-.65-.02-.11,0-.25,0-.41,0v-15.52ZM208.95,46.26c-1.85-1.43-3.44-3.16-4.7-5.12-.01,0-6.01-8.31-7.79-10.77,2.63-.56,5.04-1.88,6.92-3.81,1.67-1.86,2.58-4.28,2.55-6.78.04-2.31-.75-4.55-2.24-6.32-1.41-1.7-3.29-2.95-5.4-3.59-3.12-.76-6.34-1.08-9.55-.96h-15.12v2.22h2.05c1.1-.09,2.18.31,2.95,1.1.26.29.68,1.22.68,4.3v25.88c0,2.81-.33,3.72-.52,4.01-.72.99-1.9,1.51-3.11,1.39h-2.05v2.22h18.2v-2.22h-2.12c-1.08.09-2.14-.31-2.89-1.09-.26-.29-.68-1.22-.68-4.3v-11.07c.1,0,.2.02.3.02.26,0,.53,0,.82,0,.57,0,1.28-.02,2.1-.05l13.41,18.48.17.23h11.59v-2.16l-.52-.05c-1.78-.13-3.52-.67-5.06-1.58"/>
    <path id="Trazado_1387" class="cls-4" d="M226.79,8.93h-.57v2.22h1.97c.85,0,1.68.22,2.42.64.42.21.75.55.94.98.32,1.24.43,2.52.35,3.79v25.88c0,2.96-.37,3.9-.6,4.2-.78.88-1.94,1.33-3.11,1.21h-1.97v2.22h18.2v-2.22h-2c-.83,0-1.65-.22-2.38-.63-.42-.21-.77-.55-.97-.98-.31-1.24-.43-2.52-.34-3.8v-25.88c0-2.96.38-3.9.6-4.19.77-.88,1.92-1.33,3.08-1.22h2v-2.22h-.58"/>
    <path id="Trazado_1388" class="cls-4" d="M304.15,10.57v-1.66h-15.07v2.22h1.97c1.12-.11,2.22.28,3.03,1.06.26.29.68,1.22.68,4.25v21.43l-23.65-28.75-.17-.21h-11.7v2.22h.58c.81-.03,1.63.05,2.42.25.88.26,1.71.64,2.48,1.14.88.75,1.68,1.57,2.39,2.47v27.53c0,2.79-.34,3.71-.55,4.01-.76.95-1.96,1.43-3.17,1.29h-1.96v2.22h15.07v-2.22h-1.99c-1.12.1-2.23-.29-3.04-1.06-.24-.28-.65-1.2-.65-4.24v-23.06l25.58,31.02.17.2h1.89V16.45c0-2.79.35-3.71.55-4.01.75-.94,1.94-1.43,3.14-1.3h2"/>
    <path id="Trazado_1389" class="cls-4" d="M330.63,19.21l5.77,14.11h-11.9l6.13-14.11ZM353.58,47.83c-1.26,0-2.48-.42-3.47-1.2-.85-.74-1.83-2.42-2.9-5l-13.62-33.24-.15-.36h-1.95l-.15.35-14.3,32.84c-1.18,2.84-2.26,4.72-3.2,5.61-.23.22-.92.65-2.94,1.01l-.47.09v2.13h13.7v-2.18l-.53-.04c-2.24-.16-3.11-.51-3.44-.77-.4-.26-.64-.69-.66-1.17.12-1.14.44-2.24.96-3.26,0,0,2.01-4.62,2.57-5.91h14.78c.51,1.24,2.22,5.4,2.22,5.41.6,1.21.98,2.51,1.14,3.84,0,.48-.24.92-.63,1.19-.88.49-1.88.72-2.89.66l-.55.03v2.2h17.04v-2.19"/>
    <rect id="Rectángulo_117" class="cls-3" x="2.66" y="2.46" width="17.65" height="17.67"/>
    <rect id="Rectángulo_118" class="cls-3" x="37.96" y="2.46" width="17.66" height="17.67"/>
    <rect id="Rectángulo_119" class="cls-3" x="20.3" y="20.13" width="17.66" height="17.67"/>
    <rect id="Rectángulo_120" class="cls-3" x="2.66" y="37.79" width="17.65" height="17.67"/>
    <rect id="Rectángulo_121" class="cls-3" x="37.96" y="37.79" width="17.66" height="17.67"/>
  </g>
</svg>