<svg xmlns="http://www.w3.org/2000/svg" xmlns:xlink="http://www.w3.org/1999/xlink" width="517.448" height="87.746" viewBox="0 0 517.448 87.746">
  <defs>
    <clipPath id="clip-path">
      <rect id="Rectángulo_1315" data-name="Rectángulo 1315" width="517.448" height="87.746" transform="translate(0 0)" fill="none"/>
    </clipPath>
  </defs>
  <g id="Grupo_2261" data-name="Grupo 2261" transform="translate(0 0)">
    <g id="Grupo_2260" data-name="Grupo 2260" clip-path="url(#clip-path)">
      <path id="Trazado_2965" data-name="Trazado 2965" d="M517.292,87.745H91.227V.215C91.992,0,515.3-.093,517.255.117c.221.754.275,86.362.037,87.628M249.086,15.412v3.221c1.089,0,2.115-.053,3.132.018a8.651,8.651,0,0,1,2.285.427,3.049,3.049,0,0,1,2.218,2.609,30.75,30.75,0,0,1,.346,3.383q.044,19.289.021,38.576c0,1.062-.108,2.126-.2,3.187a3.549,3.549,0,0,1-2.072,3.233,7.4,7.4,0,0,1-2.144.547c-.914.1-1.845.03-2.769.048-.271.006-.541.059-.813.09v3.036h25.739V70.709c-.4-.019-.752-.044-1.1-.05-.924-.017-1.851.023-2.77-.045a3.682,3.682,0,0,1-3.834-3.515,31.081,31.081,0,0,1-.273-4.138c-.033-4.793-.016-9.586-.013-14.38,0-.378.036-.756.059-1.211,1.194,0,2.3.077,3.387-.024a1.822,1.822,0,0,1,1.818.947q8.953,12.393,17.938,24.764a1.709,1.709,0,0,0,1.571.815c4.832-.032,9.664-.015,14.5-.018.311,0,.622-.031.988-.05a10.608,10.608,0,0,0-.043-3.006c-.9-.139-1.736-.256-2.571-.4a13.174,13.174,0,0,1-7.98-4.327c-.768-.885-1.58-1.739-2.271-2.682q-6.1-8.339-12.156-16.715c-.157-.216-.287-.452-.474-.748.456-.145.822-.266,1.189-.379a21.141,21.141,0,0,0,6.3-3.032,14.352,14.352,0,0,0,4.375-18,15.482,15.482,0,0,0-10.6-8.042,46.55,46.55,0,0,0-10.69-1.037c-7.319-.049-14.639-.021-21.959-.025h-1.132m121.569,3.231c.567,0,1.024-.011,1.479,0a10.449,10.449,0,0,1,7.859,3.439c.4.449.79.918,1.228,1.33a2.032,2.032,0,0,1,.6,1.625q-.022,19.449-.024,38.9a28.97,28.97,0,0,1-.3,3.5,3.325,3.325,0,0,1-2.8,2.965,16.228,16.228,0,0,1-2.743.264c-.7.039-1.4.007-2.176.007a25.05,25.05,0,0,0,0,3.128c2.722.214,20.515.116,21.284-.1V70.662c-1.033,0-1.988.038-2.938-.012a10.242,10.242,0,0,1-2.205-.305,3.091,3.091,0,0,1-2.509-2.824c-.107-1.165-.276-2.332-.279-3.5q-.04-16.181-.027-32.363c0-.271.038-.541.07-.963.293.313.49.5.663.711q12,14.552,24,29.106,5.627,6.823,11.264,13.639c.2.239.448.586.7.606a6.08,6.08,0,0,0,2.568-.109V73.231q0-23.658.012-47.318a27.532,27.532,0,0,1,.264-3.818,3.473,3.473,0,0,1,3.134-3.253,21.756,21.756,0,0,1,2.86-.208c.556-.028,1.114-.005,1.741-.005a17.057,17.057,0,0,0-.056-3.124c-2.288-.229-20.51-.131-21.25.1v3.038c1.064,0,2.057-.051,3.041.016a10.745,10.745,0,0,1,2.294.4,2.931,2.931,0,0,1,2.272,2.543,34.351,34.351,0,0,1,.374,4.129c.032,9.875.017,19.751.017,29.627v.8a1.966,1.966,0,0,1-.815-.616q-8.6-10.448-17.2-20.9-7.582-9.216-15.151-18.445A1.856,1.856,0,0,0,386.3,15.4c-4.868.035-9.737.017-14.6.021-.338,0-.677.037-1.044.059ZM135.73,70.722c-.4-.021-.677-.045-.956-.05-.959-.017-1.921.013-2.877-.049a3.7,3.7,0,0,1-3.871-3.478,25,25,0,0,1-.281-3.6c-.03-4.937-.013-9.874-.013-14.812V47.586c.444.073.752.116,1.058.174a32.992,32.992,0,0,0,12.907.273,16.507,16.507,0,0,0,7.112-3.216c5.995-4.747,6.87-12.938,4.8-18.262a16.163,16.163,0,0,0-10.448-9.643,32.933,32.933,0,0,0-10.4-1.456c-7.318-.066-14.638-.029-21.957-.029a7.918,7.918,0,0,0-.812.082v3.12c.591,0,1.117-.022,1.641,0a19.966,19.966,0,0,1,2.964.212c1.871.38,2.946,1.365,3.094,3.152.118,1.414.292,2.83.295,4.245q.035,18.435,0,36.869c0,1.381-.139,2.764-.267,4.141a3.421,3.421,0,0,1-2.863,3.157,14.249,14.249,0,0,1-2.636.254c-.732.038-1.467.007-2.295.007,0,.894,0,1.635,0,2.376,0,.24.033.479.055.771H135.73Zm33.55-52.45c.411,0,.756-.008,1.1,0,.887.025,1.777.025,2.661.094,2.38.186,3.5,1.146,3.88,3.475a25.739,25.739,0,0,1,.346,4.025c.032,7.567.011,15.135.018,22.7,0,3.233.145,6.457.472,9.679a17.936,17.936,0,0,0,13.122,15.4,37.13,37.13,0,0,0,17.1.312,18.754,18.754,0,0,0,11.349-7.406,18.078,18.078,0,0,0,3.057-7.98,55.454,55.454,0,0,0,.669-9.342c0-7.71-.014-15.42.015-23.129.005-1.345.171-2.69.295-4.032a4.631,4.631,0,0,1,4.121-3.715c.851-.033,1.7-.055,2.554-.089.34-.014.679-.046,1.048-.072a20.316,20.316,0,0,0,0-3c-2.074-.216-20.523-.125-21.281.089v2.986c.652,0,1.218-.014,1.784,0,.745.023,1.494.038,2.234.117a3.611,3.611,0,0,1,3.642,3.354,27.628,27.628,0,0,1,.316,4.135c.029,7.817.063,15.633-.013,23.449-.027,2.762-.288,5.529-.572,8.28a11.382,11.382,0,0,1-5.443,8.842,19.122,19.122,0,0,1-15.336,2.478,10.64,10.64,0,0,1-8.375-8.566,44.149,44.149,0,0,1-1.017-9.2q-.057-13.056,0-26.113a26.671,26.671,0,0,1,.337-3.385,3.758,3.758,0,0,1,3.544-3.267c.987-.1,1.986-.086,2.979-.129.373-.016.746-.047,1.186-.076,0-.894,0-1.671,0-2.448,0-.169-.037-.339-.063-.569H169.28ZM481.246,73.781h24.107V70.869a1.459,1.459,0,0,0-.326-.149c-.244-.038-.492-.061-.74-.075a7.038,7.038,0,0,1-6.248-3.792c-.883-1.658-1.764-3.329-2.478-5.063q-8.7-21.123-17.328-42.272c-.633-1.544-1.263-3.088-1.9-4.629-.147-.354-.257-.746-.783-.731-.771.021-1.542.005-2.278.005-.159.344-.268.566-.367.793q-10.272,23.577-20.546,47.155a34.052,34.052,0,0,1-3.14,5.919,5.05,5.05,0,0,1-3.151,2.191c-.9.2-1.791.427-2.708.647V73.72c1.269.235,18.634.182,19.361-.045V70.759c-.479-.049-.9-.067-1.314-.138a29.014,29.014,0,0,1-3.441-.654,2.166,2.166,0,0,1-1.645-2.793,12.772,12.772,0,0,1,.715-2.446c1.011-2.462,2.076-4.9,3.13-7.347.349-.811.726-1.61,1.084-2.4.254-.017.429-.04.6-.04,6.5,0,13.006.008,19.509-.017a1.078,1.078,0,0,1,1.163.817c1.09,2.737,2.241,5.449,3.323,8.189a31.032,31.032,0,0,1,.954,3.044c.482,1.726-.227,2.9-2.137,3.357a18.918,18.918,0,0,1-2.212.3c-.379.046-.762.058-1.206.09ZM323.812,70.674a14.76,14.76,0,0,0-.061,3.061c1.269.249,25.055.19,25.84-.06a13.531,13.531,0,0,0-.056-3.022c-1.154,0-2.215.013-3.275,0a6.207,6.207,0,0,1-2.926-.886,2.75,2.75,0,0,1-1.533-2.288c-.1-1.344-.232-2.691-.234-4.037q-.027-18.652,0-37.3a36.545,36.545,0,0,1,.266-4.034,3.46,3.46,0,0,1,3.157-3.243,24.135,24.135,0,0,1,3.179-.217c.448-.023.9,0,1.319,0a6.288,6.288,0,0,0-.072-3.141H323.8v3.146c.936,0,1.785-.007,2.635,0a7.5,7.5,0,0,1,3.379.831,2.866,2.866,0,0,1,1.717,2.394c.11,1.273.237,2.549.239,3.824q.025,18.866,0,37.732c0,1.274-.127,2.551-.251,3.821a3.412,3.412,0,0,1-2.932,3.2,9.873,9.873,0,0,1-1.79.218c-.956.035-1.913.009-2.984.009" fill="#231f20"/>
      <path id="Trazado_2966" data-name="Trazado 2966" d="M.157.1H87.508c.234.8.285,86.317.05,87.55H.2C-.027,86.882-.086,1.411.157.1M2.943,84.65H84.4V3.233C83.345,2.972,3.785,3,2.943,3.263Z" fill="#eb0d15"/>
      <path id="Trazado_2967" data-name="Trazado 2967" d="M249.086,15.413h1.133c7.319,0,14.639-.025,21.958.025a46.55,46.55,0,0,1,10.69,1.037,15.486,15.486,0,0,1,10.6,8.042,14.351,14.351,0,0,1-4.376,18,21.126,21.126,0,0,1-6.3,3.033c-.368.113-.733.233-1.189.379.186.3.317.532.474.748q6.07,8.363,12.156,16.715c.69.942,1.5,1.8,2.27,2.682a13.183,13.183,0,0,0,7.981,4.327c.834.145,1.674.263,2.57.4a10.645,10.645,0,0,1,.044,3.006c-.367.019-.678.049-.989.049-4.832,0-9.664-.013-14.5.019a1.709,1.709,0,0,1-1.571-.815q-8.955-12.393-17.937-24.764a1.823,1.823,0,0,0-1.819-.947c-1.088.1-2.193.024-3.387.024-.023.455-.059.833-.059,1.211,0,4.793-.02,9.587.013,14.38a31.262,31.262,0,0,0,.273,4.138,3.682,3.682,0,0,0,3.834,3.514c.919.068,1.846.029,2.77.045.347.006.693.031,1.1.051v3.078H249.09V70.752c.271-.031.541-.085.812-.09.924-.018,1.855.048,2.769-.048a7.4,7.4,0,0,0,2.144-.547,3.552,3.552,0,0,0,2.073-3.233c.092-1.061.2-2.125.2-3.188q.013-19.287-.021-38.575a30.75,30.75,0,0,0-.346-3.383,3.049,3.049,0,0,0-2.218-2.61,8.724,8.724,0,0,0-2.285-.427c-1.017-.07-2.043-.017-3.132-.017Zm17.8,27.561c3.832.128,7.495-.114,10.885-1.859a10.617,10.617,0,0,0,5.236-5.791,12.238,12.238,0,0,0,.52-6.089,10.191,10.191,0,0,0-7.629-8.516c-3.021-.765-5.987-.311-9.012.283Z" fill="#fff"/>
      <path id="Trazado_2968" data-name="Trazado 2968" d="M370.655,18.643V15.485c.367-.021.706-.059,1.044-.059,4.868,0,9.737.014,14.6-.021a1.857,1.857,0,0,1,1.606.786q7.559,9.237,15.151,18.446,8.6,10.452,17.2,20.9a1.958,1.958,0,0,0,.815.616v-.8c0-9.876.015-19.752-.017-29.627a34.37,34.37,0,0,0-.374-4.129,2.928,2.928,0,0,0-2.272-2.542,10.746,10.746,0,0,0-2.294-.4c-.984-.067-1.977-.016-3.041-.016V15.6c.74-.229,18.962-.328,21.25-.1a17.059,17.059,0,0,1,.056,3.124c-.627,0-1.185-.023-1.741.005a21.586,21.586,0,0,0-2.86.209,3.471,3.471,0,0,0-3.134,3.252,27.557,27.557,0,0,0-.264,3.819q-.027,23.658-.012,47.318v1.417a6.08,6.08,0,0,1-2.568.109c-.248-.02-.5-.367-.7-.606q-5.639-6.813-11.265-13.639-12-14.552-24-29.106c-.173-.209-.37-.4-.663-.711-.032.422-.07.693-.07.963q0,16.182.027,32.364c0,1.166.172,2.333.279,3.5a3.09,3.09,0,0,0,2.509,2.823,10.242,10.242,0,0,0,2.2.305c.951.051,1.906.013,2.939.013V73.7c-.769.214-18.562.312-21.284.1a24.859,24.859,0,0,1,0-3.128c.776,0,1.478.031,2.176-.008A16.126,16.126,0,0,0,378.7,70.4a3.322,3.322,0,0,0,2.8-2.965,28.768,28.768,0,0,0,.3-3.5q.031-19.449.024-38.9a2.03,2.03,0,0,0-.6-1.624c-.438-.413-.824-.882-1.228-1.331a10.445,10.445,0,0,0-7.859-3.438c-.456-.013-.912,0-1.479,0" fill="#fff"/>
      <path id="Trazado_2969" data-name="Trazado 2969" d="M135.731,70.723v3.1H109.982c-.022-.293-.053-.532-.055-.771-.006-.742,0-1.483,0-2.376.827,0,1.563.03,2.294-.008a14.24,14.24,0,0,0,2.636-.254,3.421,3.421,0,0,0,2.863-3.157c.128-1.377.265-2.76.267-4.14q.031-18.435,0-36.87c0-1.415-.177-2.831-.294-4.245-.149-1.787-1.224-2.772-3.094-3.151a19.845,19.845,0,0,0-2.965-.213c-.523-.025-1.05,0-1.64,0v-3.12a7.9,7.9,0,0,1,.811-.082c7.319,0,14.639-.037,21.958.029a32.927,32.927,0,0,1,10.4,1.456,16.165,16.165,0,0,1,10.448,9.643c2.067,5.325,1.193,13.515-4.8,18.262a16.524,16.524,0,0,1-7.113,3.217,33.011,33.011,0,0,1-12.907-.273c-.3-.059-.614-.1-1.057-.175v1.143c0,4.937-.018,9.874.012,14.811a24.988,24.988,0,0,0,.281,3.6,3.7,3.7,0,0,0,3.872,3.478c.956.062,1.917.032,2.876.049.28.005.559.029.957.051M127.86,21.081c-.225,1.361-.169,21.539.086,22.426,1.489.179,3.029.4,4.578.541a8.914,8.914,0,0,0,9.3-5.081c2.388-4.608,1.936-9.266-.512-13.763a8.309,8.309,0,0,0-3.088-3.172c-3.315-1.986-6.816-1.8-10.362-.951" fill="#fff"/>
      <path id="Trazado_2970" data-name="Trazado 2970" d="M169.28,18.273V15.185h25.738a5.674,5.674,0,0,1,.063.569c.006.777,0,1.554,0,2.448-.44.029-.813.06-1.187.076-.993.043-1.992.029-2.979.129a3.759,3.759,0,0,0-3.544,3.267,26.671,26.671,0,0,0-.337,3.385q-.042,13.056,0,26.113a44.224,44.224,0,0,0,1.017,9.2,10.643,10.643,0,0,0,8.375,8.566,19.119,19.119,0,0,0,15.336-2.479,11.373,11.373,0,0,0,5.443-8.841c.285-2.751.546-5.518.572-8.28.077-7.816.042-15.633.013-23.449a27.5,27.5,0,0,0-.316-4.135,3.612,3.612,0,0,0-3.642-3.355c-.74-.078-1.488-.093-2.234-.116-.565-.018-1.132,0-1.784,0V15.289c.758-.213,19.208-.3,21.282-.089a20.32,20.32,0,0,1,0,3c-.369.026-.708.059-1.048.073-.851.034-1.7.056-2.554.089a4.627,4.627,0,0,0-4.12,3.715c-.124,1.342-.291,2.687-.3,4.031-.028,7.71-.012,15.42-.015,23.13a55.453,55.453,0,0,1-.668,9.342,18.1,18.1,0,0,1-3.058,7.98,18.755,18.755,0,0,1-11.348,7.406,37.148,37.148,0,0,1-17.1-.312,17.938,17.938,0,0,1-13.122-15.4,96.634,96.634,0,0,1-.471-9.68c-.008-7.567.013-15.135-.019-22.7a25.742,25.742,0,0,0-.346-4.026c-.381-2.328-1.5-3.289-3.88-3.474-.884-.069-1.774-.069-2.661-.094-.345-.01-.691,0-1.1,0" fill="#fff"/>
      <path id="Trazado_2971" data-name="Trazado 2971" d="M481.246,73.781V70.726c.443-.032.827-.044,1.206-.089a19.164,19.164,0,0,0,2.212-.305c1.91-.459,2.619-1.631,2.137-3.357a31.046,31.046,0,0,0-.955-3.044c-1.08-2.74-2.231-5.452-3.323-8.188a1.076,1.076,0,0,0-1.163-.817c-6.5.024-13,.014-19.508.016-.176,0-.351.023-.6.04-.356.789-.734,1.588-1.084,2.4-1.053,2.445-2.117,4.885-3.13,7.348a12.811,12.811,0,0,0-.714,2.445,2.167,2.167,0,0,0,1.645,2.793,29.014,29.014,0,0,0,3.441.654c.412.071.835.089,1.313.138v2.916c-.727.227-18.09.28-19.36.046V70.868c.917-.22,1.809-.45,2.708-.647a5.041,5.041,0,0,0,3.15-2.191,33.916,33.916,0,0,0,3.14-5.919Q462.637,38.537,472.9,14.956c.1-.227.206-.449.366-.792.735,0,1.507.016,2.278-.006.525-.014.636.377.782.731.64,1.541,1.27,3.086,1.9,4.629q8.656,21.14,17.329,42.272c.714,1.734,1.594,3.4,2.477,5.063a7.039,7.039,0,0,0,6.249,3.792c.247.014.5.037.74.075a1.5,1.5,0,0,1,.326.149v2.912ZM463.375,50.035h16.786l-2.722-6.663c-.886-2.168-1.76-4.341-2.663-6.5s-1.709-4.358-2.786-6.674l-8.615,19.839" fill="#fff"/>
      <path id="Trazado_2972" data-name="Trazado 2972" d="M323.812,70.674c1.071,0,2.028.026,2.984-.009a9.873,9.873,0,0,0,1.79-.218,3.412,3.412,0,0,0,2.932-3.2c.124-1.27.249-2.547.251-3.821q.028-18.867,0-37.732c0-1.275-.129-2.551-.239-3.824a2.866,2.866,0,0,0-1.717-2.394,7.5,7.5,0,0,0-3.379-.831c-.85-.009-1.7,0-2.635,0V15.495h25.618a6.288,6.288,0,0,1,.072,3.141c-.42,0-.871-.019-1.319,0a24.135,24.135,0,0,0-3.179.217,3.46,3.46,0,0,0-3.157,3.243,36.545,36.545,0,0,0-.266,4.034q-.03,18.652,0,37.3c0,1.346.133,2.693.234,4.037a2.75,2.75,0,0,0,1.533,2.288,6.207,6.207,0,0,0,2.926.886c1.06.016,2.121,0,3.275,0a13.531,13.531,0,0,1,.056,3.022c-.785.25-24.571.309-25.84.06a14.76,14.76,0,0,1,.061-3.061" fill="#fff"/>
      <path id="Trazado_2973" data-name="Trazado 2973" d="M2.943,84.65V3.264c.842-.261,80.4-.292,81.46-.031V84.65ZM56.488,31.427c.422-.031.843-.09,1.264-.09q11.135-.007,22.267,0h1.223c.257-1.247.208-24.188-.03-24.954H56.451V7.492q0,11.4,0,22.792c0,.389.042.778.061,1.166-3.368-.011-6.736-.032-10.1-.032q-7.6,0-15.21.023c.02-.283.056-.566.056-.849q0-11.673,0-23.344c0-.275-.04-.55-.066-.879H6.472c-.251,1.209-.2,24.155.07,24.964H7.787q11.09,0,22.178,0c.423,0,.846.049,1.272.073a12.307,12.307,0,0,1,.123,1.252q.012,11.183.006,22.366v1.221c1.5.22,24.142.154,25-.076V54.941q0-11.129.005-22.259c0-.418.073-.837.112-1.255M31.227,56.657c-1.385-.269-24.089-.2-24.835.061V81.367c1.459.22,24.071.156,24.835-.068Zm50.04,24.785c.217-1.223.177-24.036-.037-24.86h-24.7v24.86Z" fill="#fff"/>
      <path id="Trazado_2974" data-name="Trazado 2974" d="M266.885,42.974V21c3.025-.594,5.991-1.048,9.012-.283a10.191,10.191,0,0,1,7.629,8.516,12.238,12.238,0,0,1-.52,6.089,10.617,10.617,0,0,1-5.236,5.791c-3.39,1.745-7.053,1.987-10.885,1.859" fill="#231f20"/>
      <path id="Trazado_2975" data-name="Trazado 2975" d="M127.86,21.081c3.546-.853,7.047-1.035,10.362.951A8.309,8.309,0,0,1,141.31,25.2c2.448,4.5,2.9,9.155.512,13.763a8.914,8.914,0,0,1-9.3,5.081c-1.549-.136-3.089-.362-4.578-.541-.255-.887-.311-21.065-.086-22.426" fill="#231f20"/>
      <path id="Trazado_2976" data-name="Trazado 2976" d="M463.375,50.035,471.99,30.2c1.077,2.316,1.884,4.516,2.786,6.674s1.777,4.334,2.663,6.5l2.722,6.663Z" fill="#231f20"/>
      <path id="Trazado_2977" data-name="Trazado 2977" d="M31.234,31.412c-.423-.026-.846-.075-1.269-.076q-11.089-.006-22.179,0H6.541c-.266-.809-.32-23.755-.069-24.964H31.191c.025.329.065.6.065.878q.006,11.673,0,23.344c0,.284-.037.567-.056.85l.033-.029" fill="#eb0d15"/>
      <path id="Trazado_2978" data-name="Trazado 2978" d="M56.518,31.451c-.022-.389-.063-.778-.063-1.167q-.006-11.4,0-22.792V6.379H81.212c.238.766.287,23.707.03,24.954H80.019q-11.133,0-22.266,0c-.422,0-.843.058-1.266.089l.031.025" fill="#eb0d15"/>
      <path id="Trazado_2979" data-name="Trazado 2979" d="M31.2,31.44q7.6-.012,15.21-.023c3.368,0,6.736.021,10.1.033l-.03-.025c-.037.42-.11.838-.11,1.256q-.01,11.13-.005,22.26v1.231c-.863.23-23.5.3-25.006.076V55.027q0-11.184,0-22.366a12.294,12.294,0,0,0-.125-1.251l-.034.03" fill="#eb0d15"/>
      <path id="Trazado_2980" data-name="Trazado 2980" d="M31.227,56.656V81.3c-.764.224-23.376.289-24.835.068V56.717c.746-.257,23.45-.33,24.835-.061" fill="#eb0d15"/>
      <path id="Trazado_2981" data-name="Trazado 2981" d="M81.267,81.442H56.529V56.582h24.7c.214.824.254,23.637.037,24.86" fill="#eb0d15"/>
    </g>
  </g>
</svg>
