<?xml version="1.0" encoding="UTF-8"?>
<svg id="Capa_1" xmlns="http://www.w3.org/2000/svg" viewBox="0 0 201 88">
  <defs>
    <style>
      .cls-1 {
        fill: none;
      }

      .cls-2 {
        fill: #fff;
      }

      .cls-3 {
        fill: #165ea8;
      }
    </style>
  </defs>
  <rect class="cls-1" width="201" height="88"/>
  <g id="Grupo_220">
    <path id="Trazado_1597" class="cls-3" d="M129.12,85.66c-6.46-2.66-12.41-6.42-17.59-11.1-.45-.4-.86-.85-1.22-1.34.19-.35.43-.66.71-.94,2.97-3.06,5.11-6.83,6.23-10.94.36-1.4.61-2.83.74-4.28l.03-.67-5.3-.03c-2.92-.01-5.3,0-5.3.05.15.21.32.41.52.58.65.66,1.08,1.5,1.25,2.41.1,1.91-.24,3.82-.99,5.58-.62,1.51-1.56,3.04-1.79,2.9-.93-1.27-1.8-2.58-2.58-3.95-2.4-3.87-4.08-8.15-4.95-12.62-.19-.98-.22-1.27-.12-1.37.07-.07,1.59-.83,3.38-1.69s3.75-1.82,4.34-2.14c4.75-2.52,8.11-5.17,10.35-8.16.98-1.39,1.74-2.92,2.23-4.55,1.55-6.09-2.39-11.49-9.4-12.9-2.08-.33-4.2-.33-6.29,0-3.16.6-6.14,1.9-8.72,3.82-3.36,2.56-5.89,6.79-7.21,12.03-.81,3.34-1.17,6.77-1.09,10.2.05.97.04,1.27-.07,1.36-.07.06-1.23.49-2.57.96-3.85,1.2-7.54,2.86-10.99,4.93-5.31,3.29-8.78,7.85-9.8,12.92-.97,4.22-.37,8.65,1.7,12.46,3,5.07,8.12,7.9,14.99,8.27h0c3.55.2,7.11-.31,10.47-1.5,3.68-1.29,7.2-3.03,10.45-5.18.41-.3.85-.55,1.31-.76.41.25.78.55,1.12.89,1.95,1.88,4.06,3.58,6.3,5.09l.58.32,10.16-.03c6.68-.02,10.16-.06,10.16-.13-.32-.23-.68-.4-1.06-.53M93.3,77.17c-1.65.67-3.36,1.17-5.1,1.51-4.35.78-8.08-.2-10.47-2.75-1.32-1.45-2.12-3.29-2.28-5.25-.63-5.04,2.22-9.86,8.18-13.81,1.18-.87,2.48-1.56,3.85-2.06.15.17.25.38.28.61.22.95,1.39,4.42,2.02,5.98,1.75,4.34,3.95,8.48,6.58,12.35.36.45.65.94.88,1.47-1.24.79-2.57,1.44-3.95,1.94M97.76,43.93c-.18,0-.22-.54-.22-2.95-.09-2.41.22-4.83.94-7.14,1.5-5.13,4.93-8.9,8.1-8.9,1.64-.15,3.09,1.06,3.24,2.7.02.25.01.5-.03.75,0,2.36-1.33,5.27-3.84,8.39-2.2,2.66-4.78,4.97-7.66,6.87-.17.11-.36.2-.55.28"/>
    <path id="Trazado_1598" class="cls-2" d="M150.82,87.42c-4.31-.32-8.55-1.28-12.57-2.85-5.29-2.1-8.6-4.7-11.39-8.95-1.06-1.73-1.97-3.54-2.72-5.43-2.42-6.59-2.95-14.88-1.51-23.54,1.36-8.52,4.57-16.64,9.38-23.8,3.35-4.65,7.39-8.76,11.98-12.18C153.85,3.52,165.75-.25,177.92-.08c4.87-.03,9.72.45,14.49,1.45,3.36.67,8.71,2.11,8.81,2.38.05.13-3.34,11-3.48,11.14-.42-.19-.81-.46-1.15-.77-4.21-3.54-9.27-5.91-14.68-6.87-2.04-.25-4.11-.25-6.15,0-6.99,1.08-13.48,5.55-19.24,13.26-2.08,2.85-3.93,5.86-5.53,9.01-2.14,4.19-3.87,8.57-5.18,13.09-4.81,16.05-5.05,27.27-.73,33.34,1.84,2.53,4.61,4.23,7.7,4.7,1.9.35,6.51.14,6.97-.32.07-.07,2.32-7.11,5-15.64,4.4-14.01,4.87-15.6,4.92-16.39.08-1.02-.14-2.04-.61-2.94-.63-1.03-1.5-1.88-2.54-2.49-.27-.13-.52-.29-.75-.49,0-.04,7.38-.08,16.4-.08s16.4.03,16.4.08c-.27.2-.57.36-.89.48-2.4,1.02-4.35,2.87-5.5,5.21-.24.5-2.3,6.91-5.4,16.78l-5.02,15.98-1.45.69c-6.43,2.98-13.29,4.92-20.33,5.75-1.32.16-8.04.29-9.15.18h-.02Z"/>
    <path id="Trazado_1599" class="cls-2" d="M87.16,15.58c-.94-5.19-3.99-9.12-9.09-11.71-3.39-1.63-7.05-2.6-10.79-2.86-1.8-.14-41.07-.16-41.07-.01.16.24.35.45.57.63,1.08.95,1.68,2.33,1.62,3.77,0,.51-.06,1.02-.16,1.52-.5,1.85-22.99,73.49-23.24,74-1.08,2.02-2.68,3.72-4.63,4.93-.3.17-.51.36-.48.41.11.13,30.01.13,30.1,0,.03-.05-.2-.27-.51-.47-1.6-1.07-2.46-2.95-2.23-4.86.09-.58,8.2-26.6,8.33-26.73.65,0,1.29.03,1.94.1,4.23.26,8.48.17,12.7-.28,12.71-1.38,23.07-6.42,29.4-14.3,4.06-5.21,6.7-11.38,7.65-17.92.21-2.07.17-4.15-.1-6.21M63.33,26.44c-1.19,4.68-3.23,9.09-6.03,13.02-1.4,1.76-3,3.36-4.76,4.76-2.4,1.72-5.16,2.88-8.07,3.39h0c-1.56.18-3.13.25-4.71.21-.09-.02-.57-.09-1.07-.16-.33-.02-.66-.1-.96-.24-.02-.06,2.76-9.06,6.2-19.98l6.23-19.87,2.68-.03c3.56-.04,5.04.14,6.77.84,2.03.83,3.62,2.48,4.39,4.53.55,1.52.79,3.13.71,4.74-.04,2.98-.51,5.95-1.39,8.8"/>
  </g>
</svg>