<?xml version="1.0" encoding="UTF-8"?>
<svg id="Capa_1" xmlns="http://www.w3.org/2000/svg" xmlns:xlink="http://www.w3.org/1999/xlink" viewBox="0 0 375 64">
  <defs>
    <style>
      .cls-1 {
        fill: none;
      }

      .cls-2 {
        fill: #fff;
      }

      .cls-2, .cls-3 {
        fill-rule: evenodd;
      }

      .cls-3 {
        fill: #00679f;
      }

      .cls-4 {
        clip-path: url(#clippath);
      }
    </style>
    <clipPath id="clippath">
      <rect class="cls-1" x="300.91" y=".26" width="74.39" height="63.42"/>
    </clipPath>
  </defs>
  <rect class="cls-1" width="375" height="64"/>
  <g id="Grupo_225">
    <path id="Trazado_1577" class="cls-2" d="M335.78,5.1c1.47,1.48,1.47,3.86,0,5.34l-21.41,21.53,21.42,21.52c1.47,1.48,1.47,3.87,0,5.35l-4.81,4.84-29-29.14c-1.41-1.42-1.41-3.71,0-5.13L330.96.26l4.82,4.85ZM374.3,29.54c1.33,1.34,1.33,3.5,0,4.83l-29.14,29.3-5.03-5.06c-1.35-1.36-1.35-3.56,0-4.92l21.62-21.74-21.44-21.55c-1.46-1.47-1.46-3.83,0-5.3l4.84-4.87,29.15,29.29ZM290.43,50.04v.32h-.9v2.37h-.36v-2.37h-.9v-.32h2.17,0ZM290.75,50.04h.52l.77,2.27.77-2.27h.52v2.69h-.35v-2.27l-.76,2.27h-.36l-.77-2.27v.08c0,.07,0,.17,0,.3v1.89h-.35v-2.69h.01ZM271.7,46.81c6.1,0,10.29-4.89,10.29-11.38s-4.19-11.31-10.29-11.31-10.22,5.03-10.22,11.44,4.19,11.24,10.22,11.24M273.42,53.29c-5.21.15-9.99-2.88-12.07-7.65v7.1h-6.86V5.79l6.86-1.38v20.89c2.09-4.77,6.87-7.8,12.07-7.65,8.85,0,15.91,6.83,15.91,17.86,0,10.96-7.07,17.79-15.91,17.79h0ZM218.91,38.47v-20.27h6.86v20.82c0,4.55,2.88,7.65,7.68,7.65s7.68-3.1,7.68-7.65v-20.82h6.86v20.27c0,9.45-5.83,14.76-14.54,14.76s-14.54-5.31-14.54-14.76M214.1,53.23c-7.06.28-10.97-3.45-10.97-11.79V5.79l6.86-1.38v37.03c0,3.31,1.78,4.83,4.25,4.83h1.78v6.76c-.63.14-1.27.21-1.92.21h0ZM169.16,35.44c0-10.96,7.55-17.79,18.04-17.79,4.73-.15,9.32,1.65,12.69,4.96l-4.19,5.17c-2.21-2.3-5.25-3.62-8.44-3.65-6.31,0-10.77,3.79-10.77,11.24s4.46,11.38,10.77,11.38c3.24-.07,6.32-1.46,8.51-3.86l4.18,5.1c-3.36,3.42-7.97,5.31-12.76,5.24-10.43,0-18.04-6.83-18.04-17.79M128.41,49.57l3.09-6.27c2.27,1.65,6.31,3.52,9.4,3.52,3.84,0,5.35-1.86,5.35-3.86.07-2.34-1.85-3.24-5.9-4.55-6.79-2.07-10.63-4.48-10.63-10.82,0-5.79,4.39-9.93,12.35-9.93,3.91,0,7.72,1.2,10.91,3.45l-3.09,5.72c-2.42-1.64-5.24-2.6-8.17-2.76-2.95,0-4.73,1.17-4.73,3.45,0,1.86,1.3,3.1,5.62,4.41,7.34,2.21,10.97,4.96,10.97,10.76,0,6.55-5.28,10.55-12.62,10.55-4.45.04-8.82-1.23-12.56-3.65M123.47,8.27h7.41l-4.32,13.59h-5.69l2.6-13.59ZM97.67,52.67h-6.86v-20.96c0-4.35-2.27-7.65-6.86-7.65-5.01,0-8.51,4.41-8.51,10.07v18.55h-6.86V18.2h6.86v6.14c1.74-4.1,5.77-6.76,10.22-6.76,4.46-.06,8.55,2.5,10.43,6.55,2.88-4.55,6.72-6.55,11.32-6.55,7.2,0,12.48,5.45,12.48,14.2v20.89h-6.86v-20.96c0-4.35-2.26-7.65-6.86-7.65-5.01,0-8.51,4.41-8.51,10.07v18.54ZM44.93,24.13c-6.1,0-10.29,4.89-10.29,11.38s4.19,11.31,10.29,11.31,10.22-5.03,10.22-11.44-4.19-11.24-10.22-11.24M55.29,45.64c-2.09,4.78-6.86,7.8-12.07,7.65-8.85,0-15.92-6.83-15.92-17.86s7.07-17.79,15.92-17.79c5.21-.15,9.99,2.88,12.07,7.65v-7.1h6.86v34.47h-6.86v-7.03ZM-.48,49.57l3.09-6.27c2.27,1.65,6.31,3.52,9.4,3.52,3.84,0,5.35-1.86,5.35-3.86.07-2.34-1.85-3.24-5.9-4.55-6.79-2.07-10.64-4.48-10.64-10.82,0-5.79,4.39-9.93,12.35-9.93,3.91,0,7.72,1.2,10.91,3.45l-3.09,5.72c-2.42-1.64-5.24-2.6-8.16-2.76-2.95,0-4.73,1.17-4.73,3.45,0,1.86,1.3,3.1,5.63,4.41,7.34,2.21,10.97,4.96,10.97,10.76,0,6.55-5.28,10.55-12.62,10.55-4.45.04-8.82-1.23-12.55-3.65h0Z"/>
    <g id="Grupo_105">
      <g class="cls-4">
        <g id="Grupo_104">
          <path id="Trazado_1600" class="cls-3" d="M335.78,5.1c1.47,1.48,1.47,3.87,0,5.34l-21.41,21.53,21.41,21.52c1.47,1.48,1.47,3.87,0,5.35l-4.81,4.84-29-29.14c-1.41-1.42-1.41-3.71,0-5.13L330.96.26l4.82,4.84Z"/>
          <path id="Trazado_1601" class="cls-3" d="M374.3,29.54c1.33,1.34,1.33,3.5,0,4.84l-29.14,29.3-5.03-5.06c-1.35-1.36-1.35-3.55,0-4.92l21.63-21.74-21.44-21.55c-1.46-1.47-1.46-3.83,0-5.3l4.84-4.86,29.15,29.29Z"/>
        </g>
      </g>
    </g>
  </g>
</svg>