<svg id="Grupo_2270" data-name="Grupo 2270" xmlns="http://www.w3.org/2000/svg" xmlns:xlink="http://www.w3.org/1999/xlink" width="675.823" height="113.376" viewBox="0 0 675.823 113.376">
  <defs>
    <clipPath id="clip-path">
      <rect id="Rectángulo_1318" data-name="Rectángulo 1318" width="675.823" height="113.376" transform="translate(0 0)" fill="none"/>
    </clipPath>
  </defs>
  <g id="Grupo_2269" data-name="Grupo 2269" clip-path="url(#clip-path)">
    <path id="Trazado_3007" data-name="Trazado 3007" d="M163.921,93.767V92c0-11.909.031-23.818-.034-35.726a20.519,20.519,0,0,0-.75-5.441c-1.92-6.748-7.672-9.276-13.825-8.311-6.616,1.039-11.424,6.111-12.726,13.1a31.67,31.67,0,0,0-.536,5.615c-.05,10.239-.024,20.478-.024,30.717v1.691H124.047c-.024-.5-.065-.973-.065-1.443q-.006-29.2,0-58.4c0-1.713.005-1.718,1.759-1.72q4.293-.006,8.586,0c1.7,0,1.7.008,1.7,1.758,0,2.931,0,5.861.148,8.9,4.012-7.358,9.933-11.791,18.443-11.773,8.454.017,14.608,4.126,18.669,11.734.391-.515.679-.872.942-1.246,3.675-5.241,8.414-8.891,14.867-10.076,12.328-2.265,22.914,4.417,25.883,16.553a36.81,36.81,0,0,1,1.048,8.326c.112,12,.049,23.993.049,35.99v1.439c-.56.028-1.027.072-1.494.073-2.994.006-5.99-.058-8.981.032-1.267.038-1.637-.323-1.632-1.606.048-11.645.069-23.291-.009-34.935a23.544,23.544,0,0,0-.827-6.492c-2.049-6.89-7.811-9.158-13.756-8.241-6.785,1.046-11.623,6.276-12.884,13.565a34.028,34.028,0,0,0-.473,5.631C175.974,71.825,176,81.932,176,92.039c0,1.726,0,1.727-1.714,1.728H163.921" fill="#0067a0"/>
    <path id="Trazado_3008" data-name="Trazado 3008" d="M565.837,56.958a10.7,10.7,0,0,1,1.528,1.056q18.287,18.288,36.545,36.6c3.677,3.685,3.69,7.3.014,10.981-2.574,2.577-5.176,5.126-7.824,7.745-.369-.345-.725-.659-1.059-.993q-25.257-25.312-50.508-50.63c-3.244-3.252-3.257-6.825-.035-10.058Q569.788,26.29,595.087.927c.305-.306.631-.591.7-.652,3.248,3.073,6.436,6.084,9.614,9.107a2.592,2.592,0,0,1,.419.667,6.555,6.555,0,0,1-1.261,7.981c-4.066,4.144-8.185,8.235-12.284,12.346Q579.695,42.991,567.117,55.6c-.308.309-.6.633-1.28,1.355" fill="#0067a0"/>
    <path id="Trazado_3009" data-name="Trazado 3009" d="M621.661,113.376c-1.506-1.494-2.969-2.94-4.425-4.392q-2.055-2.051-4.1-4.112c-3-3.023-3.016-6.5-.02-9.5q18.672-18.741,37.365-37.463a10.66,10.66,0,0,1,1.4-.992c-.638-.68-.977-1.061-1.337-1.422q-18.5-18.544-37.011-37.071a6.881,6.881,0,0,1-2.163-6.918,6.694,6.694,0,0,1,1.593-2.822c2.658-2.812,5.431-5.514,8.166-8.253A5.406,5.406,0,0,1,621.692,0c.378.354.734.67,1.07,1.007q25.393,25.455,50.784,50.914c3.034,3.043,3.037,6.425,0,9.473q-25.473,25.564-50.954,51.118c-.274.276-.57.53-.931.864" fill="#0067a0"/>
    <path id="Trazado_3010" data-name="Trazado 3010" d="M458.535,93.814v-1.55q0-40.476-.026-80.951c0-1.177.266-1.658,1.517-1.868,3.453-.578,6.872-1.348,10.547-2.091V44.3l.4.123c.223-.375.455-.745.667-1.126q6.453-11.527,19.665-12.144c13.857-.646,25.254,8.068,28.575,22.174,2.276,9.665,1.632,19.154-3.453,27.914a26.071,26.071,0,0,1-20.777,13.389c-7.988.855-15.03-1.162-20.567-7.192a63.793,63.793,0,0,1-4.365-5.989c-.036.492-.094.919-.1,1.346-.008,3.253-.032,6.5.013,9.756.013.962-.266,1.3-1.272,1.288-3.553-.055-7.109-.021-10.827-.021M489.378,83.4c6.725,0,12.42-3.035,15.622-8.8,4.21-7.568,4.372-15.423.189-23a17.921,17.921,0,0,0-31.042-.5c-3.161,5.182-3.827,10.831-2.8,16.735,1.6,9.193,8.97,15.55,18.032,15.555" fill="#0067a0"/>
    <path id="Trazado_3011" data-name="Trazado 3011" d="M99.985,93.767V81.543l-.292-.1c-.222.393-.446.784-.665,1.177-3.908,7.014-9.8,11.087-17.83,12-13.723,1.56-26.568-6.5-30.31-21.641C48.6,63.73,49.007,54.53,53.54,45.947c5.035-9.535,13.127-14.532,23.97-14.792,9.784-.235,17.1,3.942,21.764,12.6a3.993,3.993,0,0,0,.271.449c.044.06.132.088.434.278V43c0-3.251.026-6.5-.016-9.755-.011-.857.268-1.174,1.124-1.167,3.258.027,6.517.044,9.774-.007,1.2-.019,1.209.661,1.208,1.525q-.018,13.183-.007,26.367c0,10.722-.024,21.444.03,32.166.007,1.348-.369,1.72-1.706,1.672-2.947-.105-5.9-.033-8.849-.033H99.985m.037-31.025a67.722,67.722,0,0,0-1.438-7.314A17.667,17.667,0,0,0,81.945,42.482,17.362,17.362,0,0,0,64.84,52.823a22.9,22.9,0,0,0,.138,20.595,17.98,17.98,0,0,0,27.776,5.821c5-4.3,6.893-10.009,7.268-16.5" fill="#0067a0"/>
    <path id="Trazado_3012" data-name="Trazado 3012" d="M446.506,52.682c0,6.109.232,12.228-.048,18.323-.586,12.714-8.373,21.732-21.12,23.349-5.714.724-11.342.4-16.7-1.909-7.759-3.353-12.017-9.468-13.5-17.606a38.318,38.318,0,0,1-.554-6.674c-.053-11.471,0-22.942-.058-34.413-.006-1.357.39-1.733,1.706-1.695,2.992.085,5.989.067,8.982.007,1.107-.023,1.409.361,1.406,1.442q-.051,17.6.007,35.2a20.374,20.374,0,0,0,.645,5.2,12.532,12.532,0,0,0,11.966,9.235,16.338,16.338,0,0,0,8.578-1.6,12.268,12.268,0,0,0,6.633-11.358c.108-12.129.039-24.26.042-36.39,0-1.705,0-1.709,1.745-1.712,2.906,0,5.814.051,8.718-.024,1.253-.032,1.678.35,1.667,1.636-.056,6.328-.026,12.657-.026,18.986h-.092" fill="#0067a0"/>
    <path id="Trazado_3013" data-name="Trazado 3013" d="M5.092,77.227a38.227,38.227,0,0,0,12.889,5.736,15.915,15.915,0,0,0,9.218-.387,6.494,6.494,0,0,0,4.336-7.853A5.148,5.148,0,0,0,28.581,71.2c-2.629-1.194-5.365-2.153-8.039-3.253A101.854,101.854,0,0,1,9.91,63.415c-6.473-3.578-8.692-9.665-7.767-16.67C3.226,38.535,8.2,33.541,16.92,31.8a33.809,33.809,0,0,1,25.651,4.724c.222.142.434.3.642.461a2.014,2.014,0,0,1,.24.336c-1.734,3.208-3.5,6.478-5.337,9.879-.514-.285-.961-.531-1.405-.781-4.427-2.486-9.049-4.348-14.25-4.02a12.9,12.9,0,0,0-4.206.933,5.541,5.541,0,0,0-1.339,9.576,25.278,25.278,0,0,0,5.936,3.035c3.9,1.586,7.974,2.765,11.78,4.534,7.3,3.39,10.741,9.235,9.947,17.312-.725,7.372-4.884,12.192-11.615,14.976-4.677,1.933-9.59,2.172-14.525,1.772A40.16,40.16,0,0,1,2,89.717C-.417,88.375-.409,88.366.786,85.948c1.416-2.862,2.828-5.726,4.306-8.721" fill="#0067a0"/>
    <path id="Trazado_3014" data-name="Trazado 3014" d="M275.529,37.231,270.182,47.1c-2.139-1.031-4.113-2.088-6.169-2.949a20.111,20.111,0,0,0-11.723-1.511c-4.048.771-6.206,3.842-5.276,7.491a5.591,5.591,0,0,0,3.151,3.7c2.29,1.09,4.691,1.945,7.041,2.911,3.688,1.516,7.51,2.776,11.033,4.609,12.022,6.254,10.511,23.508.4,29.558a25.829,25.829,0,0,1-11.963,3.668,42.071,42.071,0,0,1-22.065-4.541c-3.049-1.569-3.033-1.6-1.529-4.663,1.314-2.67,2.633-5.339,3.932-7.97,2.546,1.295,4.946,2.647,7.453,3.761,3.44,1.529,7.056,2.592,10.864,2.167a15.882,15.882,0,0,0,5.249-1.5c3.616-1.805,4.96-8.069.028-10.618A69.566,69.566,0,0,0,251.7,67.7c-3.82-1.343-7.633-2.666-10.992-5.008-5.406-3.769-7.068-9.152-6.655-15.411.474-7.188,5.07-13.474,14.874-15.471A33.6,33.6,0,0,1,274.684,36.6c.255.164.486.364.845.636" fill="#0067a0"/>
    <path id="Trazado_3015" data-name="Trazado 3015" d="M352.771,76.481l7.437,9.041c-1.725,1.356-3.326,2.786-5.092,3.97a30.819,30.819,0,0,1-17.29,5.173c-8.662.074-16.546-2.107-23.1-7.994-5.722-5.14-8.609-11.726-9.473-19.281a36.63,36.63,0,0,1,1.234-15.1c2.98-9.674,9.3-16.246,18.936-19.315s19.167-2.768,28.219,2.152a71.418,71.418,0,0,1,6.524,4.532l-7.476,9.235c-1.063-.852-2.011-1.708-3.052-2.428a21.08,21.08,0,0,0-20.925-2.328c-6.847,2.756-9.835,8.433-10.607,15.439a25.352,25.352,0,0,0,1.569,12.8c2.746,6.53,7.856,9.872,14.763,10.768,7.186.932,13.092-1.645,18.332-6.658" fill="#0067a0"/>
    <path id="Trazado_3016" data-name="Trazado 3016" d="M378.1,7.345c.039.866.093,1.511.093,2.156q.006,31.236.012,62.474a24.241,24.241,0,0,0,.216,4.073c.715,4.156,3.231,6.2,7.72,6.435,2.982.156,2.982.156,2.982,3.127,0,2.548-.029,5.1.017,7.644.014.818-.253,1.258-1.073,1.307-3.654.219-7.3.315-10.839-.874-6.058-2.036-9.166-6.569-10.345-12.551a41.5,41.5,0,0,1-.772-7.839c-.061-20.692-.024-41.385-.06-62.078,0-1.173.345-1.551,1.5-1.752,3.448-.6,6.867-1.368,10.551-2.122" fill="#0067a0"/>
    <path id="Trazado_3017" data-name="Trazado 3017" d="M218.075,38.4c.855-4.471,1.669-8.76,2.5-13.046.653-3.393,1.3-6.787,2-10.172.069-.333.455-.856.7-.859,4.08-.054,8.16-.039,12.431-.039-.249.863-.434,1.567-.655,2.259-2.18,6.837-4.4,13.663-6.519,20.517a1.638,1.638,0,0,1-1.937,1.364c-2.8-.072-5.6-.024-8.517-.024" fill="#0067a0"/>
    <path id="Trazado_3018" data-name="Trazado 3018" d="M525.8,93.695q-.648-1.731-1.295-3.463l-.347.059v3.264l-.214-.018V89.266l.442-.128c.506,1.276,1.012,2.552,1.647,4.151.595-1.542,1.092-2.827,1.588-4.111l.356.051V93.5l-.139.025V90.473l-.36-.036q-.651,1.7-1.3,3.389l-.375-.131" fill="#0067a0"/>
    <path id="Trazado_3019" data-name="Trazado 3019" d="M522.793,89.531l-1.349.115v3.728l-.4.012V89.749l-1.5-.281.012-.164H522.8l0,.227" fill="#0067a0"/>
  </g>
</svg>
