<?xml version="1.0" encoding="UTF-8"?>
<svg id="Capa_1" xmlns="http://www.w3.org/2000/svg" viewBox="0 0 262 70">
  <defs>
    <style>
      .cls-1 {
        fill: none;
      }

      .cls-2 {
        fill: #fff;
        fill-rule: evenodd;
      }

      .cls-3 {
        fill: #165ea8;
      }
    </style>
  </defs>
  <rect class="cls-1" width="262" height="70"/>
  <g id="Grupo_231">
    <path id="Trazado_1781" class="cls-3" d="M73.44,24.68l-.12-.55c-1.65-7.35-5.48-14.03-10.99-19.16l-.42-.39-.55.14c-2.01.51-4.03.95-6.06,1.33-11.08-7.8-25.86-7.82-36.97-.05-2.03-.39-4.04-.83-6.04-1.34l-.55-.14-.42.39c-2.77,2.57-5.14,5.53-7.03,8.8-1.88,3.25-3.25,6.76-4.07,10.42l-.12.55.39.4c1.44,1.49,2.84,3.02,4.18,4.6-.08.91-.12,1.83-.12,2.75,0,12.5,7.24,23.87,18.56,29.18.68,1.94,1.3,3.9,1.86,5.88l.15.55.55.17c1.82.56,3.67.99,5.55,1.28,1.85.29,3.71.43,5.58.43,1.89,0,3.78-.14,5.65-.42,1.85-.28,3.67-.69,5.46-1.24l.54-.17.15-.55c.57-2,1.19-3.99,1.88-5.95,11.3-5.32,18.52-16.68,18.54-29.16,0-.94-.05-1.86-.13-2.77,1.34-1.57,2.73-3.09,4.16-4.58l.39-.4ZM36.77,2.29c5.46,0,10.82,1.47,15.51,4.28-5.12.8-10.29,1.2-15.48,1.2-4.18,0-8.35-.27-12.49-.8-.99-.13-1.98-.27-2.97-.43,4.66-2.78,9.99-4.25,15.42-4.24M54.8,8.26c6.66,4.97,10.97,12.47,11.92,20.73-7.76,9.21-13.82,19.73-17.9,31.06-7.67,3.34-16.38,3.35-24.05.01-2.03-5.63-4.55-11.07-7.55-16.26-3.02-5.22-6.49-10.17-10.37-14.78.95-8.29,5.28-15.82,11.98-20.81,1.74.31,3.48.59,5.23.82,4.23.55,8.49.83,12.75.83,6.04,0,12.06-.54,18-1.6M2.38,24.05c.79-3.26,2.04-6.38,3.72-9.28,1.69-2.92,3.79-5.59,6.23-7.93,1.26.31,2.52.59,3.79.85-.74.62-1.45,1.27-2.14,1.96-4.7,4.7-7.83,10.73-8.96,17.28-.86-.97-1.74-1.94-2.64-2.88M15.47,53.74c-5.66-5.64-8.83-13.31-8.82-21.3,0-.12,0-.24,0-.36,3.24,4.03,6.16,8.3,8.75,12.78,2.56,4.44,4.78,9.07,6.63,13.85-2.4-1.35-4.61-3.02-6.56-4.97M46.74,66.44c-1.51.44-3.05.78-4.61,1.01-1.77.26-3.55.39-5.34.39-1.76,0-3.52-.14-5.27-.41-1.59-.25-3.16-.59-4.71-1.05-.36-1.24-.75-2.47-1.15-3.7,7.18,2.63,15.07,2.63,22.25-.01-.41,1.25-.81,2.5-1.17,3.76M66.92,32.43c0,10.89-5.87,20.93-15.36,26.26,3.72-9.62,8.89-18.6,15.35-26.64,0,.13,0,.26,0,.39M68.53,26.9c-1.13-6.54-4.26-12.57-8.96-17.26-.66-.66-1.36-1.29-2.08-1.89,1.28-.26,2.55-.54,3.81-.85,4.85,4.66,8.26,10.62,9.84,17.16-.89.93-1.76,1.89-2.62,2.86"/>
    <path id="Trazado_1782" class="cls-3" d="M39.24,37.38c-.25-1-.82-1.9-1.62-2.56,0,.72-.06,1.43-.2,2.14-.15.69-.55,1.31-1.12,1.74.26-.79.2-1.65-.15-2.4l-.94.5c.26.6.25,1.28-.04,1.87-.4.63-.89,1.18-1.46,1.65,1.91-.11,3.64-.32,4.53-2.45.09,1.43-.78,2.57-1.56,3.67,1.71-.34,3.14-.69,4.19-2.33.67-1.11.94-2.43.75-3.71.98,1.32.86,3.04.86,4.6,1.39-1.4,2.19-3.28,2.24-5.26-.05-1.85-.85-3.6-2.22-4.85l-.36,1.11c1.44,1.58,1.89,3.82,1.19,5.83-.14-.76-.45-1.48-.92-2.1-.61-.7-1.4-1.21-2.29-1.48.27.95.43,1.92.49,2.9.03.83-.18,1.66-.6,2.38-.27.42-.62.79-1.03,1.07.29-.73.38-1.53.26-2.31"/>
    <path id="Trazado_1783" class="cls-3" d="M34.66,30.75c-.45-.35-1.05-.44-1.58-.22,1.53.06,1.78,2.22,3.44,1.78.3-.08.58-.22.83-.39-1.08.44-1.97-.56-2.69-1.17"/>
    <path id="Trazado_1784" class="cls-3" d="M45.51,24.33c-1.22.29-2.34.89-3.24,1.75l.33.75c1.29-.36,2.36-1.28,2.91-2.5"/>
    <path id="Trazado_1785" class="cls-3" d="M35.02,14.92c0,.49.21.96.56,1.3-.27-.17-.57-.25-.89-.25-.99.01-1.79.83-1.78,1.82,0,0,0,0,0,.01v.03c0,.99.82,1.79,1.81,1.78.37,0,.72-.12,1.02-.33-.67,1.11-1.67,2.58-3.03,2.58-1.26.05-2.44-.62-3.05-1.72.36.08.74.09,1.11.03.87-.3,1.34-1.23,1.06-2.11-.28-1.01-1.27-1.65-2.31-1.5-.3.11-.61.53-.81.75.24-.36.3-.81.17-1.22-.33-1.02-1.32-1.68-2.39-1.58l3.91,9.13h12.02c-.68.46-1.3,1.01-1.83,1.64l.81.66c1.33-1.6,3.27-2.57,5.34-2.68-.4,1.4-2.38,4.23-4.75,4.72l.21,1.03c1.08-.23,2.08-.72,2.92-1.43l.03.02h0c1.9.98,3.3,2.71,3.86,4.77-.92-.49-1.99-.65-3.02-.43l-.98.23.75.67c4.42,3.94,3.63,7.98,2.91,9.83-.66-1.4-2.04-2.33-3.58-2.42h-.97s.53.81.53.81c3.39,5.28.25,8.46-1.39,9.65.19-2.11-1.01-4.11-2.96-4.93l-.91-.33.22.94c1.67,7.04-2.49,8.63-4.35,8.99.21-.76.34-1.54.39-2.33.33-2.36-.74-6.51-.74-6.52l-.21-.8-.63.52c-1.5,1.24-1.93,4.33-2.05,6.01-2.94-2.54-3.28-6.97-.77-9.93l1.07-1.25-1.59.4c-1.14.37-2.18,1.01-3.01,1.88-.81-3.75,2.86-5.3,2.88-5.3l3.17-1.36-3.44.37c-.44.05-.89.05-1.33.02h-.03c-2.09.03-2.84-.87-3.1-1.56,1.66.56,2.91.9,4.94-.42,2.3-1.45,2.7-2.37,2.7-2.38l.06-.15-.03-.16s-.02-.09-.02-.15c-.07-.64-.15-1.27-2.69-1.94h0c-1.01-.27-1.9-.87-2.54-1.69l-.03-.05-.06-.05c-1.5-1.23-3.63-.48-4.92.17,1.68-5.44,5.47-3.52,6.23-3.08-.05,1.34.85,2.54,2.15,2.86,1.26.21,2.47-.58,2.79-1.82h0c.18-.5.67.06.67.06l.75-.68c-.27-.3-.62-.54-1-.69-.76-.37-1.63-.46-2.46-.28h-.04c-.59.21-1.22.19-1.79-.06.21-.34.46-.65.75-.92l.04-.04.03-.04c.1-.15.23-.27.37-.38h-1.46c-.24.28-.45.57-.64.89-.82-.42-1.71-.66-2.63-.7-1.88-.03-4.1,1.07-5.11,5.86l-.28,1.3,1.09-.76s3.06-2.19,4.73-.92c.79.99,1.87,1.7,3.08,2.03,1.84.49,1.88.77,1.91,1.06v.03c-.33.4-.71.76-1.14,1.05l-.29-.69c-.55-.8-1.34-1.41-2.25-1.74-.96-.34-2-.41-3-.2h-.03c-5.2,1.33-8.35-1.1-8.36-1.11l-1.53-1.13.73,1.76c.19.46.41.91.67,1.33.29.51.68.97,1.14,1.33,2.27,1.92,4.45,1.27,6.67.61,1.75-.52,3.52-1.05,5.29-.09l.58.21c-.21.15-.44.3-.7.46h0c-1.7,1.1-2.78.74-4.27.23-.18-.06-.36-.12-.61-.21l-.66-.21-.03.69s-.15,3.25,3.9,3.4c-1.94,1.53-2.59,4.18-1.59,6.43l.31.85.58-.69c.46-.53.97-1.01,1.53-1.42-1.12,2.23-2.12,6.41,2.76,10.51l.85.71v-1.11s0-3.69,1.12-5.6c.41,1.68.57,3.41.47,5.13v.07c-.03.95-.24,1.88-.62,2.75l-.49.82.96-.03s7.93-.17,6.42-9.21c1.17,1.1,1.65,2.74,1.26,4.3l-.15,1.01.91-.47s6.98-3.49,3.27-10.61c1.02.5,1.74,1.45,1.95,2.56l.3,1.17.65-1.02s3.69-5.7-1.71-11.36c.82.08,1.57.52,2.02,1.21l1.06,1.6-.1-1.91c-.24-2.92-1.9-5.53-4.44-6.99.97-1.13,1.66-2.47,2.04-3.91l.13-.57-.58-.07c-1.39-.15-2.78.11-4.02.75l3.63-8.95c-1.08-.1-2.08.56-2.42,1.58-.13.48-.07.98.17,1.42-.22-.23-.5-.41-.81-.5-.94-.27-1.92.27-2.18,1.21,0,.01,0,.02-.01.04-.26.93.22,1.91,1.11,2.27.29.1.59.12.89.06-.54,1.09-1.67,1.76-2.88,1.72-1.36,0-2.44-1.47-3.11-2.58.33.17.69.28,1.06.33.98,0,1.78-.8,1.78-1.78,0,0,0-.01,0-.02.02-.99-.77-1.81-1.77-1.83,0,0,0,0-.01,0-.32,0-.64.1-.92.28.36-.35.57-.83.58-1.33,0-.99-.8-1.79-1.79-1.79s-1.79.8-1.79,1.79M31.13,26.2c.11.45.51.75.97.74.52.01.95-.4.97-.92.19-.02.38-.02.57,0-.05.1-.09.2-.13.3h0c-.16.77-.88,1.28-1.65,1.17-.67-.15-1.18-.71-1.26-1.4.17.05.35.08.53.1"/>
    <path id="Trazado_1786" class="cls-2" d="M250.99,21.27h-16.1l-8.43,20.84.03-20.86h-10.83v27.98h18.95l1.7-4.26h13.51l1.95,4.26h10.56l-11.33-27.96ZM202.96,36.3l-11.44-15.06h-13.73v20.78l-8.62-20.76h-15.88l-6.65,16.63h-9.92c-.82,3.48-2.71,5.03-6.15,5.03-3.94,0-6.6-2.93-6.6-7.29,0-5.67,2.23-8.59,6.52-8.59,3.51,0,5.51,1.57,6.12,4.84h11.26l.03-.43c0-6.76-6.84-11.2-17.24-11.2-11.12,0-16.39,4.34-17.29,14.29-1.63-1.74-3.81-2.89-6.17-3.24l-4.2-.37-6.2-.11c-2.66-.05-4.18-.99-4.18-2.55,0-1.78,1.54-2.77,4.36-2.77,3.25,0,4.55,1.2,4.55,4.15h11.84v-.37c0-5.77-5.59-8.97-15.72-8.97-11.25,0-16.76,3.09-16.76,9.34,0,5.35,4.04,8.22,11.79,8.43l4.6.11c3.38.1,4.9.93,4.9,2.71,0,1.52-2.13,2.95-4.34,2.95-3.86,0-5.88-1.33-5.88-3.83h-12.26v.27c0,6.07,6.12,9.39,17.24,9.39s15.99-2.34,17.69-7.9c3.43,5.85,7.9,7.98,16.6,7.98,5.53,0,8.41-.77,12-3.38l-1.15,2.85h10.46l1.91-4.36h13.73l1.84,4.31h17.93v-16.58l12.74,16.63h12.69v-27.96h-10.4v15.03h0ZM239.2,37.95l3.7-9.26,4.2,9.21-7.9.05ZM157.3,37.95l3.73-9.55,4.26,9.55h-7.98Z"/>
  </g>
</svg>