<?xml version="1.0" encoding="UTF-8"?>
<svg id="Capa_1" xmlns="http://www.w3.org/2000/svg" viewBox="0 0 150 86">
  <defs>
    <style>
      .cls-1 {
        fill: none;
      }

      .cls-2 {
        fill: #f3c500;
      }

      .cls-3 {
        fill: #fff;
      }
    </style>
  </defs>
  <rect class="cls-1" width="150" height="86"/>
  <g id="Grupo_226">
    <path id="Trazado_1390" class="cls-2" d="M39.71.37h.85c.26.04.51.11.75.2.51.15.95.47,1.26.9.37.52.63,1.11.75,1.73.2,1,.25,2.02.15,3.04-.13,1.68-.43,3.34-.68,4.99-.07.45-.12.93-.18,1.38-.03.15.05.2.2.15.25-.1.53-.2.78-.3,6.31-2.34,12.76-4.29,19.3-5.85,2.54-.6,5.09-1.13,7.65-1.58,1.68-.3,3.39-.55,5.07-.78,1.33-.18,2.66-.33,3.99-.45,1.18-.1,2.36-.2,3.56-.28,2.66-.18,5.32-.2,7.95-.15,1.31.03,2.64.1,3.94.23.75.08,1.51.12,2.26.23,1.26.15,2.51.33,3.76.58,2.3.43,4.58.97,6.83,1.63,3.92,1.13,7.71,2.66,11.32,4.57,1.99,1.04,3.87,2.24,5.65,3.61,1.02.77,1.96,1.66,2.79,2.64.22.25.42.53.58.83.15.25.27.52.35.8.03.1.1.23.03.3-.13.1-.23-.05-.3-.1-2.79-1.84-5.76-3.37-8.88-4.57-3.33-1.28-6.76-2.28-10.26-2.99-1.61-.33-3.24-.6-4.87-.85-1.15-.18-2.33-.3-3.49-.43-.98-.1-1.93-.15-2.91-.23-2.86-.23-5.75-.2-8.61-.18-1.23.03-2.43.08-3.66.15-.68.05-1.36.08-2.03.13-.88.08-1.76.15-2.64.25-.63.05-1.25.13-1.88.2-.85.1-1.71.2-2.58.33-.93.13-1.86.28-2.79.43-1.56.25-3.11.53-4.64.83-2.58.5-5.14,1.08-7.68,1.71-3.59.9-7.13,1.93-10.64,3.06-3.84,1.25-7.63,2.62-11.37,4.09-.78.34-1.59.62-2.41.83-.25.05-.48.1-.73.12-.11.03-.22.03-.33,0-.71.03-1.35-.46-1.51-1.15-.19-.63-.24-1.28-.15-1.93.15-1.33.33-2.66.5-3.99.1-.93.2-1.83.33-2.76.1-1,.23-1.98.33-2.99l.23-2.48c.03-.78.12-1.55.28-2.31.14-.62.38-1.2.73-1.73.59-.93,1.53-1.57,2.61-1.78l.45-.08"/>
    <path id="Trazado_1391" class="cls-3" d="M-.24,52.19c.02-.21,0-.42-.05-.63-.03-.2.1-.38.05-.6.02-.42.15-.82.35-1.18.74-1.49,2.21-2.48,3.86-2.61,1.44-.16,2.84.54,3.59,1.78.17.27.32.56.45.85l.75,1.58c.28.53.61,1.04.98,1.51,1.03,1.32,2.55,2.17,4.22,2.36,1.32.19,2.66.06,3.92-.38.86-.31,1.65-.82,2.28-1.48,1.06-1.08,1.55-2.59,1.33-4.09-.13-1-.48-1.96-1.03-2.81-.6-.94-1.32-1.8-2.13-2.56-.45-.43-.93-.85-1.43-1.26-1.48-1.2-2.99-2.41-4.47-3.61-1.18-.97-2.3-2.01-3.36-3.11-.46-.48-.9-.98-1.31-1.51-.93-1.22-1.54-2.65-1.78-4.17-.13-.89-.15-1.79-.05-2.68.24-2.76,1.52-5.32,3.56-7.18,2.07-1.93,4.63-3.24,7.4-3.79,1.44-.28,2.9-.39,4.37-.33,2.06.06,4.09.46,6.02,1.18.53.2,1.05.45,1.53.75,1.18.7,1.96,1.92,2.08,3.29.13,1.05-.05,2.11-.5,3.06-.59,1.22-1.93,1.9-3.26,1.66-.85-.16-1.64-.55-2.28-1.13-.33-.28-.63-.59-.9-.93l-.45-.53c-1.09-1.25-2.56-2.1-4.19-2.41-1.96-.47-4.02.2-5.32,1.73-1.12,1.13-1.41,2.85-.73,4.29.2.49.47.94.8,1.36.4.49.84.95,1.31,1.38,1.31,1.28,2.71,2.43,4.12,3.61,1.26,1.05,2.54,2.08,3.79,3.14,1.33,1.08,2.52,2.34,3.51,3.74.87,1.23,1.5,2.61,1.86,4.07.26,1.18.32,2.39.18,3.59-.12,1.23-.43,2.43-.93,3.56-.7,1.56-1.71,2.96-2.96,4.12-2.07,1.94-4.6,3.33-7.35,4.04-1.46.39-2.96.62-4.47.68-.89.05-1.79.05-2.69-.03-2.43-.15-4.77-.98-6.75-2.41-1.68-1.2-2.95-2.9-3.64-4.84-.14-.35-.23-.71-.28-1.08M150.21,30.21c-.04.07,0,.16.07.2,0,0,0,0,0,0v.93c-.1.03-.1.1-.07.2v.18h.03v.1c-.12,1.4-.32,2.79-.6,4.17-.73,4.37-1.43,8.76-2.06,13.12-.38,2.56-.73,5.1-.93,7.68-.18.93-.18,1.88,0,2.81.08.25-.04.52-.28.63-.99.69-2.14,1.12-3.34,1.26-1.91.18-3.67-1.05-4.17-2.91-.23-.9-.29-1.84-.18-2.76.07-.75.13-1.51.23-2.33-.43.5-.85.93-1.26,1.38-1.38,1.54-2.93,2.92-4.62,4.12-1.47,1.13-3.18,1.93-4.99,2.33-1.34.3-2.74.15-3.99-.43-1.23-.62-2.18-1.68-2.66-2.96-.13-.25-.23-.51-.3-.78-.07-.25-.15-.25-.33-.08-.61.61-1.26,1.19-1.93,1.73-1,.89-2.14,1.63-3.36,2.18-1.15.56-2.49.62-3.69.18-1.47-.55-2.52-1.86-2.73-3.41-.18-1.09-.22-2.19-.1-3.29.43-5.07,1.38-10.06,2.06-15.11.2-1.2.31-2.42.33-3.64-.03-.78-.3-.95-.98-.58-.78.48-1.46,1.1-2.01,1.83-2.49,2.9-4.43,6.24-5.72,9.84-.54,1.76-.89,3.57-1.03,5.4-.2,1.78-.4,3.59-.55,5.4-.05.6,0,1.2-.03,1.81.03.28-.1.56-.35.7-1.3.83-2.87,1.15-4.39.88-1.45-.29-2.59-1.42-2.91-2.86-.21-.78-.27-1.59-.18-2.38.35-3.74.8-7.48,1.2-11.24.23-2.16.5-4.29.68-6.45.15-.87.17-1.76.05-2.64-.12-.53-.33-.65-.8-.4-.52.29-.99.67-1.38,1.13-2.84,3.2-5.01,6.94-6.38,10.99-.44,1.56-.74,3.16-.9,4.77-.3,2.08-.58,4.19-.8,6.3-.03.45-.04.9-.03,1.36.03.25-.08.5-.28.65-1.43.95-3.99,1.3-5.52.2-.81-.6-1.37-1.49-1.56-2.48-.19-.94-.21-1.91-.08-2.86.22-2.48.53-4.94.8-7.4.38-3.21.7-6.45,1.08-9.66.1-.78.1-1.58.18-2.36,0-.08.03-.18-.05-.2-.13-.08-.2.05-.28.1-.78.58-1.56,1.18-2.31,1.78-1.66,1.32-3.2,2.77-4.62,4.34-.26.29-.41.66-.43,1.05-.18,2.18-.4,4.37-.58,6.55l-.53,5.95c-.3,3.39-.68,6.78-1.23,10.16-.62,4.09-2.33,7.94-4.94,11.14-2.45,2.94-5.46,5.37-8.86,7.15-1.89,1-3.91,1.71-6,2.13-.5.09-1,.14-1.51.15h-.6c-.15.02-.33-.05-.48.05h-2.13c-.12-.1-.25-.02-.38-.05h-.2c-.12.02-.24,0-.35-.03-.93-.14-1.84-.39-2.71-.75-3.24-1.38-5.59-4.28-6.27-7.73-.51-2.64-.12-5.36,1.1-7.76.74-1.44,1.65-2.79,2.71-4.02,1.24-1.45,2.58-2.8,4.02-4.04.83-.73,1.66-1.43,2.48-2.13.07-.05.14-.11.2-.18.08-.05.08-.13,0-.2-.05-.05-.07-.1-.12-.12-1.05-1.13-1.71-2.56-1.88-4.09-.03-.25-.07-.5-.1-.73-.12-.02-.15.08-.2.15-.68.88-1.35,1.73-2.08,2.54-.67.75-1.41,1.44-2.21,2.06-.87.7-1.85,1.24-2.91,1.58-.56.17-1.14.28-1.73.33-.53.02-1.05-.05-1.56-.2-.97-.29-1.77-1-2.18-1.93-.42-.97-.57-2.04-.43-3.09.15-1,.28-2.01.43-3.04.12-.95.28-1.91.4-2.84.15-1,.28-2.01.43-3.04.15-.98.28-1.96.43-2.94.12-.98.28-1.96.4-2.94.15-1.03.3-2.08.43-3.11.15-1.05.28-2.11.4-3.16.1-.85.23-1.71.33-2.58.12-1.26.33-2.51.35-3.79,0-.14.06-.27.18-.35.56-.38,1.19-.64,1.86-.78.75-.17,1.53-.16,2.28.02,1.07.24,1.96.99,2.38,2.01.23.55.39,1.14.48,1.73.1.84.08,1.7-.05,2.54-.1,1-.2,2.01-.33,2.99-.12,1.05-.28,2.08-.4,3.11s-.28,2.06-.43,3.06c-.13.95-.28,1.93-.4,2.89-.15.95-.28,1.93-.43,2.89s-.28,1.93-.43,2.89c-.03.25-.07.48-.1.73-.02.15,0,.3.03.45.1.33.3.43.6.3.16-.07.31-.16.45-.25.85-.55,1.6-1.22,2.23-2.01,1.01-1.23,1.85-2.59,2.51-4.04.07-.13.12-.28.15-.43.99-3.54,2.75-6.82,5.15-9.61,1.59-1.9,3.44-3.57,5.5-4.94,2.41-1.6,5.13-2.67,7.98-3.16,1.87-.32,3.78-.41,5.67-.28.77.04,1.53.14,2.28.3.39.09.77.23,1.13.43.75.36,1.2,1.13,1.15,1.96-.02.51-.08,1.01-.18,1.51-.15,1.15-.33,2.28-.48,3.44.15.03.23-.12.3-.2,1.2-1.2,2.46-2.38,3.76-3.51,1.18-1.04,2.41-2.02,3.69-2.94.55-.38,1.1-.73,1.68-1.08.79-.47,1.75-.58,2.64-.3,1.07.28,1.96,1.03,2.43,2.03.24.52.4,1.07.48,1.63.08.57.1,1.14.05,1.71-.07.55-.07,1.1-.1,1.66-.01.11-.01.22,0,.33.15-.05.2-.18.28-.28.77-1,1.6-1.95,2.48-2.86.9-.94,1.89-1.78,2.96-2.51,1.05-.74,2.21-1.29,3.44-1.66.62-.17,1.26-.27,1.91-.3.5-.02.99.02,1.48.13,1.18.26,2.18,1.05,2.71,2.13.33.68.55,1.41.63,2.16.11.72.12,1.44.03,2.16-.05.4-.07.8-.1,1.2,0,.12-.05.23,0,.35h.05c.1-.13.2-.23.3-.35.82-1.09,1.7-2.13,2.64-3.11.93-.96,1.95-1.85,3.04-2.64,1.02-.75,2.16-1.34,3.36-1.73.6-.17,1.21-.28,1.83-.33.68-.05,1.36.05,2.01.28,1.14.37,2.06,1.22,2.51,2.33.25.58.41,1.2.48,1.83.11,1.19.09,2.38-.05,3.56-.2,1.83-.5,3.66-.75,5.5-.22,1.63-.45,3.26-.68,4.92-.2,1.43-.4,2.86-.6,4.32-.1.73-.2,1.48-.28,2.21-.02.17-.03.33-.03.5,0,.09.02.19.05.28.05.15.22.23.37.18,0,0,0,0,0,0,.18-.06.34-.15.48-.28.48-.4.9-.85,1.26-1.36.95-1.32,1.61-2.83,1.96-4.42.87-4.18,2.79-8.06,5.57-11.29,1.28-1.53,2.74-2.9,4.34-4.09,2.53-1.9,5.49-3.16,8.61-3.69,1.52-.27,3.07-.36,4.62-.25.97.06,1.94.19,2.89.4.55.12,1.08.31,1.58.55.29.13.56.31.8.53.27.27.47.6.6.95M62.6,53.03c.02-.2.03-.4.03-.6-.03,0-.05-.02-.07-.02-.1.1-.2.23-.3.33-1.14,1.34-2.36,2.61-3.66,3.79-1.28,1.16-2.7,2.16-4.22,2.99-1.62.88-3.43,1.35-5.27,1.36-.12,0-.24.04-.33.13-.12.12-.25.28-.38.4-1.35,1.36-2.58,2.83-3.69,4.39-.72,1.02-1.31,2.12-1.76,3.29-.4,1.02-.6,2.11-.58,3.21.02.71.11,1.41.25,2.11.68,3.37,3.44,5.94,6.85,6.38,1.43.16,2.88,0,4.24-.5,2.56-.97,4.58-2.99,5.55-5.55.1-.33.23-.65.3-.98.6-2.09,1.06-4.22,1.38-6.38.3-1.83.58-3.69.78-5.55.18-1.61.35-3.21.53-4.84.1-1.28.23-2.61.35-3.94M64.66,35.64c.03-.2.05-.43.1-.65,0-.07-.03-.15-.1-.18-.05-.03-.07-.03-.13-.05-1.14-.32-2.33-.48-3.51-.48-.7.02-1.39.16-2.03.43-.93.41-1.77,1.01-2.43,1.78-.82.91-1.5,1.93-2.03,3.04-1.36,2.75-2.18,5.73-2.43,8.78-.07.68-.1,1.36-.13,1.91-.05.65-.05,1.31.03,1.96.03.26.1.51.2.75.07.25.32.4.58.35.15-.01.3-.04.45-.08.47-.11.92-.3,1.33-.55.59-.33,1.16-.72,1.68-1.15,1.62-1.32,3.06-2.83,4.29-4.52,1.71-2.3,2.93-4.92,3.59-7.7.22-1.18.35-2.41.55-3.64M141.83,34.85c.05-.28,0-.3-.28-.35-.7-.12-1.43-.25-2.16-.33-1.01-.1-2.02,0-2.99.3-1.28.41-2.4,1.18-3.24,2.23-.52.61-.97,1.29-1.33,2.01-.74,1.39-1.33,2.85-1.76,4.37-.67,2.41-1.01,4.9-1.03,7.4v1.38c0,.33.07.65.18.95.18.55.4.7.95.58.45-.11.89-.27,1.31-.48.63-.34,1.21-.74,1.76-1.2.85-.71,1.65-1.48,2.38-2.31,2.6-2.84,4.44-6.29,5.32-10.04.18-.75.3-1.51.45-2.26.15-.78.3-1.53.43-2.26"/>
  </g>
</svg>