<?xml version="1.0" encoding="UTF-8"?>
<svg id="Capa_1" xmlns="http://www.w3.org/2000/svg" viewBox="0 0 213 54">
  <defs>
    <style>
      .cls-1 {
        fill: none;
      }

      .cls-2 {
        fill: #babe32;
      }

      .cls-3 {
        fill: #fff;
      }
    </style>
  </defs>
  <rect class="cls-1" width="213" height="54"/>
  <g id="Grupo_235">
    <path id="Trazado_1411" class="cls-3" d="M46.63,6.32c-3.81.06-7.35,1.93-9.55,5.04-.54.75-.95,1.59-1.2,2.48-.86,3.04-.25,6.31,1.64,8.84,1.44,1.78,3.1,3.36,4.96,4.7,1.09.89,2.11,1.85,3.05,2.89,1.02,1.09,1.77,2.41,2.19,3.85.42,1.34.52,2.76.29,4.14,5.14-5.15,10.75-11.83,10.75-19.1,0-8.35-6.05-12.85-12.13-12.85"/>
    <path id="Trazado_1412" class="cls-2" d="M35.91,34.3c-2.13-2.93-4.6-4.71-6.64-6.59-.89-.81-1.86-1.42-2.58-2.14-3.52-3.33-5.12-8.21-4.25-12.98.5-3.49,2.34-6.65,5.12-8.82C24.58,1.57,20.96.4,17.25.44,7.52.44-.62,8.33-.37,18.06.07,35.62,21.87,50.58,30.85,53.64c4.5-2.25,7.35-6.85,7.35-11.88-.02-2.66-.82-5.25-2.29-7.46"/>
    <path id="Trazado_1413" class="cls-3" d="M73.97,33.4c1.69,1.18,5.02,2.7,7.38,2.7,1.82,0,3.38-.67,3.38-2.62s-2.45-2.58-4.94-3.54c-2.87-1.1-5.74-2.83-5.74-7.38,0-6.07,4.52-9.28,11.06-9.28,3.84.02,7.5,1.62,10.12,4.43l-4.3,4.47c-1.94-1.65-4.09-2.87-6.16-2.87-1.69,0-2.95.67-2.95,2.19,0,2.07,1.81,2.58,4.89,3.84,2.95,1.22,5.99,3,5.99,7.34,0,5.91-4.81,9.71-11.64,9.71-3.74,0-7.39-1.13-10.46-3.25l3.37-5.74Z"/>
    <path id="Trazado_1414" class="cls-3" d="M107.94,31.37c.22-1.15.33-2.33.34-3.5,0-2.02-.63-3.25-2.11-3.25-1.98,0-3.29,1.94-3.92,5.44-.24,1.28-.37,2.58-.38,3.88,0,1.85.51,3.37,2.07,3.37,2.06,0,3.29-1.82,4.01-5.95M107.35,19.56c3,0,8.27,1.14,8.27,8.14,0,1.06-.06,2.12-.21,3.16-1.31,8.27-6.54,11.6-12.53,11.6-5.23,0-8.18-3.04-8.18-8.43-.02-1.14.07-2.29.25-3.42,1.56-8.86,7.55-11.05,12.4-11.05"/>
    <path id="Trazado_1415" class="cls-3" d="M123.86,41.8h-7.05l3.08-17.51.17-4.09h5.65l.13,3c1.56-2.66,3.76-3.63,5.53-3.63,1.18-.03,2.35.26,3.38.84l-2.03,5.86c-.88-.48-1.87-.74-2.87-.76-1.82-.06-3.39,1.27-3.63,3.08l-2.36,13.2Z"/>
    <path id="Trazado_1416" class="cls-3" d="M133.24,41.8l3.8-21.6h7.05l-3.8,21.6h-7.05Z"/>
    <path id="Trazado_1417" class="cls-3" d="M142.23,10.98c1.64-.12,3.08,1.11,3.2,2.75,0,.08,0,.16,0,.25-.1,2.31-2.06,4.11-4.37,4.01-.02,0-.04,0-.06,0-1.56.18-2.97-.94-3.15-2.5-.02-.14-.02-.27-.02-.41.07-2.33,2.02-4.17,4.35-4.09.01,0,.02,0,.04,0"/>
    <path id="Trazado_1418" class="cls-3" d="M159.23,24.83c-.6-.24-1.25-.35-1.9-.34-3.84,0-5.23,5.78-5.23,9.24,0,2.03.46,3.67,2.49,3.67,1.41-.02,2.61-1.02,2.87-2.4l1.77-10.18ZM163.96,37.24l-.29,4.56h-5.95v-1.98l-.21-.04c-1.45,1.76-3.63,2.74-5.91,2.66-4.51,0-6.54-3.33-6.54-7.89,0-8.65,4.81-14.98,13.63-14.98,2.78.08,5.52.65,8.1,1.69l-2.83,15.99Z"/>
    <path id="Trazado_1419" class="cls-3" d="M167.6,41.8l3.04-17.25.25-4.35h5.82l.08,2.32c1.68-1.92,4.12-3,6.67-2.95,3.5,0,5.61,1.6,5.66,5.23-.01.78-.08,1.55-.21,2.32l-2.62,14.68h-7.05l2.19-12.62c.18-.81.29-1.62.33-2.45,0-.84-.33-1.77-1.6-1.77-1.81,0-2.87,1.35-3.17,3.12l-2.4,13.72h-7.01Z"/>
    <path id="Trazado_1420" class="cls-3" d="M205.08,24.83c-.6-.24-1.25-.35-1.9-.34-3.84,0-5.23,5.78-5.23,9.24,0,2.03.46,3.67,2.49,3.67,1.41-.01,2.61-1.02,2.87-2.4l1.77-10.18ZM209.8,37.24l-.3,4.56h-5.95v-1.98l-.21-.04c-1.45,1.75-3.63,2.74-5.91,2.66-4.51,0-6.54-3.33-6.54-7.89,0-8.65,4.81-14.98,13.63-14.98,2.78.08,5.52.65,8.1,1.69l-2.82,15.99Z"/>
  </g>
</svg>