<?xml version="1.0" encoding="UTF-8"?>
<svg id="Capa_1" xmlns="http://www.w3.org/2000/svg" xmlns:xlink="http://www.w3.org/1999/xlink" viewBox="0 0 164 89">
  <defs>
    <style>
      .cls-1 {
        fill: none;
      }

      .cls-2 {
        fill: #fff;
      }

      .cls-3 {
        fill: #c42874;
      }

      .cls-4 {
        clip-path: url(#clippath);
      }
    </style>
    <clipPath id="clippath">
      <rect class="cls-1" x="10.01" y="30.18" width="148.69" height="46.79"/>
    </clipPath>
  </defs>
  <rect class="cls-1" width="164" height="89"/>
  <g id="Grupo_233">
    <path id="Unión_4" class="cls-3" d="M77.88,49.31c-.23-1.68-.42-3.37-.66-5.06-.22-1.53-.47-3.06-.71-4.59-.31-1.95-.61-3.9-.92-5.85-.36-2.29-.71-4.59-1.08-6.88-.1-.59.12-.76.69-.76,2.18.02,4.36,0,6.58,0,.08,3.66.16,7.13.24,10.81.48-.34.85-.56,1.18-.83,5.66-4.82,11.32-9.64,16.97-14.46,3.65-3.11,7.31-6.21,10.97-9.31,2.96-2.51,5.92-5.02,8.88-7.54.12-.09.25-.16.38-.22,0-.05.03-.09.07-.09,0,0,0,0,.01,0l.19-.16c1.55-1.32,2.91-2.86,4.58-4.04l.22.23-4.38,4.57c-.94.99-1.89,1.98-2.83,2.98l-4.08,4.3-12.18,12.81c-3.66,3.85-7.32,7.7-10.97,11.55-3.68,3.87-7.35,7.75-11.02,11.62-.36.38-.62.86-.99,1.23-.27.2-.56.35-.87.47-.12-.25-.21-.52-.27-.79Z"/>
    <path id="Trazado_1429" class="cls-2" d="M51.74,85.93c.65-.82,1.3-1.63,1.94-2.47.57-.75,1.34-.31,2.17-.47-.28.58-.49,1.02-.7,1.45-.43.89-.87,1.76-1.29,2.65-.23.63-.86,1.02-1.53.96.34-.61.63-1.08.89-1.58s.48-1.01.72-1.52l-.15-.13c-.13.05-.25.12-.36.21-.64.79-1.23,1.63-1.92,2.39-.34.27-.72.48-1.12.62l-.21-.21.53-3.09-.19-.08c-.2.34-.42.66-.6,1.01-.3.59-.57,1.2-.87,1.8-.09.18-.19.4-.35.48-.2.08-.42.08-.62,0-.09-.04-.14-.37-.08-.51.67-1.38,1.36-2.74,2.06-4.1.07-.15.2-.26.36-.31.49-.04.99-.02,1.54-.02-.2.99-.37,1.87-.54,2.74-.1.12-.19.24-.26.38-.01.03.16.14.24.21l.34-.43"/>
    <path id="Trazado_1430" class="cls-2" d="M121.04,84.06c.24.27.49.51.77.74.26.14.53.26.8.37,1.16.57,1.41,1.02.45,2.08-.93,1.02-2.98,1.24-3.9.12-.19-.25-.25-.57-.16-.87.19-.25.55-.31.8-.12.06.04.11.1.15.16.52.69,1.24.43,1.89.42.17,0,.39-.28.48-.48.03-.08-.23-.32-.39-.43-.51-.34-1.04-.64-1.55-.97-.32-.18-.44-.59-.25-.91.04-.07.09-.13.15-.19.75-1.2,2.33-1.57,3.53-.82.02.01.04.03.06.04.25.13.35.55.52.83-.36.06-.9.29-1.05.14-.67-.66-1.33-.35-2.3-.12"/>
    <path id="Trazado_1431" class="cls-2" d="M85.19,84.59c-.47-.59-1.22-.89-1.96-.78-.22.07-.42.17-.61.29.12.21.2.48.38.62.35.23.72.43,1.1.6.9.46,1.05.87.43,1.67-.96,1.25-2.74,1.5-4,.56-.22-.17-.17-.68-.24-1.04.38.05.88-.02,1.13.19.54.52,1.37.59,1.99.18.38-.29.41-.58-.07-.8-.44-.21-.91-.37-1.34-.6-.68-.36-.75-.88-.39-1.55.76-1.4,2.94-1.21,3.79-.6.44.32.37.75-.22,1.28"/>
    <path id="Trazado_1432" class="cls-2" d="M151.23,88.07c-.91.16-1.77-.45-1.93-1.35-.07-.37,0-.76.18-1.09.53-1.76,2.24-2.91,4.07-2.73.51.14.97.41,1.35.77.09.24.05.51-.1.72-.25.12-.54.1-.78-.04-.6-.64-1.58-.73-2.28-.2-.8.59-1.21,1.57-1.09,2.56.12.34,1,.44,1.57.15.32-.23.66-.43,1.01-.61.29-.05.6-.04.89.02-.06.24-.16.47-.31.67-.67.72-1.61,1.13-2.59,1.14"/>
    <path id="Trazado_1433" class="cls-2" d="M138.3,88.02c-.61.11-1.19-.3-1.3-.91-.05-.3.02-.61.2-.86.33-1.01,1.17-1.77,2.2-2.02.27-.04.55-.01.81.08.58.2.96.17,1.21-.52.13-.36.54-.64.86-.9.07-.06.37.03.46.13.07.14.08.32,0,.46-.68,1.37-1.36,2.74-2.06,4.1-.08.15-.21.26-.37.3-.67.07-1.35.09-2.02.13M140.33,85.17h-.67c-.79.01-1.42.66-1.4,1.45,0,.02,0,.04,0,.06.04.41.23.71.74.56.91-.24,1.49-1.14,1.33-2.07"/>
    <path id="Trazado_1434" class="cls-2" d="M37.02,82.97c.05.65.1,1.12.11,1.59-.03.14-.1.27-.21.36-.41.36-.79.75-1.13,1.18-.16.34-.18.72-.06,1.07.23.66.13.91-.57.88-.29,0-.58-.09-.83-.24-.15-.16-.2-.38-.15-.59.19-.48.48-.92.7-1.39.1-.25.18-.5.24-.76-1.61-.2-2.46.4-3.18,2.04-.22.36-.53.66-.9.87-.12.08-.38-.04-.58-.07.53-1.14,1.02-2.19,1.52-3.24.05-.11.18-.27.28-.28.86-.02,1.72,0,2.59-.03.24,0,.48-.09.68-.22.48-.34.92-.74,1.49-1.2"/>
    <path id="Trazado_1435" class="cls-2" d="M130.33,87.86c.06-.7-.3-.97-.99-.87-.2.01-.4-.02-.59-.09-.43-.18-.93-.04-1.21.33-.25.28-.54.51-.86.7-.15.08-.39,0-.59,0,.03-.18,0-.41.11-.53.43-.53.89-1.02,1.34-1.53.73-.9,1.52-1.75,2.35-2.56.34-.31,1.01-.25,1.47-.35,0,1.53.03,2.93-.02,4.33-.02.54-.43.76-1.02.57M128.81,85.86c1.7.23,1.76.19,1.61-1.41-.78.09-1.42.65-1.61,1.41"/>
    <path id="Trazado_1436" class="cls-2" d="M21.72,87.74c-.43.73-.62,1.64-1.82,1.69.09-.32.19-.64.32-.95.54-1.16,1.11-2.3,1.65-3.47.15-.52.67-.86,1.21-.77.5.05,1.01,0,1.52.02.51-.05.96.31,1.01.82,0,.09,0,.19-.01.28,0,1.48-1.19,2.69-2.68,2.69-.04,0-.07,0-.11,0-.38-.06-.74-.16-1.09-.31M23.73,85.16c-.81-.16-1,.58-1.34,1.09-.12.18-.15.64-.04.72.24.17.71.35.9.23.44-.3.81-.69,1.09-1.14.38-.64.2-.89-.61-.9"/>
    <path id="Trazado_1437" class="cls-2" d="M158.44,83.06h1.28c-.08,1.12-.16,2.2-.25,3.46.28-.15.54-.34.78-.54.78-.88,1.52-1.8,2.3-2.68.28-.42.85-.53,1.27-.26-.14.23-.29.44-.45.65-.94,1.1-1.89,2.2-2.85,3.3-.36.59-1.01.95-1.7.94-.44-.04-.55-.25-.52-.65.06-1.15.11-2.31.16-3.46.01-.25,0-.49,0-.76"/>
    <path id="Trazado_1438" class="cls-2" d="M93.03,82.94c-.06.42-.11.85-.17,1.24.48.1.96.17,1.45.21.67.02.64.5.49.84-.37.86-.8,1.7-1.28,2.51-.11.18-.5.2-.76.29-.06-.25-.07-.52-.02-.78.19-.46.51-.86.7-1.31.06-.27.08-.54.05-.82-.35.03-.85-.08-1.02.11-.45.51-.73,1.16-1.14,1.72-.31.39-.65.75-1.03,1.07-.06.05-.31,0-.39-.09-.06-.12-.06-.26,0-.38.7-1.42,1.4-2.85,2.16-4.25.14-.25.52-.37.79-.55l.17.18"/>
    <path id="Trazado_1439" class="cls-2" d="M28.88,84.05c.5.27,1.17.41,1.47.83.41.56.12,1.25-.26,1.82-.69,1.24-2.23,1.72-3.5,1.09-.58-.31-.89-.72-.49-1.38.24-.48.52-.95.82-1.39.42-.59,1.14-.88,1.85-.75.03-.07.07-.14.1-.21M27.13,87.09c1.43.26,1.74-.22,2.2-1.03.28-.49.04-.84-.53-.9-.98-.11-1.7.7-1.67,1.93"/>
    <path id="Trazado_1440" class="cls-2" d="M57.95,84.25c.65,0,1.34-.03,1.63.73.22.71.01,1.48-.54,1.97-.78,1.02-2.15,1.39-3.34.91-.51-.21-.77-.78-.59-1.3.37-1.21,1.6-2.56,2.83-2.31M58.58,85.21c-1.51-.26-1.99.34-2.32,1.16-.18.43-.09.76.51.78.92.09,1.74-.59,1.83-1.51.01-.15,0-.29-.01-.44"/>
    <path id="Trazado_1441" class="cls-2" d="M78.34,84.45c-1.38,1.49-2.71,2.93-4.05,4.36-.42.48-1.05.71-1.68.6-.14-.02-.37-.2-.36-.29.05-.17.15-.33.29-.45.04-.04.15-.02.22-.04q1.15-.36,1.15-1.6c0-.78-.03-1.57.03-2.35.01-.16.37-.38.58-.39s.57.21.58.35c0,.4-.04.79-.13,1.18-.04.27-.11.54-.17.82l.28.17c.47-.55.97-1.07,1.41-1.65.64-.84,1.05-1.04,1.86-.71"/>
    <path id="Trazado_1442" class="cls-2" d="M109.4,84.23c.28-.01.56,0,.83.06.67.17,1.07.85.91,1.52-.02.09-.05.17-.09.25-.5,1.49-2.1,2.3-3.6,1.84-.62-.21-.97-.86-.81-1.49.4-1.22,1.49-2.08,2.77-2.18M107.85,87.08c1.3.24,1.61-.07,2.18-1.13.22-.4.16-.73-.4-.79-1.23-.13-1.8.47-1.78,1.92"/>
    <path id="Trazado_1443" class="cls-2" d="M72.91,85.53c.04,1.61-2.49,3.17-3.9,2.33-.67-.4-.94-1.01-.52-1.64.42-.64.91-1.22,1.46-1.74.88-.45,1.94-.33,2.69.31.13.23.22.48.27.74M71.75,85.21c-1.49-.12-1.85.05-2.21,1.02-.22.59-.02.88.63.91.99.04,1.59-.67,1.58-1.93"/>
    <path id="Trazado_1444" class="cls-2" d="M98.83,85.78l.45-.04h1.2v-.81l-1.35.38-.92-.05c.57-.9,1.69-1.29,2.7-.95.51.11.84.61.73,1.13-.02.12-.07.22-.13.32-.28.6-.55,1.2-.83,1.8-.07.14-.2.33-.32.34-.74.11-1.49.16-2.24.15-.77-.04-1.08-.75-.58-1.42.25-.34.76-.48,1.15-.72l.16-.12M98.54,87.28c.9,0,1.13-.18,1.19-.85h-1.19v.85Z"/>
    <path id="Trazado_1445" class="cls-2" d="M7.88,85.44c-.3-.59.23-.84.55-.99.75-.36,1.63-.32,2.34.13.21.24.28.56.2.86-.32.76-.68,1.49-1.09,2.2-.12.2-.31.34-.54.39-.48.06-.97-.03-1.45.04-.53.12-1.08-.16-1.3-.65-.1-.24.23-.73.47-1.03.24-.21.51-.38.8-.5.52-.02,1.03-.06,1.55-.13.17-.03.3-.29.44-.45-.24-.09-.48-.27-.71-.24-.43.09-.85.21-1.27.37M7.9,87.63c.65-.44,1.34-.44,1.33-1.34-.45.07-.89.18-1.32.35-.11.06-.02.52-.02,1"/>
    <path id="Trazado_1446" class="cls-2" d="M113.95,87.65l1.22-2.49c-1.25-.44-1.67.17-2.4,1.72-.23.49-.42.95-.98,1.1-.16.05-.32.03-.47-.05-.07-.05-.04-.31.03-.43.44-.91.89-1.82,1.35-2.72.07-.13.17-.33.27-.34.89-.05,1.79-.1,2.69-.09.71.02.73.57.54,1.03-.33.78-.71,1.53-1.15,2.25-.3.51-.71.65-1.1.01"/>
    <path id="Trazado_1447" class="cls-2" d="M4.19,82.92l.74.21c0,.07.01.14.02.21-.29.15-.59.45-.87.43-.89-.06-1.71.52-1.93,1.39-.29.66-.62,1.3-.9,1.96-.17.6-.8.94-1.4.77-.05-.02-.11-.04-.16-.06l2-3.91c-.31-.03-.62-.07-.93-.14-.24-.09-.46-.19-.68-.31.2-.19.39-.49.62-.53.48-.05.96-.05,1.44-.02h2.06"/>
    <path id="Trazado_1448" class="cls-2" d="M61.42,84.38c1.15.22,2.37-.61,3.56.39-.47.95-.91,1.94-1.45,2.87-.13.22-.6.25-.92.36-.02-.29,0-.58.08-.85.3-.61.68-1.19,1.03-1.78-.81-.55-1.15-.51-1.61.19-.35.53-.62,1.12-1,1.63-.3.39-.7.69-1.14.9.1-1.41,1-2.45,1.45-3.72"/>
    <path id="Trazado_1449" class="cls-2" d="M12.69,84.38c.86,0,1.72.02,2.59,0,.89-.03.83.65.66,1.08-.36.8-.79,1.57-1.29,2.3-.1.16-.41.19-.62.29-.07-.26-.09-.53-.05-.8.17-.46.49-.87.67-1.32.07-.27.09-.56.08-.84-.37.07-.88,0-1.07.22-.48.56-.88,1.18-1.19,1.85-.16.56-.74.89-1.3.73-.05-.01-.09-.03-.14-.05l1.66-3.46"/>
    <path id="Trazado_1450" class="cls-2" d="M41.3,86.76c.39.08.77.22,1.12.4.6.41,1,.3,1.4-.38-.21-.13-.41-.34-.63-.37-.61-.08-1.13-.45-1.02-.96.19-.5.57-.91,1.06-1.13.93-.4,2.02-.08,2.58.76-.83.66-1.74-.42-2.76.16.46.27.8.46,1.12.67s.67.45,1,.67c-.24.36-.42.84-.75,1.06-.79.55-1.82.63-2.69.22-.29-.13-.46-.5-.69-.76l.26-.34"/>
    <path id="Trazado_1451" class="cls-2" d="M16.78,85.79c.4-1.04,1.46-1.68,2.56-1.54.6.05,1.15.09,1.38.84-.82.69-1.73-.44-2.75.18.49.26.86.48,1.26.64.97.4,1.07.68.45,1.43-.76.71-1.85.94-2.84.6-.41-.2-.84-.4-.67-1.12.32.06.64.13.96.22.23.08.44.32.65.32.31-.05.62-.15.9-.29-.16-.21-.28-.48-.49-.6-.46-.25-.93-.47-1.41-.67"/>
    <path id="Trazado_1452" class="cls-2" d="M89.17,86.56c-.19.88-.97,1.51-1.88,1.51-1.33.09-1.9-.49-1.49-1.85.44-1.47,1.98-2.3,3.45-1.86.08.02.15.05.23.08.25.15.45.37.58.64.04.06-.16.38-.26.38-.28-.02-.56-.05-.83-.11-.45-.03-1.06-.23-1.32-.02-.45.38-.76.9-.86,1.48-.06.5.49.39.87.25.47-.17.95-.32,1.5-.5"/>
    <path id="Trazado_1453" class="cls-2" d="M39.07,87.25l.13-.11.16-.14.81-.37c.15.69-.15,1.07-.96,1.34-1.3.44-2.46-.39-2.31-1.45.46-1.48,1.91-2.42,3.45-2.23.53.15.86.66.8,1.21-.02.5-.16,1.06-.89,1.02-.05-.25-.1-.49-.15-.74.02-.35.07-.74-.45-.76-.57-.02-1.09.05-1.21.76-.11.21-.21.42-.32.63-.03.95.26,1.21.93.85"/>
    <path id="Trazado_1454" class="cls-2" d="M145.89,86.38c-.05,0-.1.01-.15.03l.02-.05-.44-.59c-.03-.4,0-.83-.62-.76-.48.05-.98.05-.9.76l-.48.64c.07.32.2.62.38.9.09.1.5-.07.75-.16.12-.05.2-.21.3-.32l.37-.03.48.07c-.16.84-.88,1.02-1.53,1.18-.68.18-1.4-.09-1.79-.67-.16-.25-.22-.55-.17-.85.38-1.4,1.69-2.33,3.13-2.24.43.04.81.27,1.04.63.16.39.35.99-.23,1.36l-.17.11"/>
    <path id="Trazado_1455" class="cls-2" d="M103.58,86.46c1.41-.54,1.72-2.27,3.17-2.21l.16.22c-1.03,1.09-2.04,2.2-3.1,3.25-.27.18-.6.23-.91.16-.13-.03-.25-.44-.26-.69-.03-.76-.01-1.52,0-2.28,0-.47.28-.71.73-.63.42.08.64.28.41.8-.13.45-.19.92-.2,1.39"/>
    <path id="Trazado_1456" class="cls-2" d="M7.48,84.41c-.13.17-.23.47-.39.5-1.5.27-2.1,1.45-2.72,2.61-.38.7-.63.73-1.17.2.47-.97.92-1.93,1.4-2.88.09-.17.28-.4.44-.42.74-.09,1.49-.11,2.24-.16l.2.14"/>
    <path id="Trazado_1457" class="cls-2" d="M68.91,84.28c-.25.34-.38.69-.56.72-1.29.22-1.82,1.14-2.26,2.21-.27.66-.51.74-1.42.6.55-1.12,1.08-2.22,1.62-3.31.03-.06.16-.09.25-.1.7-.04,1.4-.08,2.37-.12"/>
    <path id="Trazado_1459" class="cls-2" d="M94.77,87.84c.5-1,.96-1.95,1.44-2.89.08-.18.19-.35.33-.48.14-.11.45-.24.51-.18.15.15.24.36.24.57-.05.25-.14.48-.27.69-.29.49-.55,1-.77,1.52-.23.7-.61,1-1.47.77"/>
    <path id="Trazado_1461" class="cls-2" d="M154.47,88c.24-1.11.3-1.14,1.5-.92-.14.73-.6,1.02-1.5.92"/>
    <path id="Trazado_1463" class="cls-2" d="M38.14,86.4l.32-.63h1.66c.05.25.1.5.15.75l-.91.02-1.22-.14"/>
    <path id="Trazado_1464" class="cls-2" d="M162.85,87c0,.66-.63,1.23-1.11,1.03-.14-.09-.22-.25-.21-.41.07-.24.23-.45.44-.59.29-.06.59-.07.88-.02"/>
    <path id="Trazado_1466" class="cls-2" d="M132.57,88.26c-.48-1.19-.3-1.35,1.22-1.19l-1.22,1.19"/>
    <path id="Trazado_1467" class="cls-2" d="M125.26,87.04c.08.88-.58.87-1.11,1.05-.16-.93.05-1.14,1.11-1.05"/>
    <path id="Trazado_1468" class="cls-2" d="M97.09,82.72l1.15.28c-.21.31-.44.61-.69.89-.07.07-.44-.02-.44-.05-.03-.36-.02-.72-.02-1.11"/>
    <path id="Trazado_1479" class="cls-2" d="M51.74,85.93l-.34.43c-.09-.07-.26-.18-.24-.21.07-.13.16-.26.26-.38l.32.15"/>
    <path id="Trazado_1488" class="cls-2" d="M98.83,85.78l-.16.12.16-.12"/>
    <path id="Trazado_1490" class="cls-2" d="M73.15,33.18l-.18-.09.18.09"/>
    <path id="Trazado_1491" class="cls-2" d="M145.89,86.38l.17-.11-.17.11"/>
    <path id="Trazado_1493" class="cls-2" d="M96.98,34.55l-.13.16.13-.16"/>
    <path id="Trazado_1494" class="cls-2" d="M96.82,34.82l-.17.18.17-.18"/>
    <path id="Trazado_1495" class="cls-2" d="M96.66,34.98l-.18.17.18-.17"/>
    <path id="Trazado_1497" class="cls-2" d="M39.36,87l-.16.14.16-.14"/>
    <path id="Trazado_1498" class="cls-2" d="M120.68,4.37l-.19.16.19-.16"/>
    <path id="Trazado_1551" class="cls-2" d="M94.39,39.59l-1.38,1.37,1.38-1.37"/>
    <path id="Trazado_1552" class="cls-2" d="M89.19,44.92l-.31.31.31-.31"/>
    <path id="Trazado_1553" class="cls-2" d="M93.01,40.96l-.31.3.31-.3Z"/>
    <path id="Trazado_1554" class="cls-2" d="M145.76,86.36l-.63.16-.45.04-1.37-.16.48-.64h1.53s.44.59.44.59"/>
    <path id="Trazado_1561" class="cls-2" d="M96.38,50.11l-.12.15.12-.15"/>
    <path id="Trazado_1569" class="cls-2" d="M109.99,35.52l.16.11-.16-.11"/>
    <g id="Grupo_108">
      <g class="cls-4">
        <g id="Grupo_108-2">
          <path id="Trazado_1770" class="cls-2" d="M88.93,60.91c-.32.13-.6.36-.8.64-3.79,4.3-7.69,8.5-11.55,12.74-.58.71-1.47,1.1-2.39,1.05-3.38-.1-6.77-.13-10.15.07-.39.08-.78-.17-.87-.56-.01-.06-.02-.12-.02-.19-.39-3.88-.76-7.77-1.04-11.66-.12-1.59-.28-3.19-.43-4.87-.28.24-.5.55-.64.9-2.22,5.03-4.41,10.07-6.47,15.17-.18.68-.82,1.14-1.53,1.09-4.33,0-8.65.02-12.98.03-.97,0-.98-.02-.61-.92,3.92-9.5,7.84-19,11.77-28.51.06-.14.1-.27.18-.48-.92-.13-1.85-.18-2.78-.14-2.32-.08-4.65-.06-6.97-.13-.7-.08-1.36.36-1.57,1.04-4.01,9.22-8.07,18.43-12.06,27.66-.29.96-1.23,1.57-2.22,1.45-4.5-.03-9,.04-13.49.07-.76,0-.86-.13-.55-.8,1.59-3.37,2.9-6.85,4.32-10.29,2.57-6.19,5.09-12.4,7.64-18.61.29-.71.23-.8-.55-.8h-11.72c-.46,0-.92.08-1.47.12.79-2.03,1.56-4,2.32-5.97.78-2.02,1.57-4.04,2.31-6.08.15-.69.79-1.17,1.5-1.1,5.19.01,10.38-.03,15.57-.03,13.6,0,27.2-.01,40.79-.02.79,0,1.09.2,1.22,1.01,1.05,6.76,1.95,13.54,2.79,20.32.04.36.12.72.2,1.19.46-.41.88-.75,1.26-1.12,5.2-5.15,10.28-10.41,15.38-15.66,1.65-1.7,3.4-3.29,4.98-5.06.55-.62,1.37-.94,2.2-.86,5.01.25,10.03.13,15.05.14.59,0,.64.14.45.67-.83,2.3-1.89,4.5-2.81,6.76-.13.31-.24.64-.41,1.08.34-.07.64-.26.85-.53,3.58-4.26,8.36-6.55,13.51-8.29,2.62-.81,5.35-1.22,8.09-1.22,4.72-.16,9.44.26,14.06,1.25,4.47.75,8.07,4.09,9.15,8.49.4,1.59.3,3.27-.28,4.81-.31.94-.7,1.84-1.06,2.76-.17.51-.65.85-1.19.84-2.22.16-4.44.18-6.66.05-.32-.04-.64.02-.92.17.9.75,1.88,1.31,2.7,2.08,1.86,1.71,2.96,4.08,3.07,6.6.35,5.1-1.89,8.93-5.83,11.87-3.92,3.11-8.41,5.41-13.22,6.76-2.3.6-4.66.91-7.03.94-3.18.16-6.37.15-9.55-.04-5.44-.58-10.14-2.64-13.51-7.18-.86-1.09-1.42-2.39-1.61-3.77-.03-.14-.07-.29-.11-.43-.04-.15-.07-.33-.22-.36-.19-.04-.33.14-.39.28-.26.58-.52,1.17-.75,1.77-.86,2.26-1.71,4.52-2.56,6.78-.39,1.03-.59,1.16-1.7,1.16h-14.52l5.93-14.04c.01-.06.02-.12.03-.18l-.15.06M64.96,34.44v.03h-5.78c-.34,0-.6.03-.76.41-1.2,2.94-2.43,5.87-3.64,8.81-1.06,2.58-2.09,5.17-3.16,7.75-1.21,2.91-2.47,5.81-3.66,8.73-1.09,2.65-2.12,5.32-3.18,7.97-.53,1.31-1.07,2.62-1.62,3.92-.21.49-.1.65.45.65,2.72-.04,5.43-.06,8.15-.08.38.05.74-.2.82-.57.08-.28.26-.53.37-.8,1.53-3.81,3.29-7.52,4.91-11.3,1.07-2.5,2.1-5.01,3.17-7.51.52-1.23,1.08-2.44,1.63-3.66.08-.17.15-.4.39-.38s.25.29.28.46c.06.41.07.84.13,1.25.25,1.6.21,3.23.42,4.84.1.78.07,1.62.19,2.38.15.97.14,1.95.22,2.91.11,1.2.23,2.42.36,3.61.14,1.22.27,2.46.38,3.68.12,1.44.34,2.87.56,4.29,0,.52.43.94.95.94.04,0,.09,0,.13-.01,2.15-.03,4.3-.05,6.45,0,.87.05,1.7-.32,2.26-.99,3.91-4.31,7.84-8.62,11.77-12.91,2.08-2.28,4.17-4.55,6.26-6.82.92-1,1.84-2,2.77-2.99.16-.17.32-.46.6-.32.38.19.02.44-.05.62-.49,1.22-1.01,2.43-1.54,3.64-1.1,2.5-2.15,5.01-3.28,7.49-1.39,3.08-2.58,6.25-3.96,9.33-.33.68-.58,1.4-.76,2.13-.12.54.08.54.45.51.46-.07.93-.11,1.4-.12,2.44.16,4.89.09,7.33.14.49.05.93-.27,1.05-.74.66-1.9,1.4-3.77,2.16-5.64,2.17-5.34,4.27-10.7,6.47-16.02,2.07-4.98,3.91-10.04,6.07-14.98.16-.37.14-.62-.36-.63-.79-.02-1.57-.08-2.36-.09-2.74-.03-5.48.05-8.22-.14-.6-.07-1.2.16-1.6.61-.52.59-1.08,1.15-1.64,1.71-4.22,4.27-8.41,8.56-12.7,12.76-2.95,2.88-5.84,5.83-8.66,8.84-.27.29-.57.55-.85.82-.16.15-.15.56-.5.42-.31-.11-.53-.38-.58-.71-.1-.71-.24-1.41-.29-2.12-.18-2.81-.67-5.57-1.1-8.34-.65-4.18-1.29-8.35-1.71-12.56-.11-1.14-.2-1.22-1.32-1.22h-5.26M149.81,45.77h3.41c1.77,0,1.72-.02,2.39-1.63.41-1.07.51-2.22.29-3.34-.6-3.38-3.2-6.05-6.56-6.74-2.68-.53-5.37-.92-8.09-1.21-3.03-.3-6.08-.24-9.09.18-5.29.67-10.29,2.82-14.42,6.19-3.15,2.55-5.05,5.62-4.7,9.83.04,1.29.49,2.53,1.28,3.55,1.57,1.83,3.63,3.17,5.94,3.85,1.44.32,2.92.48,4.39.48,2.58.25,5.15.53,7.72.85,1.69.05,3.3.74,4.51,1.93,1.22,1.08,1.33,2.95.24,4.17-.09.1-.19.2-.3.29-2.57,2.53-5.86,3.03-9.24,2.97-2.89-.15-5.72-.89-8.3-2.19-1.22-.49-2.11-1.55-2.39-2.83-.15-.67-.29-1.35-.39-2.03,0-.48-.4-.87-.88-.86-.04,0-.07,0-.11,0-2.99.01-5.98.01-8.97,0-.55,0-.73.23-.75.75-.03.81-.1,1.62-.21,2.43-.26,1.7.08,3.43.95,4.92,1.26,2.22,3.2,3.98,5.54,5.03,2.52,1.2,5.24,1.94,8.02,2.16,4.25.33,8.53.13,12.73-.6,2.17-.34,4.27-1.03,6.22-2.04,2.76-1.34,5.35-2.99,7.74-4.92,1.45-1.14,2.68-2.54,3.63-4.12.48-1.06.79-2.19.92-3.35.43-1.63.26-3.35-.47-4.87-1.44-2.58-3.94-4.41-6.84-5-2.57-.47-5.16-.76-7.77-.88-2.18-.23-4.39-.19-6.58-.35-1.22-.05-2.39-.5-3.32-1.29-.52-.46-1.07-1.06-.88-1.76.31-1.49,1.28-2.77,2.63-3.48,3.86-2.01,8.36-2.45,12.54-1.23,2.2.6,3.81,1.98,3.75,4.48-.01.53.29.66.76.66,1.56-.01,3.12,0,4.67,0M35.5,34.31h0c-5.93,0-11.87.02-17.8-.02-.56-.08-1.09.28-1.21.84-.82,2.16-1.58,4.35-2.55,6.45-.24.51-.07.76.54.76,1.93,0,3.86,0,5.78,0,2.36,0,4.72.02,7.07.04.46,0,.27.24.17.48-1.4,3.47-2.77,6.96-4.19,10.42-1.27,3.09-2.59,6.16-3.87,9.24-1.34,3.21-2.48,6.49-3.98,9.63-.28.6,0,.59.45.59,2.89-.03,5.78-.03,8.67-.06,1.02,0,1.36-.23,1.67-1.17.15-.47.41-.88.61-1.33,1.13-2.61,2.27-5.22,3.4-7.82.85-1.96,1.72-3.92,2.57-5.89.86-2.01,1.7-4.02,2.56-6.03.97-2.26,1.96-4.5,2.93-6.76.22-.51.46-.98,1.09-1.05.54-.07,1.08-.11,1.62-.12,1.85.02,3.7.08,5.55.11,1.21.02,2.42-.03,3.63.02.53.08,1.03-.26,1.15-.78.83-2.19,1.72-4.35,2.69-6.48.46-1.01.41-1.07-.67-1.07h-17.87M128.15,64.58c1.95.03,3.89-.41,5.63-1.3.6-.34,1.51-.68,1.37-1.47-.15-.85-1.1-1.03-1.88-1.16-2.97-.49-5.97-.79-8.95-1.16-1.54-.19-3.08-.38-4.63-.58-.95-.12-.97-.11-.74.85.1.43.22.86.29,1.29.09.75.58,1.39,1.28,1.68,2.38,1.15,4.99,1.78,7.63,1.85M135.05,42.54c-2.25.03-4.44.72-6.31,1.97-.23.17-.56.32-.49.67s.43.38.7.46c1.01.23,2.04.34,3.08.33,2.98.15,5.96.25,8.93.57.22.02.52.22.69-.18.53-1.1.06-2.41-1.03-2.94-.08-.04-.16-.07-.24-.1-1.71-.6-3.52-.87-5.33-.78M110.49,46.35h-.2c-1.29,3.26-2.59,6.54-3.88,9.81-.19.49.08.52.46.51,2.47,0,4.94,0,7.42,0,.15,0,.35.1.45-.17-3.59-2.45-4.64-5.99-4.25-10.15"/>
        </g>
      </g>
    </g>
  </g>
</svg>