<svg id="Grupo_2259" data-name="Grupo 2259" xmlns="http://www.w3.org/2000/svg" xmlns:xlink="http://www.w3.org/1999/xlink" width="321.378" height="175.916" viewBox="0 0 321.378 175.916">
  <defs>
    <clipPath id="clip-path">
      <rect id="Rectángulo_1314" data-name="Rectángulo 1314" width="321.378" height="175.916" fill="none"/>
    </clipPath>
  </defs>
  <g id="Grupo_2257" data-name="Grupo 2257" clip-path="url(#clip-path)">
    <path id="Trazado_2925" data-name="Trazado 2925" d="M300.074,132.31c.569.36,1.138.718,1.7,1.08,6.595,4.217,10.327,10.082,9.937,18.041-.349,7.114-2.787,13.36-8.321,18.23-10.6,9.328-22.663,15.752-36.8,17.262-7.357.786-14.863.308-22.3.214a39,39,0,0,1-17.227-4.5,30.26,30.26,0,0,1-10.926-9.354,16.285,16.285,0,0,1-3.228-7.3,12.075,12.075,0,0,0-.531-1.786l-.448-.1a13.238,13.238,0,0,0-.936,1.668q-3.2,8.2-6.341,16.424a2,2,0,0,1-2.149,1.426c-8.444.006-16.887.064-25.33.1-1.144.006-2.288,0-3.635,0l11.874-27.936-.3-.259a16.55,16.55,0,0,0-1.569,1.368c-3.635,4.042-7.218,8.132-10.874,12.155q-6.492,7.143-13.1,14.179a3.159,3.159,0,0,1-2.029.937c-7.046.075-14.094.033-21.14.085-1.31.01-1.746-.337-1.848-1.749-.436-6.057-1.082-12.1-1.6-18.15-.359-4.215-.627-8.439-.943-12.658a1.733,1.733,0,0,0-.514-1.107,14.471,14.471,0,0,0-1.172,1.9q-6.133,14.344-12.214,28.711c-1.258,2.97-1.234,2.965-4.416,2.967q-11.845.009-23.69.041c-.684,0-1.369,0-2.24,0,1.169-2.78,2.254-5.32,3.309-7.871q10.151-24.559,20.291-49.122c.616-1.493.5-1.663-1.2-1.666-5.848-.006-11.7.059-17.542-.057a2.778,2.778,0,0,0-3.051,1.933c-3.156,7.365-6.387,14.7-9.6,22.041q-7.3,16.69-14.593,33.382a1.9,1.9,0,0,1-1.926,1.321q-14.094.026-28.187.082a7.653,7.653,0,0,1-1.153-.191l24.227-58.983H31.326a16.239,16.239,0,0,1,.452-1.708q4.343-11.28,8.746-22.537a1.964,1.964,0,0,1,1.247-.981,12.281,12.281,0,0,1,2.683-.185q54.2-.009,108.4-.024c1.417,0,2.117.247,2.322,1.876.974,7.751,2.123,15.48,3.171,23.222.767,5.671,1.464,11.352,2.225,17.024a6.006,6.006,0,0,0,.589,1.425,6.993,6.993,0,0,0,1.318-.851q15.135-15.455,30.245-30.933c3.631-3.705,7.294-7.381,11.024-10.987a3.918,3.918,0,0,1,2.483-1.061c10.144.117,20.286.333,30.43.532a7.133,7.133,0,0,1,1.077.221l-6.83,16.229.349.265c.646-.605,1.336-1.17,1.93-1.822,8.294-9.1,18.76-14.41,30.618-17.067a72.585,72.585,0,0,1,22.823-.981,131.577,131.577,0,0,1,15.119,2.019c8.61,1.845,14.9,6.721,17.948,15.245a15.967,15.967,0,0,1,.051,10.138,43.3,43.3,0,0,1-2.5,6.223,2.469,2.469,0,0,1-1.791,1.166c-4.442.153-8.889.155-13.334.228-.661.01-1.321.138-1.982.212l-.071.361m-166.014-.46.392.032a12.62,12.62,0,0,1,.428,1.775c.63,6.539,1.227,13.081,1.847,19.622.779,8.222,1.608,16.441,2.32,24.669.109,1.259.607,1.44,1.67,1.432,4.647-.037,9.3-.072,13.941.022a3.771,3.771,0,0,0,3.115-1.37c6-6.544,12.04-13.053,18.048-19.589q11.744-12.776,23.469-25.568a11.292,11.292,0,0,1,1.337-1c-6.722,15.892-13.25,31.322-19.8,46.812a4.6,4.6,0,0,0,.715.176c5.942.044,11.885.125,17.827.064a2.542,2.542,0,0,0,1.867-1.3c4.179-10.18,8.275-20.393,12.376-30.6q8.014-19.958,16.01-39.923c.305-.76.625-1.514,1.013-2.454-.678-.077-1.107-.161-1.538-.169-6.843-.126-13.687-.211-20.528-.391a3.523,3.523,0,0,0-2.886,1.156c-7.164,7.3-14.385,14.544-21.566,21.826q-12.658,12.837-25.286,25.706c-.295.3-.652.537-1.2.984a17.223,17.223,0,0,1-.455-1.764c-.7-5.178-1.352-10.36-2.061-15.537-1.27-9.266-2.6-18.524-3.842-27.794-.543-4.045-.476-4.075-4.611-4.085-6.446-.015-12.893-.027-19.339.042a2.613,2.613,0,0,0-1.916.917,20.933,20.933,0,0,0-1.467,3.413q-2.788,6.765-5.582,13.528c-2.536,6.117-5.108,12.219-7.618,18.346-2.962,7.23-5.867,14.483-8.811,21.72q-2.813,6.916-5.676,13.811c-.386.935-.84,1.842-1.326,2.9a11.6,11.6,0,0,0,1.256.156c5.147-.008,10.295-.086,15.44-.006a2.521,2.521,0,0,0,2.765-1.822c3.357-7.934,6.821-15.822,10.232-23.733q3.99-9.254,7.942-18.525c.5-1.158,1-2.312,1.5-3.468m93.915,20.98c-2.648,0-5.3-.007-7.945,0-2.491.008-2.362-.413-2.809,2.319-.751,4.59-.853,9.154,1.507,13.385a24.4,24.4,0,0,0,10.5,9.939,41.8,41.8,0,0,0,14.325,4,84.8,84.8,0,0,0,25.645-.607,60.1,60.1,0,0,0,29.18-14.355c3.948-3.486,7.231-7.292,8.181-12.807,1.2-6.973-.619-12.537-6.376-16.822a23.351,23.351,0,0,0-12.206-4.476c-7.558-.646-15.139-1.057-22.713-1.5-2.926-.171-5.709-.734-7.757-2.946a4.42,4.42,0,0,1-1.283-3.126,8.287,8.287,0,0,1,4.13-6.1,31.974,31.974,0,0,1,19.178-3.987,35.324,35.324,0,0,1,7,1.455,8.335,8.335,0,0,1,6.208,8.357c.005,1.205.53,1.411,1.545,1.407,5.346-.021,10.693.012,16.039-.007,3.512-.013,3.505-.041,4.54-3.416a13.038,13.038,0,0,0,.2-8.219c-2.492-7.221-8.039-10.8-15.233-12.084-4.316-.772-8.691-1.268-13.058-1.695-9.834-.963-19.539-.482-28.952,2.9a56.9,56.9,0,0,0-18.791,10.88,20.848,20.848,0,0,0-7.407,14.359c-.288,3.568-.148,7.142,2.2,10.124A22.623,22.623,0,0,0,249.59,148.3c7.578.895,15.176,1.62,22.765,2.43,3.089.33,5.215,2.143,6.817,4.621a5.119,5.119,0,0,1-.462,6.358c-3.18,3.852-7.487,5.413-12.261,6.139-8.041,1.223-15.587-.38-22.792-3.881-2.424-1.178-4.264-2.928-4.526-5.872-.118-1.333-.493-2.642-.642-3.974-.109-.984-.5-1.339-1.52-1.317-3,.064-6,.023-8.994.025M41.262,179.184a5.216,5.216,0,0,0,.911.2c6.2,0,12.394.012,18.59-.053a1.838,1.838,0,0,0,1.323-.895c.964-1.966,1.812-3.989,2.683-6,2.929-6.763,5.824-13.541,8.78-20.292,4.3-9.811,8.668-19.588,12.916-29.42a2.881,2.881,0,0,1,3.147-2.029c6.546.1,13.093.06,19.639.087.941,0,1.752-.034,2.178-1.116,1.587-4.031,3.231-8.039,4.852-12.057.368-.91.729-1.822,1.155-2.885a6.886,6.886,0,0,0-1.263-.258c-7.444.017-14.889.072-22.333.08q-24.139.026-48.277,0c-.886,0-1.483.135-1.845,1.086-1.626,4.282-3.32,8.538-4.994,12.8-.61,1.553-.493,1.732,1.122,1.731q11.919,0,23.839.01c.516,0,1.031.095,1.772.167l-24.194,58.84M242.74,151.837c.353,1.706.728,3.179.949,4.675A4.179,4.179,0,0,0,246.3,160a34.774,34.774,0,0,0,18.616,3.225,17.1,17.1,0,0,0,9.115-3.409c1.32-1.062,1.382-2.012-.034-2.955a8.294,8.294,0,0,0-3.394-1.393c-6.92-.867-13.862-1.56-20.787-2.391-2.255-.27-4.481-.779-7.075-1.242m33.093-31.723c-4.417.215-9.464,1.489-12.762,3.588a11.223,11.223,0,0,0-1.867,1.938,8.381,8.381,0,0,0,2.474,1.078c7.565.592,15.138,1.073,22.707,1.617.99.071,1.316-.386,1.444-1.256.431-2.931-.9-4.9-4.194-5.67-2.563-.6-5.2-.876-7.8-1.3M218.319,148.05h16.666a4.361,4.361,0,0,0-1.27-1.462c-5.116-4.2-7.478-9.543-6.822-16.176a18.692,18.692,0,0,0-.126-2.774l-.332.03-8.115,20.381" transform="translate(-11.156 -34.283)" fill="#841437"/>
    <path id="Trazado_2926" data-name="Trazado 2926" d="M242.007,73.445,328.225,0l.207.2q-1.822,1.9-3.643,3.8Q310.3,19.234,295.812,34.464q-18.022,18.895-36.075,37.76Q248.792,83.7,237.914,95.245c-.782.829-1.37,1.84-2.14,2.681a4.632,4.632,0,0,1-1.348.717,10.522,10.522,0,0,1-.323-1.218c-.529-3.636-1.028-7.276-1.561-10.91-.96-6.54-1.91-13.082-2.918-19.615-.69-4.468-1.429-8.93-2.243-13.378-.2-1.115-.039-1.63,1.151-1.608,4,.076,7.991.156,11.988.205,1.053.013,1.187.6,1.187,1.465q0,9.261.061,18.522a11.186,11.186,0,0,0,.239,1.338" transform="translate(-80.951)" fill="#c52774"/>
    <path id="Trazado_2927" data-name="Trazado 2927" d="M151.216,256.736c-.9,1.733-1.786,3.469-2.689,5.2a3.719,3.719,0,0,1-.773,1.241,1.317,1.317,0,0,1-1.156.041c-.183-.088-.3-.728-.171-.991,1.247-2.6,2.518-5.188,3.853-7.743.619-1.185,2.07-1.359,3.82-.587l-1.107,5.228.494.252c.655-.695,1.348-1.359,1.958-2.092.7-.842,1.29-1.774,1.993-2.613,1.169-1.4,2.228-1.606,4.205-.867-.633,1.234-1.281,2.448-1.883,3.685-.672,1.382-1.286,2.791-1.96,4.172a3.188,3.188,0,0,1-.831,1.209,5.1,5.1,0,0,1-1.469.5,4.326,4.326,0,0,1,.142-1.446c.555-1.164,1.245-2.263,1.846-3.407a10.358,10.358,0,0,0,.486-1.316l-.453-.309c-.992,1.238-1.969,2.488-2.979,3.711a22.314,22.314,0,0,1-2.181,2.43c-.3.267-.928.165-1.407.232a5.51,5.51,0,0,1-.135-1.366c.252-1.679.573-3.349.868-5.022l-.472-.138" transform="translate(-52.128 -90.239)" fill="#282828"/>
    <path id="Trazado_2928" data-name="Trazado 2928" d="M366.239,263.665a28.432,28.432,0,0,1-3.369-1.9c-.3-.219-.107-1.1-.14-1.676.578.043,1.394-.142,1.692.168a3.542,3.542,0,0,0,3.842.89,1.658,1.658,0,0,0,.961-.917c.07-.192-.415-.7-.747-.9-.883-.549-1.867-.946-2.724-1.53a1.684,1.684,0,0,1-.4-2.678c1.617-2.266,5.134-2.966,7.117-1.272.471.4.58,1.227.856,1.857-.716-.035-1.628.193-2.107-.161a2.67,2.67,0,0,0-3.147-.468,5.514,5.514,0,0,0-.918.809,5.742,5.742,0,0,0,.927.837c.861.494,1.791.872,2.639,1.385,1.371.829,1.466,1.433.559,2.786a5.293,5.293,0,0,1-4.847,2.408l-.2.362" transform="translate(-129.169 -90.07)" fill="#282828"/>
    <path id="Trazado_2929" data-name="Trazado 2929" d="M254.329,256.368a15.414,15.414,0,0,0-2.288-1.34,3.656,3.656,0,0,0-1.871-.066c-.354.062-.879.46-.9.744a1.4,1.4,0,0,0,.655,1.027c.931.569,2,.93,2.874,1.565a1.825,1.825,0,0,1,.586,1.548c-.848,3.4-5.826,4.781-8.406,2.362-.551-.518-1.1-1.14-.327-1.9.687-.672,1.4-.739,2.017.109.993,1.361,2.34,1.106,3.651.727a1.478,1.478,0,0,0,.814-.941c.055-.208-.366-.655-.668-.823-.825-.459-1.736-.768-2.548-1.246-1.418-.835-1.574-1.952-.534-3.229a5.273,5.273,0,0,1,6.871-1.145c1.362.815,1.386,1.5.075,2.606" transform="translate(-86.991 -90.091)" fill="#282828"/>
    <path id="Trazado_2930" data-name="Trazado 2930" d="M459.056,263.322c-3.338.023-4.824-2.239-3.455-5.294a8.3,8.3,0,0,1,6.089-5.014,4.083,4.083,0,0,1,4.183,1.333c.308.371.131,1.14.176,1.727-.623-.039-1.433.157-1.838-.16-1.634-1.279-2.632-1.425-4.324-.235a5.03,5.03,0,0,0-2.268,3.989c-.065,1.159.571,1.8,1.605,1.6A13.847,13.847,0,0,0,462.314,260c.71-.338,1.438-1.33,2.08-.189.175.311-.487,1.4-1.016,1.735a45,45,0,0,1-4.136,2.147l-.187-.367" transform="translate(-162.074 -90.065)" fill="#282828"/>
    <path id="Trazado_2931" data-name="Trazado 2931" d="M105.875,253.56c.109,1.185.238,2.011.236,2.836a1.647,1.647,0,0,1-.471.947c-.706.8-1.5,1.518-2.181,2.333a1.563,1.563,0,0,0-.11,2.163,1.427,1.427,0,0,1,.114,1.328,1.642,1.642,0,0,1-1.3.335c-2.053-.225-2.324-.769-1.417-2.57.521-1.035,1.01-2.085,1.545-3.2a5.057,5.057,0,0,0-5.389,2.142,22.362,22.362,0,0,1-1.139,2.25,3.916,3.916,0,0,1-1.68,1.269c-.671.246-1.08-.2-.744-.923q1.353-2.9,2.8-5.749a1.146,1.146,0,0,1,.828-.528c1.626-.044,3.255.017,4.882-.024a2.419,2.419,0,0,0,1.282-.408c.9-.648,1.743-1.388,2.744-2.2" transform="translate(-33.199 -90.301)" fill="#282828"/>
    <path id="Trazado_2932" data-name="Trazado 2932" d="M394.96,256.542c-.1,1.684-.12,3.379-.341,5.047a2.2,2.2,0,0,1-1.021,1.561c-.863.338-.967-.494-1.08-1.156a1.014,1.014,0,0,0-.425-.572c-1.077-.735-4.066-.406-5.022.521a5.036,5.036,0,0,1-1.214,1.073,4.072,4.072,0,0,1-1.453.093,3.922,3.922,0,0,1,.447-1.285c.986-1.182,2.055-2.295,3.087-3.439,1.2-1.329,2.362-2.691,3.6-3.98a3.636,3.636,0,0,1,1.57-1.029c1.433-.373,2.037.209,1.934,1.677-.035.5-.079.99-.118,1.485l.033,0m-2.339-.769-3.213,3.157c3.275.834,3.893.216,3.213-3.157" transform="translate(-136.899 -90.197)" fill="#282828"/>
    <path id="Trazado_2933" data-name="Trazado 2933" d="M422.889,263.089c-.785.106-1.567.27-2.355.305-2.313.1-3.366-1.288-2.546-3.425a6.5,6.5,0,0,1,3.493-3.879A3.258,3.258,0,0,1,423.86,256c1.5.727,2,.1,2.547-1.162a3.18,3.18,0,0,1,1.608-1.514c.794-.319,1.286.187.866,1.048-1.344,2.76-2.684,5.523-4.154,8.215-.246.45-1.133.551-1.724.814-.039-.1-.077-.205-.115-.308m1.375-5c-.2-.12-.568-.508-.968-.547a3.4,3.4,0,0,0-3.252,2.882c-.066,1.019.512,1.473,1.478,1.358a3.683,3.683,0,0,0,2.742-3.693" transform="translate(-148.761 -90.181)" fill="#282828"/>
    <path id="Trazado_2934" data-name="Trazado 2934" d="M64.233,264.449c-.842,1.133-1.033,3.274-3.593,3.02.254-.665.412-1.178.639-1.657,1.129-2.376,2.3-4.735,3.4-7.121a1.679,1.679,0,0,1,1.84-1.14c1.084.063,2.182-.166,3.273-.155,1.594.016,2.237.8,2.071,2.389-.253,2.412-1.765,4.5-3.921,4.912a14.858,14.858,0,0,1-3.714-.249m5.532-4.594c-.075-.1-.253-.576-.446-.582-.779-.023-1.857-.2-2.281.229a11.241,11.241,0,0,0-1.728,2.974c-.029.059.383.394.63.527,1.525.823,3.819-.933,3.825-3.148" transform="translate(-21.596 -91.667)" fill="#282828"/>
    <path id="Trazado_2935" data-name="Trazado 2935" d="M493.21,253.492a2.973,2.973,0,0,1-.356.758c-2.336,2.651-4.638,5.334-7.074,7.889a4.239,4.239,0,0,1-2.359.876c-.265.039-.931-.7-.925-1.082.039-2.483.223-4.962.332-7.444.034-.786.171-1.338,1.169-1.308.979.03,1.37.493,1.3,1.4-.1,1.287-.259,2.57-.385,3.856-.056.57-.1,1.142-.173,2.065,3.249-2.219,4.4-6.341,8.1-7.441l.377.435" transform="translate(-171.832 -90.122)" fill="#282828"/>
    <path id="Trazado_2936" data-name="Trazado 2936" d="M281.865,257.935c-1.377-.863-2.365-.823-3.1.32-.643,1-1.2,2.049-1.785,3.086-.193.344-.241.857-.522,1.046a12.916,12.916,0,0,1-1.921.91,5.548,5.548,0,0,1,.141-1.843c.895-1.991,1.9-3.934,2.886-5.884a7.235,7.235,0,0,1,1.075-1.775c.321-.335.924-.4,1.4-.588a5.184,5.184,0,0,1,.156,1.442,6.217,6.217,0,0,1-.541,1.385,30.259,30.259,0,0,1,3.667.247,1.452,1.452,0,0,1,.62,1.263,47.715,47.715,0,0,1-2.639,5.161c-.206.344-1.042.316-1.587.46a3.534,3.534,0,0,1,.038-1.393c.625-1.283,1.369-2.509,2.113-3.837" transform="translate(-97.769 -90.176)" fill="#282828"/>
    <path id="Trazado_2937" data-name="Trazado 2937" d="M171.487,265.187c-.988-.5-2.446-.771-2.836-1.564a4.322,4.322,0,0,1,.334-3.322,5.3,5.3,0,0,1,6.2-2.951,2.33,2.33,0,0,1,1.868,3.143,7.015,7.015,0,0,1-5.564,4.693m3.4-5.916c-2.091-.482-3.735.276-4.336,2-.433,1.24.1,1.919,1.419,1.8a3.218,3.218,0,0,0,2.917-3.8" transform="translate(-59.988 -91.581)" fill="#282828"/>
    <path id="Trazado_2938" data-name="Trazado 2938" d="M328.068,265.174c-.989-.657-2.34-1.115-2.847-2.036-.375-.684.114-2.107.625-2.957,1.519-2.528,3.738-3.494,5.967-2.869,1.915.537,2.548,1.789,1.82,3.608a5.948,5.948,0,0,1-5.329,3.9l-.236.356m2.872-6.15c-2.143-.029-3.531,1.3-3.6,2.821-.043.955.418,1.225,1.249,1.23,1.455.009,3.3-1.594,3.205-2.986-.033-.467-.7-.889-.854-1.065" transform="translate(-115.775 -91.572)" fill="#282828"/>
    <path id="Trazado_2939" data-name="Trazado 2939" d="M225.725,262.253c.589-.538,1.214-1.044,1.76-1.623a30.7,30.7,0,0,1,2.4-2.642,6.511,6.511,0,0,1,2.1-.754c.068.151.135.3.2.455a1.617,1.617,0,0,1-.206.5q-3.529,3.852-7.081,7.681a4.019,4.019,0,0,1-3.513,1.624c-.312-.04-.59-.35-.883-.536.216-.326.36-.823.661-.952,2.584-1.1,2.595-1.085,2.625-3.957.012-1.143-.032-2.289.037-3.428.024-.386.24-1,.5-1.078a2.19,2.19,0,0,1,1.518.138c.213.109.249.777.189,1.165-.165,1.062-.424,2.111-.645,3.164l.333.241" transform="translate(-78.529 -91.609)" fill="#282828"/>
    <path id="Trazado_2940" data-name="Trazado 2940" d="M82.579,264.924c-2.587-.046-3.7-1.815-2.623-4.161,1.259-2.738,3.655-4.061,6.218-3.432a2.409,2.409,0,0,1,1.825,3.6c-1.083,2.564-3.079,4.034-5.42,3.993m2.125-5.8a3.4,3.4,0,0,0-3.138,2.641c-.138.867.2,1.315,1.082,1.379a3.3,3.3,0,0,0,3.21-2c.811-1.4.461-2-1.154-2.019" transform="translate(-28.329 -91.589)" fill="#282828"/>
    <path id="Trazado_2941" data-name="Trazado 2941" d="M211.924,264.837c-3.055-.01-4.236-1.975-2.973-4.291,1.367-2.507,3.8-3.787,6.116-3.214,2,.494,2.838,2.171,1.9,3.966-1.138,2.169-2.879,3.493-5.04,3.539M215,259.25c-2.747-.29-3.412-.035-4.113,1.744-.189.479-.278,1.324-.01,1.576a2.315,2.315,0,0,0,1.735.453c1.657-.256,2.486-1.632,2.389-3.772" transform="translate(-74.236 -91.596)" fill="#282828"/>
    <path id="Trazado_2942" data-name="Trazado 2942" d="M298.469,259.514c1.348-2.4,4.674-3.075,6.325-1.588a1.78,1.78,0,0,1,.337,1.565c-.536,1.54-1.225,3.028-1.907,4.512a1.1,1.1,0,0,1-.748.54,20.176,20.176,0,0,1-3.69.171c-.7-.062-1.937-.636-1.923-.93a4.163,4.163,0,0,1,.985-2.578,5.638,5.638,0,0,1,2.464-.873c.323-.088.7.047,1.039-.011a5.041,5.041,0,0,0,1.469-.43c.113-.06-.014-.9-.067-.9a7.365,7.365,0,0,0-1.556.064c-.809.111-1.612.269-2.729.46m3.119,1.982c-.921-.37-1.858-.549-2.422.472a1.474,1.474,0,0,0,.355,1.4c.589.425,1.787-.673,2.066-1.87" transform="translate(-105.723 -91.576)" fill="#282828"/>
    <path id="Trazado_2943" data-name="Trazado 2943" d="M435.049,261.557c.5.807.729,1.478,1.2,1.8.276.187.952-.144,1.417-.323.723-.279,1.291-1.492,2.23-.337a3.774,3.774,0,0,1-6.488.654,1.676,1.676,0,0,1-.288-1.088c.267-2.333,2.759-4.934,5.087-4.985a4.53,4.53,0,0,1,3,1.171,1.851,1.851,0,0,1-1.4,3.094c-1.428.088-2.866.018-4.76.018m1.435-1.32c1.057.137,2.067,1.147,2.912-.135.122-.186-.379-1.129-.691-1.187-.963-.18-1.977-.1-2.221,1.321" transform="translate(-154.244 -91.623)" fill="#282828"/>
    <path id="Trazado_2944" data-name="Trazado 2944" d="M114.7,261.647c.347.709.487,1.5.928,1.738.362.2,1.142-.165,1.627-.458.706-.427,1.292-1.166,2.2-.27a3.794,3.794,0,0,1-3.713,2.319c-2.66.03-3.919-2.293-2.495-4.525,1.226-1.921,2.775-3.419,5.324-3.154a2.314,2.314,0,0,1,2.36,2.38c.008,1.562-.419,1.977-2.017,1.972-1.283,0-2.565,0-4.219,0m.8-1.317a21.411,21.411,0,0,0,2.633.3c.245,0,.66-.44.684-.707.028-.309-.235-.884-.465-.936a2.388,2.388,0,0,0-2.852,1.343" transform="translate(-40.121 -91.621)" fill="#282828"/>
    <path id="Trazado_2945" data-name="Trazado 2945" d="M26.759,258.736c-1.039.258-1.838.518-2.658.634a5.51,5.51,0,0,1-1.445-.174c.242-.385.4-.9.742-1.133a4.471,4.471,0,0,1,4.665-.361,1.352,1.352,0,0,1,.748,2.058c-.678,1.434-1.351,2.872-2.085,4.277a1.349,1.349,0,0,1-.863.665,12.782,12.782,0,0,1-3.358.117,3.364,3.364,0,0,1-2.142-1.233c-.239-.375.279-1.489.751-2a3.777,3.777,0,0,1,3.668-1.131c.917.174,1.841.135,1.978-1.715m-.956,2.845c-.916-.135-1.4-.352-1.762-.224a2.864,2.864,0,0,0-1.274.959,1.288,1.288,0,0,0,.2,1,2.643,2.643,0,0,0,1.458-.234,8.183,8.183,0,0,0,1.377-1.5" transform="translate(-7.23 -91.601)" fill="#282828"/>
    <path id="Trazado_2946" data-name="Trazado 2946" d="M347.022,259.3c-1.5-.689-2.531-.517-3.253.636-.63,1.006-1.149,2.08-1.74,3.111a3.64,3.64,0,0,1-.911,1.315,4.776,4.776,0,0,1-1.635.352,5,5,0,0,1,.2-1.451c.722-1.577,1.507-3.129,2.317-4.665.217-.411.589-1.027.918-1.046a35.956,35.956,0,0,1,5.018.023c1.172.1,1.635.818,1.019,1.991-.785,1.5-1.467,3.048-2.342,4.486a1.712,1.712,0,0,1-1.514.612c-.9-.309-.433-1.021-.124-1.592.657-1.213,1.318-2.424,2.052-3.774" transform="translate(-120.901 -91.694)" fill="#282828"/>
    <path id="Trazado_2947" data-name="Trazado 2947" d="M3.366,255.252a16.019,16.019,0,0,1-2.129-.218,3.861,3.861,0,0,1-1.022-.63,10.6,10.6,0,0,1,.826-.935.905.905,0,0,1,.565-.15c2.291-.01,4.582-.026,6.872.014a4.264,4.264,0,0,1,1.2.4q.049.266.1.531a10.766,10.766,0,0,1-2.265.773c-1.265.144-2.225.427-2.743,1.791-.614,1.615-1.473,3.139-2.239,4.7-.2.4-.348.928-.682,1.124a8.6,8.6,0,0,1-1.85.6,5.416,5.416,0,0,1,.2-1.666c.959-2.044,2.009-4.046,3.162-6.334" transform="translate(0 -90.211)" fill="#282828"/>
    <path id="Trazado_2948" data-name="Trazado 2948" d="M190.29,259.411c-1.436-.833-2.41-.675-3.164.392-.572.81-1.082,1.665-1.586,2.519-.278.47-.368,1.124-.752,1.438a9.7,9.7,0,0,1-1.97,1,7.721,7.721,0,0,1,.319-1.863c.657-1.5,1.4-2.969,2.176-4.412.212-.392.655-.882,1.036-.923a27.763,27.763,0,0,1,4.139-.144c1.825.077,2.226.755,1.5,2.355q-.924,2.035-1.933,4.031a1.618,1.618,0,0,1-.78.831,2.135,2.135,0,0,1-1.374-.14c-.128-.059-.08-.815.095-1.142.7-1.3,1.48-2.556,2.295-3.937" transform="translate(-65.107 -91.665)" fill="#282828"/>
    <path id="Trazado_2949" data-name="Trazado 2949" d="M38.957,257.682a21.173,21.173,0,0,1,3.11-.234c1.7.111,2.154.812,1.488,2.359a30.385,30.385,0,0,1-2.23,4.208c-.265.419-1,.54-1.525.8a4.628,4.628,0,0,1-.022-1.717c.4-1.01,1.025-1.928,1.523-2.9.524-1.024.019-1.457-.951-1.29a2.694,2.694,0,0,0-1.622.854c-.784,1.077-1.364,2.3-2.049,3.449a4.183,4.183,0,0,1-.945,1.294c-.292.212-.831.087-1.259.113-.023-.4-.187-.86-.044-1.187a43.546,43.546,0,0,1,2.394-4.961c.338-.563,1.284-.765,1.952-1.132l.18.347" transform="translate(-12.241 -91.645)" fill="#282828"/>
    <path id="Trazado_2950" data-name="Trazado 2950" d="M129.328,259.44a15.854,15.854,0,0,1,1.75.867c.756.49,1.453,1.071,2.174,1.614a9.583,9.583,0,0,1-1.815,2.187,4.661,4.661,0,0,1-4.972.151c-.536-.292-.872-.952-1.3-1.444l.44-.652c.866.312,1.72.664,2.6.919a3.141,3.141,0,0,0,1.592.148,1.3,1.3,0,0,0,.626-1.03c.007-.223-.522-.6-.861-.672-1.082-.231-2.409-.672-2.234-1.742.144-.877,1.306-1.75,2.215-2.3a3.708,3.708,0,0,1,3.979.161c.4.247.581.84.863,1.275a5.842,5.842,0,0,1-1.469.283c-.585-.035-1.152-.346-1.739-.4a10.665,10.665,0,0,0-1.758.113c-.032.174-.064.347-.1.521" transform="translate(-44.575 -91.519)" fill="#282828"/>
    <path id="Trazado_2951" data-name="Trazado 2951" d="M264.179,265.162c-2.593-.286-3.407-1.333-2.8-3.708.843-3.3,4.5-5.174,7.319-3.731.663.339,1.44.742.894,1.695-.523.912-1.137.444-1.89.163-.8-.3-2.032-.549-2.595-.149a5.143,5.143,0,0,0-1.8,2.745c-.236.907.779,1.006,1.483.788.754-.234,1.439-.684,2.191-.928.295-.1.69.113,1.039.183-.075.358-.031.914-.244,1.04-1.165.692-2.393,1.279-3.6,1.9" transform="translate(-93.017 -91.608)" fill="#282828"/>
    <path id="Trazado_2952" data-name="Trazado 2952" d="M54.682,262.149l-2.068-.766c-1.906-.706-2.1-1.614-.628-2.975a4.349,4.349,0,0,1,5.1-.849c.474.25.726.918,1.08,1.395a6.264,6.264,0,0,1-1.49.246c-1.1-.082-2.2-.277-3.3-.427l-.191.723c.9.434,1.778.907,2.7,1.292,1.224.514,1.406,1.143.565,2.236a4.809,4.809,0,0,1-6.287,1.183c-.413-.281-.567-.939-.841-1.424a7.88,7.88,0,0,1,1.606-.194,3.168,3.168,0,0,1,1.071.5c1.389.726,1.451.71,2.691-.943" transform="translate(-17.562 -91.553)" fill="#282828"/>
    <path id="Trazado_2953" data-name="Trazado 2953" d="M321.27,257.876c-2.085,2.159-4.139,4.349-6.287,6.443a1.881,1.881,0,0,1-1.646.212c-.314-.118-.532-.876-.535-1.35-.014-1.489.094-2.979.158-4.468.034-.793.289-1.375,1.247-1.265,1.063.122,1.065.815.923,1.636-.133.774-.2,1.56-.322,2.608,2.681-.931,3.192-4.555,6.153-4.226l.308.409" transform="translate(-111.398 -91.681)" fill="#282828"/>
    <path id="Trazado_2954" data-name="Trazado 2954" d="M14.984,257.814a16.459,16.459,0,0,1,2-.364,3.557,3.557,0,0,1,1.158.319c-.2.34-.362.933-.621.981-2.949.54-4.171,2.791-5.333,5.149-.339.688-.834,1.344-1.756.829-.992-.554-.278-1.163.012-1.743.643-1.285,1.346-2.545,1.918-3.861a1.913,1.913,0,0,1,2.621-1.31" transform="translate(-3.534 -91.685)" fill="#282828"/>
    <path id="Trazado_2955" data-name="Trazado 2955" d="M197.034,264.656c1.152-2.38,2.182-4.554,3.273-6.7.114-.223.582-.364.892-.375,1.257-.042,2.518-.017,4.152-.017-.339.5-.595,1.3-.977,1.365-2.521.429-3.639,2.206-4.485,4.307-.464,1.151-1.265,1.682-2.854,1.416" transform="translate(-70.17 -91.725)" fill="#282828"/>
    <path id="Trazado_2956" data-name="Trazado 2956" d="M289.941,265.147c-.23-.592-.576-1.036-.468-1.272.912-1.978,1.873-3.937,2.912-5.852.174-.321.8-.4,1.212-.589.126.482.491,1.066.336,1.429-.737,1.726-1.576,3.413-2.473,5.063-.23.422-.8.661-1.519,1.22" transform="translate(-103.083 -91.681)" fill="#282828"/>
    <path id="Trazado_2957" data-name="Trazado 2957" d="M474.022,266.469a23.683,23.683,0,0,1-2.251,1.234c-.172.074-.791-.323-.795-.512a1.661,1.661,0,0,1,1.756-1.756c.377-.03.781.288,1.173.447q.058.294.117.587" transform="translate(-167.73 -94.529)" fill="#282828"/>
    <path id="Trazado_2958" data-name="Trazado 2958" d="M495.022,265.43c.066,1.581-.692,2.195-1.948,2.2-.281,0-.83-.507-.8-.729.191-1.659,1.59-1.161,2.752-1.474" transform="translate(-175.313 -94.528)" fill="#282828"/>
    <path id="Trazado_2959" data-name="Trazado 2959" d="M380.792,265.924a5.273,5.273,0,0,1-1.129,1.386c-.391.238-1.019.09-1.542.112.227-.558.315-1.274.721-1.628.364-.317,1.078-.237,1.637-.332l.313.462" transform="translate(-134.661 -94.54)" fill="#282828"/>
    <path id="Trazado_2960" data-name="Trazado 2960" d="M405.768,265.529c-.194,1.322-.676,2.177-1.954,2.122-.23-.01-.668-.742-.606-1.062.306-1.564,1.6-.689,2.559-1.06" transform="translate(-143.593 -94.563)" fill="#282828"/>
    <path id="Trazado_2961" data-name="Trazado 2961" d="M298.044,254.075a16.168,16.168,0,0,1-1.729,1.088c-.066.033-.705-.671-.632-.857a2.327,2.327,0,0,1,1-1.254c.3-.13.851.326,1.291.52.022.168.044.335.066.5" transform="translate(-105.3 -90.112)" fill="#282828"/>
    <path id="Trazado_2962" data-name="Trazado 2962" d="M169.235,136.167c-.5,1.156-1.008,2.31-1.5,3.469q-3.971,9.262-7.942,18.524c-3.411,7.911-6.875,15.8-10.232,23.734a2.521,2.521,0,0,1-2.765,1.822c-5.145-.08-10.293,0-15.44.006a11.773,11.773,0,0,1-1.256-.156c.487-1.06.94-1.967,1.326-2.9q2.854-6.9,5.676-13.811c2.945-7.237,5.849-14.491,8.811-21.721,2.51-6.127,5.082-12.229,7.618-18.346q2.8-6.76,5.582-13.528a20.964,20.964,0,0,1,1.467-3.414,2.615,2.615,0,0,1,1.916-.917c6.446-.069,12.892-.058,19.339-.042,4.135.01,4.069.039,4.611,4.085,1.244,9.269,2.572,18.527,3.842,27.793.71,5.176,1.365,10.359,2.061,15.537a17.269,17.269,0,0,0,.455,1.765c.551-.447.908-.685,1.2-.984q12.647-12.849,25.286-25.706c7.182-7.283,14.4-14.527,21.566-21.826a3.523,3.523,0,0,1,2.886-1.156c6.842.18,13.685.265,20.528.392.431.008.86.092,1.538.169-.388.94-.708,1.694-1.012,2.454q-8.006,19.961-16.011,39.923c-4.1,10.212-8.2,20.425-12.376,30.6a2.544,2.544,0,0,1-1.867,1.3c-5.941.061-11.884-.019-17.827-.064A4.515,4.515,0,0,1,216,183l19.8-46.812a11.227,11.227,0,0,0-1.337,1Q222.723,149.967,211,162.76c-6.009,6.536-12.047,13.045-18.048,19.588a3.772,3.772,0,0,1-3.115,1.371c-4.645-.095-9.294-.06-13.941-.022-1.064.008-1.561-.173-1.67-1.433-.713-8.228-1.541-16.446-2.321-24.668-.62-6.54-1.217-13.082-1.847-19.621a12.577,12.577,0,0,0-.428-1.775l-.392-.033" transform="translate(-46.331 -38.601)" fill="#c1a668"/>
    <path id="Trazado_2963" data-name="Trazado 2963" d="M330.534,155.506c3,0,6,.041,8.994-.023,1.022-.022,1.41.333,1.52,1.316.149,1.332.523,2.641.642,3.975.261,2.943,2.1,4.694,4.526,5.871,7.2,3.5,14.752,5.1,22.792,3.881,4.774-.726,9.081-2.288,12.261-6.139a5.118,5.118,0,0,0,.462-6.358c-1.6-2.478-3.728-4.291-6.817-4.621-7.588-.809-15.186-1.535-22.764-2.43a22.625,22.625,0,0,1-15.772-8.487c-2.349-2.982-2.489-6.556-2.2-10.125a20.845,20.845,0,0,1,7.407-14.358,56.911,56.911,0,0,1,18.791-10.881c9.413-3.383,19.118-3.864,28.952-2.9,4.367.428,8.742.923,13.058,1.695,7.194,1.286,12.74,4.863,15.233,12.085a13.038,13.038,0,0,1-.2,8.219c-1.035,3.375-1.028,3.4-4.54,3.415-5.347.019-10.693-.014-16.039.008-1.015,0-1.539-.2-1.545-1.407a8.336,8.336,0,0,0-6.208-8.358,35.283,35.283,0,0,0-7-1.454,31.972,31.972,0,0,0-19.177,3.987,8.286,8.286,0,0,0-4.13,6.1,4.416,4.416,0,0,0,1.283,3.126c2.048,2.213,4.831,2.775,7.757,2.947,7.574.444,15.155.854,22.713,1.5a23.354,23.354,0,0,1,12.206,4.477c5.757,4.284,7.577,9.849,6.376,16.822-.95,5.515-4.233,9.322-8.181,12.808a60.089,60.089,0,0,1-29.18,14.354,84.8,84.8,0,0,1-25.645.607,41.779,41.779,0,0,1-14.325-4,24.4,24.4,0,0,1-10.5-9.939c-2.36-4.23-2.258-8.795-1.507-13.385.447-2.732.317-2.311,2.808-2.319,2.649-.009,5.3,0,7.945,0" transform="translate(-113.715 -36.962)" fill="#c1a668"/>
    <path id="Trazado_2964" data-name="Trazado 2964" d="M45.165,183.719l24.195-58.84c-.742-.073-1.257-.167-1.773-.167q-11.919-.016-23.838-.01c-1.614,0-1.731-.178-1.122-1.731,1.674-4.263,3.369-8.519,4.994-12.8.361-.951.959-1.087,1.845-1.086q24.138.022,48.277,0c7.444-.008,14.889-.062,22.333-.08a6.957,6.957,0,0,1,1.264.258c-.426,1.064-.788,1.975-1.155,2.885-1.621,4.018-3.265,8.026-4.852,12.057-.426,1.082-1.237,1.121-2.178,1.116-6.547-.027-13.094.014-19.64-.087a2.881,2.881,0,0,0-3.147,2.029c-4.248,9.831-8.621,19.609-12.917,29.42-2.956,6.752-5.851,13.53-8.78,20.292-.87,2.011-1.718,4.034-2.682,6a1.84,1.84,0,0,1-1.323.895c-6.2.066-12.393.055-18.59.053a5.221,5.221,0,0,1-.912-.2" transform="translate(-15.06 -38.818)" fill="#c1a668"/>
  </g>
</svg>
