<?xml version="1.0" encoding="UTF-8"?>
<svg id="Capa_1" xmlns="http://www.w3.org/2000/svg" viewBox="0 0 133 147">
  <defs>
    <style>
      .cls-1 {
        fill: none;
      }

      .cls-2 {
        fill: #1767a4;
      }

      .cls-3 {
        fill: #fff;
      }
    </style>
  </defs>
  <rect class="cls-1" width="133" height="147"/>
  <g id="Grupo_216">
    <path id="Trazado_1336" class="cls-2" d="M17.07,128.93c-.42-1.1-.77-2.24-1.02-3.39-.38-2.54.95-4.21,2.17-4.6,1.37-.38,1.9.31,2.43,1.9.68,2.43.76,5.62.53,10.19-.3,6.24-3.42,13.77-11.18,13.61-6.7-.15-9.66-4.48-9.97-11.1-.18-3.6.28-7.21,1.37-10.65.68-2.36,1.3-3.2,3.42-3.65,1.67-.31,1.52,1.44,1.14,3.5-.89,3.91-1.2,7.93-.91,11.94.3,5.48,2.81,7.61,5.55,7.61,4.11.08,5.93-3.34,6.69-8.29.6-3.95.15-5.85-.24-7.07M104.64,134.32c1.6,0,2.06,1.89,1.68,3.04-.71,1.55-2.18,2.62-3.88,2.82-.46-1.14-.69-5.85,2.2-5.85M74.91,136.9c0-1.29-.69-2.35-1.52-2.35-.69,0-2.28.76-2.28,3.19-.07,1.15.28,2.29.99,3.2,1.77-.52,2.93-2.2,2.81-4.04M51.25,121.39c-.1-1.21-1.15-2.12-2.36-2.05-1.66.18-2.85,1.68-2.67,3.33,0,.03,0,.06.01.08-.03,1.23.94,2.25,2.17,2.29.04,0,.08,0,.12,0,1.67,0,2.88-1.9,2.73-3.65M63.62,125.86c-.13-2.13-.65-3.09-1.79-3.01-1.51.09-2.21,4.86-1.9,9.87.2,3.27.68,3.77,1.14,3.74.84-.05,2.85-5.89,2.56-10.6M114.07,133.86c-.94,3.91-3.8,9.66-8.06,9.66-.99,0-2.74-.38-2.74-1.37,0-1.07,6.7-1.21,6.7-6.31,0-1.9-1.75-4.56-4.34-4.56-3.42,0-6.76,3.73-6.76,8.9,0,4.64,2.88,6.16,5.77,6.16,5.02,0,8.06-4.11,9.66-7.53.76,2.28,1.21,7.53,3.12,7.53.76,0,1.29-.38,2.21-2.43,2.28-5.1,4.49-10.96,7.53-10.96,1.14,0,.46,2.06,3.19,2.06,1.23-.01,2.21-1.02,2.2-2.24,0-.02,0-.03,0-.05,0-1.75-1.59-3.12-4.02-3.12-7.15,0-8.67,10.72-9.81,10.72-1.9,0-1.29-8.6-2.67-8.6-1.22,0-1.82,1.45-1.98,2.13M53.23,142.98c1.95-.03,3.73-1.12,4.64-2.84-.86-2.37-1.4-4.85-1.6-7.36-.45-7.37,2.39-14.31,5.5-14.5,2.28-.14,4.1,2.02,4.31,5.52.56,9.19-2.5,13.02-4.03,16.33.73,1.91,2.46,3.24,4.49,3.47.7,0,1.37-.24,1.9-.69-.21-.71-.31-1.46-.31-2.2,0-5.32,3.42-9.81,6.39-9.81,2.36,0,3.73,3.12,3.73,5.18,0,2.43-2.06,4.41-5.1,6.31.65.58,1.49.9,2.36.91,4.34,0,6.61-5.25,8.29-10.04.3-.91.84-2.21,1.9-2.21,1.82,0,2.59,12.02,5.62,12.02,1.3,0,2.36-2.66,2.36-4.71,0-1.52-.53-1.68-.53-3.88,0-2.43,1.29-4.48,3.05-4.48,1.06,0,1.45,1.06,1.45,2.35,0,4.87-3.5,13.92-8.67,13.92-3.89,0-3.58-6.69-4.95-6.69-1.53,0-3.66,6.77-11.18,6.77-1.4-.06-2.7-.73-3.57-1.83-1.47,1.11-3.26,1.72-5.1,1.75-2.81,0-4.03-2.89-5.17-2.89-1.37,0-2.89,2.97-7.46,2.97-3.65,0-4.26-4.86-5.55-4.86-1.14,0-2.89,4.86-4.79,4.86-3.2,0-3.88-8.44-6.7-8.44-2.2,0-9.17,8.57-11.06,8.38-.76-.08-1.08-.65-1-1.41.37-1.76.83-3.49,1.38-5.2.61-2.31,1.18-4.85,1.49-5.66.28-.78,1.01-1.31,1.84-1.34.34.03.44.67.55,1.2.38,1.88.92,3.8,1.53,3.8,1.07,0,4.6-6.77,6.65-6.77,2.51,0,2.81,10.65,6.24,10.65,1.14,0,1.98-1.37,2.74-3.04.08-2.82.84-6.84,3.12-6.84,1.6,0,2.36,3.57,1.22,6.69,0,3.72,2.43,4.64,4.03,4.64"/>
    <path id="Trazado_1337" class="cls-3" d="M108.4,23.73c-.73.12-1.46-.23-1.82-.89-.37-.73-.24-1.9-.93-2.42.65.16,1.31.23,1.98.2,1.82,0,3.56-1.25,4.89-1.25.57-.07,1.09.34,1.16.92,0,.07,0,.14,0,.21,0,1.78-3.59,3.23-5.28,3.23M109.29,28.28c4.19,0,8.03-3.35,8.03-6.3.14-1.35-.85-2.56-2.2-2.69-.03,0-.07,0-.1,0,.3.36.44.82.4,1.29,0,2.22-3.38,4.68-7.06,4.68-.85-.11-1.62.49-1.73,1.33,0,.03,0,.05,0,.08,0,1.13,1.09,1.61,2.66,1.61M108.97,29.99c.53,3.83,6.33,9,7.91,8.88,1.05-.09,1.46-5,1.46-8.88,0-2.22.12-3.95-1.05-4.36-1.86,3.76-6.74,4.52-8.31,4.36"/>
    <path id="Trazado_1338" class="cls-3" d="M18.13,55.37c1.37,0,1.09-8.4,3.31-8.4.53,0,.69.53.69,1.17,0,1.9-.93,4.68-.93,6.21,0,.77.2,1.01.57,1.01.97,0,2.66-9.24,4.32-9.24.52,0,.77.53.77,1.05,0,1.94-2.46,7.51-2.46,9.08,0,.24.08.44.28.44,1.01,0,3.03-4.36,3.67-6.54.36-1.13.85-1.74,1.29-1.74.4,0,.77.44.77,1.37,0,2.18-2.02,7.3-3.8,10.74-1.37,2.66-3.51,6.49-3.51,8.63-.04,1.42.62,2.76,1.77,3.59-2.58-.16-3.63-.4-4.6-2.42-4.32,8.6,7.95,7.75,3.75,15.37-.77-1.37-6.82-2.78-6.82-10.77,0-6.9,6.05-10.94,6.05-13.8,0-.58-.26-1.14-.73-1.49-1.33-1.13-1.37-2.06-2.42-2.06-.76,0-1.7,1.77-.73,3.35.32.53.61.85.61,1.33,0,1.13-1.78,4.15-3.03,4.15s-2.22-3.1-2.22-8.11c0-4.44,1.01-8.92,2.26-8.92.36,0,.48.24.48.57,0,.53-.16,1.57-.16,3.35,0,1.9.44,2.06.81,2.06"/>
    <path id="Trazado_1339" class="cls-3" d="M28.42,67.19c1.7,0,3.11-1.25,3.11-4.03v-4.12c-.15-1.62.26-3.25,1.17-4.6-.1.53-.14,1.07-.12,1.62,0,3.47,1.94,5.85,1.94,9.2,0,1.25-.36,1.94-1.33,1.94s-.85-.85-1.05-.85c-.16,0-.4.52-.4,1.09,0,1.2.98,2.18,2.18,2.18.04,0,.08,0,.12,0,1.49-.08,2.65-1.33,2.62-2.82,0-3.63-2.82-7.67-2.82-11.54,0-1.28.28-2.55.81-3.71,0,8.03,6.82,13.88,6.82,17.23.02.74-.57,1.36-1.32,1.38-.03,0-.06,0-.09,0-.73.03-1.34-.53-1.37-1.26,0-.01,0-.02,0-.03,0-.28-.04-.36-.16-.36-.64.4-1.01,1.11-.97,1.86.04,1.67,1.43,2.99,3.09,2.95,0,0,0,0,.01,0,1.97-.01,3.56-1.62,3.55-3.6,0-.03,0-.05,0-.08,0-4.24-8.27-10.65-8.27-17.51-.03-1.57.33-3.12,1.05-4.52-5.33,3.43-6.98,7.99-6.98,11.98,0,3.47-.12,5.2-1.9,5.2-.93,0-1.17-.85-1.5-.85-.24,0-.36.72-.36.93-.07,1.22.86,2.27,2.08,2.34.03,0,.06,0,.1,0"/>
    <path id="Trazado_1340" class="cls-3" d="M89.56,21.75c.51-.34,2.79.2,5.73-1.25.32-.18.68-.28,1.05-.28,1.41,0,1.05,1.61,2.34,1.61,1.01,0,2.3-.85,3.07-.85,1.2,0,2.94,3.79,2.94,5.57,0,2.06-3.1,3.31-6.78,3.31-5.36,0-8.6-4.68-8.6-7.71,0-.17.09-.33.24-.4M98.36,26.88c1.78,0,3.11-.81,3.11-1.29,0-.16-.24-.28-.77-.28-1.19-.02-2.38-.15-3.55-.36-1.7-.28-2.99-.93-3.47-.93-.16,0-.24.08-.24.2,0,1.05,1.94,2.66,4.93,2.66"/>
    <path id="Trazado_1341" class="cls-3" d="M29.27,82.4c-1.33.32-3.47,2.42-3.47,5.73,0,3.95,4.24,10.05,11.22,10.05,5.89,0,7.35-4.08,7.35-6.82,0-6.09-3.75-10.37-8.63-10.37-2.69-.1-4.94,2-5.04,4.69,0,.04,0,.08,0,.11.01,3.69,3.01,6.67,6.7,6.66.04,0,.08,0,.12,0,1.87.11,3.48-1.33,3.59-3.2,0-.09,0-.18,0-.26,0-1.82-1.65-4.32-4.08-4.32-.65-.04-1.21.46-1.25,1.11,0,.05,0,.09,0,.14,0,.97,1.33,1.94,2.99,1.94.3,0,.61-.05.89-.16.08.15.12.32.12.49,0,.93-.89,1.5-2.26,1.5-2.18.05-3.99-1.68-4.04-3.86,0-.03,0-.06,0-.1,0-1.45,1.25-2.5,3.07-2.5,3.59,0,5.73,3.19,5.73,6.38,0,2.86-1.57,4.52-4.8,4.52-6.46,0-9.6-5.81-8.19-11.71"/>
    <path id="Trazado_1342" class="cls-3" d="M75.34,106.05c.82,0,1.63-.05,2.44-.16.6,0,.65.36.65.61,0,.89-1.98,1.98-5.49,1.98-1.6.15-3.11-.79-3.67-2.3-2.43,1.54-5.23,2.39-8.11,2.46-8.27,0-10.37-3.59-12.95-4.76-1.98-.89-5,.85-9.24-3.87.64.12,1.29.17,1.94.16,3.71,0,5.69-1.81,5.69-4.72,0-.38-.03-.75-.08-1.13,2.28,1.14,3.89,3.29,4.32,5.81.08.4,1.73.77,2.78.77,1.81.18,3.41-1.14,3.59-2.95,0-.01,0-.02,0-.04,4.84-.4,8.11-3.27,8.8-6.9,1.64.58,3.09,1.6,4.19,2.95.78-.26,1.6-.38,2.42-.36,1.52.03,3.03.29,4.48.77.08-.53.16-1.17.97-1.17,1.21,0,.89,1.33,1.29,2.09.2.4,1.21.65,1.21,1.45,0,.57-.45,1.04-1.02,1.05-.01,0-.02,0-.03,0-.16,0-.33-.03-.49-.08-.81.28-.85,6.09-4.24,6.09-2.5,0-4.8-2.06-5.81-4.64-.19-.67-.76-1.17-1.45-1.25-.64,0-1.01.12-1.77.97-2.67,2.84-6.39,4.45-10.29,4.44-1.37,0-2.46-.12-2.75-.12-.16,0-.16.04-.16.08,0,.28,1.37,1.37,4.36,1.37,7.1,0,8.84-4,9.97-4,.42-.02.8.25.93.65,1.3,2.98,4.28,4.87,7.53,4.76M72.21,97.98c0,.89.73,1.61,1.62,1.61.89,0,1.61-.73,1.61-1.62,0-.89-.72-1.61-1.61-1.61-.89,0-1.61.73-1.62,1.62"/>
    <path id="Trazado_1343" class="cls-3" d="M104.17,77.84c-.57,0-1.17.44-1.17,1.54.03.95.59,1.81,1.45,2.22.36.2.76.31,1.17.32,1.17,0,2.1-.32,2.1-1.29,0-1.25-1.82-2.78-3.55-2.78M99.81,80.34c-.85,0-5.54,6.25-8.56,6.25-.73,0-1.33-1.37-1.33-2.42,0-.57.36-.97,1.66-1.25,6.94-1.57,5.4-6.78,11.33-6.78,3.27,0,6.91,2.22,6.91,7.22,0,5.33-7.58,11.94-8.71,11.94-.93,0-1.94-1.33-1.94-2.22,0-.28.12-.65.93-.97,3.87-1.54,6.09-5.09,6.09-6.9.05-.39-.23-.75-.62-.8-.03,0-.07,0-.1,0-.68,0-3.62,6.7-6.9,6.7-2.26,0-4.57-2.05-4.57-3.02,0-1.62,6.54-4.6,6.54-6.86,0-.85-.4-.89-.73-.89"/>
    <path id="Trazado_1344" class="cls-3" d="M19.95,27.44c-.77.54-1.68.85-2.62.89-1.67.04-3.07-1.28-3.11-2.96,0-.05,0-.1,0-.15-.01-1.4.84-2.67,2.14-3.19-.03.23-.05.46-.04.69-.07,2.24,1.45,4.22,3.63,4.72M28.59,35.19c-1.11,1.3-1.75,2.93-1.82,4.64,0,2.18,1.33,3.99,3.39,3.99s2.9-1.69,2.9-3.43c0-2.7-2.46-4.6-4.48-5.2M15.19,36.8c-.23.37-.12.86.25,1.09.12.07.26.12.4.12.32,0,.52-.08.69-.08.97,0,2.06.69,3.63.69,1.19-.06,2.35-.39,3.39-.97,2.1-1.22,3.57-3.27,4.04-5.65,0-.77-.62-.67-1.13-1.37s-.32-1.33-.65-1.65c-.19-.19-.76-.2-1.49-.28-.24-.03-.57-.04-.89-.04-1.66-.05-3.29.4-4.68,1.29-3.5,2.23-2.98,5.93-3.55,6.86M24.67,31.81c.28.38,1.05.85,1.05,1.13,0,.56-.33,1.29-.97,1.29-1.41,0-2.54-2.14-2.54-3.35,0-.76.44-.85,1.05-.85.21-.01.42.04.6.16.36.2.36,1.01.81,1.61M20.95,36.73c-1.33,0-2.78-1.65-2.78-3.15,0-.81.61-1.82,1.05-1.82.16,0,.24.12.28.4.2,1.62,1.25,3.02,2.75,3.66.12.08.2.12.2.2,0,.28-.77.69-1.49.69M24.39,26.55c.24-.76.36-1.55.36-2.34,0-1.94-.89-4.88-3.63-4.88-1.49,0-2.69,1.19-2.7,2.68,0,.02,0,.04,0,.07,0,3.19,3.19,4.48,5.98,4.48M13.94,42.69c0,3.07.93,4.52,2.58,4.52,1.29,0,3.03-.93,5.08-2.7-1.27.34-2.56.55-3.87.61-1.45,0-2.58-.57-3.79-2.42M15.35,39.11c-.03.2-.05.4-.04.6,0,1.9,1.01,2.95,2.34,2.95,1.31-.12,2.5-.84,3.23-1.94-.48.08-.97.12-1.45.12-1.56.11-3.08-.53-4.07-1.73M25.24,38.54c-.93.24-2.87,1.37-2.87,3.39,0,1.31,1.05,2.38,2.37,2.39.06,0,.12,0,.18,0,.55.04,1.1-.1,1.57-.4-.99-.9-1.54-2.17-1.53-3.51-.01-.63.08-1.26.28-1.86M26.69,27.48c0,.89.72,1.61,1.62,1.61.89,0,1.61-.72,1.61-1.62,0-.89-.72-1.61-1.61-1.61-.89,0-1.61.73-1.61,1.62M28.79,31.11c0,.89.72,1.62,1.61,1.62.89,0,1.62-.72,1.62-1.61s-.72-1.62-1.61-1.62h0c-.89,0-1.61.72-1.62,1.61"/>
    <path id="Trazado_1345" class="cls-3" d="M91.75,50.93c.03-.86.75-1.53,1.61-1.49.81.03,1.47.68,1.49,1.49,0,.86-.69,1.55-1.55,1.55-.86,0-1.55-.69-1.55-1.55h0M77.58,38.5c0,.89.72,1.62,1.61,1.62s1.62-.72,1.62-1.61-.72-1.62-1.61-1.62c0,0,0,0,0,0-.89,0-1.61.72-1.61,1.61M76.21,44.19c0,1.27,1.03,2.3,2.3,2.3s2.3-1.03,2.3-2.3-1.03-2.3-2.3-2.3c-1.27.01-2.29,1.03-2.3,2.3M81.29,41.6c0,1.36,1.1,2.46,2.46,2.46s2.46-1.1,2.46-2.46c0-1.36-1.1-2.46-2.46-2.46,0,0,0,0,0,0-1.35,0-2.45,1.08-2.46,2.43,0,.01,0,.02,0,.03M81.49,36.36c0,.84.69,1.53,1.53,1.53.84,0,1.53-.69,1.53-1.53,0-.84-.69-1.53-1.53-1.53,0,0,0,0,0,0-.84,0-1.52.69-1.53,1.53M88.79,32.49c0,.85.69,1.54,1.53,1.54.85,0,1.54-.69,1.54-1.53s-.69-1.54-1.53-1.54h0c-.85,0-1.53.68-1.54,1.53h0M85.76,37.45c0,1.43,1.16,2.59,2.58,2.59,1.43,0,2.59-1.16,2.59-2.58,0-1.43-1.16-2.59-2.58-2.59h0c-1.42,0-2.58,1.16-2.58,2.58M81.61,46.89c0,.89.72,1.61,1.62,1.61.89,0,1.61-.72,1.61-1.62,0-.89-.72-1.61-1.62-1.61,0,0,0,0,0,0-.89,0-1.61.73-1.61,1.62M86.89,43.66c0,.89.72,1.62,1.61,1.62.89,0,1.62-.72,1.62-1.61,0-.89-.72-1.62-1.61-1.62,0,0,0,0,0,0-.89,0-1.61.72-1.62,1.61M85.41,49.35c0,1.54,1.25,2.79,2.78,2.79,1.54,0,2.79-1.25,2.79-2.78,0-1.54-1.25-2.79-2.78-2.79h0c-1.54,0-2.78,1.25-2.79,2.78M91.22,45.92c0,1.05.85,1.89,1.9,1.89,1.05,0,1.89-.85,1.89-1.9,0-1.05-.85-1.89-1.9-1.89h0c-1.04,0-1.89.85-1.89,1.9M91.1,40.84c0,.94.76,1.69,1.69,1.69.94,0,1.69-.76,1.69-1.69s-.76-1.69-1.69-1.69c0,0,0,0,0,0-.93,0-1.68.76-1.69,1.69"/>
    <path id="Trazado_1346" class="cls-3" d="M95.21,93.78c-2.15,1.73-4.83,2.65-7.58,2.62-1.19-.02-2.37-.25-3.47-.69-.4,0-.85.4-1.29.93-1.34,1.54-2.12,3.49-2.21,5.53.04,1.83,1.55,3.27,3.38,3.24.07,0,.14,0,.21-.01,7.55,0,13.2-4.72,13.2-8.55,0-2.18-1.29-3.07-2.22-3.07M93.11,93.34c.3-.31.44-.74.4-1.17v-.93c0-1.17-1.77-1.86-4.19-1.86-2.95,0-4.52,1.33-4.52,1.9v1.86c0,.77,1.78,1.54,3.96,1.54,1.56.07,3.1-.4,4.36-1.34M92.79,97.34c.2,0,.44.12.44.85-.05,1.25-.75,2.38-1.85,2.98-1.3.86-2.84,1.31-4.4,1.29.34-.94.53-1.94.57-2.94,0-.31-.04-.62-.08-.93h.53c1.68.04,3.35-.4,4.8-1.25"/>
    <path id="Trazado_1347" class="cls-3" d="M77.37,48.02c.44,3.43,5.05,1.69,5.05,5.85,0,.61-.16,1.5-.16,2.26,0,.89.08,1.65.76,1.65s.85-.48.85-1.13-.16-1.45-.16-1.9c-.1-.86.52-1.63,1.38-1.73.08,0,.16-.01.24,0,1.53,0,2.7,1.57,5.01,1.57-.53,2.58-5.86,1.9-5.86,4.72,0,1.41,1.41,1.73,2.34,1.73.85,0,1.13-.12,1.13-.85,0-.4-.08-.85-.08-1.13,0-.18.14-.32.31-.32,0,0,0,0,.01,0,.89,0,5.24,3.31,5.24,4.32,0,.93-4.6,1.86-5.93,1.86-.24.03-.45-.14-.48-.37,0-.02,0-.05,0-.07,0-.28.69-1.13.69-1.61,0-.36-.6-.61-2.22-.61-.77,0-1.33.08-1.33.69,0,1.09,1.78,2.42,1.78,3.43,0,.81-.48,1.29-1.78,1.29-1.09,0-2.74-.85-2.74-2.26,0-1.13,1.17-2.26,1.17-2.95-.02-.31-.28-.55-.59-.53-.02,0-.03,0-.05,0-1.5,0-1.9,3.95-7.19,4.4,1.03-.8,1.62-2.04,1.57-3.35,0-.85-.2-1.54-.2-2.46,0-1.21.56-1.82,1.37-1.82,1.49,0,2.22,2.1,3.19,2.1.63-.04,1.12-.58,1.09-1.21,0-3.07-5.89-2.62-5.89-6.94.11-1.65.62-3.24,1.49-4.64M96.62,59.85c0,1.01.33,2.18,1.33,2.18.85,0,1.57-1.29,1.57-2.7,0-1.61-.28-2.87-.28-3.51,0-.28.12-.4.28-.4.61.04,1.17,1.69,1.82,1.69.73,0,1.81-1.33,2.25-1.33.12,0,.16.16.16.2,0,.61-.93,1.94-.93,2.46,0,.44,2.34.52,2.34.93,0,.61-2.46.61-3.62,1.13-1.13.48-1.82,1.09-1.82,1.9s.81.97,1.94.97c2.7,0,4.59-1.45,5.2-1.45.1,0,.19.07.2.18,0,0,0,.02,0,.02,0,.4-1.37,1.74-1.37,2.34,0,.68,2.5,1.49,2.46,1.89-.04.12-.2.16-.48.16-.45,0-1.13-.12-1.66-.12-.26-.04-.52.03-.73.2-.28.32.08,2.46-.48,2.46-.53,0-1.9-4.76-5-4.76-.44,0-.77.36-.77.97,0,1.61,1.57,3.47,3.07,4.36.68.44,1.81.89,1.81,1.13,0,.48-2.58.04-2.58.85,0,.73.32,1.82.32,2.46,0,.2-.04.44-.28.44-.48,0-1.66-2.22-2.22-2.22-.49,0-1.54,1.33-1.98,1.33-.12-.01-.21-.12-.2-.24,0-.93,1.5-3.03,1.5-5.09,0-.97-.12-3.07-1.29-3.07-.97,0-2.06,1.53-2.54,3.07-.28.89-.08,4.32-.73,4.32-.6,0-.44-2.3-1.25-2.3-.6,0-1.89,1.09-2.33,1.09-.08,0-.16-.04-.16-.12,0-.48,1.17-2.06,1.17-2.38,0-.6-2.67-.68-2.67-1.17,0-.28,1.05-.49,2.02-.65,2.05-.36,5.08-1.86,5.08-3.95,0-2.34-2.26-3.35-3.75-4.32-.77-.49-1.62-.89-1.62-1.21s.97-.32,1.37-.32c.6,0,1.2-.04,1.2-.52,0-.36-.08-1.09-.08-1.65,0-.4.04-.73.2-.73.6,0,1.45,1.98,1.86,1.98.64,0,1.53-1.61,2.14-1.61.2,0,.28.12.28.49,0,1.49-.77,3.19-.77,4.64"/>
    <path id="Trazado_1348" class="cls-3" d="M78.54,71.02c1.86.24,2.3.89,2.3,1.41,0,.89-.81,1.17-1.58,1.17-.56,0-1.21-.12-1.9-.12-.95-.06-1.88.33-2.5,1.05.68.04,1.23.57,1.29,1.25,0,2.34-6.5.4-6.5,6.42,0,3.19,3.31,6.66,8.31,6.66,2.59,0,4.24-.85,4.24-1.82,0-.76-1.37-.24-1.37-.89,0-.28.48-.81.48-1.25,0-.19-.16-.56-.48-.56-.73,0-2.1,1.17-4.89,1.17-2.18,0-4.32-1.25-4.32-2.94,0-.36.16-.57.4-.57s.56.16.85.16c.24,0,.28-.16.28-.6s0-1.7.76-1.7,2.22,2.82,7.79,2.82c1.85,0,5.44-.36,6.78-1.57-.11,5.79-4.89,10.4-10.69,10.29-.03,0-.06,0-.09,0-6.29.1-11.47-4.91-11.57-11.2,0-.14,0-.28,0-.42.06-6.55,5.4-11.82,11.95-11.78,1.77,0,3.27.6,3.27,1.37,0,1.05-2.62.4-2.83,1.65M90.94,73.16c.25.38.39.83.4,1.29,0,1.13-.77,2.18-.77,3.35,0,1.33,1.06,2.41,2.39,2.42.05,0,.1,0,.15,0,1.54,0,2.79-1.25,2.79-2.79,0-.04,0-.07,0-.11,0-2.14-1.94-3.96-4.96-4.15M77.58,75.74c.34.31.53.75.53,1.21,0,.61-.28,1.25-.28,1.94-.02.98.75,1.79,1.73,1.81.01,0,.03,0,.04,0,1.04.01,1.89-.82,1.9-1.86,0-.02,0-.05,0-.07,0-1.53-1.58-3.03-3.92-3.03M82.94,68.88c4.24.81,6.54,4,6.54,6.98,0,2.06-1.29,3.95-3.55,3.95-1.89.07-3.47-1.39-3.55-3.28,0-.13,0-.26,0-.39,0-1.69,1.32-3.47,1.32-5.21,0-.76-.27-1.49-.76-2.06M85.04,74.25c-.02.53.39.98.92,1.01.02,0,.03,0,.05,0,.61-.03,1.08-.55,1.05-1.17,0-.01,0-.03,0-.04,0-.85-.77-2.02-1.5-2.02-.32,0-.2.49-.28,1.01-.04.4-.24.89-.24,1.21"/>
    <path id="Trazado_1349" class="cls-3" d="M40.49,32.73c1.37,0,2.94-7.43,2.94-8.68,0-.32-.12-.57-.4-.57-1.25,0-2.99,7.06-2.99,8.64,0,.28.08.6.44.6M50.38,34.94c1.01,0,2.14-3.88,2.14-6.3,0-.53-.08-1.09-.32-1.09-.85,0-2.26,3.99-2.26,6.17,0,.85.2,1.21.45,1.21M43.8,31.36c.44,0,1.01-.49,2.06-1.65.07-.54.09-1.08.08-1.62,0-.81-.32-1.69-.81-1.69-1.21,0-1.82,3.23-1.82,4.08,0,.48.24.89.48.89M49.33,29.7c0-.69-.16-.85-.32-.85-.4,0-.85.49-1.49,1.58.08,1.45.32,2.1.73,2.1.44,0,1.09-1.41,1.09-2.82M52.44,24.94c2.66,0,3.87,2.3,3.87,4.88,0,1.13-.32,2.78-.85,2.78s-.44-.93-.53-1.78c-.08-1.09-.28-1.33-.65-1.33-.69,0-1.13,1.61-1.13,3.11,0,.93.16,1.98.89,1.98.38-.01.74-.17,1.01-.44-.07,1.89-1.59,3.4-3.47,3.47-3.55,0-4.88-4.16-5.28-6.58-2.14,2.26-4.12,3.92-7.67,3.92-2.5.14-4.65-1.77-4.8-4.27,0-.15,0-.3,0-.45,0-.69.24-2.46,1.09-2.46,1.01,0,.12,3.31,2.1,3.31.49,0,1.37-.4,1.86-1.73.28-.76.43-1.57.44-2.38,0-1.09-.24-1.77-1.05-1.77-.68.07-1.31.35-1.82.81.75-2.62,3.16-4.42,5.89-4.4,3.19,0,4.88,2.82,4.88,5.97,0,.46-.04.92-.12,1.37,1.37-2.26,3.27-3.99,5.33-3.99"/>
    <path id="Trazado_1350" class="cls-3" d="M44.89,35.79c-1.74,0-1.81,2.1-1.81,6.34-1.29-2.78-3.43-5.77-5.93-5.77-1.69,0-2.34,1.13-2.34,3.11,0,.46.04.92.12,1.37.26-.67.94-1.07,1.65-.97,1.74,0,3.83,1.33,5.21,3.15-1.45-.31-2.92-.5-4.4-.57-.73-.03-1.46.09-2.14.36-1.76.98-2.82,2.87-2.74,4.88,0,.45.04.89.12,1.33,1.42-3.15,5.17-4.56,7.59-4.56.38,0,.76.03,1.13.08-1.25,1.13-1.53,3.11-1.62,4.44-.04.65-.28.69-.73.69,0,1.33,1.05,3.31,1.05,4.32.02.31-.14.6-.4.77,0,1.78,1.77,3.07,1.77,4.2.02.23-.06.46-.2.65.12.73,2.08,1.95,2.33,2.56.31.74.66.87.86.87.69,0,1.77-.81,1.77-1.54-.03-.25-.16-.49-.36-.65-.71-.72-1.23-1.61-1.5-2.58-.37.02-.7-.24-.78-.6-.22-.84-.23-2.39-.56-3.32-.53-.12-.77-.32-.77-1.41,0-.53.32-2.58.32-3.31-.32,0-.57-.26-.57-.58,0-.02,0-.05,0-.07,0-1.29,1.29-2.3,1.65-3.95,2.3,1.69,2.86,3.43,2.86,4.96,0,.77-.1,1.55-.28,2.3,1.69-.85,4.24-2.1,4.24-4.64,0-1.5-.69-3.15-5.25-3.79,1.5-.53,3.09-.8,4.68-.81,2.58,0,4.08.81,4.4,2.62.54-.76.86-1.65.93-2.58,0-1.98-1.66-3.27-3.75-3.27-2.46,0-4.64,1.29-6.98,2.87,1.05-2.18,1.77-3.47,3.07-3.47.2,0,.41.03.61.08-.49-1.77-2.3-3.51-3.27-3.51"/>
    <path id="Trazado_1351" class="cls-3" d="M112.88,64.89c2.02,0,3.63,2.62,3.63,5.69-.07,3.54-1.62,6.89-4.27,9.24-.04-5.45-6.71-3.71-6.71-7.67-.08-1.48,1.05-2.74,2.53-2.82.05,0,.09,0,.14,0,1.12-.07,2.21.33,3.03,1.09-.7-.68-1.09-1.61-1.09-2.58-.11-1.51,1.02-2.83,2.53-2.94.07,0,.14,0,.21,0"/>
    <path id="Trazado_1352" class="cls-3" d="M76.85,26.55c.79.9,1.92,1.42,3.11,1.45.45,0,.97-.12,1.26-.12.36,0,.6.16.6.44-.09.62-.41,1.18-.89,1.58.5.2,1.04.29,1.57.28,2.62.1,4.83-1.94,4.93-4.56,0-.17,0-.35,0-.52.47.78.74,1.67.77,2.58,0,4.4-3.23,6.09-6.21,6.09-1.08-.02-2.15-.24-3.15-.65-.76,0-.72,1.54-1.25,1.49-.93-.16-1.77-2.22-1.77-4.4-.03-1.3.34-2.58,1.05-3.67M82.94,23.61c-.57-.53-1.32-.82-2.09-.81-1.5-.04-2.83.94-3.23,2.38-.18-.44-.27-.9-.28-1.37-.04-2.15,1.68-3.93,3.84-3.96.11,0,.22,0,.33,0,2.58,0,3.58,1.37,3.95,1.37.4,0,.81-.4,1.13-.4.44,0,.44.69.44,1.17,0,1.61-.73,4.4-2.54,5.41-.42-.86-1.14-1.55-2.01-1.94-.24-.1-.4-.34-.4-.6.07-.54.4-1.01.88-1.25"/>
    <path id="Trazado_1353" class="cls-3" d="M48.8,14.81c0,1.41,5.04,8.31,6.01,8.31.81,0,1.41-1.41,1.41-2.62,0-.31-.08-.62-.24-.89-.73-1.01-5.85-5.05-6.98-5.05-.12.01-.21.12-.2.24M19.14,10.65c0,.81-3.07,3.51-4.15,3.51-.4,0-.53-.48-.53-.93,0-.84.28-1.65.81-2.3.79-.51,1.72-.77,2.66-.72.57,0,1.21.12,1.21.44M55.99,12.99c0-2.42-6.55-6.82-6.62-8.72,0-.19.09-.37.23-.5,1.12-1.18,5.78-2.04,5.78-3.05,0-.52-.97-.52-1.45-.52-3.75,0-9.24,1.37-9.24,2.7s4.92,4.72,4.92,6.38c0,.44-.28.6-.73.6-1.37,0-4.36-1.66-5.77-1.66-.65,0-.89.44-.89,1.09,0,1.94,2.3,5.61,2.3,6.69,0,.12-.04.28-.2.28-.73,0-4.15-4.03-5.37-4.03-.44,0-.49.6-.49,1.49v1.37c0,.93-.04,1.49-.48,1.49-1.05,0-1.53-2.94-2.54-2.94s-1.25,5.24-2.26,5.24c-1.17,0-.16-5.77-1.29-5.77-1.25,0-2.66,3.83-3.55,3.83-.32,0-.4-.32-.4-.61,0-1.17.68-3.07.68-4.2,0-.57-.16-.89-.64-.89-1.25,0-4,2.02-5.05,2.02-.16,0-.36-.08-.36-.24,0-.97,4.4-4.03,4.4-5.41s-6.06-.44-6.06-1.98c0-1.29,4.32-2.62,4.32-3.95C25.25.55,20.12.03,18.15.03c-2.38,0-3.67.28-3.67.97,0,1.05,5.41,1.37,5.41,2.3s-5.61,3.27-5.61,4.64c0,1.21,7.91.08,7.91,1.33,0,1.37-6.9,7.3-6.9,9.28,0,.44.32.65.76.65,2.1,0,7.54-3.99,9.04-3.99.52,0,.57.64.57,1.21,0,1.05-.36,2.66-.36,3.84,0,.93.24,1.57,1.05,1.57,1.5,0,2.86-2.54,3.88-2.54,1.29,0,.52,7.47,2.46,7.47,1.65,0,2.34-8.07,3.39-8.07s1.9,2.34,2.87,2.34c1.21,0,.64-4.07,1.94-4.07,1.41,0,5.45,4.84,7.26,4.84.56,0,.76-.44.76-1.01,0-2.14-2.99-6.98-2.99-8.51,0-.4.12-.52.56-.52,1.57,0,6.18,2.18,8.35,2.18.73,0,1.17-.4,1.17-.93M51.8,4.99c0,.73,2.54,2.3,3.71,2.3.69,0,.89-.93.89-1.9,0-1.21-.52-1.25-1.57-1.25-1.33,0-3.03.36-3.03.85M42.31.89c0-.24-1.21-.49-2.86-.49-2.62,0-2.26,2.18-4.28,2.18s-1.58-2.26-4.24-2.26c-1.61,0-3.1.28-3.1.65,0,.49,1.9.28,1.9,1.62,0,1.41-4.08,1.81-4.08,2.66,0,.28.32.4.73.4.89,0,2.3-.4,3.31-.4.57,0,1.09.12,1.09.64,0,1.01-2.18,2.83-2.18,3.63,0,.24.2.32.4.32.81,0,2.18-2.06,3.47-2.06,2.14,0,.73,4.56,1.9,4.56s.69-4.48,2.42-4.48c1.42,0,2.46,3.11,3.43,3.11.25,0,.45-.22.44-.47,0,0,0,0,0-.01,0-.85-1.21-2.58-1.21-3.71,0-.69.49-1.01,1.13-1.01.93,0,2.18.57,2.86.57.24,0,.48-.08.48-.36,0-.97-3.59-2.02-3.59-3.27s1.97-1.26,1.97-1.82"/>
    <path id="Trazado_1354" class="cls-3" d="M113.85,7.43c0,3.59-2.62,6.33-7.34,7.1.53.04,1.01.04,1.5.04,5.52,0,7.54-2.5,7.54-4.6.06-1.13-.64-2.16-1.7-2.54M107.03,11.5c0-2.86-6.86-3.59-6.86-4.24,0-.52,3.83-1.41,5.81-1.45-3.03-3.87-7.34-3.47-7.34-4.16,0-.4,3.23-1.21,6.21-1.21,2.5,0,4.84.57,4.84,2.46,0,1.05-.85,2.14-.85,3.75-.09.82.49,1.56,1.31,1.65.1.01.2.01.3,0,1.26,0,1.53-1.33,1.53-2.75,0-1.17-.2-2.06-.2-2.62-.08-1.48,1.06-2.74,2.54-2.82.09,0,.19,0,.28,0,1.37,0,1.7.6,3.72.6-.85.51-1.41,1.39-1.49,2.38,0,1.7,1.09,2.87,1.09,6.34,0,6.37-5.97,8.63-13.28,8.63-2.09,0-4.18-.17-6.25-.48-.32-.04-.4-.12-.4-.32,0-.52,2.87-.81,2.87-3.39-.06-.79-.17-1.57-.32-2.34,0-.18.14-.32.31-.32,0,0,0,0,.01,0,.6,0,1.82,2.34,4.07,2.34,1.06.1,2-.67,2.1-1.73.01-.11.01-.22,0-.33M113.62,2.58c0,.56.45,1.01,1.01,1.01.56,0,1.01-.45,1.01-1.01,0-.56-.45-1.01-1.01-1.01,0,0,0,0,0,0-.55,0-1,.44-1.01.99,0,0,0,.01,0,.02"/>
    <path id="Trazado_1355" class="cls-3" d="M110.02,39.87c0-.85-2.14-.93-2.34-3.31-.04-.36-.16-1.01-.61-1.01-.73,0-.16,2.22-.97,2.22-1.86,0-2.46-3.63-3.15-3.63-.16,0-.36.12-.36.6,0,.44.08.73.08,1.25s-.12.89-.61.89c-1.09,0-2.06-2.54-2.99-2.54-.2-.02-.38.12-.4.32,0,.49.81,1.37.81,1.81,0,.97-2.62.44-2.62,1.25,0,.36.36.48.85.48.85,0,2.18-.36,2.87-.36.4,0,1.01.08,1.01.6,0,.57-1.45,1.29-1.45,1.82.02.22.22.39.44.36,0,0,0,0,0,0,1.09,0,3.02-1.9,4.39-1.9.24,0,.85.12.85.49,0,.52-1.37,1.45-1.37,2.22-.02.22.14.42.36.44.72,0,1.69-1.9,3.07-1.9.52,0,1.29.2,1.7.2.32,0,.44-.2.44-.32M111.07,59.43c.68-1.98,1.62-3.87,2.78-5.61-1.32-.68-4.84-2.14-4.84-4.52,0-2.78,3.47-4.96,4.19-4.96.32,0,.4.28.4.81,0,1.45-.69,3.79-.69,5.04,0,1.13.73,2.22,1.37,2.22.69,0,2.58-2.42,2.58-4.8.08-2.86-2.07-5.3-4.92-5.57-1.09,0-3.07,1.77-7.71,1.77-8.67,0-10.65-8.59-10.65-12.35,0-.16.04-.2.08-.2,1.12.76,2.45,1.13,3.8,1.05,1.41,0,2.71-.37,4.77-.37,4.83,0,6.98,3.35,9.96,7.63,1.81,1.13,6.13,2.95,6.13,8.07,0,4.52-4.81,7.02-5.97,11.86,1.85-.2,2.94-3.51,4.84-3.51.97,0,1.41.77,1.41,1.98-.13,2.34-1.19,4.54-2.95,6.09.04-.2.05-.4.04-.61,0-1.13-.44-2.74-1.74-2.74-2.01,0-2.66,2.18-3.79,3.99-1.17-4.11-2.75-7.83-5.57-10.09-2.86-2.3-7.79-1.05-7.79-5.24,0-1.13.73-2.74.73-4.04.02-.42-.09-.83-.33-1.17,3.88,1.45,2.5,4.03,4.89,6.7,1.49,1.7,5.6,3.31,7.99,10.29.05-.36.08-.72.08-1.09,0-5.97-7.91-11.83-8.59-14.25,4.59.53,5.4,1.66,7.58,7.71.45,1.25,1.9,4.36,1.9,5.89"/>
    <path id="Trazado_1356" class="cls-3" d="M89,16.75c-2.83,0-4.68-1.41-4.68-2.14-.02-.31.21-.58.52-.6.02,0,.03,0,.05,0,.89,0,2.83,1.37,3.47,1.37.16,0,.28-.08.28-.32,0-.73-.69-1.94-.69-2.54,0-.16.12-.28.36-.28,1.09,0,2.7.44,3.56.44.28,0,.36-.16.36-.32,0-.89-2.62-2.62-2.62-3.15,0-.48,3.26-1.21,3.26-1.98,0-.81-4.44-.24-4.44-1.01,0-.57.85-1.53.85-1.98,0-.2-.16-.28-.44-.28-1.02.31-2.06.56-3.11.77-.4,0-.89-.08-.89-.65,0-.93,1.57-1.94,4.04-1.94,3.99,0,6.37,2.74,6.37,7.34,0,5.81-4.07,7.26-6.25,7.26M81.13,9.08c0-.44-1.58-1.29-1.58-1.78,0-.08.08-.12.2-.12.45,0,1.21.16,1.82.16.53,0,.6-2.26,1-2.26.28,0,.76,2.14,1.21,2.14.52,0,1.49-.61,1.9-.61.08,0,.16.04.16.12,0,.28-1.01,1.37-1.01,1.69,0,.36,2.26.81,2.26,1.13,0,.4-2.3.36-2.3.73,0,.28.85,1.41.85,1.77,0,.06-.03.11-.09.12,0,0-.02,0-.03,0-.32,0-1.57-.57-1.94-.57-.44,0-1.16,1.65-1.53,1.65-.12,0-.2-.16-.2-.36l-.08-1.61c.02-.16-.09-.3-.25-.32-.01,0-.02,0-.04,0-.49,0-1.42-.04-1.7-.04-.2,0-.28-.04-.28-.12,0-.32,1.62-1.45,1.62-1.73M79.96,15.69c.65,0,.77,1.58.89,2.5.08.49.16.52.36.52.49,0,1.25-1.85,1.77-1.85.76,0,2.83,2.14,6.26,2.14,5.08.16,9.32-3.83,9.48-8.91,0-.19,0-.38,0-.57,0-5.85-4.12-9.28-9.81-9.28-2.7,0-4.68,1.33-5.74,1.33-.64.04-1.61-1.57-2.09-1.57-.2,0-.4.4-.4,1.09,0,.44,0,1.86-.49,1.86-.97,0-4.72-2.78-4.72-1.78,0,.93,2.5,3.76,2.5,4.48s-2.46,1.41-2.46,1.9c0,.89,2.62,1.05,2.62,2.18s-2.75,2.02-2.75,2.86c0,.69,2.75.2,2.75,1.05s-2.02,3.67-2.02,4.48c0,.2.04.2.2.2.77,0,3.07-2.62,3.63-2.62"/>
    <path id="Trazado_1357" class="cls-3" d="M61.68,86.56c0,.43-.17.84-.44,1.17-.53-.72-1.36-1.17-2.26-1.21-4.16,0-2.58,6.01-7.02,6.01-.9-.02-1.81-.1-2.7-.24-.28,0-.44.12-.44.36,0,1.05,1.49,3.63,5.65,3.63s8.15-2.54,8.15-5.69c0-.57-.13-1.13-.36-1.65.23-.27.58-.41.93-.4.64,0,1.01.73,1.61.73.61.01,1.12-.47,1.13-1.08,0-.02,0-.04,0-.05,0-.5-.3-.95-.76-1.13.35-.26.55-.66.56-1.09.03-.71-.52-1.3-1.23-1.33-.02,0-.04,0-.06,0-.34,0-.66.14-.89.4-.08-.72-.49-1.41-1.25-1.41-.58,0-1.05.45-1.06,1.03,0,.03,0,.07,0,.1,0,.64.44,1.17.44,1.85"/>
    <path id="Trazado_1358" class="cls-3" d="M39.56,79.06c3.23.8,4.84,2.54,5.16,4.6.32,1.98.73,3.59,1.49,4.4,1.24,1.29,2.93,2.06,4.72,2.14,1.45,0,2.62-.48,2.62-1.81,0-1.45-1.98-4.72-4.88-4.72-.28,0-.65.04-1.05.04-.43.02-.86-.11-1.21-.36-.64-.57-.85-3.59-2.06-5.41-.96-1.71-2.81-2.71-4.76-2.58-1.41,0-2.99.76-2.99,1.9,0,.69.36,1.17,2.95,1.82M50.82,88.1c-1.21,0-3.03-1.29-3.03-2.02.03-.53.47-.95,1.01-.93,1.01,0,2.82,1.25,2.82,2.3,0,.28-.2.65-.8.65"/>
    <path id="Trazado_1359" class="cls-3" d="M47.11,56.66c0-2.58,6.14-3.95,6.14-7.14-.04-.74-.23-1.47-.57-2.14,2.14,1.17,3.71,3.15,3.71,4.76,0,2.78-2.9,4.08-2.9,5.81,0,2.02,3.11,2.34,3.11,4.84,0,2.06-2.95,4.44-2.95,7.1-.01,2.09,1.58,3.85,3.67,4.03-.67.17-1.36.26-2.06.28-4.08,0-8.27-3.35-8.27-7.34,0-1.88.78-3.67,2.14-4.96.81.83,1.85,1.39,2.98,1.62.64,0,.93-.32.93-.81,0-1.5-5.93-2.86-5.93-6.05M59.98,77.04c-1.38.63-1.94.53-1.94,1.94,0,.52-.12,1.21-.12,1.57,0,.48.08.77.64.77,1.45,0,3.75-2.46,3.75-4.56,0-.57-.32-.8-.69-.8-.32,0-.68.64-1.65,1.09M59.82,74.13c0-1.82-3.75-1.86-3.75-4.6.15-1.14.61-2.21,1.33-3.11.12,1.79,1.32,3.33,3.03,3.88,3.59,1.33,4.07,3.35,4.07,5.49,0,3.63-2.54,8.15-9.08,8.15-4.79-.09-8.71-3.85-9-8.64,0-1.09.28-2.3.97-2.3.61,0,.81.48,1.29.96,1.82,1.82,3.79,2.3,6.66,2.3,2.58,0,4.48-1.05,4.48-2.14"/>
    <path id="Trazado_1360" class="cls-3" d="M31.24,75c.1.84-.51,1.6-1.35,1.7-.84.1-1.6-.51-1.7-1.35-.1-.84.51-1.6,1.35-1.7.84-.1,1.6.51,1.7,1.35,0,0,0,0,0,0M23.7,76.59c.19,1.42,1.48,2.42,2.91,2.26.47-.04.92-.17,1.33-.4.28,1.31,1.55,2.17,2.87,1.93,1.41-.11,2.46-1.35,2.35-2.75,0-.03,0-.07-.01-.1-.03-.32-.11-.63-.24-.93,0,0,.2-.02.34-.05,1.41-.19,2.42-1.44,2.32-2.86-.14-1.43-1.39-2.48-2.82-2.36-.49.05-.95.24-1.34.55-.35-1.35-1.67-2.22-3.06-2-1.41.21-2.39,1.52-2.2,2.93.02.28.09.55.2.81l-.4.06c-1.41.23-2.39,1.51-2.26,2.93"/>
  </g>
</svg>