<svg id="Grupo_2247" data-name="Grupo 2247" xmlns="http://www.w3.org/2000/svg" xmlns:xlink="http://www.w3.org/1999/xlink" width="168.151" height="185.976" viewBox="0 0 168.151 185.976">
  <defs>
    <clipPath id="clip-path">
      <rect id="Rectángulo_1074" data-name="Rectángulo 1074" width="168.151" height="185.975" fill="#13129b"/>
    </clipPath>
  </defs>
  <g id="Grupo_2192" data-name="Grupo 2192" transform="translate(0 0)" clip-path="url(#clip-path)">
    <path id="Trazado_2367" data-name="Trazado 2367" d="M261.147,0c.133.137.262.277.4.409,2.076,2.014,1.548,2.049,4.638.933a13.613,13.613,0,0,1,11.577.7,10.2,10.2,0,0,1,5.359,8.048A12.139,12.139,0,0,1,281,19.322a11.824,11.824,0,0,1-15.112,3.19c-.466-.254-.925-.523-1.392-.775-1.162-.626-1.276-.593-2.058.45-.39.52-.8,1.021-1.208,1.531l-.255-.084c-.093-.391-.2-.779-.276-1.173-.083-.438-.11-.888-.209-1.322-.329-1.438-.853-1.616-1.974-.681-.795.663-1.566,1.355-2.375,2a10.652,10.652,0,0,1-1.178.721l-.209-.153c.183-.473.331-.963.556-1.416.584-1.175,1.237-2.318,1.794-3.5.462-.983.217-1.348-.883-1.523-.551-.088-1.106-.157-1.648-.283-.215-.05-.531-.2-.565-.358a.8.8,0,0,1,.291-.627c.666-.553,1.375-1.054,2.056-1.591,1.376-1.085,1.289-1.957-.269-2.756-.522-.268-1.07-.491-1.565-.8-.573-.357-.555-.708.026-1.068s1.171-.655,1.742-1.006c.939-.577,1.043-.905.482-1.83-.653-1.075-1.38-2.1-2.045-3.172-.3-.488-.536-1.021-.8-1.533l.135-.221a6,6,0,0,1,1.194.3c1.208.581,2.379,1.24,3.588,1.816s1.571.321,1.693-1.029c.074-.816.291-1.619.444-2.428h.168M275.8,8.948q.032.15.066.3a5.877,5.877,0,0,1-.876.649c-.851.421-1.735.775-2.589,1.189-.756.366-.811.653-.234,1.251.7.725,1.452,1.4,2.137,2.137a11.828,11.828,0,0,1,.937,1.381c-.775,0-1.29.047-1.794-.01-.97-.109-1.931-.317-2.9-.408-.8-.075-1.027.226-.818,1,.181.673.443,1.324.615,2a3.046,3.046,0,0,1-.025.849,3.532,3.532,0,0,1-.874-.141c-.82-.355-1.6-.8-2.432-1.128-.612-.242-1.395-.748-1.853.11-.421.79.28,1.3.844,1.7,3.36,2.339,8.833,1.989,11.465-1.972a11.077,11.077,0,0,0,1.42-7.75,8.911,8.911,0,0,0-1.871-4.775c-1.969-2.366-4.59-2.933-7.495-2.6a5.453,5.453,0,0,0-3.217,1.282c-.443.411-.831.912-.488,1.546.319.589.905.582,1.478.438,1.081-.272,2.156-.57,3.24-.83a.733.733,0,0,1,.6.082.732.732,0,0,1-.011.609c-.161.385-.4.738-.583,1.113-.492.994-.286,1.364.833,1.469.835.078,1.675.1,2.508.194.643.071,1.278.21,1.917.319m-16.669.072-.163.24a7.253,7.253,0,0,0,.709.892c1.438,1.331,1.441,1.32.046,2.615-.291.271-.54.587-.809.882l.1.245a12.393,12.393,0,0,0,1.624.074c.828-.066,1.278.152,1.182,1.087a4.285,4.285,0,0,0,.112,1.167,2.744,2.744,0,0,0,.246.58,3.023,3.023,0,0,0,.6-.369,5.078,5.078,0,0,0,.5-.674c.764-1.052.762-1.046,1.98-.645.481.158.973.283,1.46.423l.163-.216c-.2-.44-.388-.892-.619-1.317-.556-1.023-.563-1.011.564-1.254.614-.133,1.221-.3,1.831-.45,0-.119,0-.237.005-.356-.707-.287-1.4-.61-2.124-.851-.682-.228-.739-.542-.332-1.094.345-.467.619-.984.925-1.48l-.2-.222c-.41.129-.828.235-1.228.39-1.4.545-1.4.549-2.015-.863-.212-.486-.455-.958-.684-1.436l-.322.021c-.2.676-.42,1.347-.589,2.031a.852.852,0,0,1-1.075.758c-.622-.089-1.252-.12-1.879-.176" transform="translate(-160.861)" fill="#13129b"/>
    <path id="Trazado_2368" data-name="Trazado 2368" d="M385.162,452.512c-.073.179-.154.355-.217.537a2.564,2.564,0,0,1-2.22,1.907,2.993,2.993,0,0,1-3.036-1.189c-1.069-1.573-2.051-1.717-3.6-.522a11.472,11.472,0,0,0-3.146,4.1c-1.39,2.771-2.64,5.612-3.976,8.41a20.131,20.131,0,0,1-1.482,2.715,1.552,1.552,0,0,1-2.9-.23,38.528,38.528,0,0,1-1.534-4.677c-.342-1.172-.585-2.374-.933-3.819-.312.533-.51.845-.684,1.171a17.483,17.483,0,0,1-5.318,6.39,9.964,9.964,0,0,1-9.464,1.435,5.9,5.9,0,0,1-3.884-4.976,12.685,12.685,0,0,1,2.379-10.07,7.452,7.452,0,0,1,5.218-3.186,5.686,5.686,0,0,1,6.042,5.127c.192,2.965-1.191,5.016-4.374,6.436-1.045.466-2.13.843-3.165,1.33-.337.158-.835.583-.8.8a1.7,1.7,0,0,0,.778,1.082,5.8,5.8,0,0,0,4.862.239,9.194,9.194,0,0,0,4.035-3.178,24.086,24.086,0,0,0,3.975-8.257,7.532,7.532,0,0,1,1.1-2.314,1.9,1.9,0,0,1,1.418-.649c.266.011.65.708.728,1.142.331,1.839.528,3.7.853,5.542a22.382,22.382,0,0,0,.832,3.226,1.246,1.246,0,0,0,.876.74c.281.008.688-.419.846-.748,1.1-2.289,2.067-4.649,3.25-6.894a10.85,10.85,0,0,1,5-5.038,7.6,7.6,0,0,1,5.792-.373,4.2,4.2,0,0,1,2.752,3.117Zm-38.631,6.395c.11.883.172,1.6.309,2.311a.656.656,0,0,0,.494.387,6.068,6.068,0,0,0,4.725-3.773,2.962,2.962,0,0,0-1.657-3.6,2.805,2.805,0,0,0-3.4,2.207c-.237.85-.338,1.738-.474,2.471" transform="translate(-217.011 -284.009)" fill="#13129b"/>
    <path id="Trazado_2369" data-name="Trazado 2369" d="M142.6,439.7a4.856,4.856,0,0,0,4.887.9,9.176,9.176,0,0,0,4.894-4.136,41.684,41.684,0,0,0,3.92-8.6,6.967,6.967,0,0,1,.87-1.708c.784-1.069,1.808-1,2.276.231.635,1.664,1.075,3.4,1.626,5.1.783,2.411,1.57,4.821,2.4,7.215a3.594,3.594,0,0,0,.8,1.168c.891.966,1.99,1.026,2.693-.066a15.317,15.317,0,0,0,1.557-3.561c.612-1.877-.219-3.7-.416-5.542a7.379,7.379,0,0,1,.914-4.771,4.587,4.587,0,0,1,1.362-1.444c1.577-1.012,2.956-.268,3.119,1.6a17.371,17.371,0,0,1-.683,5.969,23.082,23.082,0,0,1-4.43,9.22,8.015,8.015,0,0,1-4.99,3.137,3.348,3.348,0,0,1-3.639-1.5,29.775,29.775,0,0,1-1.769-3.954c-.3-.719-.49-1.486-.81-2.195-.383-.848-.966-.947-1.644-.284a22.557,22.557,0,0,0-1.566,1.751,17.07,17.07,0,0,1-6.557,5.36,12.232,12.232,0,0,1-5.905.9,5.137,5.137,0,0,1-3.2-1.685.852.852,0,0,0-1.281-.152,11.071,11.071,0,0,1-4.83,1.767,5.67,5.67,0,0,1-4.375-1.253c-.568-.453-1.093-.961-1.631-1.451-1.188-1.082-1.652-1.1-3.023-.221a38.922,38.922,0,0,1-3.721,2.249,8.916,8.916,0,0,1-4.913.763,4.647,4.647,0,0,1-3.263-2.15c-.644-.876-1.171-1.838-1.757-2.758-.947-1.487-1.554-1.525-2.62-.109-.908,1.206-1.733,2.476-2.652,3.673-1.813,2.362-3.575,1.415-4.609-.33-.88-1.485-1.549-3.1-2.339-4.635a26.365,26.365,0,0,0-1.7-3.075c-.991-1.425-2.148-1.636-3.515-.555-2.082,1.646-4.057,3.428-6.076,5.154-1.594,1.362-3.178,2.737-4.786,4.082a3.7,3.7,0,0,1-1.093.607,1.165,1.165,0,0,1-1.616-1.054,7.7,7.7,0,0,1,.256-2.064c1.028-3.885,2.1-7.76,3.146-11.639a2.879,2.879,0,0,1,1.595-2.036c.758-.34,1.082-.19,1.287.607.292,1.135.547,2.279.862,3.407a7.776,7.776,0,0,0,.6,1.469c.393.757.829.82,1.442.208a15.594,15.594,0,0,0,1.155-1.329c1.378-1.728,2.688-3.514,4.131-5.185,2.023-2.342,3.385-2.064,4.432.863.874,2.443,1.629,4.929,2.521,7.366A9.645,9.645,0,0,0,101.3,437.5c1.208,1.589,2.819,1.5,4.042-.081a9.009,9.009,0,0,0,1.742-5.129,9.667,9.667,0,0,1,1.561-4.892,2.258,2.258,0,0,1,2.229-1.207c.981.153,1.359,1.022,1.616,1.862a9.652,9.652,0,0,1-.039,5.538,5.245,5.245,0,0,0,4.434,6.88,6.79,6.79,0,0,0,6.274-3.437,1.563,1.563,0,0,0-.121-.937c-2.316-7.314-2.572-14.607.355-21.816a14.5,14.5,0,0,1,2.233-3.613c1.923-2.356,4.891-1.584,6.359.486a8.708,8.708,0,0,1,1.513,4.3,31.663,31.663,0,0,1-3.614,18.558c-.414.761-.819,1.53-1.168,2.321a1.388,1.388,0,0,0-.063.931,6.792,6.792,0,0,0,5.845,3.963,3.348,3.348,0,0,0,.739-.123c1.4-.384,1.4-.465,1.248-1.87a14.707,14.707,0,0,1,3.8-11.99,7.168,7.168,0,0,1,1.419-1.171c2.417-1.565,4.742-.968,6.153,1.548,1.948,3.476,1.372,6.638-1.772,9.364-1.074.931-2.247,1.748-3.5,2.71M130.59,420.129a8.167,8.167,0,0,0-.012-1.34,12.624,12.624,0,0,0-.651-2.991,1.5,1.5,0,0,0-2.818-.04,6.709,6.709,0,0,0-.643,1.626,34.776,34.776,0,0,0-.438,12.481,6.024,6.024,0,0,0,.5,1.761c.321.721.9.754,1.336.106a7.328,7.328,0,0,0,.7-1.329,27.635,27.635,0,0,0,2.028-10.274m14.277,12.77c0-.168.007-.335,0-.5-.066-1.362-.756-2.487-1.637-2.675a2.82,2.82,0,0,0-2.783,1.754,1.91,1.91,0,0,0-.1.229,6.814,6.814,0,0,0,.543,5.72c.249.457.545.434.965.263a4.938,4.938,0,0,0,3.016-4.789" transform="translate(-49.738 -259.242)" fill="#13129b"/>
    <path id="Trazado_2370" data-name="Trazado 2370" d="M47.538.021c2.126.292,4.254.574,6.378.884a6.218,6.218,0,0,1,1.2.348c1.4.509,1.544,1.19.4,2.121-.692.561-1.485.995-2.219,1.506a16.8,16.8,0,0,0-1.879,1.4c-.879.816-.7,1.557.46,1.889a19.942,19.942,0,0,0,2.634.456c.939.135,1.892.192,2.824.363,1.248.228,1.518.818.7,1.779-1.174,1.384-2.486,2.649-3.728,3.975a13,13,0,0,0-1.133,1.344.8.8,0,0,0-.054.685c.053.115.412.176.6.127a9.515,9.515,0,0,0,1.493-.522c1.247-.562,2.455-1.219,3.725-1.72,1.321-.521,1.813-.131,1.636,1.274-.168,1.327-.468,2.637-.71,3.954a.5.5,0,0,0-.033.163c.094.491.038,1.248.326,1.418.619.366.965-.349,1.28-.769.7-.94,1.294-1.969,2.039-2.872a6,6,0,0,1,1.447-.968,7.509,7.509,0,0,1,.526,1.587c.126,1.223.128,2.458.2,3.687a3.418,3.418,0,0,0,.188,1.068,4.361,4.361,0,0,0,.592.843c.252-.23.631-.415.732-.7.355-1,.609-2.027.912-3.042a22.083,22.083,0,0,1,.709-2.228c.31-.741.847-.785,1.31-.118.445.641.8,1.344,1.2,2.016a2.244,2.244,0,0,0,.469.685,1.486,1.486,0,0,0,.933.376c.206-.031.477-.476.5-.752.077-1.115.041-2.237.1-3.353.022-.394.119-1.035.336-1.109a1.5,1.5,0,0,1,1.193.3c1.294,1.022,2.528,2.119,3.791,3.181A20.02,20.02,0,0,0,80.2,20.544c.485.33.769.117.664-.443a7.992,7.992,0,0,0-.456-1.515c-.556-1.372-1.182-2.717-1.707-4.1a13.921,13.921,0,0,1-.645-2.419c-.194-1.056.391-1.7,1.42-1.445,1.564.391,3.084.959,4.628,1.432a15.212,15.212,0,0,0,2.1.547c.91.141,1.417-.5,1.035-1.34a6.865,6.865,0,0,0-1.143-1.738C84.87,8.177,83.577,6.9,82.324,5.575c-1.675-1.765-1.6-2.544.68-3.337A47.545,47.545,0,0,1,89.641.6,19.757,19.757,0,0,1,93.4.417a3.385,3.385,0,0,1,1.1.424c-.261.3-.464.717-.792.867-1.4.638-2.835,1.179-4.243,1.791a11.577,11.577,0,0,0-1.846.974,1.154,1.154,0,0,0-.379,1.86A12.214,12.214,0,0,0,88.62,8.128c1.7,1.823,3.454,3.591,5.131,5.432a7.582,7.582,0,0,1,1.31,2.027c.575,1.31-.169,2.258-1.555,1.922-2.435-.59-4.834-1.329-7.252-1.991-.913-.25-1.83-.5-2.759-.671-.714-.133-1.04.175-.9.891a14.392,14.392,0,0,0,.744,2.474c.835,2.1,1.744,4.175,2.573,6.279a6.36,6.36,0,0,1,.369,1.8c.082,1.013-.549,1.492-1.482,1.1A8.349,8.349,0,0,1,82.925,26.3c-1.48-1.15-2.906-2.369-4.367-3.546a12.486,12.486,0,0,0-1.37-.965c-1.065-.645-1.633-.431-1.975.791-.27.965-.4,1.968-.679,2.932-.1.365-.4.9-.667.936a1.671,1.671,0,0,1-1.116-.536c-.587-.556-1.057-1.235-1.636-1.8-.755-.736-1.368-.623-1.683.371-.59,1.86-1.056,3.76-1.615,5.63a18,18,0,0,1-1.011,2.744c-.188.384-.723.863-1.065.837a1.5,1.5,0,0,1-.97-.96,34.979,34.979,0,0,1-.717-3.515c-.233-1.317-.378-2.652-.669-3.955-.214-.959-.724-1.115-1.52-.517-.646.485-1.2,1.093-1.827,1.605a7.328,7.328,0,0,1-1.507,1.041c-1.058.486-1.843.072-1.875-1.084-.038-1.358.152-2.722.237-4.084a17.81,17.81,0,0,0,.085-1.924c-.042-.893-.486-1.226-1.34-.952a16.151,16.151,0,0,0-2.225.962c-2.375,1.183-4.732,2.4-7.112,3.574a4.017,4.017,0,0,1-1.372.339c-.894.085-1.3-.427-.907-1.243a12.166,12.166,0,0,1,1.559-2.47c1.649-1.977,3.388-3.879,5.064-5.834a20.163,20.163,0,0,0,1.717-2.27c.431-.678.271-1.041-.516-1.2a20.074,20.074,0,0,0-2.652-.317c-1.895-.129-3.794-.2-5.688-.342-.293-.022-.8-.26-.8-.416a1.259,1.259,0,0,1,.421-.917c1.048-.834,2.136-1.618,3.23-2.392.913-.645,1.883-1.212,2.771-1.887.769-.584.716-1.061-.177-1.376-1.207-.425-2.465-.706-3.693-1.075A17.285,17.285,0,0,1,43.369,1.8c-.2-.086-.463-.364-.443-.522a.851.851,0,0,1,.46-.606A9.533,9.533,0,0,1,45.335.245c.721-.071,1.454-.016,2.181-.016q.01-.1.022-.208" transform="translate(-27.05 -0.013)" fill="#13129b"/>
    <path id="Trazado_2371" data-name="Trazado 2371" d="M166.479,334.094c-.748.4-1.463.831-2.215,1.18a20.673,20.673,0,0,1-10.687,1.787,20,20,0,0,1-11.086-4.272,10.742,10.742,0,0,0-6.523-2.206c-3.049-.149-5.4-1.749-7.521-4.083,1.265,0,2.37.074,3.461-.016,2.32-.192,4.375-1.017,5.354-3.283a19.309,19.309,0,0,0,.806-3.808,11.879,11.879,0,0,1,1.045.664,9.939,9.939,0,0,1,3.786,5.769,1.557,1.557,0,0,0,1.231,1.294,7.66,7.66,0,0,0,4.053.2,3.768,3.768,0,0,0,2.944-2.89.939.939,0,0,1,.946-.828c3.6-.494,6.724-1.919,8.815-5.027a29.134,29.134,0,0,0,1.736-3.489,13.034,13.034,0,0,1,4.6,3.083,1.274,1.274,0,0,0,.955.4,14.813,14.813,0,0,1,7.366.411c.268.07.537.136.889.226a2.161,2.161,0,0,1,.285-.768c.267-.277.641-.647.954-.632a1.873,1.873,0,0,1,1.039.655c.167.173.165.522.214.8a2.548,2.548,0,0,0,1.1,1.8c.493.331.92.758.669,1.469s-.771.831-1.449.884a1.238,1.238,0,0,0-.828.707c-.456,1.2-.786,2.443-1.215,3.652-1.406,3.962-4.407,3.85-7.245,2.1a8.426,8.426,0,0,1-3.4-4.052c-1.157-2.841-2.89-2.752-4.719-.839-4.034,4.22-9.094,5.8-14.848,5.364a4.82,4.82,0,0,0-1.692.17c.264.235.49.577.8.688a13.387,13.387,0,0,0,3.182.952c4.663.415,8.955-.542,12.534-3.786.248-.225.512-.434.776-.642,1.025-.807,1.526-.675,2.163.5a15.127,15.127,0,0,0,1.233,1.988,9.89,9.89,0,0,0,7.7,3.813c1.137.066,2.286-.111,3.43-.123.291,0,.772.141.83.325a1.142,1.142,0,0,1-.223.957,3.509,3.509,0,0,1-1.223.847,12.2,12.2,0,0,1-6.4.818,4.1,4.1,0,0,1-3.37-2.443,1.978,1.978,0,0,0-.24-.313m5.8-8.258a2.1,2.1,0,0,0,2.141-2.095,2.115,2.115,0,1,0-2.141,2.095" transform="translate(-81.371 -199.61)" fill="#13129b"/>
    <path id="Trazado_2372" data-name="Trazado 2372" d="M326.917,127.186c.722.105,1.186.178,1.651.24,3.184.423,5.065,2.4,6.183,5.242a94.428,94.428,0,0,1,4.142,11.4l3.489-6.9c-.354-.194-.778-.389-1.161-.644a27.775,27.775,0,0,1-3.631-2.517c-1.535-1.423-1.626-3.029-.509-4.951a8.881,8.881,0,0,1,3.831-3.538c.806-.4,1.139-.22,1.06.663-.135,1.5-.38,2.987-.59,4.478a5.733,5.733,0,0,0,.2,3.608c.731,1.426,1.586,1.583,2.609.37a7.887,7.887,0,0,0,1.952-6.924c-.611-2.994-2.6-4.667-5.439-5.4a3.193,3.193,0,0,0-1.783.2,30.363,30.363,0,0,1-6.177,1.78c-6.738,1-12.106-2.071-14.564-8.456a17.807,17.807,0,0,1-1.259-6.908,12.49,12.49,0,0,0,2.819.9,30.971,30.971,0,0,0,4.919-.071c2.755-.225,5.482-.4,8.008,1.042a17.308,17.308,0,0,1,5.056,4.845.768.768,0,0,1,.048.069,14.732,14.732,0,0,0,5.466,5.384,9.216,9.216,0,0,1,4.46,5.754c.864,3.191-.117,5.931-1.925,8.52-1.487,2.13-2.947,4.281-4.337,6.475a15.766,15.766,0,0,0-1.046,2.551,2.52,2.52,0,0,0,2.009-.939c.823-.8,1.543-1.706,2.4-2.466a3.766,3.766,0,0,1,1.665-.859,1.268,1.268,0,0,1,1.678,1.1,8.069,8.069,0,0,1,.035,2.723,10.743,10.743,0,0,1-3.232,5.932,18.648,18.648,0,0,0-.4-2.16c-.6-1.942-2.287-2.483-3.845-1.152a11.707,11.707,0,0,0-1.782,2.3c-.382.547-.684,1.151-1.114,1.889-.134-.38-.236-.638-.318-.9a29.908,29.908,0,0,0-3.98-8.73,11.08,11.08,0,0,0-6.6-4.711,23.265,23.265,0,0,1-2.81-.825c-2.826-1.045-3.6-2.607-2.957-5.558.3-1.4.413-2.848.6-4.276a1.786,1.786,0,0,0-.116-.5,4.892,4.892,0,0,1,3.086,2.644,19.951,19.951,0,0,1,.929,2.333,9.336,9.336,0,0,0,3.267,4.567,23.474,23.474,0,0,1,6.657,7.239c.752,1.362,1.362,2.8,2.205,4.241a16.657,16.657,0,0,0,.041-1.793,13.079,13.079,0,0,0-1.737-5.294,47.628,47.628,0,0,0-5.875-7.742q-1.2-1.4-2.349-2.851c-.305-.385-.541-.825-.928-1.425m-1.244-10.139,1,.432a11.538,11.538,0,0,1-.643,1.244c-.182.272-.524.437-.706.709a3.022,3.022,0,0,0-.262.82,2.648,2.648,0,0,0,.9.216,3.289,3.289,0,0,0,1.089-.4c.84-.443,1.645-.956,2.5-1.372a4.6,4.6,0,0,1,1.507-.437,2.77,2.77,0,0,1,.99.291,5.017,5.017,0,0,1-.375.959,16.214,16.214,0,0,0-1.027,1.421c-.141.284.007.711.025,1.074a3.047,3.047,0,0,0,.974-.181,4.629,4.629,0,0,0,.941-.828,3.449,3.449,0,0,1,3.489-1.1c.445.108,1.27.021,1.408-.244.335-.641-.388-.941-.829-1.233a4.136,4.136,0,0,1-1.977-3.059,2.16,2.16,0,0,0-.251-.876.943.943,0,0,0-.639-.414c-.152-.007-.4.3-.463.5a11.693,11.693,0,0,0-.239,1.4c-.121.774-.571,1.056-1.205.608a5.788,5.788,0,0,1-1.415-1.5c-.495-.738-.832-1.581-1.292-2.346-.132-.218-.456-.32-.693-.476-.135.259-.367.512-.384.778-.031.5.125,1.006.084,1.5-.03.355-.178.909-.408.989a1.326,1.326,0,0,1-1.1-.288,24.219,24.219,0,0,1-1.627-1.8,3.1,3.1,0,0,0-.785-.739,2.488,2.488,0,0,0-.925-.074,2.936,2.936,0,0,0-.017.846,4.378,4.378,0,0,0,.451.894c.556,1.025.4,1.366-.751,1.6a13.961,13.961,0,0,0-1.558.3c-.24.08-.4.4-.6.605a3.469,3.469,0,0,0,.715.571,1.527,1.527,0,0,0,.745.021c1.025-.114,2.048-.246,3.364-.406" transform="translate(-200.75 -69.011)" fill="#13129b"/>
    <path id="Trazado_2373" data-name="Trazado 2373" d="M56.2,193.333c-2.223-.019-4.176-.527-5.116-2.885a6.384,6.384,0,0,0-.2,7.705,52.946,52.946,0,0,0,3.842,3.977c1.244,1.255,2.211,2.663,1.97,4.514a24.752,24.752,0,0,1-.911,3.287,68.072,68.072,0,0,1-5.6-4.772c-2.42-2.548-3.05-5.809-3-9.245.056-4.018,1.814-7.375,4-10.579.835-1.226,1.723-2.416,2.515-3.668a10.588,10.588,0,0,0,.988-2.115,2.257,2.257,0,0,0-.463-2.353c-.723-.816-1.46-1.622-2.228-2.395a1.331,1.331,0,0,0-2.407.394,3.247,3.247,0,0,0,.292,3.495,2.682,2.682,0,0,1,.111,3.2,16.322,16.322,0,0,1-1.9,2.737c-1.039,1.138-2.023,1.019-2.581-.4a18.767,18.767,0,0,1-1.225-4.665,34.085,34.085,0,0,1,.63-12.16,14.575,14.575,0,0,1,1.205-2.916c.118-.238.582-.3.887-.449a2.726,2.726,0,0,1,.305.869c-.019,1.426-.115,2.851-.137,4.276a3.947,3.947,0,0,0,.214,1.481,1.42,1.42,0,0,0,.812.8c.19.047.669-.411.755-.716.378-1.338.664-2.7.977-4.06.295-1.277.542-2.566.89-3.828a3.715,3.715,0,0,1,.78-1.456,1.362,1.362,0,0,1,1.087-.345c.214.037.5.562.484.853-.067,1.223-.2,2.446-.375,3.659-.2,1.407-.478,2.8-.72,4.206a.687.687,0,0,0-.025.331c.183.463.278,1.176.609,1.316.612.259.791-.46.951-.9.964-2.649,1.881-5.315,2.849-7.963a8.026,8.026,0,0,1,.965-1.941c.243-.338.767-.472,1.165-.7.2.453.6.92.568,1.356a12.686,12.686,0,0,1-.563,2.694c-.727,2.433-1.509,4.85-2.256,7.277a4.242,4.242,0,0,0-.215,1.147.918.918,0,0,0,.276.715.76.76,0,0,0,.715-.2,22.523,22.523,0,0,0,2.082-3.119c.814-1.648,1.43-3.393,2.147-5.09a6.307,6.307,0,0,1,.723-1.406,1.112,1.112,0,0,1,.89-.418,1.05,1.05,0,0,1,.623.76,7.758,7.758,0,0,1-.062,2.246c-.929,4.443-2.875,8.5-4.831,12.554-1.249,2.589-2.488,5.186-3.643,7.818a5.934,5.934,0,0,0-.282,4.5,18.306,18.306,0,0,0,1.444,2.578" transform="translate(-27.88 -101.311)" fill="#13129b"/>
    <path id="Trazado_2374" data-name="Trazado 2374" d="M237.42,239.075c.648.213,1.292.388,1.9.638a1.251,1.251,0,0,1,.9,1.356,1.19,1.19,0,0,1-1.126,1.068,8.171,8.171,0,0,1-1.742.052,5.892,5.892,0,0,0-3.52.42,11.316,11.316,0,0,0-1.131.851c.345.182.615.246.756.416.323.387.814.833.8,1.244a1.687,1.687,0,0,1-.873,1.175,18.875,18.875,0,0,1-2.687.917c-4.215,1.313-5.885,5.274-3.774,9.181,1.817,3.365,4.856,4.914,8.541,5.282a9.542,9.542,0,0,0,4.793-.5,4.6,4.6,0,0,0,1.613-1.126c.545-.623.309-1.1-.5-1.323-1.051-.29-1-.272-.629-1.276a1.668,1.668,0,0,0-.022-1.292c-.124-.2-.829-.2-1.183-.061a14.587,14.587,0,0,1-5.018,1.23,6.209,6.209,0,0,1-4.594-1.454,4.993,4.993,0,0,1-1.12-1.9c-.244-.653.1-1.013.783-.825.873.243,1.115-.119,1.135-.884.018-.664-.1-1.562.622-1.745.452-.115,1.144.4,1.626.766a13.294,13.294,0,0,0,9.4,2.588,52.735,52.735,0,0,0,6.159-1.094,7.114,7.114,0,0,0,1.426-.669c-.068.655-.087,1.245-.2,1.819a13.237,13.237,0,0,1-12.979,10.868,14.266,14.266,0,0,1-14.73-11.825A14.958,14.958,0,0,1,233.9,235.626a11.374,11.374,0,0,1,5.393.073,3.837,3.837,0,0,1,1.313.7c.5.42.4.929-.221,1.165-.49.188-1.031.235-1.537.385-.606.179-1.275.306-1.423,1.128" transform="translate(-140.501 -149.086)" fill="#13129b"/>
    <path id="Trazado_2375" data-name="Trazado 2375" d="M27.472,429.047c-.054,3.93-.233,7.83-1.6,11.576-1.2,3.31-2.971,6.2-6.052,8.1a12.151,12.151,0,0,1-7.309,1.664,12.851,12.851,0,0,1-6.06-1.723,11.578,11.578,0,0,1-5.186-7.815,30.269,30.269,0,0,1-.089-12.407c.448-2.349,1.1-4.664,1.765-6.965a4.121,4.121,0,0,1,3.828-3.027c1-.113,1.466.163,1.457,1.137a24.3,24.3,0,0,1-.432,4.393,52.492,52.492,0,0,0-.9,14.179,14.389,14.389,0,0,0,1.836,6.461c2.51,4.178,8.873,3.834,11.337-.193a19.5,19.5,0,0,0,2.434-7.167,19.523,19.523,0,0,0-.261-9.212c-.353-1.118-.754-2.222-1.072-3.349a5.4,5.4,0,0,1,2.034-6.427,1.821,1.821,0,0,1,2.931.96,18.6,18.6,0,0,1,1.02,4.035c.231,1.91.222,3.849.316,5.776" transform="translate(-0.369 -264.719)" fill="#13129b"/>
    <path id="Trazado_2376" data-name="Trazado 2376" d="M357.223,1.571c-2.079,1.7-1.609,3.733-.963,5.85a13.581,13.581,0,0,1,.246,8.327,9.414,9.414,0,0,1-5.558,5.707,22.067,22.067,0,0,1-6.97,1.671,51.5,51.5,0,0,1-11.127-.358,1.7,1.7,0,0,1-.934-.437c.475-.29.943-.593,1.427-.869a3.728,3.728,0,0,0,2.142-4.071c-.1-.634-.192-1.27-.257-1.908a2.272,2.272,0,0,1,.1-.6,1.619,1.619,0,0,1,.59.171c.517.427.988.91,1.5,1.344a4.851,4.851,0,0,0,3.183,1.311,2.545,2.545,0,0,0,1.812-4.534,21.051,21.051,0,0,0-3.661-1.97c-1.014-.451-2.116-.7-3.173-1.061-.275-.093-.531-.244-1.014-.472C337,8.426,339.462,8.224,342,7.878c-2.311-3.235-5.749-4.222-9.233-5.128q.012-.177.024-.353c1-.268,1.989-.6,3-.791a21.517,21.517,0,0,1,7.5-.233,6.528,6.528,0,0,1,.895.214c2.122.663,2.766,1.923,2.084,4.037a7.734,7.734,0,0,0-.677,3.745,1.872,1.872,0,0,0,1.839,1.729,1.685,1.685,0,0,0,1.92-1.491,20.662,20.662,0,0,0,.138-4.4c-.306-3.2,1.338-4.874,4.5-4.334,1.034.177,2.053.445,3.23.7m-5.34,8.359c-.362,5.542-4.109,7.757-8.921,8.956a15.17,15.17,0,0,0,2.615.092,11.88,11.88,0,0,0,6.055-1.692,4.847,4.847,0,0,0,2.467-4.707,2.865,2.865,0,0,0-2.216-2.648m.988-4.859a1.339,1.339,0,0,0,1.388-1.278,1.333,1.333,0,0,0-1.313-1.348,1.314,1.314,0,1,0-.075,2.625" transform="translate(-210.27 -0.486)" fill="#13129b"/>
    <path id="Trazado_2377" data-name="Trazado 2377" d="M116.383,134.866c-4.575-.21-8.227,1.388-10.816,5.269a6.093,6.093,0,0,1,6.217-7.665c1.389.067,2.77.318,4.155.483.321.038.643.068,1.018.107-1.489-3.113-6.2-4.923-8.57-3.26a5.562,5.562,0,0,1,.664-4.2,3.046,3.046,0,0,1,3.4-.676,8.566,8.566,0,0,1,4.046,3.4c.629.886,1.142,1.855,1.7,2.788a1.447,1.447,0,0,0,.546.593c.022-.285.051-.569.064-.854.067-1.451.112-2.9.205-4.353a4.432,4.432,0,0,1,.3-1.214,1.654,1.654,0,0,1,2.6-.979,7.093,7.093,0,0,1,3.061,3.849c-2.962-.047-3.322,2.483-4.482,4.219l.135.2c.265-.147.525-.306.8-.44,1.819-.9,3.594-1.923,5.478-2.663a6.1,6.1,0,0,1,4.514.023,4.033,4.033,0,0,1,1.513,6.527c-.787-2.245-2.6-2.831-4.7-2.937a14.418,14.418,0,0,0-6.663,1.092c.475.112.955.2,1.423.341a23.2,23.2,0,0,1,2.384.761c3.349,1.393,3.179,4.892,1.243,6.791a18.745,18.745,0,0,1-3.643,2.533c.67-3.792-.284-6.823-3.5-8.977-.688,1.342-1.4,2.627-2.008,3.957a1.4,1.4,0,0,0,.27,1.9c.18.143.158.612.138.926-.078,1.2-.27,2.394-.256,3.589.006.471.486.921.667,1.411a16.822,16.822,0,0,1,.624,2.095,15.678,15.678,0,0,0,.236,1.653,5.68,5.68,0,0,0,.827,1.246c.185.265.394.515.566.788.518.819.979,1.679,1.549,2.458.505.692.587,1.163-.028,1.757a3.068,3.068,0,0,1-1.25.784,1.324,1.324,0,0,1-1.073-.32c-.9-.9-1.72-1.888-2.6-2.818a1.556,1.556,0,0,1-.545-1.529,3.2,3.2,0,0,0-.473-1.714c-.461-.982-1.043-1.908-1.5-2.891a1.231,1.231,0,0,1-.034-1.029,2.233,2.233,0,0,0,.124-2.159c-.319-1.128-.693-2.241-.969-3.378-.06-.249.176-.583.31-.862.125-.26.377-.482.432-.749a30.188,30.188,0,0,1,.56-3.04,22.239,22.239,0,0,1,1.353-2.836" transform="translate(-66.72 -78.548)" fill="#13129b"/>
    <path id="Trazado_2378" data-name="Trazado 2378" d="M99.839,288.812a14.905,14.905,0,0,1-2.728-.3,3.73,3.73,0,0,1-1.767-1.169,1.845,1.845,0,0,1-.176-1.607,1.769,1.769,0,0,1,1.326-.753c1.9-.1,3.832,1.414,4.638,3.526a4.328,4.328,0,0,1-.613,4.578,4.667,4.667,0,0,1-4.66,1.454,8.206,8.206,0,0,1-7.345-7.985,5.755,5.755,0,0,1,5.036-6.136,9.179,9.179,0,0,1,8.99,3.554,13.5,13.5,0,0,1,2.824,11.494,7.392,7.392,0,0,1-6.288,6.159,14.378,14.378,0,0,1-16.4-10.007,8.113,8.113,0,0,1,2.345-8.648,9.436,9.436,0,0,1,1.279-.86,41.593,41.593,0,0,0-.087,4.743c.753,8.057,7.632,11.05,13.07,9.715a4.826,4.826,0,0,0,3.8-4.795c.167-3.384-.941-6.15-3.914-7.977a6.1,6.1,0,0,0-4.605-.732,3.18,3.18,0,0,0-2.668,3.593,5.1,5.1,0,0,0,7.06,4.16,1.532,1.532,0,0,0,.876-2.012" transform="translate(-52.136 -177.56)" fill="#13129b"/>
    <path id="Trazado_2379" data-name="Trazado 2379" d="M320.009,263.555c5.258.073,8.587,3.213,9.019,8.008a10.72,10.72,0,0,1-1.572,6.4,28.976,28.976,0,0,1-8.11,9.063c-.64.47-1.307.842-2.068.318a2.758,2.758,0,0,1-1.439-2.485c.032-.372.557-.774.943-1.032a49.46,49.46,0,0,0,4.4-2.872,9.242,9.242,0,0,0,3.411-5.615c.1-.58.043-1.1-.524-1.36-.617-.286-.891.232-1.2.634-1.525,2-2.921,4.114-4.616,5.954a5.523,5.523,0,0,1-8.775-1.252,1.212,1.212,0,0,1,.217-1.664c1-.894,2.03-1.751,3.053-2.618,1.236-1.049,2.535-2.032,3.687-3.165a4.5,4.5,0,0,0,1-1.958.919.919,0,0,0-1.612-.814c-1.193,1.056-2.294,2.218-3.486,3.275-1.233,1.093-2.5,2.156-3.82,3.138a7.1,7.1,0,0,1-2.037.944c-.974.318-1.4.15-1.844-.758a6.574,6.574,0,0,1-.561-1.911c-.114-.775.46-1.161,1.093-1.393.6-.221,1.227-.373,1.846-.543a11.355,11.355,0,0,0,5.794-3.657c.544-.64,1.113-1.259,1.638-1.913a6.644,6.644,0,0,1,5.571-2.723m4.129,7.267a5.082,5.082,0,0,0,.554-.042c1.907-.313,2.456-1.654,1.282-3.19a5.056,5.056,0,0,0-3.694-2.05,1.5,1.5,0,0,0-1.707,1.259,3.415,3.415,0,0,0,3.565,4.023" transform="translate(-192.619 -166.957)" fill="#13129b"/>
    <path id="Trazado_2380" data-name="Trazado 2380" d="M126.922,83.915a10.749,10.749,0,0,1,1.2-1.566,17.281,17.281,0,0,1,3.274-2.685,4.442,4.442,0,0,1,6.475,2.693,8.16,8.16,0,0,1,0,5.585c-.09.249-.36.434-.547.648a2.71,2.71,0,0,1-.4-.741c-.144-.795-.179-1.612-.353-2.4a1.03,1.03,0,0,0-.633-.656.893.893,0,0,0-.737.413,6.656,6.656,0,0,0-.5,5.42c.35.986,1.159.723,1.9.408a4.27,4.27,0,0,1-3.588,3.9,5.233,5.233,0,0,1-5.436-3.153A33.167,33.167,0,0,1,126,87.566c-.091-.251-.152-.513-.227-.769l-.317-.221a20.4,20.4,0,0,1-1.377,1.677,10.96,10.96,0,0,1-8.977,3.308,5.769,5.769,0,0,1-4.991-6.8,5.6,5.6,0,0,1,.452-1.427,1.041,1.041,0,0,1,.729-.541c.2,0,.476.4.562.672.2.636.259,1.316.456,1.953.49,1.583,1.9,1.911,3.106.747a7.186,7.186,0,0,0,1.33-6.067c-.287-.734-.892-1-1.806-.737a12.542,12.542,0,0,0-1.239.5c.511-2.409,3.3-4.859,6.659-4.989a5.577,5.577,0,0,1,5.307,2.883c1.149,1.9,1.193,4,1.25,6.16m-4.769-5.591a1.142,1.142,0,0,0-.009-.415c-.11-.261-.224-.658-.415-.71-.215-.059-.543.166-.771.336a1.551,1.551,0,0,0-.376.546,29.351,29.351,0,0,0-2.816,9.9,1.042,1.042,0,0,0,.437.881c.215.089.625-.194.9-.383a1.5,1.5,0,0,0,.363-.554c1.59-3.007,2.065-6.325,2.686-9.6m8.112,11.58a4.214,4.214,0,0,0,.072,1c.1.3.28.7.514.774.209.066.642-.188.8-.42a6.032,6.032,0,0,0,.947-1.842c.439-1.891.8-3.8,1.088-5.725.064-.418-.278-.9-.434-1.348-.358.312-.839.557-1.054.948a16.446,16.446,0,0,0-1.929,6.609m-4.817-6.318a12.522,12.522,0,0,0-.4-2.026c-.336-.919-1.045-1.04-1.649-.269a7.915,7.915,0,0,0-1.465,5.036c0,.771.625,1.113,1.2.7,1.16-.838,2.507-1.613,2.311-3.436m1.714,2.867a14.331,14.331,0,0,0,.52,1.824.523.523,0,0,0,.986.106A5.646,5.646,0,0,0,129.6,84.5c-.045-.511-.384-.644-.842-.449a4.131,4.131,0,0,0-1.6,2.4" transform="translate(-69.689 -47.427)" fill="#13129b"/>
    <path id="Trazado_2381" data-name="Trazado 2381" d="M158.159,183.158c.907.542,1.746,1.091,2.631,1.551a2.4,2.4,0,0,0,1.282.275,1.325,1.325,0,0,0,.98-.576,1.412,1.412,0,0,0-.226-1.191,7.148,7.148,0,0,0-1.436-1.139c-1.413-1-2.921-1.883-4.236-3-2.024-1.713-1.933-3.627.135-5.281,1.419-1.135,2.9-2.188,4.333-3.309a4.168,4.168,0,0,0,1.483-5.14,1.963,1.963,0,0,1-.073-.327c0-.023.016-.051.026-.076,2.474,1.009,4.467,3.951,4.1,6.366a8.156,8.156,0,0,1-1.2,2.715,23.553,23.553,0,0,1-1.581,2.063,2.6,2.6,0,0,0,.289,3.881c.618.607,1.3,1.146,1.9,1.769a3.051,3.051,0,0,1,.664,3.629c-.556,1.186-1.282,2.29-1.878,3.459a14.608,14.608,0,0,0-1.32,2.97c-.741,2.967.685,5.222,3.979,6.391a9.874,9.874,0,0,1-4.781-.145,11.2,11.2,0,0,1-6.254-4.4,8.017,8.017,0,0,1,1.174-10.487" transform="translate(-98.542 -104.495)" fill="#13129b"/>
    <path id="Trazado_2382" data-name="Trazado 2382" d="M251.883,189.861c2.092-1.809,1.924-3.986,1.713-6.2a6.513,6.513,0,0,1,.13-2.15,1.394,1.394,0,0,1,1.976-.979,4.262,4.262,0,0,1,1.141.673,10.15,10.15,0,0,1,.956.942c.968.986,1.516,1.131,2.223.585a1.884,1.884,0,0,0,.251-2.579,11.045,11.045,0,0,0-2.187-1.894c-.581-.429-1.259-.722-1.881-1.1-2.756-1.661-3.5-3.37-2.689-6.475a20.916,20.916,0,0,1,1.37-3.476c.565,1.842,2.125,2.376,3.583,3.048,2.469,1.138,3.1,2.355,2.775,5.059A14.251,14.251,0,0,0,261.19,178c.043.614.254,1.281,1.1,1.2.763-.074,1.009-.624.982-1.318s-.044-1.4-.134-2.089a2.047,2.047,0,0,1,2.737-2.457,4.478,4.478,0,0,1,.787.277c.737.337,1.447.741,2.2,1.024s1.54.447,2.361.678a2.32,2.32,0,0,1-1.434,1.6c-1.062.494-2.176.873-3.24,1.363a7.194,7.194,0,0,0-1.86,1.1,2.13,2.13,0,0,0,.837,3.7,6.686,6.686,0,0,0,1.971.239c.657,0,1-.419.975-1.105-.017-.525,0-1.05,0-1.716a3.843,3.843,0,0,1,1,.239,19.171,19.171,0,0,1,5.348,4.265c.656.8.618,1.1-.3,1.529a17.63,17.63,0,0,1-6.564,1.523c-.608.036-.729-.3-.488-.8.167-.353.351-.7.523-1.049.329-.67.091-1.147-.6-1.23a16.67,16.67,0,0,0-2.991-.117c-.763.048-1.072.615-.749,1.33a19.179,19.179,0,0,0,1.235,2.08c.2.333.462.637.635.984a1.455,1.455,0,0,1-1.1,2.264,3.822,3.822,0,0,1-3.41-1,2.3,2.3,0,0,1-.547-2.76c.28-.638.65-1.237.955-1.865.221-.456.465-.958-.073-1.357a1.034,1.034,0,0,0-1.436.218,16.119,16.119,0,0,0-1.4,1.558,9.069,9.069,0,0,1-6.619,3.55" transform="translate(-159.568 -105.929)" fill="#13129b"/>
    <path id="Trazado_2383" data-name="Trazado 2383" d="M167.67,230.775a5.77,5.77,0,0,0,4.018,4.648c2.261.851,4.215,2.14,4.673,4.711a9.953,9.953,0,0,1-2.549,9c-2.441,2.587-5.61,3.408-9.013,3.288a11.419,11.419,0,0,1-10.652-8.7,11.014,11.014,0,0,1-.07-3.878c.148-1.187,1.095-1.452,1.827-.579,2.509,2.989,5.831,3.712,9.506,3.582a8.253,8.253,0,0,0,4.092-1.034c1.66-1,1.718-2.3.158-3.423-.656-.474-1.37-.87-2.026-1.345a3.174,3.174,0,0,1-1.255-4.178c.285-.738.7-1.428,1.053-2.14Zm.574,17.309c-.039.928.287,1.283,1.182,1.091a4.33,4.33,0,0,0,1.639-.752,6.726,6.726,0,0,0,2.854-4.719,1.8,1.8,0,0,0-.421-1.171c-.118-.149-.648-.124-.895.006a31.381,31.381,0,0,0-3.234,1.87,2.529,2.529,0,0,0-.935,1.35,12.817,12.817,0,0,0-.19,2.324" transform="translate(-97.521 -146.161)" fill="#13129b"/>
    <path id="Trazado_2384" data-name="Trazado 2384" d="M318.855,208.691c-.6.084-1.192.176-1.79.249-1.267.154-1.46.431-1.244,1.709.136.808.224,1.624.334,2.436l-.26.139a5.1,5.1,0,0,1-.709-.568c-.462-.524-.9-1.075-1.327-1.625a.971.971,0,0,0-1.626-.159c-.509.455-1.063.859-1.6,1.286l-.261-.16c.13-.485.245-.975.392-1.455a43.022,43.022,0,0,0,1.381-4.626,7.647,7.647,0,0,0-.246-3.054c-.35-1.467-1.557-1.791-2.652-.744a7.166,7.166,0,0,0-2.223,5c-.043.865-.1,1.731-.2,2.591a6.7,6.7,0,0,1-.3,1.075l-.221.022a7.709,7.709,0,0,1-.359-.76c-.166-.473-.281-.965-.452-1.436-.2-.568-.588-.811-1.177-.517-.549.274-1.085.572-1.631.849-.261.132-.533.24-.8.36l-.174-.161c.372-.7.74-1.395,1.116-2.088.516-.951.431-1.17-.605-1.481-.763-.228-1.528-.447-2.292-.671l-.024-.284c.528-.151,1.047-.344,1.584-.444a12.369,12.369,0,0,0,5.468-2.186c2.359-1.819,2.546-4.368.3-6.341a40.6,40.6,0,0,0-4.142-2.837c-.36-.244-.707-.507-1.061-.761l.04-.293c.576-.063,1.151-.162,1.728-.182,1.286-.045,1.465-.212,1.449-1.464-.009-.692,0-1.384,0-2.357a9.693,9.693,0,0,1,.908.84c1.611,2.005,1.6,2.005,3.47.279a6.828,6.828,0,0,1,.786-.549l.286.1c-.083.774-.13,1.554-.257,2.32-.187,1.127-.518,2.236-.621,3.368a5.658,5.658,0,0,0,.273,2.367,1.431,1.431,0,0,0,2.613.349,4.475,4.475,0,0,0,.831-3.168c-.062-1.172-.171-2.341-.251-3.512-.018-.266,0-.535,0-1.039a6.206,6.206,0,0,1,.8.571c.25.262.453.568.678.854.79,1,1.123,1.058,2.153.329.558-.395,1.1-.806,1.656-1.21l.258.18c-.277.669-.537,1.344-.833,2-.578,1.289-.527,1.4.841,1.746.546.139,1.085.308,1.627.464l.016.3c-.531.159-1.06.321-1.592.476-1.173.343-2.38.6-3.508,1.056a3.487,3.487,0,0,0-1.42,1.241,1.211,1.211,0,0,0,.844,2.011,8.948,8.948,0,0,0,5.014-.515c.737-.257,1.445-.6,2.169-.891.269-.11.547-.2.821-.3l.181.195c-.369.561-.729,1.127-1.108,1.681-.9,1.322-.854,1.576.527,2.418a9.6,9.6,0,0,1,1.8,1.289c-.7,0-1.4.038-2.1-.008-1.235-.083-1.458.1-1.525,1.347-.033.626-.121,1.248-.184,1.872l-.277.074c-.251-.375-.49-.759-.754-1.124-.9-1.239-1.745-2.522-2.731-3.687a3.406,3.406,0,0,0-2.619-1.135c-.725-.014-1.174.343-1.144,1.03a5.726,5.726,0,0,0,.426,2.1,8.624,8.624,0,0,0,3.78,3.92c.615.345,1.218.712,1.827,1.07l-.071.219" transform="translate(-189.989 -118.942)" fill="#13129b"/>
    <path id="Trazado_2385" data-name="Trazado 2385" d="M84.335,185.986c.264.217.471.393.684.561a1.9,1.9,0,0,0,3.1-.785,11.515,11.515,0,0,0,.532-3.282,24.593,24.593,0,0,1,.9-7.458,18.376,18.376,0,0,1,7.47-9.445c-.285,1.2-.644,2.366-.832,3.559a13.182,13.182,0,0,0,1.775,8.624c1.433,2.555,3.13,4.961,4.681,7.452,1.136,1.824,2.305,3.636,3.3,5.535a4.765,4.765,0,0,1-.029,4.666,4.268,4.268,0,0,1-4.532,2.172,3.682,3.682,0,0,1-3.016-2.787,2.774,2.774,0,0,1,1.054-3c.061.256.1.489.173.715a1.785,1.785,0,0,0,2,1.288,1.594,1.594,0,0,0,1.537-1.757,8.919,8.919,0,0,0-.854-2.932c-1.069-2.025-2.307-3.96-3.464-5.939-2.305-3.944-4.148-8.047-4.329-12.75a7.045,7.045,0,0,0-1.006,3.228,17.268,17.268,0,0,0,1.224,7.37c.708,2.144,1.434,4.287,2.006,6.469a7.1,7.1,0,0,1,.1,2.89,3.175,3.175,0,0,1-4.052,2.483,2.535,2.535,0,0,1-1.459-3.721l.257.325a1.445,1.445,0,0,0,2.589-.377,6.226,6.226,0,0,0,.012-3.8c-.345-1.492-.792-2.965-1.275-4.42a20.01,20.01,0,0,1-.991-6.852c-.16.223-.4.424-.465.671a24.989,24.989,0,0,0-.911,4.129c-.157,2.144,0,4.31-.086,6.462a7.668,7.668,0,0,1-.583,2.587,3.347,3.347,0,0,1-3.686,2.011,2.644,2.644,0,0,1-1.823-3.89" transform="translate(-53.209 -104.893)" fill="#13129b"/>
    <path id="Trazado_2386" data-name="Trazado 2386" d="M293.051,328.1a8.368,8.368,0,0,1-2.923,6.093,18.272,18.272,0,0,1-10.226,4.8,19.751,19.751,0,0,1-4.332.181,3.889,3.889,0,0,1-3.617-4.48,11.507,11.507,0,0,1,3.306-6.9,1.373,1.373,0,0,1,1.561-.454,14.052,14.052,0,0,0,12.532-1.911c1.305-.847,2.342-.7,3.069.7a9.85,9.85,0,0,1,.631,1.975m-13.162,7.618c2.726-.12,5.186-.768,6.939-2.869a5.829,5.829,0,0,0,1.007-2.748c.143-.9-.359-1.159-1.167-.742a10.583,10.583,0,0,1-4.555,1.25c-1.554.05-1.554.039-1.625,1.53a2.74,2.74,0,0,1-.036.333c-.179,1.037-.36,2.074-.564,3.246" transform="translate(-172.266 -205.826)" fill="#13129b"/>
    <path id="Trazado_2387" data-name="Trazado 2387" d="M102.555,2.17c-.411.21-.823.42-1.234.631-1.479.761-1.6,1.828-.273,2.831.847.638,1.8,1.137,2.646,1.774a5.344,5.344,0,0,1,.872,1.117,6.7,6.7,0,0,1-1.4.113c-.744-.092-1.467-.333-2.209-.456-1.5-.249-2.263.6-1.839,2.064.216.748.553,1.461.832,2.19a7.466,7.466,0,0,1,.45,1.257,2.681,2.681,0,0,1-.145.893c-.3-.094-.694-.1-.883-.3-.535-.567-.971-1.226-1.475-1.824a8.507,8.507,0,0,0-1.209-1.27,1.334,1.334,0,0,0-2.281.606c-.336.85-.5,1.767-.756,2.651a10.458,10.458,0,0,1-.458,1.428c-.1.223-.375.368-.57.549-.171-.23-.457-.443-.493-.692-.126-.855-.164-1.724-.236-2.587,0-.028,0-.056,0-.084-.11-.861-.138-1.819-1.057-2.228a2.267,2.267,0,0,0-2.387.616c-.682.536-1.352,1.089-2.067,1.576-.211.144-.557.091-.841.129.033-.284-.025-.627.114-.842.47-.727,1.01-1.408,1.523-2.107a2.735,2.735,0,0,0,.478-.685c.162-.5.5-1.273.293-1.5a2.275,2.275,0,0,0-1.612-.53c-1.223.045-2.437.284-3.659.4a4.173,4.173,0,0,1-1-.144L81.6,7.455a8.393,8.393,0,0,1,1.047-.668c.991-.45,2.015-.826,3-1.289.588-.276,1.167-.67,1.143-1.417-.026-.807-.605-1.208-1.311-1.459-.331-.118-.652-.265-.978-.4l-.024-.229a5.736,5.736,0,0,1,1.091-.382c.772-.111,1.556-.14,2.334-.213A3.57,3.57,0,0,1,91.32,2.944a2.585,2.585,0,0,0,2.988,1.14,3.532,3.532,0,0,0,1.563-1.038,4.369,4.369,0,0,1,4.2-1.536c.814.108,1.629.207,2.444.311l.038.349" transform="translate(-51.696 -0.874)" fill="#13129b"/>
    <path id="Trazado_2388" data-name="Trazado 2388" d="M313.509,82.2c-5.539.03-9.788-3.111-11.25-7.965-.016-.054-.027-.108-.038-.163-.429-2.077-.208-2.147,1.577-2.2a13.561,13.561,0,0,0,5.193-1.154,7.614,7.614,0,0,1,1.493-.512,1.557,1.557,0,0,1,1.712.761c.907,1.331,1.317,1.452,2.881.944.557-.181,1.112-.371,1.658-.582a1.644,1.644,0,0,1,2.085.539,11.706,11.706,0,0,1,2.471,5.956,2.9,2.9,0,0,1-1.729,2.837,12.7,12.7,0,0,1-6.053,1.534m-.185-3.6a6.228,6.228,0,0,0,3.515-1.034,2.641,2.641,0,0,0,.5-.713,2.783,2.783,0,0,0-.76-.362c-1.793-.243-3.6-.39-5.382-.692-1.09-.184-2.14-.6-3.216-.881a2.821,2.821,0,0,0-.79.022c.018.286-.063.637.073.846a5.148,5.148,0,0,0,1.08,1.25,8.547,8.547,0,0,0,4.98,1.563" transform="translate(-191.338 -44.456)" fill="#13129b"/>
    <path id="Trazado_2389" data-name="Trazado 2389" d="M177.706,294.225a1.985,1.985,0,0,0,.369-1.925,11.114,11.114,0,0,1-.391-1.619,1.106,1.106,0,0,1,.83-1.359,1.293,1.293,0,0,1,1.594.76c.119.247.2.513.328.847.852-.478,1.709-.668,2.372.236.6.816.316,1.582-.378,2.374a3.278,3.278,0,0,1,.6.468,1.332,1.332,0,0,1,.033,1.771,1.237,1.237,0,0,1-1.659.28,5.335,5.335,0,0,0-1.844-.576c-.535-.034-.886.3-.653,1.016a5,5,0,0,1-1.137,5.065c-2.878,3.346-9.2,4.616-13.12,2.615a5.085,5.085,0,0,1-2.62-2.82c-.316-.875-.1-1.131.808-1.032.888.1,1.778.184,2.67.233a4.263,4.263,0,0,0,4.312-2.594c.527-1.048,1.009-2.123,1.594-3.138A3.277,3.277,0,0,1,175,293.045a13.141,13.141,0,0,1,2.709,1.18" transform="translate(-102.559 -183.253)" fill="#13129b"/>
    <path id="Trazado_2390" data-name="Trazado 2390" d="M366.454,243.119a5.244,5.244,0,0,0-3.161-4.762c-1.249-.622-2.539-1.174-3.738-1.882a3.159,3.159,0,0,1-1.471-3.619,3.243,3.243,0,0,1,3.74-2.6,21.252,21.252,0,0,1,2.773.766,15.306,15.306,0,0,1-.7-2.784,3.223,3.223,0,0,1,2.146-3.429,3.443,3.443,0,0,1,3.93,1.316,7.745,7.745,0,0,1,1.687,4.4,15.36,15.36,0,0,1-4.906,12.443,1.463,1.463,0,0,1-.3.152" transform="translate(-226.778 -142.296)" fill="#13129b"/>
    <path id="Trazado_2391" data-name="Trazado 2391" d="M84.737,244.167c2.438-1.068,4.231-.517,5,1.478s-.268,3.545-3.065,4.5c.222,1.189.492,2.465-.456,3.459a4.395,4.395,0,0,1-1.806,1.116c-1.751.543-2.89-.124-4.048-2.2a16.169,16.169,0,0,1-1.609.342,3.138,3.138,0,0,1-3.605-2.505,3.242,3.242,0,0,1,2.507-3.786c.618-.14.741-.3.6-.939a3.271,3.271,0,0,1,6.118-2.178c.12.218.229.441.369.713m-4.114,4.141a2.046,2.046,0,0,0,2,2.052,2.015,2.015,0,0,0-.013-4.03,2.049,2.049,0,0,0-1.984,1.978" transform="translate(-47.572 -153.086)" fill="#13129b"/>
    <path id="Trazado_2392" data-name="Trazado 2392" d="M51.376,111.861c-.553-.108-1.422-.3-2.3-.445-.9-.152-1.806-.3-2.716-.378-.641-.053-1.127-.319-.974-.953a33.66,33.66,0,0,1,1.65-5.843c1.318-2.951,3.97-4.292,7.055-4.717a24.756,24.756,0,0,1,3.757-.01,1.115,1.115,0,0,1,1.209,1.025,2.894,2.894,0,0,0,1.325,2.046,1.122,1.122,0,0,1,.545,1.292,10.238,10.238,0,0,1-9.553,7.983M54.72,108.6c-.584-.37-1.094-.653-1.56-1a5.612,5.612,0,0,1-2.229-3.713c-.042-.24-.237-.586-.423-.631s-.483.185-.68.353a1.9,1.9,0,0,0-.373.551c-1.248,2.287,1.04,5.2,2.933,5.4a2.372,2.372,0,0,0,2.333-.962m-.514-6.359a5.1,5.1,0,0,0,2.058,3.745,1.915,1.915,0,0,0,1.314.358,1.629,1.629,0,0,0,1-.838,1.326,1.326,0,0,0-.087-1.2,7.253,7.253,0,0,1-1.778-2.673c-.259-.7-.96-.771-1.64-.629a1.029,1.029,0,0,0-.863,1.238" transform="translate(-28.735 -62.997)" fill="#13129b"/>
    <path id="Trazado_2393" data-name="Trazado 2393" d="M380.6,88.851c.256.547.723,1.091.733,1.643.051,3.014.047,6.033-.06,9.046a24.28,24.28,0,0,1-.594,4.219c-.408,1.892-.862,2.09-2.483,1.081a20.7,20.7,0,0,1-7.7-8.437,17.86,17.86,0,0,1-.712-1.979c4.4-.241,8.123-1.588,10.818-5.572" transform="translate(-234.258 -56.287)" fill="#13129b"/>
    <path id="Trazado_2394" data-name="Trazado 2394" d="M123.752,260.779c3.247.117,5.555,2,6.623,5.42.332,1.064.636,2.138.953,3.207.474,1.6.95,2.036,2.572,1.865,3.471-.365,6.076,2.375,6.9,4.9.547,1.683-.134,2.818-1.866,3.093a7.767,7.767,0,0,1-7.2-2.723,7.685,7.685,0,0,1-1.581-4.436c-.441-3.5-2.553-5.439-5.726-6.484-1.243-.409-2.512-.757-3.715-1.263a1.421,1.421,0,0,1-.335-2.59,4.658,4.658,0,0,1,3.375-.983m11.33,12.238c-1.016.017-1.721,1.006-1.178,1.752a4.847,4.847,0,0,0,3.731,2.1.936.936,0,0,0,.975-1.344,4.8,4.8,0,0,0-3.528-2.509" transform="translate(-75.821 -165.199)" fill="#13129b"/>
    <path id="Trazado_2395" data-name="Trazado 2395" d="M256.605,89.64a5.82,5.82,0,0,0,5.258,1.683c.77-.084.986.3.686,1.045a4.614,4.614,0,0,1-.41.728c-.131.207-.283.4-.43.605,3.417,1.823,7.534-.933,8.459-5.545a14.087,14.087,0,0,1,.538,2.1c.5,4.92-2.806,8.415-7.821,8.241a13.165,13.165,0,0,1-3.194-.556c-.818-.239-1.277-.082-1.591.684-.144.351-.353.675-.6,1.138a7.316,7.316,0,0,1-.986-.878c-1.636-2.145-1.62-6.945.089-9.249" transform="translate(-161.736 -55.847)" fill="#13129b"/>
    <path id="Trazado_2396" data-name="Trazado 2396" d="M278.889,238.869c4.135.575,8.321,4.451,7.838,9.284-.267,2.669-2.145,4.429-4.705,4.18a4.2,4.2,0,0,1-3.947-5.279,27.037,27.037,0,0,1,1.1-3.592,4.843,4.843,0,0,0-.285-4.593m4.949,6.316a3.145,3.145,0,0,0-1.342-2.481c-.574-.33-.867-.176-.962.483-.088.606-.211,1.207-.3,1.813a1.381,1.381,0,0,0,1.126,1.748,1.451,1.451,0,0,0,1.484-1.563" transform="translate(-176.091 -151.324)" fill="#13129b"/>
    <path id="Trazado_2397" data-name="Trazado 2397" d="M89.911,132.961a4.3,4.3,0,0,1-4.145-4.131,8.787,8.787,0,0,1,1.845-6.1.9.9,0,0,1,.779-.3,7.432,7.432,0,0,1,4.875,4.8,5.1,5.1,0,0,1-.2,3.672,3.2,3.2,0,0,1-3.151,2.056" transform="translate(-54.311 -77.55)" fill="#13129b"/>
    <path id="Trazado_2398" data-name="Trazado 2398" d="M269.691,78.05a29.115,29.115,0,0,0-2.285-1.965c-1.028-.718-1.132-1.271-.226-2.185.114-.115.235-.224.346-.331-1.478-2-4.76-1.309-6.682,1.356a4.329,4.329,0,0,1,1.105-4.622c1.736-1.694,4.931-1.929,7.351-.539a3.275,3.275,0,0,0,.788.468,2.87,2.87,0,0,0,1.388.086c.917-.285.973-.3,1.11.665.36,2.539-1.111,6.023-2.9,7.067" transform="translate(-165.059 -43.622)" fill="#13129b"/>
    <path id="Trazado_2399" data-name="Trazado 2399" d="M292.669,308.907a22.581,22.581,0,0,1,3.187.88,2.6,2.6,0,0,1,.278,4.421,9.548,9.548,0,0,1-8.842.585,1.68,1.68,0,0,1-1.108-1.778c.015-2.227.439-2.925,2.623-3.507a35.147,35.147,0,0,1,3.861-.6" transform="translate(-181.298 -195.693)" fill="#13129b"/>
    <path id="Trazado_2400" data-name="Trazado 2400" d="M372.61,67.123c2.04.485,2.946,2.146,2.432,4.3a7.488,7.488,0,0,1-2.633,3.991,10.478,10.478,0,0,1-8.823,2.7c-1.149-.2-1.833-.913-1.8-1.775.036-.964.8-1.614,2.036-1.69a11.451,11.451,0,0,0,7.171-2.633c1.443-1.271,2.388-2.752,1.618-4.887" transform="translate(-229.19 -42.522)" fill="#13129b"/>
    <path id="Trazado_2401" data-name="Trazado 2401" d="M64.694,72.717c-.181,1.137-.277,1.969-.467,2.78a.793.793,0,0,1-.6.471c-2.37-.178-4.575-.756-6.088-2.807-1.709-2.318-.748-5.488,1.842-6.078a3.9,3.9,0,0,1,4.3,2.318,25.863,25.863,0,0,1,1.012,3.316" transform="translate(-35.907 -42.445)" fill="#13129b"/>
    <path id="Trazado_2402" data-name="Trazado 2402" d="M307.058,253.31a7.031,7.031,0,0,1,4.756,2.145,4.292,4.292,0,0,1,.718,4.821,3.446,3.446,0,0,1-3.282,1.761,2.81,2.81,0,0,1-2.716-2.319,6.834,6.834,0,0,1,.335-2.61c.583-2.033.628-2.061.19-3.8" transform="translate(-194.172 -160.472)" fill="#13129b"/>
    <path id="Trazado_2403" data-name="Trazado 2403" d="M162.025,50.468a11.073,11.073,0,0,1,1.76.878c2.086,1.54,4.172,3.085,6.179,4.725a3.343,3.343,0,0,1,.194,4.638c-.538.6-1.009.663-1.607-.059q-2.5-3.025-4.866-6.167a19.738,19.738,0,0,1-1.537-2.682,7.044,7.044,0,0,1-.377-1.128l.255-.2" transform="translate(-102.481 -31.972)" fill="#13129b"/>
    <path id="Trazado_2404" data-name="Trazado 2404" d="M291.834,161.317a3.34,3.34,0,0,1,3.441,3.347,3.4,3.4,0,0,1-3.387,3.505,3.466,3.466,0,0,1-3.463-3.371,3.4,3.4,0,0,1,3.408-3.481" transform="translate(-182.717 -102.194)" fill="#13129b"/>
    <path id="Trazado_2405" data-name="Trazado 2405" d="M166.713,415.849a4.163,4.163,0,0,1-1.256,3.095,2.807,2.807,0,0,1-2.98.812,2.594,2.594,0,0,1-1.837-2.177,4.048,4.048,0,0,1,1.15-3.833,2.949,2.949,0,0,1,3.315-.654,2.61,2.61,0,0,1,1.609,2.757" transform="translate(-101.707 -261.535)" fill="#13129b"/>
    <path id="Trazado_2406" data-name="Trazado 2406" d="M359.442,68.763c.438.048.843.1,1.25.136a10.649,10.649,0,0,0,4.326-.848,11.017,11.017,0,0,1,2.325-.652,2.062,2.062,0,0,1,1.468.5,1.2,1.2,0,0,1-.041,1.688,8.692,8.692,0,0,1-1.988,1.749,7.827,7.827,0,0,1-5.185,1.247,1.73,1.73,0,0,1-1.47-1.32c-.235-.8-.442-1.607-.685-2.5" transform="translate(-227.707 -42.693)" fill="#13129b"/>
    <path id="Trazado_2407" data-name="Trazado 2407" d="M289.751,123.933a3.161,3.161,0,1,1,3.125,3.184,3.182,3.182,0,0,1-3.125-3.184" transform="translate(-183.557 -76.475)" fill="#13129b"/>
    <path id="Trazado_2408" data-name="Trazado 2408" d="M277.221,141.667a3.009,3.009,0,1,1,.056-6.017,2.918,2.918,0,0,1,2.958,2.989,2.951,2.951,0,0,1-3.014,3.028" transform="translate(-173.713 -85.934)" fill="#13129b"/>
    <path id="Trazado_2409" data-name="Trazado 2409" d="M259.463,150.638a2.732,2.732,0,0,1-2.762-2.848A2.845,2.845,0,0,1,259.487,145a2.959,2.959,0,0,1,2.855,2.853,2.849,2.849,0,0,1-2.88,2.783" transform="translate(-162.62 -91.859)" fill="#13129b"/>
    <path id="Trazado_2410" data-name="Trazado 2410" d="M49.284,83.407c-1.734,1-3.361,1.412-5.059.51a3.53,3.53,0,0,1-1.908-3.627,4,4,0,0,1,2.436-3.548c-.033,3.248,1.283,5.518,4.531,6.666" transform="translate(-26.799 -48.615)" fill="#13129b"/>
    <path id="Trazado_2411" data-name="Trazado 2411" d="M262.359,262.4a4.285,4.285,0,0,1,4.267,3,2.3,2.3,0,0,1-.786,2.487,2.151,2.151,0,0,1-2.366.281,2.058,2.058,0,0,1-1.212-2.191c.019-.277.089-.552.093-.829.012-.9,0-1.792,0-2.755" transform="translate(-166.138 -166.229)" fill="#13129b"/>
    <path id="Trazado_2412" data-name="Trazado 2412" d="M73.822,134.019a6.606,6.606,0,0,0,1.57,6.427,3.478,3.478,0,0,1-3.775-.1,3,3,0,0,1-1.027-3.314,4.55,4.55,0,0,1,3.233-3.01" transform="translate(-44.637 -84.901)" fill="#13129b"/>
    <path id="Trazado_2413" data-name="Trazado 2413" d="M41.31,148.828c2.254,3.633,5.566,2.726,9.024,2.038a13.254,13.254,0,0,1-4.809,2.961,2.8,2.8,0,0,1-3.883-1.984A24.2,24.2,0,0,1,41.058,149l.252-.173" transform="translate(-26.01 -94.283)" fill="#13129b"/>
    <path id="Trazado_2414" data-name="Trazado 2414" d="M310.874,157.014a2.227,2.227,0,0,1-2.3-2.235,2.324,2.324,0,0,1,2.29-2.376,2.37,2.37,0,0,1,2.324,2.364,2.269,2.269,0,0,1-2.313,2.247" transform="translate(-195.481 -96.547)" fill="#13129b"/>
    <path id="Trazado_2415" data-name="Trazado 2415" d="M43.183,38.895a3.8,3.8,0,0,1,5.29-3.418.828.828,0,0,1,.216.774,10.639,10.639,0,0,1-4.415,3.743c-.766.352-1.106-.04-1.091-1.1" transform="translate(-27.356 -22.281)" fill="#13129b"/>
    <path id="Trazado_2416" data-name="Trazado 2416" d="M177.863,16.392c-.039,2.207-.79,2.684-2.706,1.69a14.482,14.482,0,0,1-2.5-1.653c-.608-.5-.508-.979.246-1.118a24.194,24.194,0,0,1,4.042-.432c1-.014.843.914.917,1.513" transform="translate(-109.128 -9.426)" fill="#13129b"/>
    <path id="Trazado_2417" data-name="Trazado 2417" d="M310.18,139.714a2.027,2.027,0,0,1-.049-4.053,2.028,2.028,0,1,1,.049,4.053" transform="translate(-195.201 -85.941)" fill="#13129b"/>
    <path id="Trazado_2418" data-name="Trazado 2418" d="M52.611,137.923c-1.025,1.649-3.162,2.552-4.6,2.037-1.317-.471-2.088-2.032-1.872-3.933,1.784,1.865,4.026,2.063,6.473,1.9" transform="translate(-29.206 -86.173)" fill="#13129b"/>
    <path id="Trazado_2419" data-name="Trazado 2419" d="M263.342,131.7a1.926,1.926,0,1,1-.033-3.852,1.927,1.927,0,1,1,.033,3.852" transform="translate(-165.583 -80.989)" fill="#13129b"/>
    <path id="Trazado_2420" data-name="Trazado 2420" d="M87.37,93.539a1.985,1.985,0,0,1-1.97-1.881,2.049,2.049,0,0,1,1.943-2.022,2.09,2.09,0,0,1,1.98,1.994,2.023,2.023,0,0,1-1.953,1.909" transform="translate(-54.101 -56.785)" fill="#13129b"/>
    <path id="Trazado_2421" data-name="Trazado 2421" d="M295.484,149.491a2.005,2.005,0,0,1-1.948-1.82,2.077,2.077,0,0,1,1.986-2.067,2.015,2.015,0,0,1,1.927,1.934,1.936,1.936,0,0,1-1.965,1.953" transform="translate(-185.954 -92.24)" fill="#13129b"/>
    <path id="Trazado_2422" data-name="Trazado 2422" d="M94.6,106.165a1.955,1.955,0,0,1-1.9-2.01,1.943,1.943,0,0,1,3.883.063,1.962,1.962,0,0,1-1.981,1.947" transform="translate(-58.721 -64.808)" fill="#13129b"/>
    <path id="Trazado_2423" data-name="Trazado 2423" d="M279.2,158.743a1.889,1.889,0,0,1-1.868,1.952,1.933,1.933,0,0,1-2.019-1.906,1.954,1.954,0,0,1,1.933-1.922,1.909,1.909,0,0,1,1.954,1.876" transform="translate(-174.408 -99.375)" fill="#13129b"/>
    <path id="Trazado_2424" data-name="Trazado 2424" d="M310.406,173.035a1.879,1.879,0,0,1,1.836-1.9,1.855,1.855,0,1,1-.011,3.71,1.883,1.883,0,0,1-1.825-1.815" transform="translate(-196.642 -108.417)" fill="#13129b"/>
    <path id="Trazado_2425" data-name="Trazado 2425" d="M303.906,109.194a1.79,1.79,0,0,1-1.895,1.789,1.816,1.816,0,0,1,.135-3.629,1.786,1.786,0,0,1,1.76,1.84" transform="translate(-190.222 -68.008)" fill="#13129b"/>
    <path id="Trazado_2426" data-name="Trazado 2426" d="M276.795,124.332a1.737,1.737,0,0,1-1.775-1.8,1.8,1.8,0,0,1,1.836-1.847,1.87,1.87,0,0,1,1.805,1.824,1.806,1.806,0,0,1-1.867,1.82" transform="translate(-174.225 -76.455)" fill="#13129b"/>
  </g>
</svg>
