<?xml version="1.0" encoding="UTF-8"?>
<svg id="Capa_1" xmlns="http://www.w3.org/2000/svg" viewBox="0 0 439 106">
  <defs>
    <style>
      .cls-1 {
        fill: none;
      }

      .cls-2 {
        fill: #fff;
      }

      .cls-3 {
        fill: #fbbe22;
      }
    </style>
  </defs>
  <rect class="cls-1" width="439" height="106"/>
  <g id="Grupo_218">
    <path id="Trazado_1322" class="cls-2" d="M254.38,55.96c0-10.39-4.45-19.56-19.48-19.56-5.98-.09-11.88,1.32-17.16,4.12l2.43,8.33c3.81-2.24,8.13-3.45,12.55-3.5,7.61-.01,8.86,4.3,8.86,7.06v.67c-16.61-.03-27.12,5.71-27.12,17.4,0,7.14,5.33,13.84,14.65,13.84,5.69,0,10.49-2.29,13.36-5.92h.28s1.89,7.92,12.36,4.89c-.54-3.66-.78-7.36-.73-11.06v-16.29ZM241.98,66.93c.02.83-.08,1.66-.32,2.46-1.22,3.57-4.6,5.94-8.36,5.88-3.47,0-6.19-1.96-6.19-6.07,0-6.29,6.95-8.02,14.87-7.98"/>
    <path id="Trazado_1323" class="cls-2" d="M0,22.27s10.85,44.4,12.58,51.59c2.03,8.41,5.67,11.51,16.17,9.44l6.78-27.54c1.71-6.82,2.88-11.71,3.99-18.66h.19c.77,6.28,1.86,12.52,3.28,18.68,0,0,2.77,12.51,4.2,19.06,1.4,6.55,5.33,10.69,15.64,8.45l16.15-61.03h-13.04l-5.54,26.4c-1.47,7.65-2.8,13.68-3.84,20.68h-.19c-.93-6.93-2.12-12.71-3.65-20.21l-5.74-26.88h-13.6l-6.13,26.19c-1.75,8-3.38,14.41-4.41,21.2h-.18c-1.06-6.37-2.49-14.48-4.02-22.18,0,0-3.64-18.75-4.92-25.22"/>
    <path id="Trazado_1324" class="cls-2" d="M115.31,55.96c0-10.39-4.46-19.56-19.49-19.56-5.97-.09-11.87,1.33-17.15,4.12l2.43,8.33c3.8-2.24,8.13-3.45,12.55-3.5,7.61-.01,8.86,4.3,8.86,7.06v.67c-16.61-.03-27.13,5.71-27.13,17.4,0,7.14,5.35,13.84,14.63,13.84,5.74,0,10.5-2.29,13.37-5.92h.29s1.9,7.92,12.36,4.89c-.54-3.66-.78-7.36-.72-11.06v-16.29ZM102.9,66.93c.02.83-.08,1.66-.31,2.46-1.23,3.57-4.61,5.94-8.39,5.88-3.45,0-6.18-1.96-6.18-6.07,0-6.29,6.94-8.02,14.87-7.98"/>
    <path id="Trazado_1325" class="cls-2" d="M122.07,22.27v61.02h12.41V22.27h-12.41Z"/>
    <path id="Trazado_1326" class="cls-2" d="M292.46,22.27v45.02c0,6.21,1.17,10.55,3.68,13.2,2.71,2.6,6.36,3.99,10.11,3.84,3.05.02,6.08-.43,9-1.33l-.15-9.69c-1.55.37-3.14.56-4.73.55-4.23,0-5.63-2.68-5.63-8.26v-17.23h10.8v-11.66h-10.8v-14.43"/>
    <path id="Trazado_1327" class="cls-2" d="M260.39,37.46v45.85h12.83v-23.48c-.02-1.13.08-2.26.28-3.36.96-4.95,4.71-8.08,10.13-8.08,1.23,0,2.46.12,3.68.34v-12.02c-.92-.18-1.85-.27-2.78-.26-4.8,0-10.24,3.05-12.53,9.69h-.32v-8.66"/>
    <path id="Trazado_1328" class="cls-2" d="M141.68,37.46v45.85h12.5v-26.91c-.03-1.27.17-2.53.59-3.72,1.02-2.73,3.54-5.88,7.58-5.88,5.03,0,7.41,4.25,7.41,10.37v26.14h12.47v-27.23c0-1.25.16-2.5.52-3.7.99-3.31,4.04-5.58,7.5-5.58,5.08,0,7.55,4.15,7.55,11.38v25.13h12.46v-27.04c0-14.2-7.22-19.83-15.43-19.83-3.19-.06-6.34.8-9.06,2.48-2.31,1.47-4.29,3.41-5.81,5.69h-.19c-1.97-4.93-6.61-8.17-12.66-8.17-7.76,0-11.29,3.92-13.36,7.23h-.19v-6.21"/>
    <path id="Trazado_1329" class="cls-3" d="M382.65,35.4c2.45,0,4.52-1.28,4.78-2.92l2.43-27.52C389.86,2.23,386.66,0,382.65,0s-7.21,2.23-7.21,4.96l2.45,27.52c.26,1.64,2.31,2.92,4.76,2.92"/>
    <path id="Trazado_1330" class="cls-3" d="M367.74,44.02c1.22-2.15,1.15-4.54-.17-5.6l-22.68-15.86c-2.36-1.38-5.89.26-7.91,3.74s-1.61,7.36.7,8.71l25.11,11.64c1.61.6,3.71-.52,4.95-2.64"/>
    <path id="Trazado_1331" class="cls-3" d="M397.56,43.99c1.28,2.13,3.39,3.25,4.95,2.68l25.11-11.68c2.33-1.38,2.68-5.23.71-8.7-2.02-3.47-5.57-5.1-7.92-3.75l-22.69,15.85c-1.26,1.08-1.35,3.48-.14,5.62"/>
    <path id="Trazado_1332" class="cls-3" d="M382.65,69.78c2.45,0,4.52,1.28,4.78,2.92l2.43,27.52c0,2.73-3.21,4.93-7.21,4.93s-7.21-2.21-7.21-4.93l2.45-27.52c.26-1.64,2.31-2.92,4.76-2.92"/>
    <path id="Trazado_1333" class="cls-3" d="M397.56,61.19c1.28-2.13,3.39-3.27,4.95-2.65l25.11,11.65c2.33,1.35,2.68,5.24.71,8.71-2.02,3.44-5.57,5.08-7.92,3.74l-22.69-15.87c-1.26-1.07-1.35-3.46-.14-5.57"/>
    <path id="Trazado_1334" class="cls-3" d="M367.74,61.17c1.22,2.14,1.15,4.53-.17,5.6l-22.68,15.84c-2.36,1.38-5.89-.27-7.91-3.72-2.02-3.47-1.61-7.36.7-8.71l25.11-11.65c1.61-.61,3.71.52,4.95,2.63"/>
    <path id="Trazado_1335" class="cls-3" d="M434.97,80.22h.31c.42,0,.6.13.65.47.04.26.11.51.23.74h.81c-.14-.23-.21-.49-.21-.76-.04-.34-.27-.62-.6-.72v-.07c.36-.04.63-.34.65-.7,0-.25-.1-.49-.28-.67-.34-.17-.72-.25-1.1-.23-.39,0-.79.03-1.17.11v3.04h.72v-1.21ZM434.99,78.84l.37-.05c.43,0,.66.2.66.48,0,.31-.31.46-.71.46h-.32v-.89ZM435.45,76.77c-1.7.03-3.06,1.43-3.03,3.14s1.43,3.06,3.14,3.03c1.69-.03,3.04-1.42,3.03-3.11,0-1.7-1.38-3.07-3.08-3.06-.02,0-.04,0-.06,0M435.45,77.39c1.36.06,2.41,1.21,2.35,2.57-.06,1.27-1.07,2.29-2.35,2.35-1.36-.04-2.42-1.17-2.38-2.53.04-1.29,1.07-2.33,2.36-2.38"/>
  </g>
</svg>