<svg id="Grupo_2245" data-name="Grupo 2245" xmlns="http://www.w3.org/2000/svg" width="310.18" height="74.902" viewBox="0 0 310.18 74.902">
  <path id="Trazado_1608" data-name="Trazado 1608" d="M145.686,25.216c1.758,0,3.2-.912,3.394-2.091l1.736-19.6c0-1.938-2.271-3.528-5.121-3.528s-5.119,1.591-5.119,3.528l1.729,19.6c.191,1.179,1.636,2.091,3.39,2.091ZM135.1,31.336c.88-1.517.815-3.225-.115-3.981l-16.107-11.3c-1.675-.969-4.185.2-5.613,2.67s-1.175,5.225.5,6.194l17.834,8.3c1.114.414,2.638-.381,3.511-1.9l-.007.011m21.189-.011c.882,1.517,2.393,2.312,3.509,1.9l17.837-8.3c1.682-.971,1.918-3.728.5-6.2s-3.947-3.639-5.615-2.668l-16.109,11.3c-.921.756-.99,2.464-.113,3.983l-.009-.013m-10.6,18.37c1.758,0,3.2.9,3.394,2.085l1.736,19.594c0,1.942-2.271,3.528-5.121,3.528s-5.119-1.586-5.119-3.528l1.729-19.594c.191-1.181,1.636-2.085,3.39-2.085h-.009m10.6-6.122c.882-1.521,2.393-2.31,3.509-1.892l17.837,8.3c1.682.971,1.918,3.732.5,6.2s-3.947,3.634-5.615,2.666L156.408,47.558c-.921-.763-.99-2.473-.113-3.99h-.009m-21.189,0c.88,1.515.815,3.225-.115,3.988L118.875,58.847c-1.675.969-4.185-.206-5.613-2.666s-1.175-5.23.5-6.2l17.834-8.3c1.114-.418,2.638.371,3.511,1.892H135.1" transform="translate(131.119)" fill="#fdbb2f"/>
  <path id="Trazado_1609" data-name="Trazado 1609" d="M175.207,39.056A5.775,5.775,0,0,1,169.033,45a4.03,4.03,0,0,1-4.384-4.319c0-4.488,4.937-5.726,10.559-5.7Zm8.816-7.819c0-7.4-3.162-13.907-13.842-13.907a25.266,25.266,0,0,0-12.21,2.913l1.738,5.947a17.889,17.889,0,0,1,8.905-2.505c5.418-.015,6.307,3.069,6.307,5.043v.466c-11.811-.017-19.278,4.072-19.278,12.4,0,5.091,3.8,9.859,10.414,9.859a11.827,11.827,0,0,0,9.5-4.222h.2s1.346,5.644,8.784,3.485a47.987,47.987,0,0,1-.516-7.865l0-11.616M0,7.254S7.718,38.879,8.951,44.011c1.437,5.992,4.029,8.2,11.5,6.708l4.82-19.607c1.222-4.872,2.039-8.346,2.826-13.3h.137a130.658,130.658,0,0,0,2.343,13.313s1.961,8.9,2.967,13.576,3.81,7.618,11.124,6.014L56.147,7.252H46.878L42.955,26.046c-1.053,5.468-2.009,9.746-2.748,14.746h-.13c-.672-4.957-1.524-9.059-2.594-14.388L33.4,7.252H23.742L19.375,25.921c-1.235,5.674-2.395,10.255-3.13,15.088h-.132c-.754-4.551-1.758-10.31-2.843-15.8,0,0-2.592-13.352-3.5-17.956L0,7.254m73.678,31.8A5.775,5.775,0,0,1,67.5,45a4.029,4.029,0,0,1-4.382-4.319c0-4.488,4.937-5.726,10.561-5.7Zm8.816-7.819c0-7.4-3.16-13.907-13.84-13.907A25.279,25.279,0,0,0,56.44,20.243l1.738,5.947a17.889,17.889,0,0,1,8.905-2.505c5.422-.015,6.309,3.069,6.309,5.043v.466c-11.814-.017-19.278,4.072-19.278,12.4,0,5.091,3.8,9.859,10.407,9.859a11.83,11.83,0,0,0,9.5-4.222h.2s1.35,5.644,8.786,3.485a47.99,47.99,0,0,1-.516-7.865V31.237M97.21,41.492V7.254H88.38V50.721H97.21V41.492M212.7,7.254V39.319c0,4.421.834,7.518,2.612,9.412a9.786,9.786,0,0,0,7.189,2.726,20.992,20.992,0,0,0,6.389-.947l-.115-6.9a13.446,13.446,0,0,1-3.353.4c-3.008,0-4.014-1.927-4.014-5.895V25.849h7.687V17.531H221.4V7.254H212.7M189.91,18.067V50.721h9.107V34a12.362,12.362,0,0,1,.2-2.41,6.873,6.873,0,0,1,7.2-5.741,17.1,17.1,0,0,1,2.627.23V17.531a8.857,8.857,0,0,0-2-.2c-3.4,0-7.265,2.193-8.888,6.9H197.9V18.067H189.91m-86.519,0V50.721h8.873V31.573a7.74,7.74,0,0,1,.416-2.674c.735-1.927,2.529-4.185,5.392-4.185,3.582,0,5.256,3.028,5.256,7.395v18.61h8.866V31.337a9.009,9.009,0,0,1,.371-2.646,5.589,5.589,0,0,1,5.323-3.979c3.628,0,5.37,2.973,5.37,8.114V50.716h8.873V31.484c0-10.143-5.152-14.156-10.966-14.156a11.837,11.837,0,0,0-6.443,1.771,13.8,13.8,0,0,0-4.135,4.07h-.132a9.309,9.309,0,0,0-9-5.839,10.275,10.275,0,0,0-9.51,5.173h-.132V18.067h-8.422" transform="translate(0 8.465)" fill="#007cc2"/>
</svg>
