<?xml version="1.0" encoding="UTF-8"?>
<svg id="Capa_1" xmlns="http://www.w3.org/2000/svg" viewBox="0 0 137 91">
  <defs>
    <style>
      .cls-1 {
        fill: none;
      }

      .cls-2 {
        fill: #c8003a;
      }

      .cls-3 {
        fill: #fff;
      }
    </style>
  </defs>
  <rect class="cls-1" width="137" height="91"/>
  <g id="Grupo_236">
    <path id="Trazado_1423" class="cls-3" d="M136.65,56.68v-3.48h-.58l-.78,1.9-.38.97h-.04l-.38-.97-.78-1.9h-.61v3.48h.42v-2.92l.02-.02.38.99.81,1.93h.34l.79-1.95.38-.99.04.02-.04,1.07v1.86h.4v.02ZM132.56,53.65v-.45h-2.6v.45h1.07v3.03h.47v-3.03h1.07Z"/>
    <path id="Trazado_1787" class="cls-3" d="M130.11,82.72c0-.96.83-1.81,2.93-1.81,1.02,0,2.04.17,3,.51l.2-.79c-1.04-.36-2.14-.55-3.25-.54-2.73,0-3.95,1.16-3.95,2.67,0,3.32,6.54,2.13,6.54,4.84,0,1.3-1.03,2.08-3.05,2.08-1.18.02-2.36-.24-3.41-.78l-.2.83c1.13.53,2.36.8,3.61.78,2.71,0,4.13-1.12,4.13-2.96,0-3.47-6.54-2.26-6.54-4.82"/>
    <path id="Trazado_1788" class="cls-3" d="M121.15,80.27h-1.12v10.08h7.37l.05-.87h-6.3v-9.21Z"/>
    <path id="Trazado_1789" class="cls-3" d="M112.96,80.27h-1.37l-4.82,10.08h1.21l1.21-2.65h6.12l1.21,2.65h1.26l-4.82-10.08ZM109.53,86.88l2.26-4.93.45-1.03h.05l.43,1.03,2.22,4.93h-5.42Z"/>
    <path id="Trazado_1790" class="cls-3" d="M103.46,87.69l.04,1.07-.04.02-.74-.92-6.36-7.6h-1.1v10.08h1.03v-7.6l-.02-1.08.04-.02.74.92,6.57,7.78h.83v-10.08h-.99v7.44Z"/>
    <path id="Trazado_1791" class="cls-3" d="M87.14,80.1c-3.68,0-5.07,1.46-5.07,5.2s1.41,5.22,5.07,5.22,5.07-1.48,5.07-5.22-1.37-5.2-5.07-5.2M87.15,89.66c-2.82,0-3.94-.98-3.94-4.37s1.12-4.35,3.92-4.35,3.92.96,3.92,4.35-1.1,4.37-3.9,4.37"/>
    <rect id="Rectángulo_127" class="cls-3" x="77.64" y="80.27" width="1.12" height="10.08"/>
    <path id="Trazado_1792" class="cls-3" d="M68.16,82.72c0-.96.83-1.81,2.93-1.81,1.02,0,2.04.17,3,.51l.2-.79c-1.04-.36-2.14-.55-3.25-.54-2.73,0-3.95,1.16-3.95,2.67,0,3.32,6.52,2.13,6.52,4.84,0,1.3-1.03,2.08-3.05,2.08-1.18.02-2.36-.24-3.41-.78l-.2.83c1.13.53,2.36.8,3.61.78,2.71,0,4.14-1.12,4.14-2.96.04-3.47-6.52-2.26-6.52-4.82"/>
    <path id="Trazado_1793" class="cls-3" d="M58.84,82.72c0-.96.83-1.81,2.93-1.81,1.02,0,2.04.17,3,.51l.2-.79c-1.04-.36-2.14-.55-3.25-.54-2.73,0-3.95,1.16-3.95,2.67,0,3.32,6.54,2.13,6.54,4.84,0,1.3-1.03,2.08-3.05,2.08-1.18.02-2.36-.24-3.41-.78l-.2.83c1.13.53,2.36.8,3.61.78,2.71,0,4.14-1.12,4.14-2.96.02-3.47-6.54-2.26-6.54-4.82"/>
    <path id="Trazado_1794" class="cls-3" d="M49.04,85.43h5.58v-.76h-5.58v-3.57h6.45l-.05-.83h-7.5v10.08h7.8l.05-.83h-6.75v-4.08Z"/>
    <path id="Trazado_1795" class="cls-3" d="M45.37,81.11l-.04-.87h-7.49v10.07h1.12v-4.77h5.4v-.81h-5.4v-3.63h6.41Z"/>
    <path id="Trazado_1796" class="cls-3" d="M29.74,80.1c-3.68,0-5.07,1.46-5.07,5.2s1.41,5.22,5.07,5.22,5.07-1.48,5.07-5.22c-.02-3.74-1.39-5.2-5.07-5.2M29.74,89.66c-2.82,0-3.94-.98-3.94-4.37s1.12-4.35,3.92-4.35,3.92.96,3.92,4.35-1.1,4.37-3.9,4.37"/>
    <path id="Trazado_1797" class="cls-3" d="M19.53,85.65c1.77-.16,2.71-1.01,2.71-2.65,0-1.84-1.17-2.73-3.74-2.73h-4.1v10.08h1.12v-4.51h2.94l3.25,4.51h1.35l-3.54-4.69ZM18.41,85.09h-2.89v-4.03h3c1.79,0,2.58.56,2.58,1.97s-.83,2.06-2.69,2.06"/>
    <path id="Trazado_1798" class="cls-3" d="M7.51,80.27H3.44v10.08h1.12v-4.08h2.93c2.93,0,4.14-.98,4.14-3.01.02-2.09-1.25-2.98-4.12-2.98M7.51,85.5h-2.93v-4.44h2.92c2.04,0,3,.6,3,2.2,0,1.7-1.01,2.24-3,2.24"/>
    <path id="Trazado_1799" class="cls-3" d="M91.2,70.81c0-4.24.04-17.64.04-17.64h-4.5l-.04,18.25s-.25,4.64,4.46,4.64h12.91s.83-1.59,1.91-3.95h-13.47c-.72,0-1.31-.58-1.32-1.3"/>
    <path id="Trazado_1800" class="cls-3" d="M84.54,76.06s.22-3.95-1.91-3.95h-11.86c-.72.02-1.32-.55-1.34-1.26,0-.01,0-.02,0-.04v-17.64h-4.5v18.25s-.25,4.64,4.46,4.64h15.15Z"/>
    <path id="Trazado_1801" class="cls-3" d="M126.77,55.47c-.58-1.33-1.87-2.21-3.32-2.26h-3.7c-1.45.06-2.74.93-3.32,2.26l-9.82,20.57h5.33l2.04-4.37h15.24l2.06,4.39h5.31l-9.81-20.58ZM115.39,68.19s3.16-7.04,4.75-10.06c.25-.58.81-.98,1.44-1.03.65-.01,1.23.4,1.45,1.01,1.61,3,4.79,10.08,4.79,10.08h-12.42Z"/>
    <path id="Trazado_1802" class="cls-2" d="M38.74,48.29c.1.17.32.23.49.13.12-.07.18-.19.18-.33-.17-2.34-1.05-4.57-2.51-6.41-1.59-1.63-3.71-2.63-5.98-2.82-2.49-.31-5.01-.36-7.51-.13-1.17.17-2.35.21-3.52.11-1.32-.25-1.3-1.52-.92-2.55.18-.49.65-1.03.67-1.55,0-.26-.08-.51-.24-.72l-.29-.34c-.2-.18-.25-.18-.16-.47.09-.28.23-.55.42-.78.2-.22.54-.25.6-.6.07-.36-.22-.51-.49-.63-.34-.15-1.19-.85-.78-1.21.51-.44.82-1.08.85-1.75.03-.56-.23-1.09-.69-1.41-.54-.38-1.25-.9-1.35-1.59-.05-.34,1.07-.92,1.34-1.1.63-.43,1.26-.85,1.88-1.3,1.28-.79,2.37-1.85,3.2-3.11.7-1.25.54-2.85.85-4.23.14-.66.36-1.29.65-1.9.66-1.08,1.52-2.03,2.53-2.8l.25-.18.04-.04.38-.23c.38-.23.81-.45,1.17-.72.45-.42.86-.9,1.19-1.43,2.04-2.55,5.26-3.34,8.45-3.27,4.82.11,8.92,3.12,12.69,5.8,4.08,3.07,8.31,5.92,12.68,8.56,2.21,1.33,4.6,2.32,7.1,2.94,2.79.59,5.67.69,8.5.27,2.34-.32,4.64-.87,6.86-1.66,1.97-.69,3.85-1.55,5.76-2.36,2.57-1.15,5.24-2.07,7.98-2.73,2.46-.65,5.06-.54,7.46.32,1.12.54,2.11,1.32,2.91,2.28.24.29.72.85.83.18.11-.74,0-1.49-.31-2.17-.91-1.98-2.59-3.5-4.66-4.19-1.9-.8-3.98-1.11-6.03-.9-4.1.4-7.96,1.97-11.75,3.45-2.78,1.08-5.54,2.38-8.5,2.85-4.53.69-9.17-.09-13.22-2.24-3.82-2.19-7.51-4.62-11.03-7.27-3.65-2.56-7.26-5.15-11.48-6.66-4.06-1.59-8.59-1.48-12.57.31-2.06.88-3.71,2.52-4.59,4.59-.09.34-.22.68-.38.99l-.25.27c-.18.11-.34.22-.42.25l-.27.16-.16.07c-.33.17-.65.38-.94.61-.6.4-1.16.87-1.66,1.39-1.39,1.65-2.33,3.63-2.71,5.76-.15.67-.27,1.34-.4,2.02-.09.7-.42,1.35-.94,1.82-1.1,1-2.29,1.88-3.56,2.65-.56.38-1.14.74-1.72,1.12-.38.19-.73.44-1.01.76-.61.96.25,2.17.9,2.82.38.36.99.69,1.05,1.25,0,.46-.21.9-.56,1.19-.16.16-.47.31-.51.54-.05.27-.04.55.02.81.19.58.6,1.06,1.14,1.35-.83.36-2.22,1.79-1.14,2.62.65.49.6.88.42,1.59-.2.71-.31,1.43-.34,2.17-.13,1.21.48,2.37,1.54,2.96,1.31.47,2.7.62,4.08.43,5.16-.24,11.02-1.61,15.37,1.99.61.51,1.16,1.08,1.64,1.72.3.41.58.84.83,1.28.19.47.41.93.65,1.37"/>
    <path id="Trazado_1803" class="cls-2" d="M93.96,34.19c-4.86,1.82-9.66,3.9-14.86,4.42-4.87.56-9.78-.5-13.99-3-3.54-2.17-6.61-5.02-9.77-7.67-1.54-1.46-3.3-2.66-5.22-3.58-1.03-.47-2.15-.7-3.29-.67-.34.02-1.5.2-1.26.81.36.29.9.25,1.32.45.41.2.8.43,1.17.69,1.4.98,2.7,2.1,3.88,3.34,1.73,1.79,3.32,3.72,5.07,5.53,1.66,1.76,3.45,3.4,5.35,4.91,1.48,1.16,3.12,2.09,4.88,2.76,2.3.79,4.7,1.27,7.13,1.43,5.92.49,11.65-.97,17.13-3.07,5-1.9,9.9-4.15,15.24-5.04,3.72-.61,7.87-.51,11.05,1.75.99.67,1.79,1.6,2.31,2.67l.2.36c.32.43.58-.63.63-.85.23-1.18.06-2.41-.47-3.49-.84-1.42-2.1-2.55-3.61-3.23-1.95-.94-4.06-1.48-6.22-1.59-5.71-.61-11.39,1.08-16.68,3.05"/>
    <path id="Trazado_1804" class="cls-2" d="M102.9,21c-4.5.54-8.52,2.65-12.71,4.24-2.53.99-5.14,1.76-7.8,2.31-2.76.64-5.6.79-8.41.45-2.15-.36-4.22-1.05-6.16-2.04-1.78-.82-3.51-1.75-5.18-2.78-3.5-2.31-6.84-4.84-10.02-7.57-3.23-2.67-7.1-5.4-11.54-4.91-1.03.1-2.03.4-2.94.9-.32.2-1.7.96-1.48,1.44.14.34.67.25.96.2.58-.09,1.14-.18,1.72-.24,1.04-.07,2.08.03,3.09.3,2.69.7,5.17,2.08,7.18,4,1.61,1.37,3.11,2.87,4.59,4.37,3.2,3.22,6.43,6.74,10.56,8.81,5.02,2.52,10.72,3.39,16.27,2.46,5.01-.86,9.87-2.44,14.43-4.71,2.6-1.39,5.4-2.4,8.29-3,4.25-1.17,8.8.14,11.77,3.4.16.16.42.47.67.43.31-.05.25-.69.25-.88.02-.82-.13-1.64-.45-2.4-.92-1.75-2.49-3.08-4.37-3.7-2.76-1.08-5.76-1.46-8.7-1.08"/>
    <path id="Trazado_1805" class="cls-3" d="M44.02,75.99h18.06s.16-3.88-1.97-3.99c-3.86,0-12.35.02-15.28.02-.69.07-1.3-.42-1.38-1.11-.01-.1,0-.2,0-.3v-4.3h13.1v-3.99h-13.11v-3.86c.01-.69.58-1.24,1.27-1.23.03,0,.07,0,.1,0h15.24c1.64,0,1.88-3.99,1.88-3.99h-18.02c-5.29,0-5.11,4.59-5.11,4.59v13.45c.04,2.65,2.22,4.77,4.87,4.73.11,0,.22,0,.33-.02"/>
    <path id="Trazado_1806" class="cls-3" d="M26.36,69.31c-.4-1.07-3.4-9.52-4.98-13.9.04.07-.43-1.79-1.66-1.81-.38-.07-2.71-.05-2.71-.05,0,0-1.32-.2-2.08,1.9-1.61,4.39-4.64,12.77-5.04,13.85-.51-1.58-5.13-16.06-5.13-16.06H.01l7.39,22.75h4.42s5.71-14.93,6.25-16.36c.52,1.44,6.01,16.36,6.01,16.36h4.64l7.62-22.75h-4.68s-4.8,14.5-5.31,16.07"/>
    <path id="Trazado_1807" class="cls-3" d="M136.65,56.69v-3.49h-.58l-.78,1.9-.38.97h-.04l-.38-.97-.78-1.9h-.61v3.49h.41v-2.92l.02-.02.38.99.81,1.93h.34l.79-1.95.38-.99.04.02-.04,1.07v1.86h.4v.02ZM132.57,53.65v-.45h-2.6v.45h1.07v3.03h.47v-3.03h1.07Z"/>
  </g>
</svg>