<svg id="Grupo_2246" data-name="Grupo 2246" xmlns="http://www.w3.org/2000/svg" width="252.542" height="159.128" viewBox="0 0 252.542 159.128">
  <g id="Grupo_2196" data-name="Grupo 2196" transform="translate(0 0)">
    <path id="Trazado_2428" data-name="Trazado 2428" d="M100.147,0c.319.089.634.2.959.264a44.682,44.682,0,0,1,13.8,5.218A152.079,152.079,0,0,1,128.9,14.7c4.151,2.984,8.279,6,12.622,8.708a64.743,64.743,0,0,0,13.655,6.7,35.141,35.141,0,0,0,13.667,1.943,28.289,28.289,0,0,0,8.981-2.1c3.212-1.338,6.372-2.8,9.55-4.219A97.63,97.63,0,0,1,200.939,20.7a31.645,31.645,0,0,1,8.954-1.405,15.717,15.717,0,0,1,10.924,4.142,12.149,12.149,0,0,1,3.83,6.682,11.492,11.492,0,0,1,.1,1.576c-.484.3-.7.02-.921-.174q-.818-.727-1.605-1.491a12.506,12.506,0,0,0-8.9-3.6A29.508,29.508,0,0,0,205.1,27.7a99.892,99.892,0,0,0-13.844,5.25,144.549,144.549,0,0,1-14.42,5.878,43.754,43.754,0,0,1-9.966,1.984,36.132,36.132,0,0,1-15.662-2.528,61.631,61.631,0,0,1-11.108-5.8c-6.82-4.306-13.418-8.937-20.009-13.58a113.585,113.585,0,0,0-10.556-6.938,28.369,28.369,0,0,0-9.263-3.467A22.9,22.9,0,0,0,86.824,9.956a13.128,13.128,0,0,0-5.315,4.3,12.6,12.6,0,0,1-3.526,3.328A20.4,20.4,0,0,0,73.1,21.938a12.68,12.68,0,0,0-2.824,7.342c-.045.7-.132,1.4-.222,2.093a8.052,8.052,0,0,1-2.523,5,58.182,58.182,0,0,1-5.87,4.793Q59.951,42.4,58.25,43.646c-.223.163-.434.344-.67.531a3.938,3.938,0,0,0,1.331,2.017c.523.51,1.075.988,1.617,1.478a2.331,2.331,0,0,1,.694,2.608,11.956,11.956,0,0,1-1.1,2.251c-.466.786-.471,1.217.218,1.815.444.386.936.716,1.411,1.066.136.1.286.182.5.317-.391.519-.694.911-.985,1.313-.328.453-.655.908-.964,1.374a.573.573,0,0,0,.086.764,9.69,9.69,0,0,1,.778.993,1.654,1.654,0,0,1,.179,1.681c-.25.564-.5,1.127-.764,1.686a5.648,5.648,0,0,0-.642,2.506,2.316,2.316,0,0,0,2.013,2.506,13.877,13.877,0,0,0,4.2.04,89.991,89.991,0,0,1,10.941-.382,34.142,34.142,0,0,1,8.219,1.257,14.222,14.222,0,0,1,9.416,8.045,19.442,19.442,0,0,1,1.877,7.55c.005.165,0,.329,0,.476a.673.673,0,0,1-.977-.257c-.39-.616-.8-1.22-1.147-1.863a22.39,22.39,0,0,0-2.647-4,16.8,16.8,0,0,0-8.951-5.384,29.42,29.42,0,0,0-8.864-.77c-3.645.194-7.284.491-10.928.692-1.54.085-3.09.089-4.631.03a8.52,8.52,0,0,1-2.3-.448,4.959,4.959,0,0,1-3.5-4.683A13.794,13.794,0,0,1,53,65.1a15.006,15.006,0,0,1,.349-1.644,1.657,1.657,0,0,0-.383-1.639c-.234-.281-.466-.563-.7-.842a1.618,1.618,0,0,1-.144-2.1,12.812,12.812,0,0,1,1.315-1.517c.245-.262.537-.48.854-.758-.307-.321-.591-.586-.838-.883a5.318,5.318,0,0,1-.738-1.016,2.193,2.193,0,0,1,.323-2.652c.305-.33.622-.652.893-1.009a1.568,1.568,0,0,0-.051-2.342,18.739,18.739,0,0,0-1.423-1.432,5.927,5.927,0,0,1-1.744-2.734,2.255,2.255,0,0,1,1.058-2.818q4.345-2.973,8.677-5.967c.069-.048.132-.1.2-.153A7.607,7.607,0,0,0,64.01,30.2a48.93,48.93,0,0,1,1.52-6.289,16.54,16.54,0,0,1,7.7-9.747c.649-.391,1.292-.8,1.931-1.2a2.417,2.417,0,0,0,1.071-1.36c.016-.054.045-.1.061-.157,1.194-3.892,3.894-6.487,7.316-8.44A24.082,24.082,0,0,1,92.282.183,4.17,4.17,0,0,0,92.895,0Z" transform="translate(-23.67)" fill="#f41247"/>
    <path id="Trazado_2429" data-name="Trazado 2429" d="M458.761,276.647a11.937,11.937,0,0,1-.6,1.26,5.49,5.49,0,0,1-2.961,2.245,12.186,12.186,0,0,1-7.456.11c-.941-.26-1.855-.622-2.835-.955.044-.581.083-1.1.131-1.738.372.132.653.223.928.331a14,14,0,0,0,6.487,1.136,6.2,6.2,0,0,0,3.242-1.042,3.958,3.958,0,0,0,1.093-1.237,2.237,2.237,0,0,0-1.141-3.279,19.418,19.418,0,0,0-4.627-1.215,14.945,14.945,0,0,1-3.7-1.106,3.438,3.438,0,0,1-2.25-3.253,4.147,4.147,0,0,1,2.158-3.835,10.091,10.091,0,0,1,5.777-1.169,20.494,20.494,0,0,1,4.62.866c.132.039.258.095.473.175-.04.516-.081,1.031-.128,1.635-.36-.084-.627-.136-.888-.207a17.619,17.619,0,0,0-5.48-.759,6.963,6.963,0,0,0-2.783.573,4.826,4.826,0,0,0-1.256.827,2.08,2.08,0,0,0,.688,3.606,19.035,19.035,0,0,0,2.738.8c1.091.259,2.2.444,3.3.677a10.808,10.808,0,0,1,1.133.317,4.6,4.6,0,0,1,3.34,2.88Z" transform="translate(-206.219 -121.693)" fill="#f41247"/>
    <path id="Trazado_2430" data-name="Trazado 2430" d="M66.976,171.8,53.082,213.437H44.648c-.163-.4-.351-.835-.512-1.277q-5.048-13.8-10.094-27.6a2.086,2.086,0,0,0-.511-.75c-2.068,4.924-3.911,9.887-5.805,14.83-1.888,4.925-3.751,9.86-5.632,14.809H14.016L.478,171.765c2.9-.032,5.742-.011,8.611-.015l9.33,29.147.208.017c.1-.206.215-.4.292-.618q2.557-7.043,5.106-14.089,1.85-5.107,3.7-10.213a7.306,7.306,0,0,1,1.619-2.732,2.682,2.682,0,0,1,2.091-.9c1.46.045,2.922.017,4.384,0a3.253,3.253,0,0,1,3.323,2.206c.327.806.606,1.631.9,2.45q4.115,11.45,8.229,22.9c.122.341.259.677.382,1a.59.59,0,0,0,.114.012.136.136,0,0,0,.075-.033.629.629,0,0,0,.1-.135,1.125,1.125,0,0,0,.055-.158c.25-.745.5-1.49.749-2.237q4.33-13.112,8.661-26.224a1.935,1.935,0,0,1,.1-.23.785.785,0,0,1,.1-.11Z" transform="translate(-0.478 -79.508)" fill="#f41247"/>
    <path id="Trazado_2431" data-name="Trazado 2431" d="M268.952,66.428c-.342-.381-.68-.744-1-1.121a20.418,20.418,0,0,0-3.1-3.2,13.994,13.994,0,0,0-8.086-2.719,33.176,33.176,0,0,0-10.91,1.82,110.9,110.9,0,0,0-13.69,5.423,149.025,149.025,0,0,1-15.544,6.224A68.337,68.337,0,0,1,202.089,76a37.28,37.28,0,0,1-18.361-2.788,59.273,59.273,0,0,1-10.281-5.381,66.23,66.23,0,0,1-7.735-6.233c-2.948-2.728-5.831-5.525-8.751-8.283-2.837-2.68-5.621-5.422-8.709-7.822a29.184,29.184,0,0,0-8.964-4.916,18.224,18.224,0,0,0-9.056-.634c-.8.148-1.614.186-2.423.259a2.207,2.207,0,0,1-.492-.066c-.307-.556-.046-.924.329-1.267a12.132,12.132,0,0,1,4.749-2.632,17.278,17.278,0,0,1,10.758.411,29.435,29.435,0,0,1,8.279,4.444c3.143,2.36,6.206,4.827,9.288,7.268a132.236,132.236,0,0,0,17.77,12.181A54.586,54.586,0,0,0,190.3,65.6a39.964,39.964,0,0,0,13.5,1.44,40.505,40.505,0,0,0,9.123-1.923,153.245,153.245,0,0,0,16.17-6.25c3.372-1.466,6.722-2.976,10.211-4.161a57.858,57.858,0,0,1,11.35-2.756,20.713,20.713,0,0,1,9.155.811,13.541,13.541,0,0,1,9.164,9.446,19.117,19.117,0,0,1,.575,2.712,1.273,1.273,0,0,1-.6,1.507" transform="translate(-59.133 -16.461)" fill="#f41247"/>
    <path id="Trazado_2432" data-name="Trazado 2432" d="M156.959,78.977A1.173,1.173,0,0,1,158,78.039a9.679,9.679,0,0,1,4.424.085,21.41,21.41,0,0,1,7.365,3.613,87.163,87.163,0,0,1,8.293,7.019,94.425,94.425,0,0,0,9.662,8.133,43.572,43.572,0,0,0,16.5,7.354,44.46,44.46,0,0,0,10.391.792,58.063,58.063,0,0,0,16.694-3.358c5.459-1.846,10.73-4.156,16.018-6.422a120.322,120.322,0,0,1,13.887-5.145,50.735,50.735,0,0,1,10.818-2.044,18.583,18.583,0,0,1,10.973,2.241,14.367,14.367,0,0,1,6.993,10.5,12.778,12.778,0,0,1,.153,1.589,1.61,1.61,0,0,1-.128.727c-.291.621-.72.642-1.128.089-.651-.879-1.26-1.794-1.967-2.626a12.928,12.928,0,0,0-7.843-4.4,25.412,25.412,0,0,0-9.864.406,72.447,72.447,0,0,0-13.9,4.811c-4.809,2.1-9.587,4.285-14.422,6.327a81.1,81.1,0,0,1-16.463,5.088,58.427,58.427,0,0,1-19.442.426,32.516,32.516,0,0,1-10.641-3.576,64.371,64.371,0,0,1-13.093-9.432c-3.312-2.965-6.349-6.2-9.394-9.433a73.585,73.585,0,0,0-9.918-9.23,13.506,13.506,0,0,0-3.523-1.945c-.5-.172-.965-.423-1.482-.655" transform="translate(-72.919 -36.027)" fill="#f41247"/>
    <path id="Trazado_2433" data-name="Trazado 2433" d="M174.638,213.638h-3.084q-14.8,0-29.595-.012a15.3,15.3,0,0,1-2.929-.276,8.177,8.177,0,0,1-6.718-6.613,11.464,11.464,0,0,1-.3-2.667q-.034-11.676,0-23.351a10.76,10.76,0,0,1,.359-2.743,7.527,7.527,0,0,1,5.687-5.632,14.247,14.247,0,0,1,3.675-.4q15.894,0,31.787.014c.248,0,.5.026.806.044a10.555,10.555,0,0,1-.228,2.086,12.212,12.212,0,0,1-.968,3.3,2.827,2.827,0,0,1-2.845,1.8c-9.022-.031-18.043-.012-27.065-.017a2.812,2.812,0,0,0-1.691.391,2,2,0,0,0-1.006,1.658c-.012,2.359,0,4.719,0,7.079a1.323,1.323,0,0,0,.076.254c.345.018.725.056,1.105.056q10.751.006,21.5,0h1.215v7.144c-1.256.031-2.483.083-3.711.086q-9.527.022-19.055.023h-1.1a3.876,3.876,0,0,0-.073.5c.01,2.556.015,5.112.04,7.668a2.193,2.193,0,0,0,2.445,2.365c2.023.019,4.047.021,6.07.02q10.708,0,21.417-.014a5.572,5.572,0,0,1,1.008.052,2.811,2.811,0,0,1,1.937,1.361,8.553,8.553,0,0,1,1.133,3.669c.073.663.071,1.335.11,2.152" transform="translate(-61.362 -79.599)" fill="#f41247"/>
    <path id="Trazado_2434" data-name="Trazado 2434" d="M418.7,213.421c-.346.029-.561.062-.777.062-2.67,0-5.34-.015-8.009.016a1.01,1.01,0,0,1-1.072-.707c-.984-2.142-2.008-4.265-3.027-6.392-.156-.325-.361-.626-.543-.936H377.362c-.382.835-.761,1.675-1.15,2.51-.772,1.654-1.559,3.3-2.316,4.96a.791.791,0,0,1-.823.548c-2.895-.013-5.789,0-8.684,0a1.888,1.888,0,0,1-.334-.082c.172-.4.323-.777.5-1.144q5.043-10.564,10.09-21.126c2.43-5.091,4.834-10.2,7.291-15.274a6.829,6.829,0,0,1,4.9-4.011,6.024,6.024,0,0,1,1.173-.093c2.192-.008,4.384.027,6.576-.012a6.388,6.388,0,0,1,5.926,3.483c.791,1.353,1.4,2.813,2.077,4.23q4.339,9.081,8.67,18.165,3.548,7.451,7.076,14.912c.119.251.214.514.372.895m-15.809-14.2c-.108-.266-.163-.42-.231-.568-.47-1.02-.935-2.041-1.415-3.056q-3.114-6.584-6.244-13.161a18.859,18.859,0,0,0-1.388-2.5,2.592,2.592,0,0,0-3.967-.45,5.433,5.433,0,0,0-1.076,1.483c-3,5.78-5.663,11.726-8.376,17.646a6.1,6.1,0,0,0-.2.607Z" transform="translate(-168.791 -79.502)" fill="#f41247"/>
    <path id="Trazado_2435" data-name="Trazado 2435" d="M221.393,171.853a75.15,75.15,0,0,1,8.15,0c0,.8,0,1.522,0,2.245-.026,3.679-.069,7.359-.077,11.038q-.019,8.977,0,17.953a7.144,7.144,0,0,0,.131,1.42,2.039,2.039,0,0,0,1.588,1.675,7.308,7.308,0,0,0,1.666.173c6.8.011,13.6.03,20.4-.01a3.14,3.14,0,0,1,3.215,2.076,12.431,12.431,0,0,1,.784,5.064c-.339.018-.613.045-.887.045-8.992,0-17.984-.019-26.976,0a7.665,7.665,0,0,1-6.517-3.064,8.217,8.217,0,0,1-1.482-4.917c-.042-1.516-.01-3.034-.009-4.551q.006-14.075.011-28.151v-.993" transform="translate(-102.736 -79.505)" fill="#f41247"/>
    <path id="Trazado_2436" data-name="Trazado 2436" d="M295.7,171.88h8.106v1q.006,13.951.015,27.9c0,1.1.09,2.191.059,3.285A2.373,2.373,0,0,0,306.1,206.4c.336.028.673.028,1.011.028q11.129,0,22.259,0c.466,0,.932.024,1.48.039a7.064,7.064,0,0,1-.245.716c-.929,1.921-1.877,3.832-2.792,5.758a.992.992,0,0,1-1.047.62c-7.756-.015-15.513-.005-23.268-.016a8.523,8.523,0,0,1-3.525-.72,6.806,6.806,0,0,1-3.838-4.648,12.57,12.57,0,0,1-.452-3.236c-.032-10.706-.02-21.412-.018-32.118,0-.276.025-.552.044-.945" transform="translate(-137.126 -79.569)" fill="#f41247"/>
    <path id="Trazado_2437" data-name="Trazado 2437" d="M281.551,271.847a15.8,15.8,0,0,1,.6-3.747,6.635,6.635,0,0,1,4.594-4.534,15.614,15.614,0,0,1,6.749-.419,8.486,8.486,0,0,1,2.915.77,6.658,6.658,0,0,1,3.776,4.862,14.327,14.327,0,0,1-.054,6.423,6.709,6.709,0,0,1-4.99,5.081,14.457,14.457,0,0,1-8.778-.239A6.539,6.539,0,0,1,281.992,275c-.24-1.031-.3-2.1-.441-3.155m17.082.129c-.054-.713-.084-1.245-.135-1.776a5.519,5.519,0,0,0-4.946-5.338,14.377,14.377,0,0,0-5.194.058,5.144,5.144,0,0,0-4.307,3.577,11.424,11.424,0,0,0-.147,6.153,5.115,5.115,0,0,0,3.747,3.942,12.229,12.229,0,0,0,6.893,0,5.1,5.1,0,0,0,3.768-4.126c.186-.873.233-1.776.322-2.492" transform="translate(-130.597 -121.738)" fill="#f41247"/>
    <path id="Trazado_2438" data-name="Trazado 2438" d="M92.513,262.947c.855.082,1.928.113,2.973.3a6.842,6.842,0,0,1,5.975,5.99,12.7,12.7,0,0,1-.406,6.722,6.283,6.283,0,0,1-3.988,4.053,13.946,13.946,0,0,1-9.881-.125,6.137,6.137,0,0,1-3.342-3.05,8.08,8.08,0,0,1-.878-2.881,15.7,15.7,0,0,1,.122-4.945,6.9,6.9,0,0,1,5.054-5.537,16.251,16.251,0,0,1,4.371-.528m7.322,8.823c-.1-.832-.145-1.675-.311-2.494A5.171,5.171,0,0,0,95.4,265a13.089,13.089,0,0,0-6.331.028,5.086,5.086,0,0,0-4.026,4.164,12.763,12.763,0,0,0-.161,4.591,5.479,5.479,0,0,0,4.555,4.969,11.161,11.161,0,0,0,2,.263,11.4,11.4,0,0,0,4.8-.6,4.919,4.919,0,0,0,2.822-2.613,10.359,10.359,0,0,0,.776-4.033" transform="translate(-38.602 -121.727)" fill="#f41247"/>
    <path id="Trazado_2439" data-name="Trazado 2439" d="M49.426,280.688l-1.838-.086V263.581c.3-.025.546-.062.788-.063,2.557,0,5.115-.023,7.672.007a8.544,8.544,0,0,1,3.37.638,4.4,4.4,0,0,1,2.637,4.863,4.278,4.278,0,0,1-3.244,3.686c-.424.126-.849.255-1.376.414,1.872,2.618,4.07,4.865,5.953,7.485a3.608,3.608,0,0,1-1.924.012,1.591,1.591,0,0,1-.684-.57c-1.222-1.54-2.424-3.1-3.636-4.644-.433-.553-.889-1.088-1.312-1.648a.883.883,0,0,0-.787-.378c-1.658.014-3.316,0-4.974.019-.606.005-.671.071-.672.7,0,1.826.017,3.652.027,5.478,0,.33,0,.661,0,1.112m.054-8.822c.343.015.62.038.9.038,1.851,0,3.7.006,5.553-.014a7.6,7.6,0,0,0,1.415-.155c2.407-.488,3.254-2.27,2.649-4.453a2.891,2.891,0,0,0-.832-1.215,3.107,3.107,0,0,0-1.825-.785,61.173,61.173,0,0,0-7.724-.1c-.024,0-.047.025-.144.079-.076,2.157-.122,4.356.013,6.6" transform="translate(-22.287 -121.987)" fill="#f41247"/>
    <path id="Trazado_2440" data-name="Trazado 2440" d="M344.443,280.563a1.636,1.636,0,0,1-1.757-.489q-5.2-5.459-10.46-10.869c-.839-.869-1.7-1.721-2.547-2.578-.131-.132-.277-.249-.576-.518-.024,1.372-.011,2.562-.013,3.752s0,2.36,0,3.54v7.2l-1.678.115v-17.2a11.074,11.074,0,0,1,1.531.021,1.346,1.346,0,0,1,.671.445q6.417,6.746,12.821,13.505c.075.078.168.139.367.3a28.569,28.569,0,0,0,.037-3.563c.023-1.179,0-2.36-.005-3.54s0-2.36,0-3.54,0-2.347,0-3.566h1.607Z" transform="translate(-151.827 -121.983)" fill="#f41247"/>
    <path id="Trazado_2441" data-name="Trazado 2441" d="M177.85,263.632v1.642H165.686c-.1,1.939-.108,3.8-.034,5.773h10.5c.054.5.1.892.148,1.37-.692.049-1.3.124-1.91.13-2.668.024-5.336.027-8,.042-.221,0-.443.034-.731.057v6.261c.527.04,1.075.115,1.624.117,3.37.011,6.74.005,10.11.005h.992V280.8c-4.845-.11-9.658.251-14.439-.057-.214-.733-.246-16.206-.05-17.114Z" transform="translate(-76.069 -122.044)" fill="#f41247"/>
    <path id="Trazado_2442" data-name="Trazado 2442" d="M387.76,280.565c-1.875.394-1.871.393-2.669-1.179-.42-.825-.872-1.634-1.274-2.467a.818.818,0,0,0-.826-.557q-5.516.021-11.033,0a.712.712,0,0,0-.719.451c-.505,1-1.018,2-1.554,2.986-.62,1.142-.936,1.253-2.3.843a4.221,4.221,0,0,1,.215-.6q4.3-8.008,8.591-16.015a.874.874,0,0,1,.926-.529c1.751.063,1.324-.279,2.167,1.28q4.021,7.44,8.021,14.891c.145.269.277.544.454.892m-10.2-15.613c-1.767,3.225-3.514,6.4-5.186,9.8h5.11c.814,0,1.629.02,2.443-.006a11.272,11.272,0,0,0,2.549-.109c-1.423-3.384-3.268-6.463-4.915-9.686" transform="translate(-170.333 -121.984)" fill="#f41247"/>
    <path id="Trazado_2443" data-name="Trazado 2443" d="M11.894,280.7H10.2c-.182-.657-.222-16.15-.047-17.147.258-.012.532-.037.806-.037,2.443,0,4.886-.02,7.328.006a10.749,10.749,0,0,1,3.632.612c3.923,1.443,3.882,6.272,1.8,8.371a5.614,5.614,0,0,1-3.4,1.51,41.991,41.991,0,0,1-4.276.223c-1.15.032-2.3,0-3.453.006a4.254,4.254,0,0,0-.7.134V280.7Zm.044-8.113a10.249,10.249,0,0,0,1.136.136c1.742.015,3.484.041,5.225-.005a7.672,7.672,0,0,0,2.88-.538,3.623,3.623,0,0,0-.028-6.537,7.282,7.282,0,0,0-2.8-.505c-1.882-.021-3.765-.009-5.647,0-.243,0-.485.039-.765.062Z" transform="translate(-4.906 -121.987)" fill="#f41247"/>
    <path id="Trazado_2444" data-name="Trazado 2444" d="M243.971,263.962c-.039.544-.073,1.014-.116,1.6-.357-.079-.648-.13-.93-.208a15.936,15.936,0,0,0-5.314-.731,11.291,11.291,0,0,0-2.484.388,3.252,3.252,0,0,0-2.342,2.11,1.643,1.643,0,0,0,.5,1.906,4.545,4.545,0,0,0,1.6.872c1.295.359,2.628.578,3.936.893a25.659,25.659,0,0,1,3.159.87,4.181,4.181,0,0,1,1.305,7.177,7.631,7.631,0,0,1-4.6,1.884,13.9,13.9,0,0,1-6.688-.981c-1.322-.544-1.35-.632-1.025-2.165.316.117.624.224.928.344a14.628,14.628,0,0,0,5.906,1.151,8.151,8.151,0,0,0,3.555-.914,2.856,2.856,0,0,0,1.507-1.926,2.064,2.064,0,0,0-1.2-2.642,23.511,23.511,0,0,0-3.194-1.019c-1.409-.37-2.845-.636-4.255-1a6.158,6.158,0,0,1-1.454-.654,3.469,3.469,0,0,1-1.683-4.172,4.316,4.316,0,0,1,2.323-2.84,10.474,10.474,0,0,1,5.4-1.005,18.89,18.89,0,0,1,4.781.917c.1.034.2.077.38.146" transform="translate(-107.105 -121.694)" fill="#f41247"/>
    <path id="Trazado_2445" data-name="Trazado 2445" d="M211.582,263.984c-.093.561-.175,1.05-.266,1.6-.975-.24-1.886-.491-2.81-.683a12.489,12.489,0,0,0-5.1-.082,6.767,6.767,0,0,0-1.574.573,3.221,3.221,0,0,0-.927.713,2.041,2.041,0,0,0,.669,3.461,17.416,17.416,0,0,0,2.894.86c1.09.264,2.206.418,3.294.685a11.643,11.643,0,0,1,2.065.708,4.064,4.064,0,0,1,1.707,6.2,5.589,5.589,0,0,1-2.932,2.155,12.207,12.207,0,0,1-7.46.086c-.939-.262-1.851-.617-2.808-.941.057-.636.106-1.178.163-1.809.432.181.76.321,1.09.457a12.54,12.54,0,0,0,7.409.9,7.148,7.148,0,0,0,1.807-.66,3.668,3.668,0,0,0,1.1-.9,2.3,2.3,0,0,0-.843-3.82,19.221,19.221,0,0,0-2.974-.895c-1.089-.269-2.212-.4-3.291-.7a11.347,11.347,0,0,1-2.413-.962,3.413,3.413,0,0,1-1.728-4.283,4.3,4.3,0,0,1,2.171-2.669,9.657,9.657,0,0,1,4.039-1.074,17.753,17.753,0,0,1,6.725,1.081" transform="translate(-92.071 -121.697)" fill="#f41247"/>
    <path id="Trazado_2446" data-name="Trazado 2446" d="M130.412,271.168h10.314c-.046.592-.083,1.078-.127,1.646H130.446c-.226,2.619-.024,5.169-.133,7.758h-1.747V263.64c.59-.177,12.489-.245,13.906-.077a3.593,3.593,0,0,1,.077,1.693H130.493c-.156,1.97-.1,3.86-.082,5.912" transform="translate(-59.775 -121.968)" fill="#f41247"/>
    <path id="Trazado_2447" data-name="Trazado 2447" d="M427.2,278.891v1.757a112.1,112.1,0,0,1-13.724-.023v-17h1.792v15.261Z" transform="translate(-191.67 -122.044)" fill="#f41247"/>
    <path id="Trazado_2448" data-name="Trazado 2448" d="M268.94,280.675h-1.828V263.533l1.712-.077c.214,5.747.062,11.427.117,17.219" transform="translate(-123.912 -121.963)" fill="#f41247"/>
  </g>
</svg>
