<svg xmlns="http://www.w3.org/2000/svg" xmlns:xlink="http://www.w3.org/1999/xlink" width="683" height="443" viewBox="0 0 683 443">
  <defs>
    <filter id="Trazado_127" x="0" y="388.47" width="692.83" height="35.081" filterUnits="userSpaceOnUse">
      <feOffset dx="5" dy="3" input="SourceAlpha"/>
      <feGaussianBlur stdDeviation="1.5" result="blur"/>
      <feFlood flood-opacity="0.161"/>
      <feComposite operator="in" in2="blur"/>
      <feComposite in="SourceGraphic"/>
    </filter>
    <clipPath id="clip-path">
      <rect id="Rectángulo_73" data-name="Rectángulo 73" width="550.349" height="6.29" transform="translate(251.468 397.905)" fill="none"/>
    </clipPath>
    <clipPath id="clip-path-2">
      <rect id="Rectángulo_74" data-name="Rectángulo 74" width="203.901" height="57.295" transform="translate(428.921 224.114)" fill="none"/>
    </clipPath>
    <clipPath id="clip-path-3">
      <rect id="Rectángulo_75" data-name="Rectángulo 75" width="203.901" height="57.296" transform="translate(415.091 301.166)" fill="none"/>
    </clipPath>
    <clipPath id="clip-path-4">
      <rect id="Rectángulo_76" data-name="Rectángulo 76" width="69.375" height="78.244" transform="translate(695.731 321.708)" fill="none"/>
    </clipPath>
    <clipPath id="clip-path-5">
      <rect id="Rectángulo_77" data-name="Rectángulo 77" width="37.16" height="46.071" transform="translate(400.867 355.739)" fill="none"/>
    </clipPath>
    <clipPath id="clip-path-6">
      <rect id="Rectángulo_80" data-name="Rectángulo 80" width="108.191" height="4.303" transform="translate(715.084 422.437)" fill="none"/>
    </clipPath>
    <clipPath id="clip-path-7">
      <rect id="Rectángulo_81" data-name="Rectángulo 81" width="108.19" height="4.303" transform="translate(265.725 421.208)" fill="none"/>
    </clipPath>
    <clipPath id="clip-path-8">
      <rect id="Rectángulo_82" data-name="Rectángulo 82" width="244.392" height="4.272" transform="translate(332.114 439.066)" fill="none"/>
    </clipPath>
    <clipPath id="clip-path-9">
      <rect id="Rectángulo_83" data-name="Rectángulo 83" width="69.375" height="78.243" transform="translate(285.097 323.581)" fill="none"/>
    </clipPath>
    <clipPath id="clip-Mesa_de_trabajo_2">
      <rect width="683" height="443"/>
    </clipPath>
  </defs>
  <g id="Mesa_de_trabajo_2" data-name="Mesa de trabajo – 2" clip-path="url(#clip-Mesa_de_trabajo_2)">
    <rect width="683" height="443" fill="#fff"/>
    <g id="Grupo_119" data-name="Grupo 119" transform="translate(-618.337 -192)">
      <g transform="matrix(1, 0, 0, 1, 618.34, 192)" filter="url(#Trazado_127)">
        <path id="Trazado_127-2" data-name="Trazado 127" d="M861.746,416.051H204.5a13.04,13.04,0,0,1,0-26.081H861.746a13.04,13.04,0,1,1,0,26.081" transform="translate(-191.46)" fill="#fff" opacity="0.635"/>
      </g>
      <g id="Grupo_60" data-name="Grupo 60" transform="translate(426.88 192)" opacity="0.2">
        <g id="Grupo_59" data-name="Grupo 59">
          <g id="Grupo_58" data-name="Grupo 58" clip-path="url(#clip-path)">
            <path id="Trazado_128" data-name="Trazado 128" d="M798.672,404.2H254.613a3.145,3.145,0,1,1,0-6.29H798.672a3.145,3.145,0,1,1,0,6.29"/>
          </g>
        </g>
      </g>
      <path id="Unión_2" data-name="Unión 2" d="M-8397.5-2530.208h-48.387l8.731,58.19-11.81.3-58.688-391.1a1.04,1.04,0,0,1,1.028-1.189h9.754a1.041,1.041,0,0,1,1.029.886l3.28,21.86h48.386l-3.234-21.557a1.038,1.038,0,0,1,1.027-1.189h9.755a1.039,1.039,0,0,1,1.027.886l58.688,391.1-11.81.3Zm-1.661-11.064-6.088-40.572h-48.387l6.089,40.572Zm-7.748-51.637-6.088-40.57h-48.387l6.088,40.57Zm-7.749-51.637-6.088-40.57h-48.386l6.088,40.57Zm-7.748-51.635-5.35-35.655h-48.387l5.351,35.655Zm-7.011-46.719-6.088-40.57h-48.386l6.088,40.57Zm-7.748-51.637-5.35-35.653H-8490.9l5.35,35.653Z" transform="translate(9222.997 3063.991)" fill="none" stroke="#cacaca" stroke-miterlimit="10" stroke-width="1" opacity="0.342"/>
      <path id="Unión_1" data-name="Unión 1" d="M-8447.422-2472.018l8.731-58.189h-48.386l-8.777,58.492-11.81-.3,58.687-391.094a1.039,1.039,0,0,1,1.029-.888h9.753a1.041,1.041,0,0,1,1.029,1.191l-3.234,21.554h48.386l3.28-21.858a1.038,1.038,0,0,1,1.026-.888h9.756a1.039,1.039,0,0,1,1.027,1.191l-58.687,391.094Zm10.392-69.253,6.089-40.572h-48.386l-6.089,40.572Zm7.749-51.638,6.089-40.57h-48.387l-6.088,40.57Zm7.749-51.634,6.088-40.572h-48.386l-6.088,40.572Zm7.748-51.636,5.351-35.655h-48.386l-5.351,35.655Zm7.011-46.719,6.089-40.572h-48.386l-6.089,40.572Zm7.749-51.636,5.351-35.655h-48.386l-5.351,35.655Z" transform="translate(9163.984 3063.991)" fill="none" stroke="#c9caca" stroke-miterlimit="10" stroke-width="1"/>
      <path id="Trazado_147" data-name="Trazado 147" d="M359.616,9.85h-71.24a2.968,2.968,0,0,1-2.9-3.592l.755-3.914A2.967,2.967,0,0,1,289.132,0h71.239a2.969,2.969,0,0,1,2.9,3.592l-.755,3.914a2.969,2.969,0,0,1-2.9,2.344" transform="translate(426.88 192)" fill="#fff"/>
      <path id="Trazado_148" data-name="Trazado 148" d="M664.36,354.308l-2.588-12.51-.994-4.807-1.023-4.942-5.82-28.129a3.453,3.453,0,0,0-3.382-2.754h-15.7l-2.911-19.757h15.2a3.454,3.454,0,0,0,3.382-4.153l-2.589-12.511-.995-4.807L645.925,255l-5.82-28.129a3.453,3.453,0,0,0-3.382-2.754H623.5l-1.616-10.967a1.04,1.04,0,0,0-1.028-.887H611.1a1.039,1.039,0,0,0-1.028,1.19l1.572,10.664H479.274l-1.616-10.967a1.039,1.039,0,0,0-1.028-.887h-9.754a1.039,1.039,0,0,0-1.028,1.19l1.572,10.664H450.157a3.454,3.454,0,0,0-3.382,4.154l5.354,25.878,2.014,9.732,3.057,14.778a3.454,3.454,0,0,0,3.383,2.754h15.281l2.911,19.757H463.987a3.454,3.454,0,0,0-3.382,4.153l5.354,25.878,2.014,9.733,3.057,14.778a3.455,3.455,0,0,0,3.382,2.754h12.807l5.983,40.6a1.04,1.04,0,0,0,1.028.888h9.754a1.04,1.04,0,0,0,1.028-1.191l-5.939-40.3H631.446l5.983,40.6a1.039,1.039,0,0,0,1.028.888h9.754a1.04,1.04,0,0,0,1.028-1.191l-5.939-40.3h17.679a3.453,3.453,0,0,0,3.381-4.154M623,301.166H490.629l-2.911-19.757H620.09Z" transform="translate(426.88 192)" fill="#4d4d4d"/>
      <path id="Trazado_149" data-name="Trazado 149" d="M575.54,399.952h9.754a1.039,1.039,0,0,0,1.028-.887L613.676,213.45a1.04,1.04,0,0,0-1.028-1.191h-9.754a1.039,1.039,0,0,0-1.028.888L574.512,398.762a1.039,1.039,0,0,0,1.028,1.19" transform="translate(426.88 192)" fill="#cacaca"/>
      <path id="Trazado_150" data-name="Trazado 150" d="M431.314,399.952h9.754a1.039,1.039,0,0,0,1.028-.887L469.45,213.45a1.04,1.04,0,0,0-1.028-1.191h-9.754a1.039,1.039,0,0,0-1.028.888L430.286,398.762a1.039,1.039,0,0,0,1.028,1.19" transform="translate(426.88 192)" fill="#cacaca"/>
      <path id="Trazado_151" data-name="Trazado 151" d="M432.376,281.409H618.942a3.453,3.453,0,0,0,3.382-2.754l10.425-50.388a3.453,3.453,0,0,0-3.382-4.153H442.8a3.453,3.453,0,0,0-3.382,2.753l-10.425,50.389a3.454,3.454,0,0,0,3.382,4.153" transform="translate(426.88 192)" fill="#f0f0f0"/>
      <path id="Trazado_152" data-name="Trazado 152" d="M457.767,224.114l35.174,57.295h19.678l-35.174-57.295Z" transform="translate(426.88 192)" fill="#ec2d44"/>
      <path id="Trazado_153" data-name="Trazado 153" d="M432.577,259.938l13.181,21.471h13.909l-23.584-38.417Z" transform="translate(426.88 192)" fill="#ec2d44"/>
      <path id="Trazado_154" data-name="Trazado 154" d="M513.008,224.114l35.174,57.295h13.909l-35.174-57.295Z" transform="translate(426.88 192)" fill="#ec2d44"/>
      <path id="Trazado_155" data-name="Trazado 155" d="M553.735,224.114l35.174,57.295h13.909l-35.174-57.295Z" transform="translate(426.88 192)" fill="#ec2d44"/>
      <path id="Trazado_156" data-name="Trazado 156" d="M608.959,224.114H595.05l28.839,46.977,3.506-16.946Z" transform="translate(426.88 192)" fill="#ec2d44"/>
      <path id="Trazado_157" data-name="Trazado 157" d="M418.546,358.462H605.112a3.453,3.453,0,0,0,3.382-2.754L618.92,305.32a3.454,3.454,0,0,0-3.382-4.154H428.971a3.454,3.454,0,0,0-3.382,2.754l-10.425,50.389a3.454,3.454,0,0,0,3.382,4.153" transform="translate(426.88 192)" fill="#f0f0f0"/>
      <path id="Trazado_158" data-name="Trazado 158" d="M443.938,301.166l35.174,57.3h19.678l-35.174-57.3Z" transform="translate(426.88 192)" fill="#ec2d44"/>
      <path id="Trazado_159" data-name="Trazado 159" d="M418.747,336.991l13.181,21.471h13.909l-23.584-38.417Z" transform="translate(426.88 192)" fill="#ec2d44"/>
      <path id="Trazado_160" data-name="Trazado 160" d="M499.178,301.166l35.174,57.3h13.909l-35.174-57.3Z" transform="translate(426.88 192)" fill="#ec2d44"/>
      <path id="Trazado_161" data-name="Trazado 161" d="M539.905,301.166l35.174,57.3h13.91l-35.175-57.3Z" transform="translate(426.88 192)" fill="#ec2d44"/>
      <path id="Trazado_162" data-name="Trazado 162" d="M595.129,301.166H581.22l28.839,46.977,3.506-16.946Z" transform="translate(426.88 192)" fill="#ec2d44"/>
      <g id="Grupo_63" data-name="Grupo 63" transform="translate(426.88 192)" opacity="0.1">
        <g id="Grupo_62" data-name="Grupo 62">
          <g id="Grupo_61" data-name="Grupo 61" clip-path="url(#clip-path-2)">
            <path id="Trazado_163" data-name="Trazado 163" d="M629.367,224.114h-7.432L613.8,263.42a3.266,3.266,0,0,1-3.2,2.6H434.164a3.241,3.241,0,0,1-2.582-1.279l-2.587,12.511a3.452,3.452,0,0,0,3.38,4.153H618.943a3.454,3.454,0,0,0,3.381-2.754l10.426-50.388a3.454,3.454,0,0,0-3.383-4.153" fill="#333"/>
          </g>
        </g>
      </g>
      <g id="Grupo_66" data-name="Grupo 66" transform="translate(426.88 192)" opacity="0.1">
        <g id="Grupo_65" data-name="Grupo 65">
          <g id="Grupo_64" data-name="Grupo 64" clip-path="url(#clip-path-3)">
            <path id="Trazado_164" data-name="Trazado 164" d="M615.538,301.166H608.1l-8.133,39.306a3.265,3.265,0,0,1-3.2,2.605H420.335a3.244,3.244,0,0,1-2.582-1.279l-2.589,12.51a3.454,3.454,0,0,0,3.382,4.154H605.113a3.455,3.455,0,0,0,3.382-2.754l10.425-50.389a3.454,3.454,0,0,0-3.382-4.153" fill="#333"/>
          </g>
        </g>
      </g>
      <path id="Trazado_165" data-name="Trazado 165" d="M439.989,313.021h9.879a3.952,3.952,0,0,0,0-7.9h-9.879a3.952,3.952,0,0,0,0,7.9" transform="translate(426.88 192)" fill="#fff"/>
      <path id="Trazado_166" data-name="Trazado 166" d="M582.9,335.412h6.586a2.634,2.634,0,0,0,0-5.269H582.9a2.634,2.634,0,0,0,0,5.269" transform="translate(426.88 192)" fill="#fff"/>
      <path id="Trazado_167" data-name="Trazado 167" d="M481.479,235.968h9.879a3.951,3.951,0,0,0,0-7.9h-9.879a3.951,3.951,0,0,0,0,7.9" transform="translate(426.88 192)" fill="#fff"/>
      <path id="Trazado_168" data-name="Trazado 168" d="M457.771,261.652h11.854a3.952,3.952,0,1,0,0-7.9H457.771a3.952,3.952,0,0,0,0,7.9" transform="translate(426.88 192)" fill="#fff"/>
      <path id="Trazado_169" data-name="Trazado 169" d="M594.095,239.919h11.854a3.951,3.951,0,1,0,0-7.9H594.095a3.951,3.951,0,1,0,0,7.9" transform="translate(426.88 192)" fill="#fff"/>
      <path id="Unión_3" data-name="Unión 3" d="M-8428.607-2471.756a1.017,1.017,0,0,1-1.091-.927V-2699.44a8.588,8.588,0,0,1-.754-.671l-74.736-74.737a8.382,8.382,0,0,1-2.475-5.97,8.391,8.391,0,0,1,2.475-5.972l74.736-74.739a8.383,8.383,0,0,1,5.97-2.473,8.386,8.386,0,0,1,5.97,2.473l74.736,74.739a8.385,8.385,0,0,1,2.473,5.972,8.376,8.376,0,0,1-2.473,5.97l-74.736,74.737a8.567,8.567,0,0,1-.753.67v226.759a1.017,1.017,0,0,1-1.09.927Zm-.86-377.758-62.387,62.387a7.055,7.055,0,0,0,0,9.967l62.387,62.387a7,7,0,0,0,4.985,2.065,6.993,6.993,0,0,0,4.983-2.065l62.387-62.387a7.055,7.055,0,0,0,0-9.967l-62.387-62.387a6.993,6.993,0,0,0-4.983-2.065A7,7,0,0,0-8429.468-2849.513Z" transform="translate(9533.4 3063.707)" fill="none" stroke="#f3f3f3" stroke-miterlimit="10" stroke-width="1"/>
      <path id="Trazado_173" data-name="Trazado 173" d="M731.86,322.575a1.29,1.29,0,0,0-2.434-.01l-9.064,25.418h20.317Z" transform="translate(426.88 192)" fill="#ec2d44"/>
      <path id="Trazado_174" data-name="Trazado 174" d="M757.122,395.352,749.7,373.968H711.1l-7.621,21.374a1.29,1.29,0,0,0,1.215,1.723H755.9a1.29,1.29,0,0,0,1.219-1.713" transform="translate(426.88 192)" fill="#ec2d44"/>
      <path id="Trazado_175" data-name="Trazado 175" d="M740.679,347.983H720.362L711.1,373.968h38.6Z" transform="translate(426.88 192)" fill="#f0f0f0"/>
      <path id="Trazado_176" data-name="Trazado 176" d="M697.424,399.952h65.99a1.693,1.693,0,0,0,1.693-1.692V394.4a1.693,1.693,0,0,0-1.693-1.692h-65.99a1.692,1.692,0,0,0-1.692,1.692v3.862a1.692,1.692,0,0,0,1.692,1.692" transform="translate(426.88 192)" fill="#ec2d44"/>
      <g id="Grupo_69" data-name="Grupo 69" transform="translate(426.982 192)" opacity="0.1">
        <g id="Grupo_68" data-name="Grupo 68">
          <g id="Grupo_67" data-name="Grupo 67" clip-path="url(#clip-path-4)">
            <path id="Trazado_177" data-name="Trazado 177" d="M763.552,392.734h-7.307l-6.492-18.767-8.987-25.984-8.789-25.408a1.284,1.284,0,0,0-2.425-.01l-1.176,3.309,20.38,62.529h-42.6l-1.539,4.331h-7.332a1.558,1.558,0,0,0-1.555,1.56v4.1a1.558,1.558,0,0,0,1.555,1.56h66.266a1.558,1.558,0,0,0,1.554-1.56v-4.1a1.557,1.557,0,0,0-1.554-1.56" fill="#333"/>
          </g>
        </g>
      </g>
      <path id="Trazado_178" data-name="Trazado 178" d="M730.653,350.87h2.887a2.165,2.165,0,0,0,0-4.331h-2.887a2.165,2.165,0,1,0,0,4.331" transform="translate(426.88 192)" fill="#fff"/>
      <path id="Trazado_179" data-name="Trazado 179" d="M724.157,373.968h-5.774a1.443,1.443,0,1,1,0-2.887h5.774a1.443,1.443,0,1,1,0,2.887" transform="translate(426.88 192)" fill="#fff"/>
      <path id="Trazado_180" data-name="Trazado 180" d="M737.871,386.96H742.2a2.165,2.165,0,0,0,0-4.331h-4.331a2.165,2.165,0,0,0,0,4.331" transform="translate(426.88 192)" fill="#fdcf76"/>
      <path id="Trazado_181" data-name="Trazado 181" d="M728.488,340.765h-1.444a1.444,1.444,0,0,1,0-2.887h1.444a1.444,1.444,0,1,1,0,2.887" transform="translate(426.88 192)" fill="#fdcf76"/>
      <path id="Trazado_182" data-name="Trazado 182" d="M409.05,399.333l2.181,1.935a2.153,2.153,0,0,0,2.18.408l2.6-.967c9.323-3.47,15.993-11.076,17.764-20.26L438,358.557a1.883,1.883,0,0,0-1.1-2.028l-3.639-1.737a46.984,46.984,0,0,0-11.32-3.724l-.032-.006a46.7,46.7,0,0,0-11.386-.776l-4.705.257a1.886,1.886,0,0,0-1.8,1.474l-4.179,21.664c-1.794,9.3,1.677,18.959,9.219,25.652" transform="translate(426.88 192)" fill="#1a1a1a"/>
      <path id="Trazado_183" data-name="Trazado 183" d="M418.67,367.2l-.037-.006a2.2,2.2,0,0,1-1.739-2.571l27.682-143.5a2.192,2.192,0,0,1,2.57-1.738l.037.006a2.193,2.193,0,0,1,1.738,2.57L421.24,365.46a2.193,2.193,0,0,1-2.57,1.739" transform="translate(426.88 192)" fill="#cacaca"/>
      <path id="Trazado_184" data-name="Trazado 184" d="M418.514,369.078h0a3.111,3.111,0,0,1-2.465-3.644l8.044-41.706a.664.664,0,0,1,.778-.525l4.806.927a.663.663,0,0,1,.526.777l-8.045,41.7a3.111,3.111,0,0,1-3.644,2.466" transform="translate(426.88 192)" fill="#333"/>
      <g id="Grupo_72" data-name="Grupo 72" transform="translate(426.88 192)" opacity="0.1">
        <g id="Grupo_71" data-name="Grupo 71">
          <g id="Grupo_70" data-name="Grupo 70" clip-path="url(#clip-path-5)">
            <path id="Trazado_185" data-name="Trazado 185" d="M436.892,356.528l-1.655-.789-3.81,19.752c-1.772,9.184-8.441,16.791-17.764,20.26l-2.6.967a2.153,2.153,0,0,1-2.18-.408l-2.181-1.935a29.551,29.551,0,0,1-5.837-7.143,28.95,28.95,0,0,0,8.184,12.1l2.18,1.935a2.155,2.155,0,0,0,2.181.408l2.6-.967c9.324-3.469,15.993-11.075,17.765-20.26L438,358.557a1.884,1.884,0,0,0-1.105-2.029"/>
          </g>
        </g>
      </g>
      <rect id="Rectángulo_78" data-name="Rectángulo 78" width="9.158" height="5.037" transform="translate(870.387 417.326) rotate(-79.083)" fill="#1a1a1a"/>
      <path id="Trazado_186" data-name="Trazado 186" d="M441.658,200.431l-2.352,12.193a4.617,4.617,0,0,0,3.659,5.408l8.432,1.627A4.618,4.618,0,0,0,456.8,216l2.352-12.192a2.2,2.2,0,0,0-1.743-2.577l-13.179-2.543a2.2,2.2,0,0,0-2.577,1.744m6.915,14.69-1.3-.251a4.617,4.617,0,0,1-3.659-5.408l1.284-6.654,10.366,2-1.284,6.654a4.617,4.617,0,0,1-5.408,3.659" transform="translate(426.88 192)" fill="#1a1a1a"/>
      <rect id="Rectángulo_79" data-name="Rectángulo 79" width="4.782" height="7.39" transform="matrix(0.189, -0.982, 0.982, 0.189, 873.233, 395.629)" fill="#333"/>
      <g id="Grupo_75" data-name="Grupo 75" transform="translate(426.88 192)" opacity="0.2">
        <g id="Grupo_74" data-name="Grupo 74">
          <g id="Grupo_73" data-name="Grupo 73" clip-path="url(#clip-path-6)">
            <path id="Trazado_187" data-name="Trazado 187" d="M717.236,426.74H821.124a2.151,2.151,0,0,0,0-4.3H717.236a2.151,2.151,0,1,0,0,4.3"/>
          </g>
        </g>
      </g>
      <g id="Grupo_78" data-name="Grupo 78" transform="translate(426.88 192)" opacity="0.2">
        <g id="Grupo_77" data-name="Grupo 77">
          <g id="Grupo_76" data-name="Grupo 76" clip-path="url(#clip-path-7)">
            <path id="Trazado_188" data-name="Trazado 188" d="M267.876,425.511H371.764a2.151,2.151,0,0,0,0-4.3H267.876a2.151,2.151,0,0,0,0,4.3"/>
          </g>
        </g>
      </g>
      <g id="Grupo_81" data-name="Grupo 81" transform="translate(426.88 192)" opacity="0.2">
        <g id="Grupo_80" data-name="Grupo 80">
          <g id="Grupo_79" data-name="Grupo 79" clip-path="url(#clip-path-8)">
            <path id="Trazado_189" data-name="Trazado 189" d="M334.25,443.338H574.37a2.136,2.136,0,0,0,0-4.272H334.25a2.136,2.136,0,0,0,0,4.272"/>
          </g>
        </g>
      </g>
      <path id="Trazado_190" data-name="Trazado 190" d="M321.226,324.447a1.29,1.29,0,0,0-2.434-.01l-9.063,25.418h20.316Z" transform="translate(426.88 192)" fill="#ec2d44"/>
      <path id="Trazado_191" data-name="Trazado 191" d="M346.488,397.224l-7.423-21.384h-38.6l-7.622,21.374a1.29,1.29,0,0,0,1.215,1.724h51.213a1.29,1.29,0,0,0,1.219-1.714" transform="translate(426.88 192)" fill="#ec2d44"/>
      <path id="Trazado_192" data-name="Trazado 192" d="M330.045,349.856H309.728l-9.266,25.985h38.6Z" transform="translate(426.88 192)" fill="#f0f0f0"/>
      <path id="Trazado_193" data-name="Trazado 193" d="M286.79,401.824h65.99a1.691,1.691,0,0,0,1.693-1.691v-3.862a1.693,1.693,0,0,0-1.693-1.693H286.79a1.692,1.692,0,0,0-1.692,1.693v3.862a1.69,1.69,0,0,0,1.692,1.691" transform="translate(426.88 192)" fill="#ec2d44"/>
      <g id="Grupo_84" data-name="Grupo 84" transform="translate(426.982 192)" opacity="0.1">
        <g id="Grupo_83" data-name="Grupo 83">
          <g id="Grupo_82" data-name="Grupo 82" clip-path="url(#clip-path-9)">
            <path id="Trazado_194" data-name="Trazado 194" d="M352.918,394.607h-7.307l-6.492-18.767-8.987-25.984-8.789-25.408a1.284,1.284,0,0,0-2.425-.01l-1.176,3.309,20.38,62.529h-42.6l-1.539,4.331h-7.332a1.557,1.557,0,0,0-1.554,1.56v4.1a1.558,1.558,0,0,0,1.554,1.56h66.266a1.557,1.557,0,0,0,1.554-1.56v-4.1a1.556,1.556,0,0,0-1.554-1.56" fill="#333"/>
          </g>
        </g>
      </g>
      <path id="Trazado_195" data-name="Trazado 195" d="M320.019,352.743h2.887a2.171,2.171,0,0,0,2.165-2.165h0a2.172,2.172,0,0,0-2.165-2.165h-2.887a2.172,2.172,0,0,0-2.165,2.165h0a2.171,2.171,0,0,0,2.165,2.165" transform="translate(426.88 192)" fill="#fff"/>
      <path id="Trazado_196" data-name="Trazado 196" d="M313.523,375.84h-5.774a1.443,1.443,0,1,1,0-2.887h5.774a1.443,1.443,0,1,1,0,2.887" transform="translate(426.88 192)" fill="#fff"/>
      <path id="Trazado_197" data-name="Trazado 197" d="M327.237,388.832h4.331a2.165,2.165,0,0,0,0-4.331h-4.331a2.165,2.165,0,1,0,0,4.331" transform="translate(426.88 192)" fill="#fdcf76"/>
      <path id="Trazado_198" data-name="Trazado 198" d="M317.854,342.638H316.41a1.443,1.443,0,0,1,0-2.887h1.444a1.443,1.443,0,1,1,0,2.887" transform="translate(426.88 192)" fill="#fdcf76"/>
      <path id="Trazado_199" data-name="Trazado 199" d="M683.2,102.011h-6.005a1.258,1.258,0,0,1-1.258-1.229l-1.076-46.963a1.259,1.259,0,0,1,1.258-1.287h8.156a1.259,1.259,0,0,1,1.258,1.287l-1.076,46.963a1.257,1.257,0,0,1-1.257,1.229m1.005,16.368h-8.016a1.257,1.257,0,0,1-1.257-1.258V109.1a1.257,1.257,0,0,1,1.257-1.258H684.2a1.258,1.258,0,0,1,1.258,1.258v8.019a1.258,1.258,0,0,1-1.258,1.258" transform="translate(428.722 197)" fill="#f0f0f0"/>
    </g>
  </g>
</svg>
